<?xml version="1.0" encoding="utf-8"?>
<!-- Generator: Adobe Illustrator 23.0.5, SVG Export Plug-In . SVG Version: 6.00 Build 0)  -->
<svg version="1.1" id="Layer_1" xmlns="http://www.w3.org/2000/svg" xmlns:xlink="http://www.w3.org/1999/xlink" x="0px" y="0px"
	 viewBox="0 0 211.3 248.7" style="enable-background:new 0 0 211.3 248.7;" xml:space="preserve">
<style type="text/css">
	.st0{fill:#FFFFFF;}
	.st1{fill:#F17280;}
	.st2{clip-path:url(#SVGID_2_);}
	.st3{fill:#47489C;}
	.st4{opacity:0.5;}
	.st5{opacity:0.6;fill:#25AF80;enable-background:new    ;}
	.st6{fill:#E9BC6F;}
	.st7{fill:#2F2F82;}
	.st8{fill:#EEC5B6;}
	.st9{fill:#ECEEF7;}
	.st10{fill:#C1C8E5;}
	.st11{fill:#D9D9EC;}
	.st12{fill:#91616A;}
	.st13{fill:#37354C;}
	.st14{fill:#DBA75E;}
	.st15{fill:#53A5D3;}
	.st16{opacity:0.5;fill:url(#Path_2947_1_);enable-background:new    ;}
	.st17{opacity:0.4;fill:#FFFFFF;enable-background:new    ;}
	.st18{fill:#9BA2D1;}
	.st19{fill:#8290C7;}
	.st20{fill:#D09744;}
	.st21{fill:#F7CB8C;}
	.st22{fill:#373B96;}
	.st23{fill:#5153A3;}
	.st24{fill:#E4A8B5;}
	.st25{fill:#9CAAD6;}
</style>
<g id="Group_4339" transform="translate(-111 -423)">
	<g id="Group_4332" transform="translate(-8245 -7132)">
		<g id="Group_4319" transform="translate(8944.99 7782.105)">
			<path id="Path_2924" class="st5" d="M-452.8-44.3c30.1,13.4,30.3,35,0.4,48.4c-29.9,13.4-78.6,13.4-108.7,0s-30.3-35-0.3-48.4
				S-482.9-57.6-452.8-44.3z"/>
		</g>
		<ellipse id="Ellipse_805" class="st5" cx="8519.5" cy="7720.8" rx="38.5" ry="20"/>
		<g id="Group_4322" transform="translate(9061.639 7636.815)">
			<g id="Group_4320" transform="translate(21.833 49.558)">
				<path id="Path_2925" class="st3" d="M-578.5,36.3c-2.4,0-4.5-1.8-4.8-4.2c-4.2-30.4,16.4-81.3,17.3-83.5c1-2.5,3.8-3.7,6.3-2.6
					c2.5,1,3.7,3.8,2.6,6.3c-0.2,0.5-20.6,50.6-16.7,78.4c0.4,2.6-1.5,5.1-4.1,5.5l0,0C-578,36.3-578.2,36.3-578.5,36.3z"/>
			</g>
			<path id="Path_2926" class="st7" d="M-521.6,88.1c2.4-0.5,3.2-2.6,1.3-4.6c-1.1-0.2-2.2-0.3-3.3-0.3c-0.7,0-1.5-1.2-3.3-1
				c-1.3,0.1-3.8,1.5-4.6,1.6c-5.7,0.2-5.3,2.9-4.9,3.1c1.6,1,3.2,2.1,5.1,2.2C-528.2,88.9-524.9,88.6-521.6,88.1z"/>
			<path id="Path_2927" class="st7" d="M-556.1,87.6c2.5,0.2,3.8-1.6,2.4-4.1c-1-0.5-2.1-0.9-3.2-1.1c-0.7-0.2-1.1-1.5-3-1.9
				c-1.3-0.3-4,0.5-4.8,0.3c-5.6-1.3-5.9,1.4-5.6,1.7c1.3,1.4,2.5,2.8,4.3,3.4C-562.6,86.7-559.3,87.2-556.1,87.6z"/>
			<path id="Path_2928" class="st3" d="M-543.4,17c0,0,6.3,3.1,11.6,3.3c2.8,0.2,5.5-0.1,8.1-1l1-10.2L-542,4.8L-543.4,17z"/>
			<g id="Group_4321" transform="translate(52.093 55.125)">
				<path id="Path_2929" class="st3" d="M-574.8,32.3c-2.4,0-4.5-1.8-4.8-4.2c-0.2-1.4-4.2-33.6-4.2-42.7c0-8.9,1.4-34,1.5-35.1
					c0.2-2.7,2.4-4.7,5.1-4.6c2.7,0.2,4.7,2.4,4.6,5.1l0,0c0,0.3-1.5,25.9-1.5,34.6c0,8.5,4.1,41.2,4.2,41.5
					c0.3,2.7-1.5,5.1-4.2,5.4C-574.4,32.3-574.6,32.3-574.8,32.3z"/>
			</g>
			<path id="Path_2930" class="st6" d="M-515.4-25.3c-3.6-5.3-18.6-7.4-22.2-8s-4.3,4.6-4.9,10.7l-3,21.1c0,0-3.2,7.4,1.5,9.1
				c4.7,1.7,23.8,5.1,25.7,1.7C-517.8,8.5-514.1-23.4-515.4-25.3z"/>
			<path id="Path_2931" class="st12" d="M-521.5-42.9c-1,5.2-6,8.7-11.2,7.8c-5.2-1-8.7-6-7.8-11.2c1-5.2,6-8.7,11.2-7.8l0,0
				C-524-53.2-520.6-48.2-521.5-42.9z"/>
			<path id="Path_2932" class="st12" d="M-534.7-42.3l1.5,10.3l0,0c1.6,2,4.3,2.7,6.7,1.9l1.1-0.4l-0.8-11.1L-534.7-42.3z"/>
			<path id="Path_2933" class="st12" d="M-520.5-42.4c-0.4,2-1.5,3.5-2.6,3.3s-1.6-2-1.3-4s1.5-3.5,2.6-3.3
				C-520.7-46.2-520.1-44.4-520.5-42.4z"/>
			<path id="Path_2934" class="st13" d="M-529.3-54.1c-3.9-0.7-7.8,1-9.9,4.4c1.7,1.3,3.7,2.1,5.8,2.4c0.7,0.1,7.7,0.4,7.6-0.8
				c0.1,1.5,0.4,3.1,0.9,4.5c0.3-1.5,1.6-2.6,3.1-2.6h0.3C-522.1-50.2-525.2-53.4-529.3-54.1z"/>
			<path id="Path_2935" class="st6" d="M-523.2,3c0,0,0.7,0.4,2.6,1.4c2.7,1.5,1.7,3,1.7,3s25.3-19.7,24.5-21.2
				c-0.8-1.5-27.2-17.2-28-15.6s1.2,10.2,1.2,10.2s13.5,6.8,12.3,8.3C-510.2-9.3-523.2,3-523.2,3z"/>
			<path id="Path_2936" class="st12" d="M-518.5,1.7c0,1.9-1.6,3.5-3.5,3.5c-1.9,0-3.5-1.6-3.5-3.5s1.6-3.5,3.5-3.5l0,0
				C-520-1.8-518.5-0.3-518.5,1.7z"/>
			<path id="Path_2937" class="st6" d="M-539.8-32.8c0,0-10.6,7-17.6,8s-19.2-7-19.2-7s-2.5,2.6-2.1,3.5c0.5,0.9,11,12.1,19.6,12.7
				c8.6,0.5,21.2-7.3,21.2-7.3L-539.8-32.8z"/>
			<path id="Path_2938" class="st12" d="M-573.6-28.9c-0.3,1.9-2.2,3.2-4.1,2.8c-1.9-0.3-3.2-2.2-2.8-4.1c0.3-1.9,2.2-3.2,4.1-2.8
				C-574.6-32.6-573.3-30.8-573.6-28.9L-573.6-28.9z"/>
			<path id="Path_2939" class="st10" d="M-583.8-38.6V-24c0,1.7,1.4,3.1,3.1,3.1l0,0c1.7,0,3.1-1.4,3.1-3.1v-14.6H-583.8z"/>
		</g>
		<g id="Group_4328" transform="translate(8966.133 7614.459)">
			<path id="Path_2940" class="st10" d="M-471.5,133c-0.1-0.2-0.1-0.3-0.2-0.5c-0.1-0.2-0.1-0.3-0.2-0.5c-0.1-0.2-0.1-0.3-0.2-0.5
				c-0.1-0.2-0.1-0.3-0.2-0.5c-0.1-0.2-0.1-0.3-0.2-0.5c-0.1-0.2-0.1-0.3-0.2-0.5c-0.1-0.2-0.1-0.3-0.2-0.5
				c-0.1-0.2-0.1-0.3-0.2-0.5c-0.1-0.2-0.1-0.3-0.2-0.5c-0.1-0.2-0.1-0.3-0.2-0.5c-0.1-0.2-0.1-0.3-0.2-0.5
				c-0.1-0.2-0.1-0.3-0.2-0.5c-0.1-0.2-0.1-0.3-0.2-0.5c-0.1-0.2-0.1-0.3-0.2-0.5c-0.1-0.2-0.1-0.3-0.2-0.5
				c-0.1-0.2-0.1-0.3-0.2-0.5c-0.1-0.2-0.1-0.3-0.2-0.5c-0.1-0.2-0.1-0.3-0.2-0.5c-0.1-0.2-0.1-0.3-0.2-0.5
				c-0.1-0.2-0.1-0.3-0.2-0.5c-0.1-0.2-0.1-0.3-0.2-0.5c-0.1-0.2-0.1-0.3-0.2-0.5c-0.1-0.2-0.1-0.3-0.2-0.5
				c-0.1-0.2-0.1-0.3-0.2-0.5c-0.1-0.2-0.1-0.3-0.2-0.5c-0.1-0.2-0.1-0.3-0.2-0.5c-0.1-0.2-0.1-0.3-0.2-0.5
				c-0.1-0.2-0.1-0.3-0.2-0.5c-0.1-0.2-0.1-0.3-0.2-0.5c-0.1-0.2-0.1-0.3-0.2-0.5c-0.1-0.2-0.1-0.3-0.2-0.5
				c-0.1-0.2-0.1-0.3-0.2-0.5c-0.1-0.2-0.1-0.3-0.2-0.5c-0.1-0.2-0.1-0.3-0.2-0.5c-0.1-0.2-0.1-0.3-0.2-0.5
				c-0.1-0.2-0.1-0.3-0.2-0.5c-0.1-0.2-0.1-0.3-0.2-0.5c-0.1-0.2-0.1-0.3-0.2-0.5c-0.1-0.2-0.1-0.3-0.2-0.5
				c-0.1-0.2-0.1-0.3-0.2-0.5c-0.1-0.2-0.1-0.3-0.2-0.5c-0.1-0.2-0.1-0.3-0.2-0.5c-0.1-0.2-0.1-0.3-0.2-0.5
				c-0.1-0.2-0.1-0.3-0.2-0.5c-0.1-0.2-0.1-0.3-0.2-0.5c-0.1-0.2-0.1-0.3-0.2-0.5c-0.1-0.2-0.1-0.3-0.2-0.5
				c-0.1-0.2-0.1-0.3-0.2-0.5c-0.1-0.2-0.1-0.3-0.2-0.5c-0.1-0.2-0.1-0.3-0.2-0.5c-0.1-0.2-0.1-0.3-0.2-0.5
				c-0.1-0.2-0.1-0.3-0.2-0.5c-0.1-0.2-0.1-0.3-0.2-0.5c-0.1-0.2-0.1-0.3-0.2-0.5c-0.1-0.2-0.1-0.3-0.2-0.5
				c-0.1-0.2-0.1-0.3-0.2-0.5c-0.1-0.2-0.1-0.3-0.2-0.5s-0.1-0.3-0.2-0.5c-0.1-0.2-0.1-0.3-0.2-0.5s-0.1-0.3-0.2-0.5
				c-0.1-0.2-0.1-0.3-0.2-0.5s-0.1-0.3-0.2-0.5c-0.1-0.2-0.1-0.3-0.2-0.5s-0.1-0.3-0.2-0.5c-0.1-0.2-0.1-0.3-0.2-0.5
				s-0.1-0.3-0.2-0.5c-0.1-0.2-0.1-0.3-0.2-0.5s-0.1-0.3-0.2-0.5c-0.1-0.2-0.1-0.3-0.2-0.5s-0.1-0.3-0.2-0.5
				c-0.1-0.2-0.1-0.3-0.2-0.5s-0.1-0.3-0.2-0.5c-0.1-0.2-0.1-0.3-0.2-0.5s-0.1-0.3-0.2-0.5c-0.1-0.2-0.1-0.3-0.2-0.5
				s-0.1-0.3-0.2-0.5c-0.1-0.2-0.1-0.3-0.2-0.5s-0.1-0.3-0.2-0.5c-0.1-0.2-0.1-0.3-0.2-0.5s-0.1-0.3-0.2-0.5
				c-0.1-0.2-0.1-0.3-0.2-0.5s-0.1-0.3-0.2-0.5c-0.1-0.2-0.1-0.3-0.2-0.5s-0.1-0.3-0.2-0.5c-0.1-0.2-0.1-0.3-0.2-0.5
				s-0.1-0.3-0.2-0.5c-0.1-0.2-0.1-0.3-0.2-0.5s-0.1-0.3-0.2-0.5c-0.1-0.2-0.1-0.3-0.2-0.5s-0.1-0.3-0.2-0.5
				c-0.1-0.2-0.1-0.3-0.2-0.5s-0.1-0.3-0.2-0.5c-0.1-0.2-0.1-0.3-0.2-0.5s-0.1-0.3-0.2-0.5c-0.1-0.2-0.1-0.3-0.2-0.5
				s-0.1-0.3-0.2-0.5c-0.1-0.2-0.1-0.3-0.2-0.5s-0.1-0.3-0.2-0.5c-0.1-0.2-0.1-0.3-0.2-0.5s-0.1-0.3-0.2-0.5
				c-0.1-0.2-0.1-0.3-0.2-0.5s-0.1-0.3-0.2-0.5c-0.1-0.2-0.1-0.3-0.2-0.5s-0.1-0.3-0.2-0.5c-0.1-0.2-0.1-0.3-0.2-0.5
				s-0.1-0.3-0.2-0.5c-0.1-0.2-0.1-0.3-0.2-0.5s-0.1-0.3-0.2-0.5c-0.1-0.2-0.1-0.3-0.2-0.5s-0.1-0.3-0.2-0.5
				c-0.1-0.2-0.1-0.3-0.2-0.5s-0.1-0.3-0.2-0.5c-0.1-0.2-0.1-0.3-0.2-0.5s-0.1-0.3-0.2-0.5c-0.1-0.2-0.1-0.3-0.2-0.5
				s-0.1-0.3-0.2-0.5c-0.1-0.2-0.1-0.3-0.2-0.5s-0.1-0.3-0.2-0.5c-0.1-0.2-0.1-0.3-0.2-0.5s-0.1-0.3-0.2-0.5
				c-0.1-0.2-0.1-0.3-0.2-0.5s-0.1-0.3-0.2-0.5c-0.1-0.2-0.1-0.3-0.2-0.5s-0.1-0.3-0.2-0.5c-0.1-0.2-0.1-0.3-0.2-0.5
				s-0.1-0.3-0.2-0.5c-0.1-0.2-0.1-0.3-0.2-0.5s-0.1-0.3-0.2-0.5c-0.1-0.2-0.1-0.3-0.2-0.5s-0.1-0.3-0.2-0.5
				c-0.1-0.2-0.1-0.3-0.2-0.5s-0.1-0.3-0.2-0.5c-0.1-0.2-0.1-0.3-0.2-0.5s-0.1-0.3-0.2-0.5c-0.1-0.2-0.1-0.3-0.2-0.5
				s-0.1-0.3-0.2-0.5c-0.1-0.2-0.1-0.3-0.2-0.5s-0.1-0.3-0.2-0.5c-0.1-0.2-0.1-0.3-0.2-0.5s-0.1-0.3-0.2-0.5
				c-0.1-0.2-0.1-0.3-0.2-0.5s-0.1-0.3-0.2-0.5c-0.1-0.2-0.1-0.3-0.2-0.5s-0.1-0.3-0.2-0.5c-0.1-0.2-0.1-0.3-0.2-0.5
				s-0.1-0.3-0.2-0.5c-0.1-0.2-0.1-0.3-0.2-0.5s-0.1-0.3-0.2-0.5c-0.1-0.2-0.1-0.3-0.2-0.5s-0.1-0.3-0.2-0.5
				c-0.1-0.2-0.1-0.3-0.2-0.5s-0.1-0.3-0.2-0.5c-0.1-0.2-0.1-0.3-0.2-0.5s-0.1-0.3-0.2-0.5c-0.1-0.2-0.1-0.3-0.2-0.5
				s-0.1-0.3-0.2-0.5c-0.1-0.2-0.1-0.3-0.2-0.5s-0.1-0.3-0.2-0.5c-0.1-0.2-0.1-0.3-0.2-0.5s-0.1-0.3-0.2-0.5
				c-0.1-0.2-0.1-0.3-0.2-0.5s-0.1-0.3-0.2-0.5c-0.1-0.2-0.1-0.3-0.2-0.5s-0.1-0.3-0.2-0.5c-0.1-0.2-0.1-0.3-0.2-0.5
				s-0.1-0.3-0.2-0.5c-0.1-0.2-0.1-0.3-0.2-0.5s-0.1-0.3-0.2-0.5c-0.1-0.2-0.1-0.3-0.2-0.5s-0.1-0.3-0.2-0.5
				c-0.1-0.2-0.1-0.3-0.2-0.5c0-0.1-0.1-0.2-0.1-0.3c0-0.2-0.1-0.3-0.2-0.5s-0.1-0.3-0.2-0.5c-0.1-0.2-0.1-0.3-0.2-0.5
				s-0.1-0.3-0.2-0.5c-0.1-0.2-0.1-0.3-0.2-0.5c0-0.2-0.1-0.3-0.2-0.5c-0.1-0.2-0.1-0.3-0.2-0.5c0-0.2-0.1-0.3-0.2-0.5
				c-0.1-0.2-0.1-0.3-0.2-0.5c0-0.2-0.1-0.3-0.2-0.5c-0.1-0.2-0.1-0.3-0.2-0.5c0-0.2-0.1-0.3-0.2-0.5c-0.1-0.2-0.1-0.3-0.2-0.5
				s-0.1-0.3-0.2-0.5c-0.1-0.2-0.1-0.3-0.2-0.5s-0.1-0.3-0.2-0.5c0-0.2-0.1-0.3-0.2-0.5c0-0.2-0.1-0.3-0.2-0.5
				c-0.1-0.2-0.1-0.3-0.2-0.5s-0.1-0.3-0.2-0.5c0-0.2-0.1-0.3-0.2-0.5c0-0.2-0.1-0.3-0.2-0.5c0-0.2-0.1-0.3-0.2-0.5
				c0-0.2-0.1-0.3-0.2-0.5c0-0.2-0.1-0.3-0.2-0.5c0-0.2-0.1-0.3-0.2-0.5c0-0.1-0.1-0.3-0.2-0.4c0,0,0,0,0-0.1s0-0.2,0-0.3
				s0-0.2,0-0.3s0-0.2,0-0.3s0-0.2,0-0.3s0-0.2,0-0.3s0-0.2,0-0.3s0-0.2,0-0.3s0-0.2,0-0.3s0-0.2,0-0.3s0-0.2,0-0.3s0-0.2,0-0.3
				s0-0.2,0-0.3s0-0.2,0-0.3s0-0.2,0-0.3s0-0.2,0-0.3s0-0.2,0-0.3s0-0.2,0-0.3s0-0.2,0-0.3s0-0.2,0-0.3s0-0.2,0-0.3s0-0.2,0-0.3
				s0-0.2,0-0.3s0-0.2,0-0.3s0-0.2,0-0.3s0-0.2,0-0.3s0-0.2,0-0.3s0-0.2,0-0.3s0-0.2,0-0.3s0-0.2,0-0.3s0-0.2,0-0.3s0-0.2,0-0.3
				s0-0.2,0-0.3s0-0.2,0-0.3s0-0.2,0-0.3s0-0.2,0-0.3s0-0.2,0-0.3s0-0.2,0-0.3s0-0.2,0-0.3s0-0.2,0-0.3s0-0.2,0-0.3s0-0.2,0-0.3
				s0-0.2,0-0.3s0-0.2,0-0.3s0-0.2,0-0.3s0-0.2,0-0.3s0-0.2,0-0.3s0-0.2,0-0.3s0-0.2,0-0.3s0-0.2,0-0.3s0-0.2,0-0.3s0-0.2,0-0.3
				s0-0.2,0-0.3s0-0.2,0-0.3s0-0.2,0-0.3s0-0.2,0-0.3s0-0.2,0-0.3s0-0.2,0-0.3s0-0.2,0-0.3s0-0.2,0-0.3s0-0.2,0-0.3s0-0.2,0-0.3
				s0-0.2,0-0.3s0-0.2,0-0.3s0-0.2,0-0.3s0-0.2,0-0.3s0-0.2,0-0.3s0-0.2,0-0.3s0-0.2,0-0.3s0-0.2,0-0.3s0-0.2,0-0.3s0-0.2,0-0.3
				s0-0.2,0-0.3s0-0.2,0-0.3s0-0.2,0-0.3s0-0.2,0-0.3s0-0.2,0-0.3s0-0.2,0-0.3s0-0.2,0-0.3s0-0.2,0-0.3s0-0.2,0-0.3s0-0.2,0-0.3
				s0-0.2,0-0.3s0-0.2,0-0.3s0-0.2,0-0.3s0-0.2,0-0.3s0-0.2,0-0.3s0-0.2,0-0.3s0-0.2,0-0.3s0-0.2,0-0.3s0-0.2,0-0.3s0-0.2,0-0.3
				s0-0.2,0-0.3s0-0.2,0-0.3s0-0.2,0-0.3s0-0.2,0-0.3s0-0.2,0-0.3s0-0.2,0-0.3s0-0.2,0-0.3s0-0.2,0-0.3s0,12.9,0,12.8s0-0.2,0-0.3
				s0-0.2,0-0.3s0-0.2,0-0.3s0-0.2,0-0.3s0-0.2,0-0.3s0-0.2,0-0.3s0-0.2,0-0.3s0-0.2,0-0.3s0-0.2,0-0.3s0-0.2,0-0.3s0-0.2,0-0.3
				s0-0.2,0-0.3s0-0.2,0-0.3s0-0.2,0-0.3s0-0.2,0-0.3s0-0.2,0-0.3s0-0.2,0-0.3s0-0.2,0-0.3s0-0.2,0-0.3s0-0.2,0-0.3s0-0.2,0-0.3
				s0-0.2,0-0.3s0-0.2,0-0.3s0-0.2,0-0.3s0-0.2,0-0.3s0-0.2,0-0.3s0-0.2,0-0.3s0-0.2,0-0.3s0-0.2,0-0.3c0-0.1,0-0.2,0-0.3
				s0-0.2,0-0.3s0-0.2,0-0.3s0-0.2,0-0.3s0-0.2,0-0.3s0-0.2,0-0.3s0-0.2,0-0.3s0-0.2,0-0.3s0-0.2,0-0.3s0-0.2,0-0.3s0-0.2,0-0.3
				s0-0.2,0-0.3s0-0.2,0-0.3s0-0.2,0-0.3s0-0.2,0-0.3s0-0.2,0-0.3s0-0.2,0-0.3s0-0.2,0-0.3s0-0.2,0-0.3s0-0.2,0-0.3
				c0-0.1,0-0.2,0-0.3s0-0.2,0-0.3s0-0.2,0-0.3s0-0.2,0-0.3s0-0.2,0-0.3s0-0.2,0-0.3s0-0.2,0-0.3s0-0.2,0-0.3s0-0.2,0-0.3
				s0-0.2,0-0.3s0-0.2,0-0.3s0-0.2,0-0.3s0-0.2,0-0.3s0-0.2,0-0.3s0-0.2,0-0.3s0-0.2,0-0.3s0-0.2,0-0.3s0-0.2,0-0.3s0-0.2,0-0.3
				s0-0.2,0-0.3s0-0.2,0-0.3s0-0.2,0-0.3s0-0.2,0-0.3s0-0.2,0-0.3s0-0.2,0-0.3s0-0.2,0-0.3s0-0.2,0-0.3s0-0.2,0-0.3s0-0.2,0-0.3
				s0-0.2,0-0.3s0-0.2,0-0.3s0-0.2,0-0.3s0-0.2,0-0.3s0-0.2,0-0.3s0-0.2,0-0.3s0-0.2,0-0.3s0-0.2,0-0.3s0-0.2,0-0.3s0-0.2,0-0.3
				s0-0.2,0-0.3s0-0.2,0-0.3s0-0.2,0-0.3s0-0.2,0-0.3s0-0.2,0-0.3s0-0.2,0-0.3s0-0.2,0-0.3s0-0.2,0-0.3s0-0.2,0-0.3s0-0.2,0-0.3
				c0.1-2.5-2.1-5.1-6.4-7c-8.5-3.8-22.3-3.8-30.8,0c-4.3,1.9-6.4,4.5-6.3,7c0,0.1,0,0.2,0,0.3s0,0.2,0,0.3s0,0.2,0,0.3s0,0.2,0,0.3
				s0,0.2,0,0.3s0,0.2,0,0.3s0,0.2,0,0.3s0,0.2,0,0.3s0,0.2,0,0.3s0,0.2,0,0.3s0,0.2,0,0.3s0,0.2,0,0.3s0,0.2,0,0.3s0,0.2,0,0.3
				s0,0.2,0,0.3s0,0.2,0,0.3s0,0.2,0,0.3s0,0.2,0,0.3s0,0.2,0,0.3s0,0.2,0,0.3s0,0.2,0,0.3s0,0.2,0,0.3s0,0.2,0,0.3s0,0.2,0,0.3
				s0,0.2,0,0.3s0,0.2,0,0.3s0,0.2,0,0.3s0,0.2,0,0.3s0,0.2,0,0.3s0,0.2,0,0.3s0,0.2,0,0.3s0,0.2,0,0.3s0,0.2,0,0.3s0,0.2,0,0.3
				s0,0.2,0,0.3s0,0.2,0,0.3s0,0.2,0,0.3s0,0.2,0,0.3s0,0.2,0,0.3s0,0.2,0,0.3s0,0.2,0,0.3s0,0.2,0,0.3s0,0.2,0,0.3s0,0.2,0,0.3
				s0,0.2,0,0.3s0,0.2,0,0.3s0,0.2,0,0.3s0,0.2,0,0.3s0,0.2,0,0.3c0,0.1,0,0.2,0,0.3s0,0.2,0,0.3s0,0.2,0,0.3s0,0.2,0,0.3
				s0,0.2,0,0.3s0,0.2,0,0.3s0,0.2,0,0.3s0,0.2,0,0.3s0,0.2,0,0.3s0,0.2,0,0.3s0,0.2,0,0.3s0,0.2,0,0.3s0,0.2,0,0.3s0,0.2,0,0.3
				s0,0.2,0,0.3s0,0.2,0,0.3s0,0.2,0,0.3s0,0.2,0,0.3s0,0.2,0,0.3s0,0.2,0,0.3c0,0.1,0,0.2,0,0.3s0,0.2,0,0.3s0,0.2,0,0.3
				s0,0.2,0,0.3s0,0.2,0,0.3s0,0.2,0,0.3s0,0.2,0,0.3s0,0.2,0,0.3s0,0.2,0,0.3s0,0.2,0,0.3s0,0.2,0,0.3s0,0.2,0,0.3s0,0.2,0,0.3
				s0,0.2,0,0.3s0,0.2,0,0.3s0,0.2,0,0.3s0,0.2,0,0.3s0,0.2,0,0.3s0,0.2,0,0.3s0,0.2,0,0.3s0,0.2,0,0.3s0,0.2,0,0.3s0,0.2,0,0.3
				s0,0.2,0,0.3s0,0.2,0,0.3s0,0.2,0,0.3s0,0.2,0,0.3s0,0.2,0,0.3s0,0.2,0,0.3s0-12.9,0-12.8s0,0.2,0,0.3s0,0.2,0,0.3s0,0.2,0,0.3
				s0,0.2,0,0.3s0,0.2,0,0.3s0,0.2,0,0.3s0,0.2,0,0.3s0,0.2,0,0.3s0,0.2,0,0.3s0,0.2,0,0.3s0,0.2,0,0.3s0,0.2,0,0.3s0,0.2,0,0.3
				s0,0.2,0,0.3s0,0.2,0,0.3s0,0.2,0,0.3s0,0.2,0,0.3s0,0.2,0,0.3s0,0.2,0,0.3s0,0.2,0,0.3s0,0.2,0,0.3s0,0.2,0,0.3s0,0.2,0,0.3
				s0,0.2,0,0.3s0,0.2,0,0.3s0,0.2,0,0.3s0,0.2,0,0.3s0,0.2,0,0.3s0,0.2,0,0.3s0,0.2,0,0.3s0,0.2,0,0.3s0,0.2,0,0.3s0,0.2,0,0.3
				s0,0.2,0,0.3s0,0.2,0,0.3s0,0.2,0,0.3s0,0.2,0,0.3s0,0.2,0,0.3s0,0.2,0,0.3s0,0.2,0,0.3s0,0.2,0,0.3s0,0.2,0,0.3s0,0.2,0,0.3
				s0,0.2,0,0.3s0,0.2,0,0.3s0,0.2,0,0.3s0,0.2,0,0.3s0,0.2,0,0.3s0,0.2,0,0.3s0,0.2,0,0.3s0,0.2,0,0.3s0,0.2,0,0.3s0,0.2,0,0.3
				s0,0.2,0,0.3s0,0.2,0,0.3s0,0.2,0,0.3s0,0.2,0,0.3s0,0.2,0,0.3s0,0.2,0,0.3s0,0.2,0,0.3s0,0.2,0,0.3s0,0.2,0,0.3s0,0.2,0,0.3
				s0,0.2,0,0.3s0,0.2,0,0.3s0,0.2,0,0.3s0,0.2,0,0.3s0,0.2,0,0.3s0,0.2,0,0.3s0,0.2,0,0.3s0,0.2,0,0.3s0,0.2,0,0.3s0,0.2,0,0.3
				s0,0.2,0,0.3s0,0.2,0,0.3s0,0.2,0,0.3s0,0.2,0,0.3s0,0.2,0,0.3s0,0.2,0,0.3s0,0.2,0,0.3s0,0.2,0,0.3s0,0.2,0,0.3s0,0.2,0,0.3
				s0,0.2,0,0.3s0,0.2,0,0.3s0,0.2,0,0.3s0,0.2,0,0.3s0,0.2,0,0.3s0,0.2,0,0.3s0,0.2,0,0.3s0,0.2,0,0.3s0,0.2,0,0.3s0,0.2,0,0.3
				s0,0.2,0,0.3s0,0.2,0,0.3s0,0.2,0,0.3s0,0.2,0,0.3s0,0.2,0,0.3s0,0.2,0,0.3l0,0c-0.1,0.1-0.1,0.3-0.2,0.4
				c-0.1,0.2-0.1,0.3-0.2,0.5c-0.1,0.2-0.1,0.3-0.2,0.5s-0.1,0.3-0.2,0.5c-0.1,0.2-0.1,0.3-0.2,0.5c-0.1,0.2-0.1,0.3-0.2,0.5
				c-0.1,0.2-0.1,0.3-0.2,0.5c-0.1,0.2-0.1,0.3-0.2,0.5s-0.1,0.3-0.2,0.5c-0.1,0.2-0.1,0.3-0.2,0.5c-0.1,0.2-0.1,0.3-0.2,0.5
				c-0.1,0.2-0.1,0.3-0.2,0.5c-0.1,0.1-0.1,0.3-0.2,0.4c-0.1,0.2-0.1,0.3-0.2,0.5c-0.1,0.2-0.1,0.3-0.2,0.5
				c-0.1,0.2-0.1,0.3-0.2,0.5c-0.1,0.2-0.1,0.3-0.2,0.5c-0.1,0.2-0.1,0.3-0.2,0.5c-0.1,0.2-0.1,0.3-0.2,0.5s-0.1,0.3-0.2,0.5
				c-0.1,0.2-0.1,0.3-0.2,0.5c-0.1,0.2-0.1,0.3-0.2,0.5c-0.1,0.2-0.1,0.3-0.2,0.5c-0.1,0.2-0.1,0.3-0.2,0.5s-0.1,0.3-0.2,0.5
				c-0.1,0.2-0.1,0.3-0.2,0.5c-0.1,0.2-0.1,0.3-0.2,0.5c-0.1,0.2-0.1,0.3-0.2,0.5c-0.1,0.2-0.1,0.3-0.2,0.5
				c-0.1,0.2-0.1,0.3-0.2,0.5c-0.1,0.2-0.1,0.3-0.2,0.5c-0.1,0.2-0.1,0.3-0.2,0.5c-0.1,0.2-0.1,0.3-0.2,0.5
				c-0.1,0.2-0.1,0.3-0.2,0.5c-0.1,0.2-0.1,0.3-0.2,0.5s-0.1,0.3-0.2,0.5c-0.1,0.2-0.1,0.3-0.2,0.5c-0.1,0.2-0.1,0.3-0.2,0.5
				c-0.1,0.2-0.1,0.3-0.2,0.5c-0.1,0.2-0.1,0.3-0.2,0.5s-0.1,0.3-0.2,0.5c-0.1,0.2-0.1,0.3-0.2,0.5c-0.1,0.2-0.1,0.3-0.2,0.5
				c-0.1,0.2-0.1,0.3-0.2,0.5c-0.1,0.2-0.1,0.3-0.2,0.5c-0.1,0.2-0.1,0.3-0.2,0.5c-0.1,0.2-0.1,0.3-0.2,0.5
				c-0.1,0.2-0.1,0.3-0.2,0.5c-0.1,0.2-0.1,0.3-0.2,0.5c-0.1,0.2-0.1,0.3-0.2,0.5c-0.1,0.2-0.1,0.3-0.2,0.5s-0.1,0.3-0.2,0.5
				c-0.1,0.2-0.1,0.3-0.2,0.5c-0.1,0.2-0.1,0.3-0.2,0.5c-0.1,0.2-0.1,0.3-0.2,0.5c-0.1,0.2-0.1,0.3-0.2,0.5s-0.1,0.3-0.2,0.5
				c-0.1,0.2-0.1,0.3-0.2,0.5c-0.1,0.2-0.1,0.3-0.2,0.5c-0.1,0.2-0.1,0.3-0.2,0.5c-0.1,0.2-0.1,0.3-0.2,0.5
				c-0.1,0.2-0.1,0.3-0.2,0.5c-0.1,0.2-0.1,0.3-0.2,0.5c-0.1,0.2-0.1,0.3-0.2,0.5c-0.1,0.2-0.1,0.3-0.2,0.5
				c-0.1,0.2-0.1,0.3-0.2,0.5c-0.1,0.2-0.1,0.3-0.2,0.5s-0.1,0.3-0.2,0.5c-0.1,0.2-0.1,0.3-0.2,0.5c-0.1,0.2-0.1,0.3-0.2,0.5
				c-0.1,0.2-0.1,0.3-0.2,0.5c-0.1,0.2-0.1,0.3-0.2,0.5s-0.1,0.3-0.2,0.5c-0.1,0.2-0.1,0.3-0.2,0.5c-0.1,0.2-0.1,0.3-0.2,0.5
				c-0.1,0.2-0.1,0.3-0.2,0.5c-0.1,0.2-0.1,0.3-0.2,0.5c-0.1,0.2-0.1,0.3-0.2,0.5c-0.1,0.2-0.1,0.3-0.2,0.5
				c-0.1,0.2-0.1,0.3-0.2,0.5c-0.1,0.2-0.1,0.3-0.2,0.5c-0.1,0.2-0.1,0.3-0.2,0.5c-0.1,0.2-0.1,0.3-0.2,0.5s-0.1,0.3-0.2,0.5
				c-0.1,0.2-0.1,0.3-0.2,0.5c-0.1,0.2-0.1,0.3-0.2,0.5c-0.1,0.2-0.1,0.3-0.2,0.5c-0.1,0.2-0.1,0.3-0.2,0.5s-0.1,0.3-0.2,0.5
				c-0.1,0.2-0.1,0.3-0.2,0.5c-0.1,0.2-0.1,0.3-0.2,0.5c-0.1,0.2-0.1,0.3-0.2,0.5c-0.1,0.2-0.1,0.3-0.2,0.5
				c-0.1,0.2-0.1,0.3-0.2,0.5c-0.1,0.2-0.1,0.3-0.2,0.5c-0.1,0.2-0.1,0.3-0.2,0.5c-0.1,0.2-0.1,0.3-0.2,0.5
				c-0.1,0.2-0.1,0.3-0.2,0.5c-0.1,0.2-0.1,0.3-0.2,0.5s-0.1,0.3-0.2,0.5c-0.1,0.2-0.1,0.3-0.2,0.5c-0.1,0.2-0.1,0.3-0.2,0.5
				c-0.1,0.2-0.1,0.3-0.2,0.5c-0.1,0.2-0.1,0.3-0.2,0.5s-0.1,0.3-0.2,0.5c-0.1,0.2-0.1,0.3-0.2,0.5c-0.1,0.2-0.1,0.3-0.2,0.5
				c-0.1,0.2-0.1,0.3-0.2,0.5c-0.1,0.2-0.1,0.3-0.2,0.5c-0.1,0.2-0.1,0.3-0.2,0.5c-0.1,0.2-0.1,0.3-0.2,0.5
				c-0.1,0.2-0.1,0.3-0.2,0.5c-0.1,0.2-0.1,0.3-0.2,0.5c-0.1,0.2-0.1,0.3-0.2,0.5c-0.1,0.2-0.1,0.3-0.2,0.5s-0.1,0.3-0.2,0.5
				c-0.1,0.2-0.1,0.3-0.2,0.5c-0.1,0.2-0.1,0.3-0.2,0.5c-0.1,0.2-0.1,0.3-0.2,0.5c-0.1,0.2-0.1,0.3-0.2,0.5s-0.1,0.3-0.2,0.5
				c-0.1,0.2-0.1,0.3-0.2,0.5c-0.1,0.2-0.1,0.3-0.2,0.5c-0.1,0.2-0.1,0.3-0.2,0.5c-0.1,0.2-0.1,0.3-0.2,0.5
				c-0.1,0.2-0.1,0.3-0.2,0.5s-0.1,0.3-0.2,0.5c-0.1,0.2-0.1,0.3-0.2,0.5c-0.1,0.2-0.1,0.3-0.2,0.5c-0.1,0.2-0.1,0.3-0.2,0.5
				c-0.1,0.2-0.1,0.3-0.2,0.5s-0.1,0.3-0.2,0.5c-0.1,0.2-0.1,0.3-0.2,0.5c-0.1,0.2-0.1,0.3-0.2,0.5c-0.1,0.2-0.1,0.3-0.2,0.5
				c-0.1,0.2-0.1,0.3-0.2,0.5s-0.1,0.3-0.2,0.5c-0.1,0.2-0.1,0.3-0.2,0.5c-0.1,0.2-0.1,0.3-0.2,0.5c-0.1,0.2-0.1,0.3-0.2,0.5
				c-0.1,0.2-0.1,0.3-0.2,0.5c-0.1,0.2-0.1,0.3-0.2,0.5s-0.1,0.3-0.2,0.5c-0.1,0.2-0.1,0.3-0.2,0.5c-0.1,0.2-0.1,0.3-0.2,0.5
				c-0.1,0.2-0.1,0.3-0.2,0.5c-0.1,0.2-0.1,0.3-0.2,0.5s-0.1,0.3-0.2,0.5c-0.1,0.2-0.1,0.3-0.2,0.5c-0.1,0.2-0.1,0.3-0.2,0.5
				c-0.1,0.2-0.1,0.3-0.2,0.5c-0.1,0.2-0.1,0.3-0.2,0.5s-0.1,0.3-0.2,0.5c-0.1,0.2-0.1,0.3-0.2,0.5c-0.1,0.2-0.1,0.3-0.2,0.5
				c-0.1,0.2-0.1,0.3-0.2,0.5c-0.1,0.2-0.1,0.3-0.2,0.5c-0.1,0.2-0.1,0.3-0.2,0.5s-0.1,0.3-0.2,0.5c-0.1,0.2-0.1,0.3-0.2,0.5
				c-0.1,0.2-0.1,0.3-0.2,0.5c-0.1,0.2-0.1,0.3-0.2,0.5c-0.1,0.2-0.1,0.3-0.2,0.5s-0.1,0.3-0.2,0.5c-0.1,0.2-0.1,0.3-0.2,0.5
				c-0.1,0.2-0.1,0.3-0.2,0.5c-0.1,0.2-0.1,0.3-0.2,0.5c-0.1,0.2-0.1,0.3-0.2,0.5s-0.1,0.3-0.2,0.5c-0.1,0.2-0.1,0.3-0.2,0.5
				c-0.1,0.2-0.1,0.3-0.2,0.5c-0.1,0.2-0.1,0.3-0.2,0.5c-0.1,0.2-0.1,0.3-0.2,0.5c-0.1,0.2-0.1,0.3-0.2,0.5s-0.1,0.3-0.2,0.5
				c-0.1,0.2-0.1,0.3-0.2,0.5c-0.1,0.2-0.1,0.3-0.2,0.5c-0.1,0.2-0.1,0.3-0.2,0.5c-0.1,0.2-0.1,0.3-0.2,0.5s-0.1,0.3-0.2,0.5
				c-0.1,0.2-0.1,0.3-0.2,0.5c-0.1,0.2-0.1,0.3-0.2,0.5c-0.1,0.2-0.1,0.3-0.2,0.5c-0.1,0.2-0.1,0.3-0.2,0.5s-0.1,0.3-0.2,0.5
				c-0.1,0.2-0.1,0.3-0.2,0.5c-0.1,0.2-0.1,0.3-0.2,0.5c-0.1,0.2-0.1,0.3-0.2,0.5c-0.1,0.2-0.1,0.3-0.2,0.5
				c-0.1,0.2-0.1,0.3-0.2,0.5s-0.1,0.3-0.2,0.5c-0.1,0.2-0.1,0.3-0.2,0.5c-0.1,0.2-0.1,0.3-0.2,0.5c-0.1,0.2-0.1,0.3-0.2,0.5
				c-0.1,0.2-0.1,0.3-0.2,0.5s-0.1,0.3-0.2,0.5c-0.1,0.2-0.1,0.3-0.2,0.5c-0.1,0.2-0.1,0.3-0.2,0.5c-0.1,0.2-0.1,0.3-0.2,0.5
				c-3.7,10.5,1.5,21.8,15.6,29.9c22.2,12.8,58.2,12.8,80.3,0C-472.8,154.7-467.7,143.4-471.5,133z"/>
			<path id="Path_2941" class="st6" d="M-480.1,131.8c0-0.1,0-0.2-0.1-0.2s0-0.2-0.1-0.2s0-0.2-0.1-0.2s0-0.2-0.1-0.2s0-0.2-0.1-0.2
				s0-0.2-0.1-0.2s0-0.2-0.1-0.2s0-0.2-0.1-0.2s0-0.2-0.1-0.2s0-0.2-0.1-0.2s0-0.2-0.1-0.2s0-0.2-0.1-0.2s0-0.2-0.1-0.2
				s0-0.2-0.1-0.2s0-0.2-0.1-0.2s0-0.2-0.1-0.2s0-0.2-0.1-0.2s0-0.2-0.1-0.2s0-0.2-0.1-0.2s0-0.2-0.1-0.2s0-0.2-0.1-0.2
				s0-0.2-0.1-0.2s0-0.2-0.1-0.2c-0.1,0,0-0.2-0.1-0.2c-0.1,0,0-0.2-0.1-0.2s0-0.2-0.1-0.2s0-0.2-0.1-0.2c-0.1,0,0-0.2-0.1-0.2
				c-0.1,0,0-0.2-0.1-0.2s0-0.2-0.1-0.2c0-0.1,0-0.2-0.1-0.2c-0.1,0,0-0.2-0.1-0.2c-0.1,0,0-0.2-0.1-0.2s0-0.2-0.1-0.2
				s0-0.2-0.1-0.2c-0.1,0,0-0.2-0.1-0.2c-0.1,0,0-0.2-0.1-0.2s0-0.2-0.1-0.2s0-0.2-0.1-0.2c-0.1,0,0-0.2-0.1-0.2
				c-0.1,0,0-0.2-0.1-0.2s0-0.2-0.1-0.2s0-0.2-0.1-0.2c-0.1,0,0-0.2-0.1-0.2c-0.1,0,0-0.2-0.1-0.2s0-0.2-0.1-0.2s0-0.2-0.1-0.2
				c-0.1,0,0-0.2-0.1-0.2c-0.1,0,0-0.2-0.1-0.2s0-0.2-0.1-0.2s0-0.2-0.1-0.2c-0.1,0,0-0.2-0.1-0.2c-0.1,0,0-0.2-0.1-0.2
				s0-0.2-0.1-0.2s0-0.2-0.1-0.2c-0.1,0,0-0.2-0.1-0.2c-0.1,0,0-0.2-0.1-0.2s0-0.2-0.1-0.2s0-0.2-0.1-0.2c-0.1,0,0-0.2-0.1-0.2
				c-0.1,0,0-0.2-0.1-0.2s0-0.2-0.1-0.2s0-0.2-0.1-0.2c-0.1,0,0-0.2-0.1-0.2c-0.1,0,0-0.2-0.1-0.2s0-0.2-0.1-0.2s0-0.2-0.1-0.2
				c-0.1,0,0-0.2-0.1-0.2c-0.1,0,0-0.2-0.1-0.2s0-0.2-0.1-0.2s0-0.2-0.1-0.2c-0.1,0,0-0.2-0.1-0.2c-0.1,0,0-0.2-0.1-0.2
				s0-0.2-0.1-0.2s0-0.2-0.1-0.2c-0.1,0,0-0.2-0.1-0.2c-0.1,0,0-0.2-0.1-0.2s0-0.2-0.1-0.2s0-0.2-0.1-0.2c-0.1,0,0-0.2-0.1-0.2
				c-0.1,0,0-0.2-0.1-0.2s0-0.2-0.1-0.2s0-0.2-0.1-0.2c-0.1,0,0-0.2-0.1-0.2c-0.1,0,0-0.2-0.1-0.2v-0.1l0,0v-0.1v-0.1l0,0
				c0-0.1-0.1-0.2-0.1-0.2l-0.1-0.2l-0.1-0.2l-0.1-0.2l-0.1-0.2l-0.1-0.2l-0.1-0.2l-0.1-0.2l-0.1-0.2l-0.1-0.2l-0.1-0.2l-0.1-0.2
				l-0.1-0.2l-0.1-0.2l-0.1-0.2l-0.1-0.2l-0.1-0.2l-0.1-0.2l-0.1-0.2l-0.1-0.2l-0.1-0.2l-0.1-0.2l-0.1-0.2l-0.1-0.2l-0.1-0.2
				l-0.1-0.2l-0.1-0.2l-0.1-0.2l-0.1-0.2l-0.1-0.2l-0.1-0.2l-0.1-0.2c0,0,0-0.2-0.1-0.2s-0.1-0.2-0.1-0.2l-0.1-0.2l-0.1-0.2
				l-0.1-0.2l-0.1-0.2l-0.1-0.2l-0.1-0.2l-0.1-0.2l-0.1-0.2c0,0,0-0.2-0.1-0.2c-0.1,0-0.1-0.2-0.1-0.2s0-0.2-0.1-0.2
				s-0.1-0.2-0.1-0.2s0-0.2-0.1-0.2c-0.1,0,0-0.2-0.1-0.2s0-0.2-0.1-0.2s-0.1-0.2-0.1-0.2s0-0.2-0.1-0.2c-0.1,0-0.1-0.2-0.1-0.2
				l-0.1-0.2l-0.1-0.2l-0.1-0.2c0,0,0-0.2-0.1-0.2s-0.1-0.2-0.1-0.2s0-0.2-0.1-0.2c-0.1,0,0-0.2-0.1-0.2c-0.1,0,0-0.2-0.1-0.2
				s0-0.2-0.1-0.2s-0.1-0.2-0.1-0.2s0-0.2-0.1-0.2c-0.1,0-0.1-0.2-0.1-0.2l-0.1-0.2l-0.1-0.2c0,0,0-0.2-0.1-0.2
				c-0.1,0,0-0.2-0.1-0.2s0-0.2-0.1-0.2s0-0.2-0.1-0.2c-0.1,0,0-0.2-0.1-0.2c-0.1,0,0-0.2-0.1-0.2s0-0.2-0.1-0.2s0-0.2-0.1-0.2
				c-0.1,0,0-0.2-0.1-0.2c-0.1,0,0-0.2-0.1-0.2s0-0.2-0.1-0.2s0-0.2-0.1-0.2c-0.1,0,0-0.2-0.1-0.2c-0.1,0,0-0.2-0.1-0.2
				s0-0.2-0.1-0.2s0-0.2-0.1-0.2c-0.1,0,0-0.2-0.1-0.2c-0.1,0,0-0.2-0.1-0.2s0-0.2-0.1-0.2s0-0.2-0.1-0.2c-0.1,0,0-0.2-0.1-0.2
				c-0.1,0,0-0.2-0.1-0.2s0-0.2-0.1-0.2s0-0.2-0.1-0.2c-0.1,0,0-0.2-0.1-0.2c-0.1,0,0-0.2-0.1-0.2s0-0.2-0.1-0.2s0-0.2-0.1-0.2
				c-0.1,0,0-0.2-0.1-0.2c-0.1,0,0-0.2-0.1-0.2s0-0.2-0.1-0.2s0-0.2-0.1-0.2c-0.1,0,0-0.2-0.1-0.2c-0.1,0,0-0.2-0.1-0.2
				s0-0.2-0.1-0.2s0-0.2-0.1-0.2c-0.1,0,0-0.2-0.1-0.2c-0.1,0,0-0.2-0.1-0.2s0-0.2-0.1-0.2s0-0.2-0.1-0.2c-0.1,0,0-0.2-0.1-0.2
				c-0.1,0,0-0.2-0.1-0.2s0-0.2-0.1-0.2s0-0.2-0.1-0.2c-0.9-3-4-6-9.3-8.3c-12.7-5.7-33.3-5.7-46,0c-5.2,2.3-8.2,5.2-9.2,8.3
				c0,0.1-0.1,0.2-0.1,0.2l-0.1,0.2l-0.1,0.2l-0.1,0.2l-0.1,0.2l-0.1,0.2l-0.1,0.2l-0.1,0.2l-0.1,0.2l-0.1,0.2l-0.1,0.2l-0.1,0.2
				l-0.1,0.2l-0.1,0.2l-0.1,0.2l-0.1,0.2l-0.1,0.2l-0.1,0.2l-0.1,0.2l-0.1,0.2l-0.1,0.2l-0.1,0.2l-0.1,0.2l-0.1,0.2l-0.1,0.2
				l-0.1,0.2l-0.1,0.2l-0.1,0.2l-0.1,0.2l-0.1,0.2l-0.1,0.2l-0.1,0.2l-0.1,0.2l-0.1,0.2l-0.1,0.2l-0.1,0.2l-0.1,0.2l-0.1,0.2
				l-0.1,0.2l-0.1,0.2l-0.1,0.2l-0.1,0.2l-0.1,0.2l-0.1,0.2l-0.1,0.2l-0.1,0.2l-0.1,0.2l-0.1,0.2l-0.1,0.2l-0.1,0.2l-0.1,0.2
				l-0.1,0.2l-0.1,0.2l-0.1,0.2l-0.1,0.2c0,0,6.2-4.4,6.2-4.3s-0.1,0.2-0.1,0.2l-0.1,0.2l-0.1,0.2l-0.1,0.2l-0.1,0.2l-0.1,0.2
				l-0.1,0.2l-0.1,0.2l-0.1,0.2l-0.1,0.2l-0.1,0.2l-0.1,0.2l0.2,0.6l-0.1,0.2l-0.1,0.2l-0.1,0.2l-0.1,0.2l-0.1,0.2l-0.1,0.2
				l-0.1,0.2l-0.1,0.2l-0.1,0.2l0,0c0,0.1,0,0.1-0.1,0.2l0,0l0,0c0,0.1,0,0.1-0.1,0.2c-0.1,0.1,0,0.2-0.1,0.2c-0.1,0,0,0.2-0.1,0.2
				s0,0.2-0.1,0.2c-0.1,0,0,0.2-0.1,0.2c-0.1,0,0,0.2-0.1,0.2c-0.1,0,0,0.2-0.1,0.2c-0.1,0,0,0.2-0.1,0.2s0,0.2-0.1,0.2
				c-0.1,0,0,0.2-0.1,0.2c-0.1,0,0,0.2-0.1,0.2s0,0.2-0.1,0.2c-0.1,0,0,0.2-0.1,0.2c-0.1,0,0,0.2-0.1,0.2c-0.1,0,0,0.2-0.1,0.2
				c-0.1,0,0,0.2-0.1,0.2s0,0.2-0.1,0.2c-0.1,0,0,0.2-0.1,0.2c-0.1,0,0,0.2-0.1,0.2s0,0.2-0.1,0.2c-0.1,0,0,0.2-0.1,0.2
				c-0.1,0,0,0.2-0.1,0.2c-0.1,0,0,0.2-0.1,0.2c-0.1,0,0,0.2-0.1,0.2s0,0.2-0.1,0.2c-0.1,0,0,0.2-0.1,0.2c-0.1,0,0,0.2-0.1,0.2
				s0,0.2-0.1,0.2c-0.1,0,0,0.2-0.1,0.2c-0.1,0,0,0.2-0.1,0.2c-0.1,0,0,0.2-0.1,0.2c-0.1,0,0,0.2-0.1,0.2s0,0.2-0.1,0.2
				c-0.1,0,0,0.2-0.1,0.2c-0.1,0,0,0.2-0.1,0.2s0,0.2-0.1,0.2c-0.1,0,0,0.2-0.1,0.2c-0.1,0,0,0.2-0.1,0.2c-0.1,0,0,0.2-0.1,0.2
				c-0.1,0,0,0.2-0.1,0.2s0,0.2-0.1,0.2c-0.1,0,0,0.2-0.1,0.2c-0.1,0,0,0.2-0.1,0.2s0,0.2-0.1,0.2c-0.1,0,0,0.2-0.1,0.2
				c-0.1,0,0,0.2-0.1,0.2c-0.1,0,0,0.2-0.1,0.2c-0.1,0,0,0.2-0.1,0.2s0,0.2-0.1,0.2c-0.1,0,0,0.2-0.1,0.2c-0.1,0,0,0.2-0.1,0.2
				s0,0.2-0.1,0.2c-0.1,0,0,0.2-0.1,0.2c-0.1,0,0,0.2-0.1,0.2c-0.1,0,0,0.2-0.1,0.2c-0.1,0,0,0.2-0.1,0.2s0,0.2-0.1,0.2
				c-0.1,0,0,0.2-0.1,0.2c-0.1,0,0,0.2-0.1,0.2s0,0.2-0.1,0.2c-0.1,0,0,0.2-0.1,0.2c-0.1,0,0,0.2-0.1,0.2c-0.1,0,0,0.2-0.1,0.2
				c-0.1,0,0,0.2-0.1,0.2s0,0.2-0.1,0.2c-0.1,0,0,0.2-0.1,0.2c-0.1,0,0,0.2-0.1,0.2s0,0.2-0.1,0.2c-0.1,0,0,0.2-0.1,0.2
				c-0.1,0,0,0.2-0.1,0.2c-0.1,0,0,0.2-0.1,0.2c-0.1,0,0,0.2-0.1,0.2s0,0.2-0.1,0.2c-0.1,0,0,0.2-0.1,0.2c-0.1,0,0,0.2-0.1,0.2
				s0,0.2-0.1,0.2c-0.1,0-0.1,0.2-0.1,0.2s0,0.2-0.1,0.2c-0.1,0,0,0.2-0.1,0.2c-0.1,0,0,0.2-0.1,0.2s0,0.2-0.1,0.2
				c-0.1,0,0,0.2-0.1,0.2c-0.1,0,0,0.2-0.1,0.2s-0.1,0.2-0.1,0.2s0,0.2-0.1,0.2c-0.1,0,0,0.2-0.1,0.2c-0.1,0,0,0.2-0.1,0.2
				c-0.1,0,0,0.2-0.1,0.2s0,0.2-0.1,0.2c-0.1,0,0,0.2-0.1,0.2c-0.1,0,0,0.2-0.1,0.2s0,0.2-0.1,0.2c-0.1,0,0,0.2-0.1,0.2
				c-0.1,0-0.1,0.2-0.1,0.2s0,0.2-0.1,0.2c-0.1,0,0,0.2-0.1,0.2s0,0.2-0.1,0.2c-0.1,0,0,0.2-0.1,0.2c-0.1,0-0.1,0.2-0.1,0.2
				s0,0.2-0.1,0.2c-0.1,0,0,0.2-0.1,0.2c-0.1,0,0,0.2-0.1,0.2c-0.1,0,0,0.2-0.1,0.2c-0.1,0,0,0.2-0.1,0.2s0,0.2-0.1,0.2
				c-0.1,0-0.1,0.2-0.1,0.2s0,0.2-0.1,0.2s-0.1,0.2-0.1,0.2s0,0.2-0.1,0.2c-0.1,0,0,0.2-0.1,0.2c-0.1,0-0.1,0.2-0.1,0.2
				s0,0.2-0.1,0.2s0,0.2-0.1,0.2c-0.1,0-0.1,0.2-0.1,0.2s0,0.2-0.1,0.2s0,0.2-0.1,0.2c-0.1,0-0.1,0.2-0.1,0.2l-0.1,0.2
				c-2.9,8.8,1.5,18.2,13.2,25c18.8,10.8,49.1,10.8,67.7,0C-481.4,149.9-477.1,140.5-480.1,131.8z"/>
			<g id="Group_4323" transform="translate(24.254 127.942)">
				<path id="Path_2942" class="st14" d="M-528.4-50.1c12.7,5.7,12.8,14.8,0.2,20.5c-12.6,5.7-33.2,5.7-46,0
					c-12.8-5.7-12.8-14.8-0.2-20.5C-561.8-55.8-541.1-55.7-528.4-50.1z"/>
			</g>
			<g id="Group_4324" transform="translate(34.984 32.216)">
				<path id="Path_2943" class="st15" d="M-546.7-51.5c8.5,3.8,8.6,9.9,0.1,13.7s-22.3,3.8-30.8,0s-8.6-9.9-0.1-13.7
					C-569-55.3-555.2-55.2-546.7-51.5z"/>
			</g>
			<path id="Path_2944" class="st6" d="M-514.1-31.6c0,2.1-1.7,3.7-3.7,3.7c-2.1,0-3.7-1.7-3.7-3.7c0-2.1,1.7-3.7,3.7-3.7
				S-514.1-33.7-514.1-31.6z"/>
			<path id="Path_2945" class="st6" d="M-524.9-43.8c0,1.4-1.2,2.6-2.6,2.6c-1.4,0-2.6-1.2-2.6-2.6c0-1.4,1.2-2.6,2.6-2.6l0,0
				C-526.1-46.4-524.9-45.2-524.9-43.8L-524.9-43.8z"/>
			<path id="Path_2946" class="st6" d="M-518.9-51.7c0,1.4-1.2,2.6-2.6,2.6c-1.4,0-2.6-1.2-2.6-2.6c0-1.4,1.2-2.6,2.6-2.6l0,0
				C-520-54.3-518.9-53.1-518.9-51.7z"/>
			
				<linearGradient id="Path_2947_1_" gradientUnits="userSpaceOnUse" x1="-1158.7563" y1="-331.8033" x2="-1157.7563" y2="-331.8033" gradientTransform="matrix(113.4626 0 0 188.4787 130891.75 62614.5)">
				<stop  offset="8.000000e-03" style="stop-color:#9BA2D1;stop-opacity:0"/>
				<stop  offset="1" style="stop-color:#8290C7"/>
			</linearGradient>
			<path id="Path_2947" class="st16" d="M-477.4,155.6c0.5-0.6,1.1-1.2,1.5-1.7l0,0c0.5-0.6,0.9-1.2,1.3-1.7c0,0,0-0.1,0.1-0.1
				c0.4-0.6,0.8-1.1,1.1-1.7c0-0.1,0.1-0.1,0.1-0.2c0.3-0.6,0.6-1.1,0.9-1.7c0-0.1,0.1-0.2,0.1-0.3c0.2-0.5,0.5-1.1,0.7-1.6
				c0-0.1,0.1-0.2,0.1-0.4c0.2-0.5,0.3-1,0.5-1.5c0-0.2,0.1-0.3,0.1-0.5c0.1-0.5,0.2-1,0.3-1.4c0-0.2,0-0.4,0.1-0.6
				c0.1-0.4,0.1-0.9,0.1-1.3c0-0.3,0-0.5,0-0.8c0-0.4,0-0.8,0-1.2c0-0.3-0.1-0.6-0.1-0.9c0-0.3-0.1-0.7-0.1-1
				c-0.1-0.4-0.1-0.8-0.2-1.2c-0.1-0.3-0.1-0.5-0.2-0.8c-0.2-0.6-0.4-1.3-0.6-1.9c-0.1-0.2-0.1-0.3-0.2-0.5
				c-0.1-0.2-0.1-0.3-0.2-0.5c-0.1-0.2-0.1-0.3-0.2-0.5c-0.1-0.2-0.1-0.3-0.2-0.5c-0.1-0.2-0.1-0.3-0.2-0.5
				c-0.1-0.2-0.1-0.3-0.2-0.5c-0.1-0.2-0.1-0.3-0.2-0.5c-0.1-0.2-0.1-0.3-0.2-0.5c-0.1-0.2-0.1-0.3-0.2-0.5
				c-0.1-0.2-0.1-0.3-0.2-0.5c-0.1-0.2-0.1-0.3-0.2-0.5c-0.1-0.2-0.1-0.3-0.2-0.5c-0.1-0.2-0.1-0.3-0.2-0.5
				c-0.1-0.2-0.1-0.3-0.2-0.5c-0.1-0.2-0.1-0.3-0.2-0.5c-0.1-0.2-0.1-0.3-0.2-0.5c-0.1-0.2-0.1-0.3-0.2-0.5
				c-0.1-0.2-0.1-0.3-0.2-0.5c-0.1-0.2-0.1-0.3-0.2-0.5c-0.1-0.2-0.1-0.3-0.2-0.5c-0.1-0.2-0.1-0.3-0.2-0.5
				c-0.1-0.2-0.1-0.3-0.2-0.5c-0.1-0.2-0.1-0.3-0.2-0.5c-0.1-0.2-0.1-0.3-0.2-0.5c-0.1-0.2-0.1-0.3-0.2-0.5
				c-0.1-0.2-0.1-0.3-0.2-0.5c-0.1-0.2-0.1-0.3-0.2-0.5c-0.1-0.2-0.1-0.3-0.2-0.5c-0.1-0.2-0.1-0.3-0.2-0.5
				c-0.1-0.2-0.1-0.3-0.2-0.5c-0.1-0.2-0.1-0.3-0.2-0.5c-0.1-0.2-0.1-0.3-0.2-0.5c-0.1-0.2-0.1-0.3-0.2-0.5
				c-0.1-0.2-0.1-0.3-0.2-0.5c-0.1-0.2-0.1-0.3-0.2-0.5c-0.1-0.2-0.1-0.3-0.2-0.5c-0.1-0.2-0.1-0.3-0.2-0.5
				c-0.1-0.2-0.1-0.3-0.2-0.5c-0.1-0.2-0.1-0.3-0.2-0.5c-0.1-0.2-0.1-0.3-0.2-0.5c-0.1-0.2-0.1-0.3-0.2-0.5
				c-0.1-0.2-0.1-0.3-0.2-0.5c-0.1-0.2-0.1-0.3-0.2-0.5c-0.1-0.2-0.1-0.3-0.2-0.5c-0.1-0.2-0.1-0.3-0.2-0.5
				c-0.1-0.2-0.1-0.3-0.2-0.5c-0.1-0.2-0.1-0.3-0.2-0.5c-0.1-0.2-0.1-0.3-0.2-0.5c-0.1-0.2-0.1-0.3-0.2-0.5
				c-0.1-0.2-0.1-0.3-0.2-0.5c-0.1-0.2-0.1-0.3-0.2-0.5c-0.1-0.2-0.1-0.3-0.2-0.5c-0.1-0.2-0.1-0.3-0.2-0.5
				c-0.1-0.2-0.1-0.3-0.2-0.5c-0.1-0.2-0.1-0.3-0.2-0.5c-0.1-0.2-0.1-0.3-0.2-0.5s-0.1-0.3-0.2-0.5c-0.1-0.2-0.1-0.3-0.2-0.5
				s-0.1-0.3-0.2-0.5c-0.1-0.2-0.1-0.3-0.2-0.5s-0.1-0.3-0.2-0.5c-0.1-0.2-0.1-0.3-0.2-0.5s-0.1-0.3-0.2-0.5
				c-0.1-0.2-0.1-0.3-0.2-0.5s-0.1-0.3-0.2-0.5c-0.1-0.2-0.1-0.3-0.2-0.5s-0.1-0.3-0.2-0.5c-0.1-0.2-0.1-0.3-0.2-0.5
				s-0.1-0.3-0.2-0.5c-0.1-0.2-0.1-0.3-0.2-0.5s-0.1-0.3-0.2-0.5c-0.1-0.2-0.1-0.3-0.2-0.5s-0.1-0.3-0.2-0.5
				c-0.1-0.2-0.1-0.3-0.2-0.5s-0.1-0.3-0.2-0.5c-0.1-0.2-0.1-0.3-0.2-0.5s-0.1-0.3-0.2-0.5c-0.1-0.2-0.1-0.3-0.2-0.5
				s-0.1-0.3-0.2-0.5c-0.1-0.2-0.1-0.3-0.2-0.5s-0.1-0.3-0.2-0.5c-0.1-0.2-0.1-0.3-0.2-0.5s-0.1-0.3-0.2-0.5
				c-0.1-0.2-0.1-0.3-0.2-0.5s-0.1-0.3-0.2-0.5c-0.1-0.2-0.1-0.3-0.2-0.5s-0.1-0.3-0.2-0.5c-0.1-0.2-0.1-0.3-0.2-0.5
				s-0.1-0.3-0.2-0.5c-0.1-0.2-0.1-0.3-0.2-0.5s-0.1-0.3-0.2-0.5c-0.1-0.2-0.1-0.3-0.2-0.5s-0.1-0.3-0.2-0.5
				c-0.1-0.2-0.1-0.3-0.2-0.5s-0.1-0.3-0.2-0.5c-0.1-0.2-0.1-0.3-0.2-0.5s-0.1-0.3-0.2-0.5c-0.1-0.2-0.1-0.3-0.2-0.5
				s-0.1-0.3-0.2-0.5c-0.1-0.2-0.1-0.3-0.2-0.5s-0.1-0.3-0.2-0.5c-0.1-0.2-0.1-0.3-0.2-0.5s-0.1-0.3-0.2-0.5
				c-0.1-0.2-0.1-0.3-0.2-0.5s-0.1-0.3-0.2-0.5c-0.1-0.2-0.1-0.3-0.2-0.5s-0.1-0.3-0.2-0.5c-0.1-0.2-0.1-0.3-0.2-0.5
				s-0.1-0.3-0.2-0.5c-0.1-0.2-0.1-0.3-0.2-0.5s-0.1-0.3-0.2-0.5c-0.1-0.2-0.1-0.3-0.2-0.5s-0.1-0.3-0.2-0.5
				c-0.1-0.2-0.1-0.3-0.2-0.5s-0.1-0.3-0.2-0.5c-0.1-0.2-0.1-0.3-0.2-0.5s-0.1-0.3-0.2-0.5c-0.1-0.2-0.1-0.3-0.2-0.5
				s-0.1-0.3-0.2-0.5c-0.1-0.2-0.1-0.3-0.2-0.5s-0.1-0.3-0.2-0.5c-0.1-0.2-0.1-0.3-0.2-0.5s-0.1-0.3-0.2-0.5
				c-0.1-0.2-0.1-0.3-0.2-0.5s-0.1-0.3-0.2-0.5c-0.1-0.2-0.1-0.3-0.2-0.5s-0.1-0.3-0.2-0.5c-0.1-0.2-0.1-0.3-0.2-0.5
				s-0.1-0.3-0.2-0.5c-0.1-0.2-0.1-0.3-0.2-0.5s-0.1-0.3-0.2-0.5c-0.1-0.2-0.1-0.3-0.2-0.5s-0.1-0.3-0.2-0.5
				c-0.1-0.2-0.1-0.3-0.2-0.5s-0.1-0.3-0.2-0.5c-0.1-0.2-0.1-0.3-0.2-0.5s-0.1-0.3-0.2-0.5c-0.1-0.2-0.1-0.3-0.2-0.5
				s-0.1-0.3-0.2-0.5c-0.1-0.2-0.1-0.3-0.2-0.5s-0.1-0.3-0.2-0.5c-0.1-0.2-0.1-0.3-0.2-0.5s-0.1-0.3-0.2-0.5
				c-0.1-0.2-0.1-0.3-0.2-0.5s-0.1-0.3-0.2-0.5c-0.1-0.2-0.1-0.3-0.2-0.5s-0.1-0.3-0.2-0.5c-0.1-0.2-0.1-0.3-0.2-0.5
				s-0.1-0.3-0.2-0.5c-0.1-0.2-0.1-0.3-0.2-0.5s-0.1-0.3-0.2-0.5c-0.1-0.2-0.1-0.3-0.2-0.5s-0.1-0.3-0.2-0.5
				c-0.1-0.2-0.1-0.3-0.2-0.5s-0.1-0.3-0.2-0.5c-0.1-0.2-0.1-0.3-0.2-0.5s-0.1-0.3-0.2-0.5c-0.1-0.2-0.1-0.3-0.2-0.5
				s-0.1-0.3-0.2-0.5c-0.1-0.2-0.1-0.3-0.2-0.5s-0.1-0.3-0.2-0.5c-0.1-0.2-0.1-0.3-0.2-0.5s-0.1-0.3-0.2-0.5
				c-0.1-0.2-0.1-0.3-0.2-0.5s-0.1-0.3-0.2-0.5c-0.1-0.2-0.1-0.3-0.2-0.5s-0.1-0.3-0.2-0.5c-0.1-0.2-0.1-0.3-0.2-0.5
				s-0.1-0.3-0.2-0.5c-0.1-0.2-0.1-0.3-0.2-0.5s-0.1-0.3-0.2-0.5c0-0.1-0.1-0.2-0.1-0.3c0-0.2-0.1-0.3-0.2-0.5
				c-0.1-0.2-0.1-0.3-0.2-0.5s-0.1-0.3-0.2-0.5c-0.1-0.2-0.1-0.3-0.2-0.5s-0.1-0.3-0.2-0.5c-0.1-0.2-0.1-0.3-0.2-0.5
				s-0.1-0.3-0.2-0.5c0-0.2-0.1-0.3-0.2-0.5s-0.1-0.3-0.2-0.5c0-0.2-0.1-0.3-0.2-0.5s-0.1-0.3-0.2-0.5c0-0.2-0.1-0.3-0.2-0.5
				s-0.1-0.3-0.2-0.5c-0.1-0.2-0.1-0.3-0.2-0.5s-0.1-0.3-0.2-0.5c-0.1-0.2-0.1-0.3-0.2-0.5c0-0.2-0.1-0.3-0.2-0.5
				c0-0.2-0.1-0.3-0.2-0.5s-0.1-0.3-0.2-0.5c-0.1-0.2-0.1-0.3-0.2-0.5c0-0.2-0.1-0.3-0.2-0.5c0-0.2-0.1-0.3-0.2-0.5
				c0-0.2-0.1-0.3-0.2-0.5c0-0.2-0.1-0.3-0.2-0.5c0-0.2-0.1-0.3-0.2-0.5c0-0.2-0.1-0.3-0.2-0.5c0-0.1-0.1-0.3-0.2-0.4c0,0,0,0,0-0.1
				s0-0.2,0-0.3s0-0.2,0-0.3s0-0.2,0-0.3s0-0.2,0-0.3s0-0.2,0-0.3s0-0.2,0-0.3s0-0.2,0-0.3s0-0.2,0-0.3s0-0.2,0-0.3s0-0.2,0-0.3
				s0-0.2,0-0.3s0-0.2,0-0.3s0-0.2,0-0.3s0-0.2,0-0.3s0-0.2,0-0.3s0-0.2,0-0.3s0-0.2,0-0.3s0-0.2,0-0.3s0-0.2,0-0.3s0-0.2,0-0.3
				s0-0.2,0-0.3s0-0.2,0-0.3s0-0.2,0-0.3s0-0.2,0-0.3s0-0.2,0-0.3s0-0.2,0-0.3s0-0.2,0-0.3s0-0.2,0-0.3s0-0.2,0-0.3s0-0.2,0-0.3
				s0-0.2,0-0.3s0-0.2,0-0.3s0-0.2,0-0.3s0-0.2,0-0.3s0-0.2,0-0.3s0-0.2,0-0.3s0-0.2,0-0.3s0-0.2,0-0.3s0-0.2,0-0.3s0-0.2,0-0.3
				s0-0.2,0-0.3s0-0.2,0-0.3s0-0.2,0-0.3s0-0.2,0-0.3s0-0.2,0-0.3s0-0.2,0-0.3s0-0.2,0-0.3s0-0.2,0-0.3s0-0.2,0-0.3s0-0.2,0-0.3
				s0-0.2,0-0.3s0-0.2,0-0.3s0-0.2,0-0.3s0-0.2,0-0.3s0-0.2,0-0.3s0-0.2,0-0.3s0-0.2,0-0.3s0-0.2,0-0.3c0-0.1,0-0.1,0-0.2
				c0,0.1,0-12.9,0-12.8c0-0.1,0-0.1,0-0.2s0-0.2,0-0.3s0-0.2,0-0.3s0-0.2,0-0.3s0-0.2,0-0.3c0-0.1,0-0.2,0-0.3s0-0.2,0-0.3
				s0-0.2,0-0.3s0-0.2,0-0.3s0-0.2,0-0.3s0-0.2,0-0.3s0-0.2,0-0.3s0-0.2,0-0.3s0-0.2,0-0.3s0-0.2,0-0.3s0-0.2,0-0.3s0-0.2,0-0.3
				s0-0.2,0-0.3c0-0.1,0-0.2,0-0.3s0-0.2,0-0.3s0-0.2,0-0.3s0-0.2,0-0.3s0-0.2,0-0.3s0-0.2,0-0.3s0-0.2,0-0.3s0-0.2,0-0.3
				s0-0.2,0-0.3s0-0.2,0-0.3s0-0.2,0-0.3s0-0.2,0-0.3s0-0.2,0-0.3s0-0.2,0-0.3s0-0.2,0-0.3s0-0.2,0-0.3s0-0.2,0-0.3s0-0.2,0-0.3
				s0-0.2,0-0.3s0-0.2,0-0.3c0-0.1,0-0.2,0-0.3s0-0.2,0-0.3s0-0.2,0-0.3s0-0.2,0-0.3s0-0.2,0-0.3s0-0.2,0-0.3s0-0.2,0-0.3
				s0-0.2,0-0.3s0-0.2,0-0.3s0-0.2,0-0.3s0-0.2,0-0.3s0-0.2,0-0.3s0-0.2,0-0.3s0-0.2,0-0.3s0-0.2,0-0.3s0-0.2,0-0.3s0-0.2,0-0.3
				s0-0.2,0-0.3s0-0.2,0-0.3s0-0.2,0-0.3c0-1.4-0.6-2.8-1.6-3.8l-7.9,5.9V46l16.1,63.2c4.3,16.9-7.8,33.7-25.2,34.6h-0.4
				c-31.6,1.5-48.7-14.3-55.1-22c0,0.1-0.1,0.2-0.1,0.2c-0.1,0.2-0.1,0.3-0.2,0.5c-0.1,0.2-0.1,0.3-0.2,0.5
				c-0.1,0.2-0.1,0.3-0.2,0.5c-0.1,0.2-0.1,0.3-0.2,0.5c-0.1,0.2-0.1,0.3-0.2,0.5c-0.1,0.2-0.1,0.3-0.2,0.5s-0.1,0.3-0.2,0.5
				c-0.1,0.2-0.1,0.3-0.2,0.5c-0.1,0.2-0.1,0.3-0.2,0.5c-0.1,0.2-0.1,0.3-0.2,0.5c-0.1,0.2-0.1,0.3-0.2,0.5s-0.1,0.3-0.2,0.5
				c-0.1,0.2-0.1,0.3-0.2,0.5c-0.1,0.2-0.1,0.3-0.2,0.5c-0.1,0.2-0.1,0.3-0.2,0.5c-0.1,0.2-0.1,0.3-0.2,0.5s-0.1,0.3-0.2,0.5
				c-0.1,0.2-0.1,0.3-0.2,0.5c-0.1,0.2-0.1,0.3-0.2,0.5c-3.7,10.5,1.5,21.8,15.6,29.9c22.2,12.8,58.2,12.8,80.3,0
				c0.4-0.2,0.8-0.5,1.2-0.8l0,0C-482.5,160.3-479.8,158.1-477.4,155.6L-477.4,155.6z"/>
			<path id="Path_2948" class="st17" d="M-562,138.6l28.6-89.5V-6.2l-14.8-8.3c-0.4,0.7-0.6,1.5-0.5,2.3c0,0.1,0,0.2,0,0.3
				s0,0.2,0,0.3s0,0.2,0,0.3s0,0.2,0,0.3s0,0.2,0,0.3s0,0.2,0,0.3s0,0.2,0,0.3s0,0.2,0,0.3s0,0.2,0,0.3s0,0.2,0,0.3s0,0.2,0,0.3
				s0,0.2,0,0.3s0,0.2,0,0.3s0,0.2,0,0.3c0,0.1,0,0.2,0,0.3s0,0.2,0,0.3s0,0.2,0,0.3s0,0.2,0,0.3s0,0.2,0,0.3s0,0.2,0,0.3
				s0,0.2,0,0.3s0,0.2,0,0.3s0,0.2,0,0.3s0,0.2,0,0.3s0,0.2,0,0.3s0,0.2,0,0.3s0,0.2,0,0.3s0,0.2,0,0.3s0,0.2,0,0.3s0,0.2,0,0.3
				s0,0.2,0,0.3s0,0.2,0,0.3s0,0.2,0,0.3s0,0.2,0,0.3c0,0.1,0,0.2,0,0.3s0,0.2,0,0.3s0,0.2,0,0.3s0,0.2,0,0.3s0,0.2,0,0.3
				s0,0.2,0,0.3s0,0.2,0,0.3s0,0.2,0,0.3s0,0.2,0,0.3s0,0.2,0,0.3s0,0.2,0,0.3s0,0.2,0,0.3s0,0.2,0,0.3c0,0.1,0,0.2,0,0.3
				s0,0.2,0,0.3s0,0.2,0,0.3s0,0.2,0,0.3s0,0.2,0,0.3s0,0.2,0,0.3s0,0.2,0,0.3s0,0.2,0,0.3s0,0.2,0,0.3s0,0.2,0,0.3
				c0,0.1,0,0.1,0,0.2c0-0.1,0,12.9,0,12.8c0,0.1,0,0.1,0,0.2s0,0.2,0,0.3s0,0.2,0,0.3s0,0.2,0,0.3s0,0.2,0,0.3s0,0.2,0,0.3
				s0,0.2,0,0.3s0,0.2,0,0.3s0,0.2,0,0.3s0,0.2,0,0.3s0,0.2,0,0.3s0,0.2,0,0.3s0,0.2,0,0.3s0,0.2,0,0.3s0,0.2,0,0.3s0,0.2,0,0.3
				s0,0.2,0,0.3s0,0.2,0,0.3s0,0.2,0,0.3s0,0.2,0,0.3s0,0.2,0,0.3s0,0.2,0,0.3s0,0.2,0,0.3s0,0.2,0,0.3s0,0.2,0,0.3s0,0.2,0,0.3
				s0,0.2,0,0.3s0,0.2,0,0.3s0,0.2,0,0.3s0,0.2,0,0.3s0,0.2,0,0.3s0,0.2,0,0.3s0,0.2,0,0.3s0,0.2,0,0.3s0,0.2,0,0.3s0,0.2,0,0.3
				s0,0.2,0,0.3s0,0.2,0,0.3s0,0.2,0,0.3s0,0.2,0,0.3s0,0.2,0,0.3s0,0.2,0,0.3s0,0.2,0,0.3s0,0.2,0,0.3s0,0.2,0,0.3s0,0.2,0,0.3
				s0,0.2,0,0.3s0,0.2,0,0.3s0,0.2,0,0.3s0,0.2,0,0.3s0,0.2,0,0.3s0,0.2,0,0.3s0,0.2,0,0.3s0,0.2,0,0.3s0,0.2,0,0.3s0,0.2,0,0.3
				s0,0.2,0,0.3s0,0.2,0,0.3s0,0.2,0,0.3l0,0c-0.1,0.1-0.1,0.3-0.2,0.4c-0.1,0.2-0.1,0.3-0.2,0.5s-0.1,0.3-0.2,0.5
				c-0.1,0.2-0.1,0.3-0.2,0.5c-0.1,0.2-0.1,0.3-0.2,0.5c-0.1,0.2-0.1,0.3-0.2,0.5c-0.1,0.2-0.1,0.3-0.2,0.5s-0.1,0.3-0.2,0.5
				c-0.1,0.2-0.1,0.3-0.2,0.5c-0.1,0.2-0.1,0.3-0.2,0.5c-0.1,0.2-0.1,0.3-0.2,0.5c-0.1,0.2-0.1,0.3-0.2,0.5
				c-0.1,0.1-0.1,0.3-0.2,0.4c-0.1,0.2-0.1,0.3-0.2,0.5c-0.1,0.2-0.1,0.3-0.2,0.5c-0.1,0.2-0.1,0.3-0.2,0.5
				c-0.1,0.2-0.1,0.3-0.2,0.5c-0.1,0.2-0.1,0.3-0.2,0.5s-0.1,0.3-0.2,0.5c-0.1,0.2-0.1,0.3-0.2,0.5c-0.1,0.2-0.1,0.3-0.2,0.5
				c-0.1,0.2-0.1,0.3-0.2,0.5c-0.1,0.2-0.1,0.3-0.2,0.5s-0.1,0.3-0.2,0.5c-0.1,0.2-0.1,0.3-0.2,0.5c-0.1,0.2-0.1,0.3-0.2,0.5
				c-0.1,0.2-0.1,0.3-0.2,0.5c-0.1,0.2-0.1,0.3-0.2,0.5c-0.1,0.2-0.1,0.3-0.2,0.5c-0.1,0.2-0.1,0.3-0.2,0.5
				c-0.1,0.2-0.1,0.3-0.2,0.5c-0.1,0.2-0.1,0.3-0.2,0.5c-0.1,0.2,0.7,1.7,0.7,1.9s-0.1,0.3-0.2,0.5s-0.1,0.3-0.2,0.5
				c-0.1,0.2-0.1,0.3-0.2,0.5c-0.1,0.2-0.1,0.3-0.2,0.5c-0.1,0.2-0.1,0.3-0.2,0.5c-0.1,0.2-0.1,0.3-0.2,0.5s-0.1,0.3-0.2,0.5
				c-0.1,0.2-0.1,0.3-0.2,0.5c-0.1,0.2-0.1,0.3-0.2,0.5c-0.1,0.2-0.1,0.3-0.2,0.5c-0.1,0.2-0.1,0.3-0.2,0.5
				c-0.1,0.2-0.1,0.3-0.2,0.5c-0.1,0.2-0.1,0.3-0.2,0.5c-0.1,0.2-0.1,0.3-0.2,0.5c-0.1,0.2-0.1,0.3-0.2,0.5
				c-0.1,0.2-0.1,0.3-0.2,0.5c-0.1,0.2-0.1,0.3-0.2,0.5s-0.1,0.3-0.2,0.5c-0.1,0.2-0.1,0.3-0.2,0.5c-0.1,0.2-0.1,0.3-0.2,0.5
				c-0.1,0.2-0.1,0.3-0.2,0.5c-0.1,0.2-0.1,0.3-0.2,0.5s-0.1,0.3-0.2,0.5c-0.1,0.2-0.1,0.3-0.2,0.5c-0.1,0.2-0.1,0.3-0.2,0.5
				c-0.1,0.2-0.1,0.3-0.2,0.5c-0.1,0.2-0.1,0.3-0.2,0.5c-0.1,0.2-0.1,0.3-0.2,0.5c-0.1,0.2-0.1,0.3-0.2,0.5
				c-0.1,0.2-0.1,0.3-0.2,0.5c-0.1,0.2-0.1,0.3-0.2,0.5c-0.1,0.2-0.1,0.3-0.2,0.5c-0.1,0.2-0.1,0.3-0.2,0.5s-0.1,0.3-0.2,0.5
				c-0.1,0.2-0.1,0.3-0.2,0.5c-0.1,0.2-0.1,0.3-0.2,0.5c-0.1,0.2-0.1,0.3-0.2,0.5c-0.1,0.2-0.1,0.3-0.2,0.5s-0.1,0.3-0.2,0.5
				c-0.1,0.2-0.1,0.3-0.2,0.5c-0.1,0.2-0.1,0.3-0.2,0.5c-0.1,0.2-0.1,0.3-0.2,0.5c-0.1,0.2-0.1,0.3-0.2,0.5
				c-0.1,0.2-0.1,0.3-0.2,0.5c-0.1,0.2-0.1,0.3-0.2,0.5c-0.1,0.2-0.1,0.3-0.2,0.5c-0.1,0.2-0.1,0.3-0.2,0.5
				c-0.1,0.2-0.1,0.3-0.2,0.5c-0.1,0.2-0.1,0.3-0.2,0.5s-0.1,0.3-0.2,0.5c-0.1,0.2-0.1,0.3-0.2,0.5c-0.1,0.2-0.1,0.3-0.2,0.5
				c-0.1,0.2-0.1,0.3-0.2,0.5c-0.1,0.2-0.1,0.3-0.2,0.5s-0.1,0.3-0.2,0.5c-0.1,0.2-0.1,0.3-0.2,0.5c-0.1,0.2-0.1,0.3-0.2,0.5
				c-0.1,0.2-0.1,0.3-0.2,0.5c-0.1,0.2-0.1,0.3-0.2,0.5c-0.1,0.2-0.1,0.3-0.2,0.5c-0.1,0.2-0.1,0.3-0.2,0.5
				c-0.1,0.2-0.1,0.3-0.2,0.5c-0.1,0.2-0.1,0.3-0.2,0.5c-0.1,0.2-0.1,0.3-0.2,0.5c-0.1,0.2,1.8-1,1.8-0.9s-0.1,0.3-0.2,0.5
				s-0.1,0.3-0.2,0.5c-0.1,0.2-0.1,0.3-0.2,0.5c-0.1,0.2-0.1,0.3-0.2,0.5c-0.1,0.2-0.1,0.3-0.2,0.5c-0.1,0.2-0.1,0.3-0.2,0.5
				s-0.1,0.3-0.2,0.5c-0.1,0.2-0.1,0.3-0.2,0.5c-0.1,0.2-0.1,0.3-0.2,0.5c-0.1,0.2-0.1,0.3-0.2,0.5c-0.1,0.2-0.1,0.3-0.2,0.5
				c-0.1,0.2-0.1,0.3-0.2,0.5c-0.1,0.2-0.1,0.3-0.2,0.5c-0.1,0.2-0.1,0.3-0.2,0.5c-0.1,0.2-0.1,0.3-0.2,0.5
				c-0.1,0.2-0.1,0.3-0.2,0.5c-0.1,0.2-0.1,0.3-0.2,0.5s-0.1,0.3-0.2,0.5c-0.1,0.2-0.1,0.3-0.2,0.5c-0.1,0.2-0.1,0.3-0.2,0.5
				c-0.1,0.2-0.1,0.3-0.2,0.5c-0.1,0.2-0.1,0.3-0.2,0.5s-0.1,0.3-0.2,0.5c-0.1,0.2-0.1,0.3-0.2,0.5c-0.1,0.2-0.1,0.3-0.2,0.5
				c-0.1,0.2-0.1,0.3-0.2,0.5c-0.1,0.2-0.1,0.3-0.2,0.5c-0.1,0.2-0.1,0.3-0.2,0.5c-0.1,0.2-0.1,0.3-0.2,0.5
				c-0.1,0.2-0.1,0.3-0.2,0.5c-0.1,0.2-0.1,0.3-0.2,0.5c-0.1,0.2-0.1,0.3-0.2,0.5c-0.1,0.2-0.1,0.3-0.2,0.5s-0.1,0.3-0.2,0.5
				c-0.1,0.2-0.1,0.3-0.2,0.5c-0.1,0.2-0.1,0.3-0.2,0.5c-0.1,0.2-0.1,0.3-0.2,0.5c-0.1,0.2-0.1,0.3-0.2,0.5s-0.1,0.3-0.2,0.5
				c-0.1,0.2-0.1,0.3-0.2,0.5c-0.1,0.2-0.1,0.3-0.2,0.5c-0.1,0.2-0.1,0.3-0.2,0.5c-0.1,0.2-0.1,0.3-0.2,0.5
				c-0.1,0.2-0.1,0.3-0.2,0.5c-0.1,0.2-0.1,0.3-0.2,0.5c-0.1,0.2-0.1,0.3-0.2,0.5c-0.1,0.2-0.1,0.3-0.2,0.5
				c-0.1,0.2-0.1,0.3-0.2,0.5c-0.1,0.2-0.1,0.3-0.2,0.5s-0.1,0.3-0.2,0.5c-0.1,0.2-0.1,0.3-0.2,0.5c-0.1,0.2-0.1,0.3-0.2,0.5
				c-0.1,0.2-0.1,0.3-0.2,0.5c-0.1,0.2-0.1,0.3-0.2,0.5s-0.1,0.3-0.2,0.5c-0.1,0.2-0.1,0.3-0.2,0.5c-0.1,0.2-0.1,0.3-0.2,0.5
				c-0.1,0.2-0.1,0.3-0.2,0.5c-0.1,0.2-0.1,0.3-0.2,0.5c-0.1,0.2-0.1,0.3-0.2,0.5c-0.1,0.2-0.1,0.3-0.2,0.5
				c-0.1,0.2-0.1,0.3-0.2,0.5c-0.1,0.2-0.1,0.3-0.2,0.5c-0.1,0.2-0.1,0.3-0.2,0.5c-0.1,0.2-0.1,0.3-0.2,0.5s-0.1,0.3-0.2,0.5
				c-0.1,0.2-0.1,0.3-0.2,0.5c-0.1,0.2-0.1,0.3-0.2,0.5c-0.1,0.2-0.1,0.3-0.2,0.5c-0.1,0.2-0.1,0.3-0.2,0.5s-0.1,0.3-0.2,0.5
				c-0.1,0.2-0.1,0.3-0.2,0.5c-0.1,0.2-0.1,0.3-0.2,0.5c-0.1,0.2-0.1,0.3-0.2,0.5c-0.1,0.2-0.1,0.3-0.2,0.5
				c-0.1,0.2-0.1,0.3-0.2,0.5s-0.1,0.3-0.2,0.5c-0.1,0.2-0.1,0.3-0.2,0.5c-0.1,0.2-0.1,0.3-0.2,0.5c-0.1,0.2-0.1,0.3-0.2,0.5
				c-0.1,0.2-0.1,0.3-0.2,0.5s-0.1,0.3-0.2,0.5c-0.1,0.2-0.1,0.3-0.2,0.5c-0.1,0.2-0.1,0.3-0.2,0.5c-0.1,0.2-0.1,0.3-0.2,0.4
				C-575,130.9-568.9,135.5-562,138.6z"/>
			<g id="Group_4325" transform="translate(34.984 32.216)">
				<path id="Path_2949" class="st18" d="M-546.7-51.5c8.5,3.8,8.6,9.9,0.1,13.7s-22.3,3.8-30.8,0s-8.6-9.9-0.1-13.7
					C-569-55.3-555.2-55.2-546.7-51.5z"/>
			</g>
			<g id="Group_4327" transform="translate(32.557 28.723)">
				<g id="Group_4326">
					<path id="Path_2950" class="st10" d="M-559.6-27.9c-5.4,0.1-10.8-0.9-15.8-3c-7.3-3.3-8.4-7.8-8.4-10.3s1.1-7,8.3-10.2
						c8.8-3.9,22.7-4,31.6,0c7.3,3.3,8.4,7.8,8.5,10.3c0.1,2.5-1.1,7-8.3,10.2C-548.8-28.8-554.1-27.8-559.6-27.9z M-575.1-41.1
						c0.2,0.4,1,1.3,3.2,2.3c6.7,3,17.9,3,24.5,0c2.2-1,3-1.9,3.2-2.2c-0.2-0.4-1-1.3-3.2-2.3l0,0c-6.7-3-17.9-3-24.5,0
						C-574.1-42.4-574.9-41.5-575.1-41.1L-575.1-41.1z"/>
				</g>
			</g>
			<path id="Path_2951" class="st6" d="M-523.5-22.5c0,2.1-1.7,3.7-3.7,3.7c-2.1,0-3.7-1.7-3.7-3.7s1.7-3.7,3.7-3.7l0,0
				C-525.2-26.2-523.5-24.5-523.5-22.5z"/>
		</g>
	</g>
</g>
</svg>
