<?xml version="1.0" encoding="utf-8"?>
<!-- Generator: Adobe Illustrator 23.0.5, SVG Export Plug-In . SVG Version: 6.00 Build 0)  -->
<svg version="1.1" id="Layer_1" xmlns="http://www.w3.org/2000/svg" xmlns:xlink="http://www.w3.org/1999/xlink" x="0px" y="0px"
	 viewBox="0 0 208 280.9" style="enable-background:new 0 0 208 280.9;" xml:space="preserve">
<style type="text/css">
	.st0{fill:#FFFFFF;}
	.st1{fill:#F17280;}
	.st2{clip-path:url(#SVGID_2_);}
	.st3{fill:#47489C;}
	.st4{opacity:0.5;}
	.st5{opacity:0.6;fill:#25AF80;enable-background:new    ;}
	.st6{fill:#E9BC6F;}
	.st7{fill:#2F2F82;}
	.st8{fill:#EEC5B6;}
	.st9{fill:#ECEEF7;}
	.st10{fill:#C1C8E5;}
	.st11{fill:#D9D9EC;}
	.st12{fill:#91616A;}
	.st13{fill:#37354C;}
	.st14{fill:#DBA75E;}
	.st15{fill:#53A5D3;}
	.st16{opacity:0.5;fill:url(#Path_2947_1_);enable-background:new    ;}
	.st17{opacity:0.4;fill:#FFFFFF;enable-background:new    ;}
	.st18{fill:#9BA2D1;}
	.st19{fill:#8290C7;}
	.st20{fill:#D09744;}
	.st21{fill:#F7CB8C;}
	.st22{fill:#373B96;}
	.st23{fill:#5153A3;}
	.st24{fill:#E4A8B5;}
	.st25{fill:#9CAAD6;}
</style>
<g id="Group_4337" transform="translate(-111 -423)">
	<g id="Group_4279" transform="translate(196.692 688.666)">
		<path id="Path_2840" class="st5" d="M91.1-28c18.7,8.3,18.8,21.8,0.2,30.1s-48.9,8.3-67.7,0S4.8-19.7,23.4-28S72.4-36.3,91.1-28z"
			/>
	</g>
	<g id="Group_4280" transform="translate(111 619.475)">
		<path id="Path_2841" class="st5" d="M151.7-23.3c32.7,14.5,32.8,38,0.4,52.5s-85.2,14.5-117.9,0s-32.8-38-0.4-52.5
			S119-37.8,151.7-23.3z"/>
	</g>
	<g id="Group_4290" transform="translate(119.223 459.339)">
		<g id="Group_4282" transform="translate(78.646 127.225)">
			<ellipse id="Ellipse_797" class="st6" cx="56.7" cy="27.1" rx="21.5" ry="21.5"/>
			<g id="Group_4281">
				<path id="Path_2842" class="st7" d="M47.2,18.7c-1.4,0-2.7-0.7-3.6-1.8L10.5-27c-1.5-2-1.1-4.8,0.9-6.3s4.8-1.1,6.3,0.9l0,0
					l33.1,43.8c1.5,2,1.1,4.8-0.9,6.3C49.1,18.3,48.2,18.7,47.2,18.7L47.2,18.7z"/>
			</g>
		</g>
		<g id="Group_4284" transform="translate(56.909 119.489)">
			<ellipse id="Ellipse_798" class="st6" cx="28.3" cy="8.3" rx="18.7" ry="18.7"/>
			<g id="Group_4283" transform="translate(13.435)">
				<path id="Path_2843" class="st7" d="M14.1,6.2c-2.5,0-4.5-2-4.5-4.5l0,0v-31.4c0-2.5,2.1-4.5,4.6-4.4c2.4,0,4.4,2,4.4,4.4V1.7
					C18.6,4.2,16.6,6.2,14.1,6.2L14.1,6.2z"/>
			</g>
		</g>
		<ellipse id="Ellipse_799" class="st6" cx="107.2" cy="-10.6" rx="20.5" ry="20.5"/>
		<ellipse id="Ellipse_800" class="st10" cx="82.8" cy="90.4" rx="17" ry="17"/>
		<g id="Group_4285" transform="translate(68.173 65.479)">
			<path id="Path_2844" class="st7" d="M14.1,24.3c-2.5,0-4.5-2-4.5-4.5l0,0v-49.5c0-2.5,2-4.5,4.4-4.6c2.4-0.1,4.5,2,4.6,4.4v0.1
				v49.4C18.6,22.2,16.6,24.3,14.1,24.3z"/>
		</g>
		<g id="Group_4286" transform="translate(74.224 21.264)">
			<path id="Path_2845" class="st7" d="M14.1,5.8c-2.5,0-4.5-2-4.5-4.5c0-0.8,0.2-1.5,0.6-2.2l17.1-31c1.2-2.2,3.9-3,6.1-1.8
				c2.2,1.2,3,3.9,1.8,6.1l0,0L18,3.5C17.2,5,15.7,5.8,14.1,5.8z"/>
		</g>
		<ellipse id="Ellipse_801" class="st1" cx="81.9" cy="34.5" rx="21.5" ry="21.5"/>
		<g id="Group_4287" transform="translate(28.827 30.88)">
			<path id="Path_2846" class="st7" d="M46.6,5.8c-1.2,0-2.3-0.4-3.1-1.2L11-26.4c-1.8-1.7-1.8-4.6-0.1-6.4c1.7-1.7,4.5-1.8,6.3-0.2
				L49.7-2.1c1.8,1.7,1.9,4.6,0.2,6.4C49,5.3,47.8,5.8,46.6,5.8L46.6,5.8z"/>
		</g>
		<g id="Group_4289" transform="translate(0 127.226)">
			<ellipse id="Ellipse_802" class="st1" cx="31.1" cy="27.1" rx="21.5" ry="21.5"/>
			<g id="Group_4288" transform="translate(26.506)">
				<path id="Path_2847" class="st7" d="M14.1,18.7c-2.5,0-4.5-2-4.5-4.5c0-1,0.3-1.9,0.9-2.7l33.1-43.8c1.5-2,4.3-2.4,6.3-0.9
					c2,1.5,2.4,4.3,0.9,6.3L17.7,16.9C16.8,18,15.5,18.7,14.1,18.7z"/>
			</g>
		</g>
		<ellipse id="Ellipse_803" class="st10" cx="49.6" cy="7.5" rx="20.5" ry="20.5"/>
	</g>
	<g id="Group_4293" transform="translate(201.711 549.791)">
		<path id="Path_2848" class="st7" d="M64.9,116.2l-8.4-0.2c-1.9-0.1-3.3,1.8-2.9,4.1l0,0c0.1,0.8,8.9,3.4,14.2,4.9
			c2,0.6,3.8-1.1,3.7-3.6l-0.1-2.4L64.9,116.2z"/>
		<g id="Group_4291" transform="translate(45.195 74.575)">
			<path id="Path_2849" class="st3" d="M20.9,49.1c-3.4,0-6.3-2.6-6.7-6L9.6,1.3c-0.1-0.5-0.1-1.1,0-1.6l3.8-28
				c0.5-3.7,3.8-6.3,7.5-5.9c3.7,0.4,6.3,3.8,5.9,7.5v0.1L23.1,0.6l4.5,41c0.4,3.7-2.3,7.1-6,7.5C21.4,49.1,21.2,49.1,20.9,49.1
				L20.9,49.1z"/>
		</g>
		<path id="Path_2850" class="st3" d="M42.2,39.5c-0.5,10-3,40.2-2.4,43.2c0.8,4,15.8-22.8,16.9-27.4c4.7-0.7,15.5-7.5,15.5-7.5
			s1.2-6.5-0.7-10.9L55.6,34C50.8,33.1,45.3,35.7,42.2,39.5z"/>
		<path id="Path_2851" class="st8" d="M42.2-20.3c0,6.7,5.4,12.1,12.1,12.1c6.7,0,12.1-5.4,12.1-12.1S61-32.4,54.3-32.4
			C47.7-32.5,42.2-27,42.2-20.3z"/>
		<path id="Path_2852" class="st10" d="M73.4,7.4c0,0,5.2-13.7-0.3-17.5c-4.2-0.5-9.4,2-9.4,2s-10.9,7-18.2,10.7
			c-3.7,1.8-1.1,10.7-1,19.5c0,5.9-0.8,11.7-2.2,17.4c0,0,11.3,4.9,17.4,4.5s13.4-3.2,12.6-6.1s-4.5-13.4-2.8-17S73.4,7.4,73.4,7.4z
			"/>
		<path id="Path_2853" class="st11" d="M45.5,2.5c2-1,4.2-2.2,6.4-3.5c1.8,0.7,3.3,1.4,3.3,1.4l1.2,12.2c0,0-0.7,19.4-2,30.7
			c-4.1-1-8.1-2.3-12-3.9c1.5-5.9,2.3-11.9,2.4-18C44.5,12.5,41.8,4.3,45.5,2.5z"/>
		<path id="Path_2854" class="st8" d="M9.6,7.1c0,2.9,2.3,5.2,5.2,5.2S20,10,20,7.1c0-2.9-2.3-5.2-5.2-5.2l0,0
			C11.9,1.9,9.6,4.2,9.6,7.1L9.6,7.1z"/>
		<path id="Path_2855" class="st7" d="M42.6,126.4l-8.4-0.2c-1.9-0.1-3.3,1.8-2.9,4.1l0,0c0.1,0.8,8.9,3.4,14.2,4.9
			c2,0.6,3.8-1.1,3.7-3.6l-0.1-2.4L42.6,126.4z"/>
		<path id="Path_2856" class="st10" d="M58.4-4.6L45.5,2.5c0,0-3.6,1.3-7.3,10.2s-8.9,17.4-11.3,18.2s-9.8-18.3-11.4-19.5
			c-1.6-1.2-4.4-3.9-4,1.3s3.6,28.7,8.9,30.7s39.8-25.3,40.3-32.6S58.4-4.6,58.4-4.6z"/>
		<path id="Path_2857" class="st8" d="M15.7,10.4c1.6,1.2,8.7,21.3,11.2,20.5c0.2-0.1,0.3-0.1,0.4-0.2l0.1-0.1
			c0.1-0.1,0.3-0.2,0.4-0.3l0.1-0.1c0.2-0.1,0.3-0.3,0.5-0.5c0.1-0.1,0.1-0.1,0.2-0.2c0.1-0.1,0.3-0.3,0.4-0.4
			c0.1-0.1,0.2-0.2,0.2-0.3c0.1-0.2,0.3-0.3,0.4-0.5s0.3-0.4,0.4-0.5c0.1-0.2,0.2-0.3,0.4-0.5s0.2-0.3,0.4-0.5l0.2-0.4
			c0.5-0.7,1-1.5,1.5-2.3c0,0,0-0.1,0.1-0.1c0.7-1.2,1.5-2.6,2.2-4l0,0c2.4,3.6,5.3,6.9,8.7,9.7c-9.7,7.9-20.4,14.8-23.1,13.8
			c-5.3-2-8.5-25.5-8.9-30.7S14.1,9.2,15.7,10.4z"/>
		<path id="Path_2858" class="st8" d="M62.2-17.2l1.8,13l0,0c-1.3,2.9-4.2,4.8-7.4,4.7l-1.5-0.1l-2.9-13.7L62.2-17.2z"/>
		<path id="Path_2859" class="st3" d="M46.4-16.8c0.1-1.4,1.3-2.4,2.7-2.3c0.4,0,0.8,0.2,1.2,0.4c1,0.9,1.3,2.3,0.9,3.5
			s-1.1,2.3-2,3.2c3.8,2.6,8,4.7,12.4,6.2c1.8-2.6,3.6-5.3,5.4-7.9c0.9-1.1,1.6-2.4,2-3.8c0.9-3.2-0.4-8.8-2.5-11.3
			c-3-3.5-7-5.1-11.6-5.5c-3.6-0.3-7.9,2.2-10.2,4.9C41.6-25.6,45-20.7,46.4-16.8z"/>
		<g id="Group_4292" transform="translate(28.473 77.917)">
			<path id="Path_2860" class="st3" d="M16.8,54.2c-3.7,0-6.7-3-6.8-6.7L9.6,5.3c0-0.4,0-0.8,0.1-1.2l5.4-32.6
				c0.6-3.7,4.1-6.2,7.8-5.6c3.7,0.6,6.2,4.1,5.6,7.8l0,0l-5.3,32l0.4,41.6C23.6,51.1,20.6,54.1,16.8,54.2L16.8,54.2z"/>
		</g>
		<path id="Path_2861" class="st3" d="M68.1-7.3c5.6,4.9,8.3,12.4,7,19.8c-0.3,2.2-1.3,4.3-2.7,5.9c-3.3,3.1-8.4,3-11.5-0.3
			c0,0,0,0-0.1-0.1c-2.3-2.6-2.5-6.4-2.2-9.9c0.3-3.6,1.2-7.2,1.1-10.9c0-2-0.3-4,0.2-5.9c0.4-1.4,2.2-4.4,4-3.3
			c0.7,0.4,1.2,1.8,1.8,2.4C66.4-8.7,67.3-8,68.1-7.3z"/>
		<path id="Path_2862" class="st1" d="M60.5-9.2c-0.7,0.4-1.4,1-1.8,1.7c-0.2,0.3-0.2,0.6,0,0.9c0.2,0.2,0.4,0.3,0.6,0.3
			c1.9,0.5,3.9,0.1,5.5-1.1c0.8-0.6,2.8-3.3,1-3.9C64.6-11.7,61.6-9.9,60.5-9.2z"/>
	</g>
</g>
</svg>
