<?xml version="1.0" encoding="utf-8"?>
<!-- Generator: Adobe Illustrator 23.0.5, SVG Export Plug-In . SVG Version: 6.00 Build 0)  -->
<svg version="1.1" id="Layer_1" xmlns="http://www.w3.org/2000/svg" xmlns:xlink="http://www.w3.org/1999/xlink" x="0px" y="0px"
	 viewBox="0 0 318 308.1" style="enable-background:new 0 0 318 308.1;" xml:space="preserve">
<style type="text/css">
	.st0{fill:#FFFFFF;}
	.st1{fill:#F17280;}
	.st2{clip-path:url(#SVGID_2_);}
	.st3{fill:#47489C;}
	.st4{opacity:0.5;}
	.st5{opacity:0.6;fill:#25AF80;enable-background:new    ;}
	.st6{fill:#E9BC6F;}
	.st7{fill:#2F2F82;}
	.st8{fill:#EEC5B6;}
	.st9{fill:#ECEEF7;}
	.st10{fill:#C1C8E5;}
	.st11{fill:#D9D9EC;}
	.st12{fill:#91616A;}
	.st13{fill:#37354C;}
	.st14{fill:#DBA75E;}
	.st15{fill:#53A5D3;}
	.st16{opacity:0.5;fill:url(#Path_2947_1_);enable-background:new    ;}
	.st17{opacity:0.4;fill:#FFFFFF;enable-background:new    ;}
	.st18{fill:#9BA2D1;}
	.st19{fill:#8290C7;}
	.st20{fill:#D09744;}
	.st21{fill:#F7CB8C;}
	.st22{fill:#373B96;}
	.st23{fill:#5153A3;}
	.st24{fill:#E4A8B5;}
	.st25{fill:#9CAAD6;}
</style>
<g id="Group_4338" transform="translate(-111 -423)">
	<path id="Path_2786" class="st5" d="M384.1,679.1c-5.3-2.2-10.8-3.8-16.5-4.5l18.5-10.7v-9.3l0,0v9.3c2.5-1.5,4.9-3.1,7.1-5
		c12.1-9.8,9-37.4-4.5-42.3l-2.6-1v9.2l0,0v-9.2l-9.6,5.6l0,0l9.6-5.6L236,528.9l-116.7,67.4l0,0l0,0l0,0v9.6l13.2,7.6v14.2
		l-12.9,7.5l-0.3-0.2v0.3l-0.2,0.1l0.2,0.1v9l150.1,86.6l49.1-28.3c1.8,1.2,3.6,2.2,5.5,3c16.7,7.4,43.7,7.4,60.3,0
		C400.9,698.6,400.8,686.5,384.1,679.1z"/>
	<g id="Group_4261" transform="translate(371.242 543.842)">
		<path id="Path_2787" class="st19" d="M-11.6,99l8-5.8l-0.5-15.1l-125.5-47.3l-91.8,53l118,68.1L-11.6,99z"/>
		<path id="Path_2788" class="st10" d="M-103.3,159.2l-118-68.1v-7.6l118,68.1V159.2z"/>
		<path id="Path_2789" class="st10" d="M-221.3,53l118,68.1l91.8-53l-118-68.2L-221.3,53z"/>
		<path id="Path_2790" class="st18" d="M-9.4,68.9l-2.1-0.8v7.5l0,0c6.7,2.5,9.1,15.1,2.6,20.9l-2.6,2v7.5c2-1.1,3.8-2.5,5.6-4
			C3.6,94.5,1.2,72.8-9.4,68.9z"/>
		<g id="Group_4260" transform="translate(31.816 14.455)">
			<path id="Path_2791" class="st0" d="M-221.4,35.6l91.8,53.1l60.9-35.1L-160.9,0L-221.4,35.6z"/>
		</g>
		<path id="Path_2792" class="st0" d="M-12.1,72.3l-16.5,11.1l-75.6,43.1l-106.7-61.6v20.7l106.7,61.6l92.1-53V72.3z"/>
		<path id="Path_2793" class="st9" d="M-103.2,146.6l91.1-52.4V72.3l-16.5,11.1l-74.2,42.3L-103.2,146.6z"/>
	</g>
	<path id="Path_2794" class="st18" d="M359.8,650L268,703v-7.6l91.8-53V650z"/>
	<path id="Path_2795" class="st18" d="M359.8,619.5l-91.8,53v-7.6l91.8-53V619.5z"/>
	<path id="Path_2796" class="st9" d="M268,672.5l-118-68.1v-7.6l118,68.1V672.5z"/>
	<path id="Path_2797" class="st1" d="M286.9,667.6v23.7l6.2-10.2l5.1,3.4l-0.6-22.8L286.9,667.6z"/>
	<g id="Group_4263" transform="translate(376.808 505.888)">
		<path id="Path_2798" class="st20" d="M-211,88.3l-7.1-5.2l0.5-13.4l111.8-42.2L-24,74.7l-105.2,60.8L-211,88.3z"/>
		<path id="Path_2799" class="st14" d="M-129.3,141.9l105.2-60.7v-6.8l-105.2,60.7V141.9z"/>
		<path id="Path_2800" class="st6" d="M-24.1,47.2l-105.2,60.7l-81.9-47.1L-106,0L-24.1,47.2z"/>
		<path id="Path_2801" class="st21" d="M-213,61.4l1.8-0.7v6.8l0,0c-6,2.3-8.1,13.5-2.3,18.6l2.3,1.8v6.7c-1.8-1-3.4-2.2-5-3.5
			C-224.6,84.3-222.4,64.9-213,61.4z"/>
		<path id="Path_2802" class="st0" d="M-210.6,64.5l14.7,9.9l67.4,38.5L-33.4,58v18.5l-95.1,54.9l-82.1-47.2L-210.6,64.5z"/>
		<path id="Path_2803" class="st9" d="M-129.4,130.7L-210.6,84V64.5l14.7,9.9l66.2,37.7L-129.4,130.7z"/>
	</g>
	<path id="Path_2804" class="st21" d="M165.7,600.5l81.8,47.2V641l-81.8-47.2V600.5z"/>
	<path id="Path_2805" class="st21" d="M165.7,573.4l81.8,47.2v-6.7l-81.8-47.2V573.4z"/>
	<path id="Path_2806" class="st14" d="M247.5,620.6l105.2-60.7v-6.7l-105.2,60.7V620.6z"/>
	<ellipse id="Ellipse_795" class="st14" cx="254.8" cy="560.3" rx="55.4" ry="25"/>
	<ellipse id="Ellipse_796" class="st14" cx="190.9" cy="567.5" rx="17.8" ry="8"/>
	<path id="Path_2807" class="st14" d="M339.1,555.3c0,4.4-8,8-17.8,8s-17.8-3.6-17.8-8s8-8,17.8-8S339.1,550.9,339.1,555.3z"/>
	<path id="Path_2808" class="st22" d="M343.9,490.6v4l-88.6,51.2l-88.6-51.2v-4.1L343.9,490.6z"/>
	<path id="Path_2809" class="st3" d="M206,504.5v47c0,16.3,22.3,29.5,49.8,29.5s49.8-13.2,49.8-29.5v-47H206z"/>
	<path id="Path_2810" class="st7" d="M206.9,517.8c-1.3,0.4,13.5,20.8,38.1,34.6c14.3,8,41.6,9.8,57.1,10.1c2.3-3.2,3.5-7,3.5-10.9
		v-35l-65.2-10.8C240.5,505.7,208.9,517.2,206.9,517.8z"/>
	<path id="Path_2811" class="st22" d="M166.8,494.6l88.6-51.1l88.6,51.1l-88.6,51.2L166.8,494.6z"/>
	<path id="Path_2812" class="st3" d="M166.8,490.6l88.6-51.1l88.6,51.1l-88.6,51.2L166.8,490.6z"/>
	<path id="Path_2813" class="st23" d="M255.4,545.8v-4.1l-88.6-51.2v4.1L255.4,545.8z"/>
	<g id="Group_4266" transform="translate(469.934 481.776)">
		<path id="Path_2814" class="st6" d="M-174.4,82.4h3.7c2,0,3.7-1.6,3.7-3.7c0-0.1,0-0.2,0-0.3l-1.9-9.6c-0.1-1.9-1.7-3.4-3.7-3.4
			l0,0c-1.9,0-3.5,1.5-3.7,3.4l-1.9,9.6c-0.1,2,1.4,3.8,3.4,3.9C-174.6,82.4-174.5,82.4-174.4,82.4z"/>
		<g id="Group_4265">
			<path id="Path_2815" class="st6" d="M-173.4,82.7h1.8V28.8L-220.5,0l-0.9,1.5l48,28.3V82.7z"/>
		</g>
		<path id="Path_2816" class="st6" d="M-168.4,58.9c0,2.3-1.9,4.2-4.2,4.2c-2.3,0-4.2-1.9-4.2-4.2c0-2.3,1.9-4.2,4.2-4.2
			C-170.3,54.8-168.4,56.6-168.4,58.9z"/>
	</g>
	<g id="Group_4268" transform="translate(531.772 569.116)">
		<path id="Path_2817" class="st7" d="M-204.4,116.7c-0.7-0.2-1.2-0.8-1.2-1.5L-221.4,1.6c-0.1-0.9,0.3-1.6,1-1.6
			c0.8,0.1,1.4,0.7,1.5,1.5l15.8,113.6c0.1,0.9-0.3,1.6-1,1.6C-204.2,116.7-204.3,116.7-204.4,116.7z"/>
	</g>
	<g id="Group_4269" transform="translate(560.239 557.606)">
		<path id="Path_2818" class="st7" d="M-204.4,116.7c-0.7-0.2-1.2-0.8-1.2-1.5L-221.4,1.6c-0.1-0.9,0.3-1.6,1-1.6
			c0.8,0.1,1.4,0.7,1.5,1.5l15.8,113.6c0.1,0.9-0.3,1.6-1,1.6C-204.2,116.7-204.3,116.7-204.4,116.7z"/>
	</g>
	<g id="Group_4270" transform="translate(535.316 575.451)">
		<path id="Path_2819" class="st7" d="M-220.2,19.1c-0.5-0.1-0.9-0.5-1.1-0.9c-0.4-0.7-0.2-1.6,0.4-2.1l27.3-16
			c0.6-0.4,1.4,0,1.7,0.8c0.4,0.7,0.2,1.6-0.4,2.1l-27.3,16C-219.7,19.1-220,19.2-220.2,19.1z"/>
	</g>
	<g id="Group_4271" transform="translate(537.938 595.674)">
		<path id="Path_2820" class="st7" d="M-220.2,19.1c-0.5-0.1-0.9-0.5-1.1-0.9c-0.4-0.7-0.2-1.6,0.4-2.1l27.3-16
			c0.6-0.4,1.4,0,1.7,0.8c0.4,0.7,0.2,1.6-0.4,2.1l-27.3,16C-219.7,19.1-220,19.2-220.2,19.1z"/>
	</g>
	<g id="Group_4272" transform="translate(540.558 615.9)">
		<path id="Path_2821" class="st7" d="M-220.2,19.1c-0.5-0.1-0.9-0.5-1.1-0.9c-0.4-0.7-0.2-1.6,0.4-2.1l27.3-16
			c0.6-0.3,1.4,0,1.7,0.7c0,0,0,0.1,0.1,0.1c0.4,0.7,0.2,1.6-0.4,2.1l-27.3,16C-219.7,19.1-220,19.2-220.2,19.1z"/>
	</g>
	<g id="Group_4273" transform="translate(543.179 636.123)">
		<path id="Path_2822" class="st7" d="M-220.2,19.1c-0.5-0.1-0.9-0.5-1.1-0.9c-0.4-0.7-0.2-1.6,0.4-2.1l27.3-16
			c0.6-0.3,1.4,0,1.7,0.7v0.1c0.4,0.7,0.2,1.6-0.4,2.1l-27.3,16C-219.7,19.1-220,19.1-220.2,19.1z"/>
	</g>
	<g id="Group_4274" transform="translate(545.8 656.347)">
		<path id="Path_2823" class="st7" d="M-220.2,19.1c-0.5-0.1-0.9-0.5-1.1-0.9c-0.4-0.7-0.2-1.6,0.4-2.1l27.3-16
			c0.6-0.3,1.4,0,1.7,0.7v0.1c0.4,0.7,0.2,1.6-0.4,2.1l-27.3,16C-219.7,19.1-220,19.1-220.2,19.1z"/>
	</g>
	<g id="Group_4277" transform="translate(543.81 575.245)">
		<path id="Path_2824" class="st8" d="M-204.9,3.2c0.4,1.2,1.8,1.9,3,1.4c1.2-0.4,1.9-1.8,1.4-3s-1.8-1.9-3-1.4l0,0
			C-204.7,0.6-205.3,1.9-204.9,3.2z"/>
		<path id="Path_2825" class="st8" d="M-201.5,3.4c0,0,6.5,13.5,7.1,15.9c0.5,1.8-2.9,4.4-4.3,3c-1.4-1.4-4.9-18.3-4.9-18.3
			L-201.5,3.4z"/>
		<path id="Path_2826" class="st7" d="M-188.8,27c-2.7-3.2-4.3-7.1-6.2-10.9c-0.2-0.5-0.5-1-1-1.1c-0.4-0.1-0.8,0-1.2,0.2
			c-1.5,0.6-3.2,1.6-3.2,3.2c0,0.5,0.2,1,0.4,1.4c3,7.1,6.4,13.9,10.3,20.5c0.6,1,1.4,2.2,2.6,2.3c1.3,0.1,2.3-1,3-2.1
			c1.2-1.8,3.2-5.4,2.1-7.6C-183.1,30.7-187.1,29.1-188.8,27z"/>
		<path id="Path_2827" class="st8" d="M-221.3,11.5c0.4,1.2,1.8,1.9,3,1.4c1.2-0.4,1.9-1.8,1.4-3s-1.8-1.9-3-1.4l0,0
			C-221.1,8.9-221.7,10.2-221.3,11.5L-221.3,11.5z"/>
		<g id="Group_4275" transform="translate(28.507 54.105)">
			<path id="Path_2828" class="st6" d="M-207.4,58.7c-1.8,0-3.4-1.2-3.9-2.9l-6.6-21.7c-0.1-0.2-0.1-0.5-0.2-0.7l-3.3-28.7
				c-0.3-2.3,1.4-4.3,3.6-4.6c2.3-0.3,4.3,1.4,4.6,3.6L-210,32l6.5,21.4c0.7,2.2-0.6,4.5-2.7,5.1C-206.6,58.6-207,58.7-207.4,58.7
				L-207.4,58.7z"/>
		</g>
		<path id="Path_2829" class="st8" d="M-195.6,22.9c-2.2,3.3-1.4,7.8,1.9,10s7.8,1.4,10-1.9c2.2-3.3,1.4-7.8-1.9-10l0,0
			C-188.9,18.8-193.3,19.7-195.6,22.9z"/>
		<g id="Group_4276" transform="translate(5.685 58.154)">
			<path id="Path_2830" class="st6" d="M-212.9,35.1c-1.9,0-3.5-1.3-4-3.1l-4.4-18c-0.4-1.8,0.4-3.7,2-4.6l16.2-8.9
				c2-1.1,4.5-0.4,5.6,1.6c1.1,2,0.4,4.5-1.6,5.6l0,0l-13.4,7.3l3.7,15c0.5,2.2-0.8,4.4-3,5C-212.2,35.1-212.6,35.1-212.9,35.1
				L-212.9,35.1z"/>
		</g>
		<path id="Path_2831" class="st3" d="M-204.7,91.7c0,0-0.1,3-0.2,3.2c-0.1,0.2-1.3,0.9-3.1,0.5s-7-2.1-7.9-3
			c-0.9-0.9,1.9-0.7,3.7-0.5c1.7,0,3.4,0,5.1-0.2H-204.7z"/>
		<path id="Path_2832" class="st3" d="M-184.9,50.1c0.9-2.6,1.7-5.2,2.4-7.9c1.6-4.9,1.1-7.6,0.4-9c-2.6-1.3-6.9,0.8-6.9,0.8
			s-6.3,2.2-10,5.3c-1.3,1.1-0.5,6.7-0.2,12.6c0.2,3.9-1.7,9.3-1.7,9.3s6.7,2.9,10.3,2.6c3.6-0.3,7.9-1.9,7.4-3.6
			S-185.8,52.2-184.9,50.1z"/>
		<path id="Path_2833" class="st8" d="M-217.9,11.7c0,0,6.5,13.5,7.1,15.9c0.5,1.8-2.9,4.4-4.3,3c-1.3-1.4-4.9-18.3-4.9-18.3
			L-217.9,11.7z"/>
		<path id="Path_2834" class="st8" d="M-189.1,27.6l1.1,7.7l0,0c-0.8,1.7-2.5,2.8-4.4,2.8h-0.9L-195,30L-189.1,27.6z"/>
		<path id="Path_2835" class="st1" d="M-194.7,26.1c0.5-0.7,1.5-0.8,2.1-0.2c0.2,0.1,0.3,0.3,0.4,0.6c0.3,0.8,0.1,1.7-0.5,2.3
			c-0.5,0.4-1.2,0.8-1.9,0.9c1,2.5,3,4.5,4.6,6.7c1.8-0.7,2.4-1.2,4.2-1.9c0.8-0.3,1.6-0.7,2.3-1.2c1.6-1.7,2.5-4,2.5-6.4
			c-0.3-2.6-1.7-5-3.9-6.5c-1.6-1.3-4.6-1.6-6.6-1C-194.2,20.2-194.1,23.7-194.7,26.1z"/>
		<path id="Path_2836" class="st7" d="M-186.5,22.2c-1.7,2.5-1,5.8,1.4,7.5c2.5,1.7,5.8,1,7.5-1.4s1-5.8-1.4-7.5l0,0
			C-181.5,19.1-184.9,19.8-186.5,22.2z"/>
		<path id="Path_2837" class="st1" d="M-185.6,21.8c-1.8,2.7-1.1,6.3,1.6,8.1c2.7,1.8,6.3,1.1,8.1-1.6c1.8-2.7,1.1-6.3-1.6-8.1l0,0
			C-180.2,18.4-183.8,19.1-185.6,21.8z"/>
		<path id="Path_2838" class="st3" d="M-197.8,38.8l2.1,1.5c0.8,0.5,1.4,1.1,2,1.8c0.6,0.7,0.7,1.7,0.5,2.5c-0.4,1.1-1.8,1.6-3,1.9
			c-1.7,0.4-3.5,0.6-5.2,0.6c-1.8-0.6-3.4-1.4-5-2.4c-3.2-2.1-5.3-5.5-7-9c-0.9-1.8-1.6-3.6-2.3-5.4c1.1,0,2.2-0.2,3.1-0.6
			c1.1-0.3,1.9-1.3,2-2.5c1.3,2.5,2.5,4.9,3.8,7.4c0.4,0.9,0.9,1.8,1.5,2.5C-203.8,38.9-200.2,39.2-197.8,38.8z"/>
		<path id="Path_2839" class="st3" d="M-178.6,110.3c0,0,0.6,1.8,1.1,3.3s0,4.6,0.8,5.9s3.1,0.2,3-0.9c-0.2-2.1-0.5-4.1-1-6.1
			c-0.7-1.1-1.5-2.1-2.4-3L-178.6,110.3z"/>
	</g>
	<path id="Path_2888" class="st3" d="M338,529.5c-0.7,0.9-1.3,2-1.7,3.1c-0.2,0.6-0.1,1.3,0.2,1.9c0.9,0.5,1.9,1,2.8,1.4
		c0.7,0.2,2.5,2.6,4.1,3.1s3.6,1.6,4.2,0.3s-6.4-8.6-6.4-8.6L338,529.5z"/>
	<path id="Path_2889" class="st3" d="M314.9,527.3c0,0,0.2,1.4,1.4,1.4c0.9-0.2,1.8-0.7,2.4-1.4l-0.3,5.1c0,0-0.7,7.7-3,8.5
		c-2.2,0.8-2.7-3.4-2.7-3.4L314.9,527.3z"/>
	<path id="Path_2890" class="st10" d="M320.8,478.7l0.4,13.9l-8.1,8.3l-7.2-2.2c-1.7-0.5-2.9-2.1-3-3.9l-0.2-3.2
		c0,0-3.5-3.9-2.4-4.2s16.9-10.8,16.9-10.8L320.8,478.7z"/>
	<g id="Group_4310" transform="translate(524.951 490.608)">
		<path id="Path_2891" class="st10" d="M-208,39.2c-2.3,0-4.1-1.8-4.1-4.1c0-0.7,0.2-1.4,0.5-2c1.5-2.6,5.2-10.5,5-15.9
			c-0.1-2.5-6.6-6.9-12.3-9.2c-2.1-0.8-3.1-3.2-2.3-5.3s3.2-3.1,5.3-2.3c2.9,1.1,17.1,7.3,17.5,16.5c0.4,8.7-5.4,19.1-6.1,20.3
			C-205.1,38.4-206.5,39.2-208,39.2z"/>
	</g>
	<g id="Group_4311" transform="translate(536.633 487.687)">
		<path id="Path_2892" class="st10" d="M-196.9,45c-2.1,0-3.9-1.7-4.1-3.8c-0.4-5.1-1.9-19.5-4.3-24.9c-1.4-3.2-8.6-6.8-13.2-8.2
			c-2.2-0.7-3.4-3-2.7-5.2s3-3.4,5.2-2.7c2.5,0.8,14.9,5,18.3,12.8c3.4,7.8,4.9,25.6,5,27.6c0.2,2.3-1.5,4.2-3.8,4.4l0,0
			C-196.7,45-196.8,45-196.9,45z"/>
	</g>
	<path id="Path_2893" class="st14" d="M322,457.9l3.9,2.6c0,0,3.4,9.2,9.2,14.6c6.3,5.9,15.1,8.1,14.9,9.1c-0.3,1.9,1.3,3.8-1.2,3.2
		c-1.2-0.3-9.9-1.2-16.9-5c-4.7-2.7-8.9-6.3-12.4-10.4L322,457.9z"/>
	<path id="Path_2894" class="st6" d="M309.8,462.6c3.3-2.4,7.2-3.9,11.2-4.3c0.9-0.1,1.8-0.1,2.8,0.1c2.8,0.7,3.5,2.5,3.6,3.5
		s-6,25.6-6,25.6s-12.1,7.6-17,5c-3.6-1.8-3.6-3.9-3.3-4.9c0.2-0.6,0.3-1.2,0.4-1.8l6.2-21.6L309.8,462.6z"/>
	<path id="Path_2895" class="st0" d="M316.7,459.5c0,0-3.7,1.1-3.9,2.1c-0.3,1,2.6,4.2,6,3.9c3.5-0.3,6.9-3.6,5.5-4.8
		S316.7,459.5,316.7,459.5z"/>
	<g id="Group_4312" transform="translate(536.785 446.879)">
		<path id="Path_2896" class="st24" d="M-211.9,9.2l-4.2,6.3l0,0c-1.7,0.8-3.6,0.5-5-0.8l0,0c-0.4-0.3-0.4-0.9-0.2-1.3l3.5-6.3
			L-211.9,9.2z"/>
		<path id="Path_2897" class="st8" d="M-207.1,10.9c-2.2,3.2-6.5,4-9.7,1.9c-3.2-2.2-4-6.5-1.9-9.7c2.2-3.2,6.5-4,9.7-1.9
			C-205.8,3.4-205,7.7-207.1,10.9z"/>
		<path id="Path_2898" class="st22" d="M-207.3,8.8c0.4,0.1,0.7,0.1,1.1,0l0,0c1-3.7-1.2-7.6-4.9-8.6c-3.2-0.9-6.6,0.6-8.1,3.7
			c0.2,0.2,0.5,0.4,0.8,0.5c0.7,0.2,3.2-0.1,3.2-1.1c0,0.5,0,1-0.1,1.5c0.6-0.1,1.1-0.4,1.3-0.9C-212.5,6.3-210.1,8.1-207.3,8.8z"/>
		<path id="Path_2899" class="st8" d="M-216.4,4.9c-0.7,1-2,1.2-3,0.6s-1.2-2-0.6-3c0.7-1,2-1.2,3-0.6C-216,2.6-215.7,4-216.4,4.9
			L-216.4,4.9z"/>
	</g>
	<path id="Path_2900" class="st8" d="M353.4,485.7c0,1.4-1.2,2.6-2.6,2.6c-1.4,0-2.6-1.2-2.6-2.6s1.2-2.6,2.6-2.6l0,0
		C352.3,483.1,353.4,484.2,353.4,485.7L353.4,485.7z"/>
	<path id="Path_2901" class="st6" d="M307.6,464.2c0,0-13.1,15.2-12.9,25.6c0.2,6.5,2.1,12.8,5.6,18.2l4.4-0.2
		c0,0-4.7-17.3-2.6-21.4C304.1,482.4,312.9,465.4,307.6,464.2z"/>
	<path id="Path_2902" class="st8" d="M304.8,509.9c-1.3,1.1-3.2,1-4.3-0.3s-1-3.2,0.3-4.3s3.2-1,4.3,0.3l0,0
		C306.2,506.9,306,508.8,304.8,509.9L304.8,509.9z"/>
	<path id="Path_2903" class="st3" d="M176.4,530.2c0.7,0.9,1.3,2,1.7,3.1c0.2,0.6,0.1,1.3-0.2,1.9c-0.9,0.5-1.9,1-2.8,1.4
		c-0.7,0.2-2.5,2.6-4.1,3.1s-3.6,1.6-4.2,0.3s6.4-8.6,6.4-8.6L176.4,530.2z"/>
	<path id="Path_2904" class="st3" d="M199.5,528c0,0-0.2,1.4-1.4,1.4c-0.9-0.2-1.8-0.7-2.4-1.4l0.3,5.1c0,0,0.7,7.7,3,8.5
		s2.7-3.4,2.7-3.4L199.5,528z"/>
	<path id="Path_2905" class="st6" d="M193.5,479.4l-0.4,13.9l8.1,8.3l7.2-2.2c1.7-0.5,2.9-2.1,3-3.9l0.2-3.2c0,0,3.6-3.9,2.4-4.2
		s-16.9-10.8-16.9-10.8L193.5,479.4z"/>
	<g id="Group_4314" transform="translate(409.116 491.333)">
		<path id="Path_2906" class="st6" d="M-211.8,39.2c2.3,0,4.1-1.8,4.1-4.1c0-0.7-0.2-1.4-0.5-2c-1.5-2.6-5.2-10.5-5-15.9
			c0.1-2.5,6.6-6.9,12.3-9.2c2.1-0.8,3.1-3.2,2.3-5.3c-0.8-2.1-3.2-3.1-5.3-2.3l0,0c-2.9,1.1-17.1,7.3-17.5,16.5
			c-0.4,8.6,5.4,19,6.1,20.2C-214.6,38.4-213.2,39.2-211.8,39.2z"/>
	</g>
	<g id="Group_4315" transform="translate(391.904 488.413)">
		<path id="Path_2907" class="st6" d="M-217.3,45c2.1,0,3.9-1.7,4.1-3.8c0.4-5.1,1.9-19.5,4.3-24.9c1.4-3.2,8.6-6.8,13.2-8.2
			c2.2-0.7,3.3-3,2.6-5.2c-0.7-2.1-3-3.3-5.1-2.7c-2.5,0.8-14.9,5-18.3,12.8c-3.4,7.8-4.9,25.6-5,27.6c-0.2,2.3,1.5,4.2,3.8,4.4
			C-217.5,45-217.4,45-217.3,45z"/>
	</g>
	<path id="Path_2908" class="st25" d="M194,455.7l-2.4,1.7c0,0-9.9,23.6-9.7,25.5c0.2,1.7,1.7,2.9,3.3,2.7c0.2,0,0.3,0,0.4-0.1
		c1.5-0.6,7.1-14.2,7.1-14.2L194,455.7z"/>
	<path id="Path_2909" class="st10" d="M204.3,457.8c0,0-7.9-2.5-11.1-1.7s-3,5.3-3.3,6.4s1.7,26.7,1.7,26.7s12,9.4,17.9,6.5
		c4.3-2.1,4.6-4.5,4.5-5.7c-0.1-0.7-0.1-1.4-0.1-2.1l-3.5-25.1L204.3,457.8z"/>
	<ellipse id="Ellipse_804" class="st12" cx="196" cy="449.4" rx="7.8" ry="7.8"/>
	<path id="Path_2910" class="st12" d="M194.3,451.5l2.7,8l0,0c1.6,1.3,3.8,1.6,5.6,0.6l0,0c0.5-0.3,0.8-0.8,0.6-1.4l-2-7.8
		L194.3,451.5z"/>
	<path id="Path_2911" class="st25" d="M182.7,487.1L182.7,487.1c2.1,0,3.9-1.7,3.9-3.9l0,0c0-2.1-1.7-3.9-3.9-3.9l0,0
		c-2.1,0-3.9,1.7-3.9,3.9l0,0C178.8,485.4,180.5,487.1,182.7,487.1z"/>
	<path id="Path_2912" class="st12" d="M174.9,482.9c0,1.6,1.3,2.9,2.9,2.9s2.9-1.3,2.9-2.9s-1.3-2.9-2.9-2.9
		S174.9,481.3,174.9,482.9L174.9,482.9z"/>
	<path id="Path_2913" class="st25" d="M214.1,490c0,0.1,0,0.2,0,0.4v0.1c0,0.1,0,0.3,0,0.4l0,0c-0.3,1.6-1.3,2.9-2.7,3.7l0,0
		c-1.1,0.6-2.2,1.1-3.3,1.5c-4.7,0.6-12.3-4.5-16.1-7.3c0.3-0.7,0.6-1.3,1-2l14.4-6.3l3.4-17.2l0.4-0.9l-0.8,0.3l3.5,25.1
		C213.9,488.6,214,489.3,214.1,490z"/>
	<path id="Path_2914" class="st10" d="M210,473.4c0,0-7.5-14.9-5.6-15.7c0,0,6.6,1.5,8,4.4c1.3,2.9,9.4,22,9,24.6
		c-0.4,2.5-2.9,3.4-9.4,5.2c-3.7,1-7.4,1.7-11.1,2.1l-0.2-2.8l12.2-7.3L210,473.4z"/>
	<path id="Path_2915" class="st9" d="M169.8,482.2l14.5,1.2c0,0,4.9,2.9,4.7,5.1c-0.2,2.2-4.3,2.2-4.3,2.2l-8,5.1L169.8,482.2z"/>
	<path id="Path_2916" class="st0" d="M180.3,491.8c0.1-1.2-0.2-2.5-1-3.4c-2.3-2.9-6.7-6-8.8-6l13.7,1c0,0,6.3,2.2,4.7,5.1
		c-0.8,1.6-2.6,2.5-4.3,2.2L180.3,491.8z"/>
	<path id="Path_2917" class="st0" d="M176.9,495.1c0,0,3-5.4,6.3-5.6c1.9-0.1,3.9-0.5,5.7-1.1c0,0,7-0.7,10,2.8l1.6,1.9L176.9,495.1
		z"/>
	<g id="Group_4316" transform="translate(389.556 481.033)">
		<path id="Path_2918" class="st7" d="M-213.2,15.2l26.1-2.9c0.3,0,0.5-0.3,0.5-0.6s-0.3-0.5-0.6-0.5l-25.4,2.8l-7.8-13.8
			c-0.1-0.3-0.5-0.3-0.7-0.2c-0.3,0.1-0.3,0.5-0.2,0.7L-213.2,15.2z"/>
	</g>
	<path id="Path_2919" class="st12" d="M198.6,492.6c0,1.6,1.3,2.9,2.9,2.9s2.9-1.3,2.9-2.9c0-1.6-1.3-2.9-2.9-2.9l0,0
		C199.9,489.8,198.6,491.1,198.6,492.6z"/>
	<path id="Path_2920" class="st9" d="M196.6,492.2c0,0-14.2-3-16.3-1.2c-2,1.7-3,2.7-3,2.7l-0.4,1.4l21.4-2.3L196.6,492.2z"/>
	<path id="Path_2921" class="st13" d="M197.3,451.5c-0.1-0.6-0.1-1.1-0.1-1.7c0.1-0.6,0.4-1.1,0.9-1.4c0.3-0.1,0.6-0.2,0.9-0.1
		c0.6,0,1.2,0.3,1.6,0.7c0.1,0.2,0.2,0.4,0.3,0.6c0.4,1.4-0.1,2.9-1.2,3.8c0.3,0.4,0.7,0.7,1.2,0.9c0.4,0.2,0.9,0.3,1.4,0.4
		c0.6,1.1,0.3,2.6,0.1,3.8c0,1-0.1,2.1-0.3,3.1c-1,2.7-1.2,5.6-0.6,8.5c0.9-1.8,2.6-2.9,4-4.4c1.5-1.6,2.3-3.8,2.1-6.1
		c-0.2-2.2-1.6-4.2-3.7-5.1c1.5-1.9,2.1-4.4,1.6-6.8c-0.4-2.4-1.9-4.4-4-5.6c-1.5-0.7-3.1-1.1-4.8-1.2c-0.8-0.1-1.6,0-2.4,0.1
		c-2,0.4-3.8,1.6-5,3.2c-1.4,1.6-1.8,3.8-1.2,5.8c0.8-0.8,1.8-1.2,2.9-1c0.8,0.2,3.1,2.5,4.5,2.7C196,451.8,196.8,451.9,197.3,451.5
		z"/>
	<path id="Path_2922" class="st3" d="M202.1,454.5c-0.2,0.1-0.3,0.2-0.4,0.4c-0.1,0.5,0.1,0.9,0.6,1.1c0.4,0.1,0.9,0.1,1.4,0
		l0.9-0.2c0.3,0,0.6-0.1,0.8-0.3c0.3-0.3,0.5-0.7,0.3-1.1C205.3,452.9,203,453.9,202.1,454.5z"/>
	<path id="Path_2952" class="st10" d="M421.2,453.3L368,423.4c-0.6-0.4-1.3-0.5-1.9-0.2c-0.1,0-0.1,0-0.2,0.1c-0.1,0-0.1,0-0.2,0.1
		c-0.1,0-0.1,0-0.2,0.1c-0.1,0-0.1,0-0.2,0.1c-0.1,0-0.1,0-0.2,0.1c-0.1,0-0.1,0-0.2,0.1c-0.1,0-0.1,0-0.2,0.1c-0.1,0-0.1,0-0.2,0.1
		c-0.1,0-0.1,0-0.2,0.1c-0.1,0-0.1,0-0.2,0.1c-0.1,0-0.1,0-0.2,0.1c-0.1,0-0.1,0-0.2,0.1c-0.1,0-0.1,0-0.2,0.1c-0.1,0-0.1,0-0.2,0.1
		c-0.1,0-0.1,0-0.2,0.1c-0.1,0-0.1,0-0.2,0.1c-0.1,0-0.1,0-0.2,0.1c-0.1,0-0.1,0-0.2,0.1c-0.1,0-0.1,0-0.2,0.1c-0.1,0-0.1,0-0.2,0.1
		c-0.1,0-0.1,0-0.2,0.1c-0.1,0-0.1,0-0.2,0.1c-0.1,0-0.1,0-0.2,0.1c-0.1,0-0.1,0-0.2,0.1c-0.1,0-0.1,0-0.2,0.1c-0.1,0-0.1,0-0.2,0.1
		c-0.1,0-0.1,0-0.2,0.1c-0.1,0-0.3,0.1-0.4,0.1c-0.1,0-0.1,0-0.2,0.1c-1.2,0.3-2.1,2-2.1,4.6v48.4c0,3.6,1.7,7.5,3.8,8.8l7.6,4.5
		v14.8l0.2-0.2v0.1l0.2-0.2v0.1l0.2-0.2v0.1l0.2-0.2v0.1l0.2-0.2v0.1l0.2-0.2v0.1l0.2-0.2v0.1l0.2-0.2v0.1l0.2-0.2v0.1l0.2-0.2v0.1
		l0.2-0.2v0.1l0.2-0.2v0.1l0.2-0.2v0.1l0.2-0.2v0.1l0.2-0.2v0.1l0.2-0.2v0.1l0.2-0.2v0.1l0.2-0.2v0.1l0.2-0.2v0.1l0.2-0.2v0.1
		l0.2-0.2v0.1l0.2-0.2v0.1l0.2-0.2v0.1l0.2-0.2v0.1l0.2-0.2v0.1l0.2-0.2v0.1l0.2-0.2v0.1l0.2-0.2v0.1l0.2-0.2v0.1l0.2-0.2v0.1
		l0.2-0.2v0.1l6.2-5.6l34.8,18.2c0.6,0.4,1.3,0.5,1.9,0.2c0.1,0,0.1,0,0.2-0.1c0.1,0,0.1,0,0.2-0.1c3.8-1.5,6.1-1.5,6.1-6.4v-48.4
		C425,458.5,423.3,454.5,421.2,453.3z"/>
	<g id="Group_4331" transform="translate(579.714 424.97)">
		<path id="Path_2953" class="st0" d="M-163.1,30.3l-54.5-29.9c-2.1-1.2-3.8,0.7-3.8,4.3v48.4c0,3.6,1.7,7.5,3.8,8.8l7.6,4.5v14.8
			l9.9-8.9l37,19.6c2.1,1.2,3.8-0.7,3.8-4.3V39.1C-159.3,35.5-161,31.5-163.1,30.3z"/>
		<g id="Group_4330" transform="translate(16.147 37.173)">
			<path id="Path_2954" class="st3" d="M-217.4,4.8c0,1.9-0.9,2.9-2,2.3c-1.1-0.6-2-2.7-2-4.6s0.9-2.9,2-2.3
				C-218.3,0.8-217.4,2.9-217.4,4.8z"/>
			<path id="Path_2955" class="st3" d="M-205.6,11.8c0,1.9-0.9,2.9-2,2.3c-1.1-0.6-2-2.7-2-4.6s0.9-2.9,2-2.3
				C-206.5,7.8-205.6,9.9-205.6,11.8z"/>
			<path id="Path_2956" class="st3" d="M-193.8,18.8c0,1.9-0.9,2.9-2,2.3c-1.1-0.6-2-2.7-2-4.6s0.9-2.9,2-2.3
				C-194.7,14.8-193.8,16.9-193.8,18.8z"/>
		</g>
	</g>
</g>
</svg>
