<?xml version="1.0" encoding="utf-8"?>
<!-- Generator: Adobe Illustrator 23.0.5, SVG Export Plug-In . SVG Version: 6.00 Build 0)  -->
<svg version="1.1" id="Layer_1" xmlns="http://www.w3.org/2000/svg" xmlns:xlink="http://www.w3.org/1999/xlink" x="0px" y="0px"
	 viewBox="0 0 277.6 250.4" style="enable-background:new 0 0 277.6 250.4;" xml:space="preserve">
<style type="text/css">
	.st0{fill:#FFFFFF;}
	.st1{fill:#F17280;}
	.st2{clip-path:url(#SVGID_2_);}
	.st3{fill:#47489C;}
	.st4{opacity:0.5;}
	.st5{opacity:0.6;fill:#25AF80;enable-background:new    ;}
	.st6{fill:#E9BC6F;}
	.st7{fill:#2F2F82;}
	.st8{fill:#EEC5B6;}
	.st9{fill:#ECEEF7;}
	.st10{fill:#C1C8E5;}
	.st11{fill:#D9D9EC;}
	.st12{fill:#91616A;}
	.st13{fill:#37354C;}
	.st14{fill:#DBA75E;}
	.st15{fill:#53A5D3;}
	.st16{opacity:0.5;fill:url(#Path_2947_1_);enable-background:new    ;}
	.st17{opacity:0.4;fill:#FFFFFF;enable-background:new    ;}
	.st18{fill:#9BA2D1;}
	.st19{fill:#8290C7;}
	.st20{fill:#D09744;}
	.st21{fill:#F7CB8C;}
	.st22{fill:#373B96;}
	.st23{fill:#5153A3;}
	.st24{fill:#E4A8B5;}
	.st25{fill:#9CAAD6;}
</style>
<g id="Group_4303" transform="translate(802.772 157.944)">
	<path id="Path_2863" class="st0" d="M-530.5,22.8l-160.3-92.4l-112,64.8l160.1,92.4L-530.5,22.8z"/>
	<path id="Path_2864" class="st1" d="M-661.3,50.8c0,5,7.9,9.1,17.6,9.1s17.6-4.1,17.6-9.1s-7.9-9.1-17.6-9.1
		S-661.3,45.8-661.3,50.8z"/>
	<g id="Group_4302" transform="translate(32.447 17.91)">
		<g>
			<g>
				<defs>
					<polygon id="SVGID_1_" points="-642.7,-20.8 -726.5,-69.6 -802.8,-25 -719,23.8 					"/>
				</defs>
				<clipPath id="SVGID_2_">
					<use xlink:href="#SVGID_1_"  style="overflow:visible;"/>
				</clipPath>
				<g id="Group_4301" class="st2">
					<g id="Group_4295" transform="translate(0 -1.783)">
						
							<rect id="Rectangle_1368" x="-808.1" y="-46.7" transform="matrix(0.8631 -0.5051 0.5051 0.8631 -81.8085 -391.0471)" class="st3" width="91.9" height="4.1"/>
					</g>
					<g id="Group_4296" transform="translate(14.663 7.971)">
						
							<rect id="Rectangle_1369" x="-808" y="-46.7" transform="matrix(0.8683 -0.4961 0.4961 0.8683 -78.1354 -383.5141)" class="st3" width="93.5" height="4.1"/>
					</g>
					<g id="Group_4297" transform="translate(30.574 17.724)">
						
							<rect id="Rectangle_1370" x="-807.6" y="-47.6" transform="matrix(0.874 -0.486 0.486 0.874 -73.8797 -375.9518)" class="st3" width="91.6" height="4.1"/>
					</g>
					<g id="Group_4298" transform="translate(48.23 26.276)">
						
							<rect id="Rectangle_1371" x="-807.8" y="-47.3" transform="matrix(0.8689 -0.495 0.495 0.8689 -77.5208 -383.1819)" class="st3" width="91.3" height="4.1"/>
					</g>
					<g id="Group_4299" transform="translate(62.573 35.438)">
						
							<rect id="Rectangle_1372" x="-808.1" y="-46.6" transform="matrix(0.8648 -0.5021 0.5021 0.8648 -80.6143 -388.4649)" class="st3" width="92.8" height="4.1"/>
					</g>
					<g id="Group_4300" transform="translate(78.721 45.206)">
						
							<rect id="Rectangle_1373" x="-808.1" y="-46.7" transform="matrix(0.8631 -0.5051 0.5051 0.8631 -81.8086 -391.0468)" class="st3" width="91.9" height="4.1"/>
					</g>
				</g>
			</g>
		</g>
	</g>
</g>
<g id="Group_4304" transform="translate(939.575 223.031)" class="st4">
	<path id="Path_2866" class="st5" d="M-727.6-63.8c17.2,7.6,17.3,20.1,0.2,27.7c-17.1,7.6-45.1,7.7-62.4,0s-17.4-20.1-0.2-27.8
		S-744.9-71.5-727.6-63.8z"/>
</g>
<g id="Group_4308" transform="translate(957.52 76.177)">
	<path id="Path_2867" class="st3" d="M-777.9,79.8c0,0-1.8,4.2-1.7,6.7c-0.1,1.3,0.4,2.5,1.3,3.4c2,0.5,4,1,6,1.3
		c1.4,0.1,5.9,3.7,9.2,3.9s7.5,1.2,8-1.4s-16.3-12.9-16.3-12.9L-777.9,79.8z"/>
	<path id="Path_2868" class="st3" d="M-795.3,82.2c0,0,0.3,2.3,2.3,2.2s3.9-2.3,3.9-2.3l-0.5,8.3c0,0-1.2,12.5-4.8,13.8
		c-3.6,1.3-4.4-5.6-4.4-5.6L-795.3,82.2z"/>
	<path id="Path_2869" class="st6" d="M-759.1-13.3l0.6,22.6l-29.8,11.8l-0.2-13.5c0,0-5.8-6.3-3.9-6.8c1.9-0.5,27.4-17.5,27.4-17.5
		L-759.1-13.3z"/>
	<path id="Path_2870" class="st7" d="M-758.9-47.1l3.5,3.9c0,0,10.3,31.1,10.1,33.9s-3.3,4.7-5.5,3.9s-10.4-20.7-10.4-20.7
		L-758.9-47.1z"/>
	<g id="Group_4305" transform="translate(22.362 59.659)">
		<path id="Path_2871" class="st6" d="M-796.6,22c-3.4,0-6.2-2.8-6.2-6.2c0-0.5,0.1-1,0.2-1.4l9.1-38.5l0.4-39.2
			c0-3.4,2.8-6.2,6.2-6.2h0.1c3.4,0,6.2,2.9,6.2,6.3l-0.4,39.9c0,0.5-0.1,0.9-0.2,1.4l-9.2,39.2C-791.2,20-793.7,22-796.6,22z"/>
	</g>
	<path id="Path_2872" class="st3" d="M-778.2-46c0,0,11.4-3.7,16.1-2.5s6.2,4.3,6.6,5.8c0.4,1.5-1.6,39.4-1.6,39.4
		s-20.3,16.8-28.8,12.5c-6.2-3.1-6.7-6.6-6.5-8.3c0.1-1,0.2-2.1,0.2-3.1l5.1-36.5L-778.2-46z"/>
	<path id="Path_2873" class="st8" d="M-755.4-54.5c-2,5.9-8.5,9.1-14.5,7s-9.1-8.5-7-14.5c2.1-6,8.5-9.1,14.5-7l0,0
		C-756.5-66.9-753.3-60.5-755.4-54.5z"/>
	<path id="Path_2874" class="st8" d="M-763.6-55.2l-3.9,11.7l0,0c-2.3,1.9-5.5,2.3-8.2,0.8l0,0c-0.7-0.4-1.1-1.2-0.9-2l2.9-11.3
		L-763.6-55.2z"/>
	<g id="Group_4306" transform="translate(4.614 67.423)">
		<path id="Path_2875" class="st6" d="M-796.6,18.7c-3.4,0-6.2-2.8-6.2-6.2c0-0.4,0-0.9,0.1-1.3l6.2-29.7l5.2-45.6
			c0.3-3.4,3.4-5.9,6.8-5.6c3.4,0.3,5.9,3.4,5.6,6.8c0,0.1,0,0.1,0,0.2l-5.2,45.8c0,0.2-0.1,0.4-0.1,0.6l-6.3,30
			C-791.1,16.6-793.6,18.7-796.6,18.7z"/>
	</g>
	<path id="Path_2876" class="st3" d="M-756.5-57.7c0.6,0,1.2-0.1,1.7-0.5c0,0,0,0,0.1-0.1c0-6.3-5-11.4-11.3-11.4
		c-5.5,0-10.2,3.8-11.2,9.2c0.5,0.2,0.9,0.4,1.5,0.5c1.2,0.1,5-1.4,4.6-3c0.2,0.8,0.3,1.5,0.5,2.3c0.9-0.3,1.5-1.1,1.7-2
		C-765.7-59.4-761.2-57.6-756.5-57.7z"/>
	<path id="Path_2877" class="st7" d="M-746.7-3.3L-746.7-3.3c-3.1,0-5.6-2.5-5.7-5.7l0,0c0-3.1,2.5-5.6,5.7-5.7l0,0
		c3.1,0,5.6,2.5,5.7,5.7l0,0C-741-5.8-743.6-3.3-746.7-3.3z"/>
	<path id="Path_2878" class="st8" d="M-772.4-60c-0.6,1.8-2.6,2.8-4.4,2.1s-2.8-2.6-2.1-4.4c0.6-1.8,2.6-2.8,4.4-2.1
		C-772.7-63.8-771.8-61.8-772.4-60L-772.4-60z"/>
	<path id="Path_2879" class="st8" d="M-735.3-9.5c0,2.3-1.9,4.2-4.2,4.2s-4.2-1.9-4.2-4.2s1.9-4.2,4.2-4.2l0,0
		C-737.2-13.7-735.3-11.8-735.3-9.5z"/>
	<path id="Path_2880" class="st7" d="M-792.4,0.8c0,0.2,0,0.4,0,0.5v0.1c0,0.2,0,0.4,0,0.6v0.1c0.2,1.5,1.1,3.5,3.9,5.4l0,0
		c1.6,0.8,3.2,1.5,4.8,2.2c6.9,0.8,17.9-6.5,23.4-10.6c-0.4-1-0.9-1.9-1.4-2.9l-21-9.2l-4.9-25l-0.5-1.3l1.1,0.4l-5.1,36.5
		C-792.2-1.2-792.2-0.2-792.4,0.8z"/>
	<path id="Path_2881" class="st3" d="M-786.4-23.3c0,0,10.9-21.6,8.2-22.8c0,0-9.6,2.2-11.6,6.5s-13.6,32.1-13,35.8s4.2,5,13.7,7.5
		c5.3,1.4,10.7,2.5,16.2,3.1l0.4-4.1l-17.8-10.6L-786.4-23.3z"/>
	<path id="Path_2882" class="st9" d="M-727.9-10.5L-749-8.8c0,0-7.1,4.2-6.9,7.4c0.2,3.2,6.3,3.2,6.3,3.2l11.6,7.4L-727.9-10.5z"/>
	<path id="Path_2883" class="st0" d="M-760.5-1.4l8.4,0.7c4.3,0.4,8.2,2.4,10.9,5.7l3.4,4.1l-33.4-3.8C-771.3,5.4-768.2-3-760.5-1.4
		z"/>
	<path id="Path_2884" class="st0" d="M-743.2,3.4c-0.2-1.8,0.3-3.6,1.4-5c3.3-4.2,9.7-8.7,12.7-8.7L-749-8.8c0,0-9.2,3.2-6.9,7.4
		c1.1,2.4,3.7,3.7,6.3,3.2L-743.2,3.4z"/>
	<g id="Group_4307" transform="translate(26.644 57.411)">
		<path id="Path_2885" class="st1" d="M-764.1-47.4l-38.1-4.2c-0.4-0.1-0.7-0.5-0.7-0.9c0.1-0.4,0.4-0.7,0.8-0.7l37,4.1l11.3-20.1
			c0.2-0.4,0.7-0.5,1.1-0.3c0.4,0.2,0.5,0.7,0.3,1.1l0,0L-764.1-47.4z"/>
	</g>
	<path id="Path_2886" class="st8" d="M-770.7,3.8c0,2.3-1.9,4.2-4.2,4.2c-2.3,0-4.2-1.9-4.2-4.2s1.9-4.2,4.2-4.2l0,0
		C-772.6-0.4-770.7,1.5-770.7,3.8z"/>
	<path id="Path_2887" class="st9" d="M-738.3,8.3c0,0-3.7-8-12.6-6.8c-8.9,1.2-11.4,4.3-11.4,4.3L-738.3,8.3z"/>
</g>
</svg>
