<svg xmlns="http://www.w3.org/2000/svg" width="13.101" height="21.839" viewBox="0 0 13.101 21.839"><defs><style>.a{fill:#6f4fc4;}</style></defs><g transform="translate(-12.535 -4.176)"><g transform="translate(12.535 4.176)"><path class="a" d="M12.551,23.836A6.4,6.4,0,0,1,6,17.612V6.509A4.629,4.629,0,0,1,10.727,2a4.629,4.629,0,0,1,4.738,4.509V17.623a2.915,2.915,0,0,1-5.819,0V7.372a1.092,1.092,0,1,1,2.184,0V17.623a.731.731,0,0,0,1.452,0V6.509a2.456,2.456,0,0,0-2.555-2.325A2.456,2.456,0,0,0,8.184,6.509v11.1a4.214,4.214,0,0,0,4.367,4.04,4.214,4.214,0,0,0,4.367-4.04V6.509a1.092,1.092,0,0,1,2.184,0v11.1a6.4,6.4,0,0,1-6.551,6.223Z" transform="translate(-6 -1.999)"/></g></g></svg>