<?xml version="1.0" encoding="utf-8"?>
<!-- Generator: Adobe Illustrator 21.0.0, SVG Export Plug-In . SVG Version: 6.00 Build 0)  -->
<svg version="1.1" id="Layer_1" xmlns="http://www.w3.org/2000/svg" xmlns:xlink="http://www.w3.org/1999/xlink" x="0px" y="0px"
	 viewBox="0 0 512 512" style="enable-background:new 0 0 512 512;" xml:space="preserve">
<path d="M255.8,504C118.8,504,8,393.2,8,256.2C8,118.8,118.8,8,255.8,8C393.2,8,504,118.8,504,256.2C504,393.2,393.2,504,255.8,504z
	 M255.8,479.2c123.7,0,223.4-99.7,223.4-223c0-123.7-99.7-223.4-223.4-223.4c-123.3,0-223,99.7-223,223.4
	C32.8,379.5,132.5,479.2,255.8,479.2z"/>
<path d="M206.9,204.9c2.5-30.6,24.1-49.9,55.2-49.9c31.3,0,50.8,19.9,50.8,47.4c0,20.9-14.5,34.4-38.8,50.5
	c-27.2,17.6-33.5,33.8-33.3,59.4v18.2h25.9v-14.5c0-21.5,2.2-32.5,27.7-48.7c26.6-17,46-37.3,46-65.9c0-39.4-30.4-69.2-77.2-69.2
	c-50.2,0-79.1,31.9-81.5,72.9H206.9z M256,386.2c10.6,0,18.6-8.2,18.6-18.6c0-10.6-8-18.6-18.6-18.6c-10.4,0-18.6,8-18.6,18.6
	C237.4,378,245.6,386.2,256,386.2L256,386.2z"/>
</svg>
