<svg version="1.1" id="el_aabBUaTLX" xmlns="http://www.w3.org/2000/svg" xmlns:xlink="http://www.w3.org/1999/xlink" x="0px" y="0px" viewBox="0 0 1057 420" style="enable-background:new 0 0 1057.4 420.5;" xml:space="preserve"><style>@-webkit-keyframes kf_el_yVbN-1wXC8h_an_Hmy1GEime{85%{opacity: 0;}98.33%{opacity: 1;}0%{opacity: 0;}100%{opacity: 1;}}@keyframes kf_el_yVbN-1wXC8h_an_Hmy1GEime{85%{opacity: 0;}98.33%{opacity: 1;}0%{opacity: 0;}100%{opacity: 1;}}@-webkit-keyframes kf_el_opYJHF0FdXK_an_Eak2uUxsb{68.33%{opacity: 0;}83.33%{opacity: 1;}0%{opacity: 0;}100%{opacity: 1;}}@keyframes kf_el_opYJHF0FdXK_an_Eak2uUxsb{68.33%{opacity: 0;}83.33%{opacity: 1;}0%{opacity: 0;}100%{opacity: 1;}}@-webkit-keyframes kf_el_zC9Z0T1VU3_an_p5SenrWT9{51.67%{opacity: 0;}68.33%{opacity: 1;}0%{opacity: 0;}100%{opacity: 1;}}@keyframes kf_el_zC9Z0T1VU3_an_p5SenrWT9{51.67%{opacity: 0;}68.33%{opacity: 1;}0%{opacity: 0;}100%{opacity: 1;}}@-webkit-keyframes kf_el_fn9ehwxW02W_an_5eHPsYDex{33.33%{opacity: 0;}50%{opacity: 1;}0%{opacity: 0;}100%{opacity: 1;}}@keyframes kf_el_fn9ehwxW02W_an_5eHPsYDex{33.33%{opacity: 0;}50%{opacity: 1;}0%{opacity: 0;}100%{opacity: 1;}}@-webkit-keyframes kf_el_h4WYtoceFK_an_x7B6DpZR5{18.33%{opacity: 0;}33.33%{opacity: 1;}0%{opacity: 0;}100%{opacity: 1;}}@keyframes kf_el_h4WYtoceFK_an_x7B6DpZR5{18.33%{opacity: 0;}33.33%{opacity: 1;}0%{opacity: 0;}100%{opacity: 1;}}@-webkit-keyframes kf_el_Oz7f6A-nXFk_an_Te5RbCn11{0%{opacity: 0;}16.67%{opacity: 1;}100%{opacity: 1;}}@keyframes kf_el_Oz7f6A-nXFk_an_Te5RbCn11{0%{opacity: 0;}16.67%{opacity: 1;}100%{opacity: 1;}}@-webkit-keyframes kf_el_Oz7f6A-nXFk_an_xIowQxH6G{0%{-webkit-transform: translate(90.19999694824219px, 111.4000015258789px) translate(-90.19999694824219px, -111.4000015258789px) translate(0px, 0px);transform: translate(90.19999694824219px, 111.4000015258789px) translate(-90.19999694824219px, -111.4000015258789px) translate(0px, 0px);}16.67%{-webkit-transform: translate(90.19999694824219px, 111.4000015258789px) translate(-90.19999694824219px, -111.4000015258789px) translate(0px, 0px);transform: translate(90.19999694824219px, 111.4000015258789px) translate(-90.19999694824219px, -111.4000015258789px) translate(0px, 0px);}100%{-webkit-transform: translate(90.19999694824219px, 111.4000015258789px) translate(-90.19999694824219px, -111.4000015258789px) translate(0px, 0px);transform: translate(90.19999694824219px, 111.4000015258789px) translate(-90.19999694824219px, -111.4000015258789px) translate(0px, 0px);}}@keyframes kf_el_Oz7f6A-nXFk_an_xIowQxH6G{0%{-webkit-transform: translate(90.19999694824219px, 111.4000015258789px) translate(-90.19999694824219px, -111.4000015258789px) translate(0px, 0px);transform: translate(90.19999694824219px, 111.4000015258789px) translate(-90.19999694824219px, -111.4000015258789px) translate(0px, 0px);}16.67%{-webkit-transform: translate(90.19999694824219px, 111.4000015258789px) translate(-90.19999694824219px, -111.4000015258789px) translate(0px, 0px);transform: translate(90.19999694824219px, 111.4000015258789px) translate(-90.19999694824219px, -111.4000015258789px) translate(0px, 0px);}100%{-webkit-transform: translate(90.19999694824219px, 111.4000015258789px) translate(-90.19999694824219px, -111.4000015258789px) translate(0px, 0px);transform: translate(90.19999694824219px, 111.4000015258789px) translate(-90.19999694824219px, -111.4000015258789px) translate(0px, 0px);}}#el_aabBUaTLX *{-webkit-animation-duration: 2s;animation-duration: 2s;-webkit-animation-iteration-count: infinite;animation-iteration-count: infinite;-webkit-animation-timing-function: cubic-bezier(0, 0, 1, 1);animation-timing-function: cubic-bezier(0, 0, 1, 1);}#el_dBhDIRQRl9{fill: #8B00AF;}#el_hqhAHgTEhZ{fill: #8B00AF;}#el_waksnpaoLl{fill: #8B00AF;}#el_xrhdKIX_Cw{fill: #8B00AF;}#el_syla9fbRdj{fill: #FFCE00;}#el_Y95YFi3wvn{fill: #E6E6E6;}#el_PFQ8PNliry{fill: #E6E6E6;}#el_rrWaHpGlSg{fill: #E6E6E6;}#el_01qzWRX75E{fill: #E6E6E6;}#el_HDsvmCqBJ5{fill: #E6E6E6;}#el_85b026Yai_{fill: #E6E6E6;}#el_7nzCcyWik3{fill: #E6E6E6;}#el_-ebVbG2Yya{fill: #E6E6E6;}#el_FPy1X19A8MW{fill: #E6E6E6;}#el_isRtndBSjdP{fill: #E6E6E6;}#el_GbJ7bYCTSJ6{fill: #E6E6E6;}#el_7P9tmIF_HrB{fill: #1B1464;-webkit-transform: matrix(0.9239, -0.3825, 0.3825, 0.9239, -31.9858, 184.1859);transform: matrix(0.9239, -0.3825, 0.3825, 0.9239, -31.9858, 184.1859);}#el_NSmZ64D1DV0{fill: #1B1464;}#el_ZEcpJ_TcasA{fill: #73D5F4;}#el_Y6Jw8dW5UTL{fill: none;stroke: #0071BC;stroke-miterlimit: 10;}#el_6NUOOtd48O-{fill: none;stroke: #0071BC;stroke-miterlimit: 10;}#el_HyztK0QD5i2{fill: #73D5F4;}#el_hUMhyJ2pgRG{fill: #1B1464;-webkit-transform: matrix(0.9239, -0.3825, 0.3825, 0.9239, -21.2374, 144.8137);transform: matrix(0.9239, -0.3825, 0.3825, 0.9239, -21.2374, 144.8137);}#el_VNob9fyEk1-{fill: #1B1464;-webkit-transform: matrix(0.9239, -0.3825, 0.3825, 0.9239, -67.7127, 208.674);transform: matrix(0.9239, -0.3825, 0.3825, 0.9239, -67.7127, 208.674);}#el_KAKCizvVKF5{fill: #1B1464;}#el_XxqxXvu376G{fill: #1B1464;}#el_OPbY-DDTabX{fill: #1B1464;}#el_WOW2OmhrDFl{fill: #1B1464;}#el_eoFQ0LRq8nS{fill: #1B1464;}#el_UMUMs5jmgdB{fill: #1B1464;-webkit-transform: matrix(0.9239, -0.3825, 0.3825, 0.9239, -68.2429, 194.2766);transform: matrix(0.9239, -0.3825, 0.3825, 0.9239, -68.2429, 194.2766);}#el_Y0jNfeuaDlE{fill: #1B1464;-webkit-transform: matrix(0.9239, -0.3825, 0.3825, 0.9239, -50.4176, 164.3014);transform: matrix(0.9239, -0.3825, 0.3825, 0.9239, -50.4176, 164.3014);}#el_Tsgvwq1GOc-{opacity: 0.4;}#el_Oz7f6A-nXFk{fill: #DF0209;-webkit-animation-fill-mode: backwards;animation-fill-mode: backwards;opacity: 0;-webkit-animation-name: kf_el_Oz7f6A-nXFk_an_Te5RbCn11;animation-name: kf_el_Oz7f6A-nXFk_an_Te5RbCn11;-webkit-animation-timing-function: cubic-bezier(0, 0, 1, 1);animation-timing-function: cubic-bezier(0, 0, 1, 1);}#el_UrtC2dRR9Wc{fill: #5AE0D3;}#el_tEIdKc3GEc5{-webkit-clip-path: url(#SVGID_4_);clip-path: url(#SVGID_4_);fill: #2EA092;}#el_Tu4ZzDZu_d8{-webkit-clip-path: url(#SVGID_4_);clip-path: url(#SVGID_4_);fill: #2EA092;}#el_jfwUl1trkOM{-webkit-clip-path: url(#SVGID_4_);clip-path: url(#SVGID_4_);fill: #2EA092;}#el_OAofXb-4-kb{-webkit-clip-path: url(#SVGID_4_);clip-path: url(#SVGID_4_);fill: #2EA092;}#el_L4wwtQbY-p-{-webkit-clip-path: url(#SVGID_4_);clip-path: url(#SVGID_4_);fill: #2EA092;}#el_AgH1x6ERUf2{-webkit-clip-path: url(#SVGID_4_);clip-path: url(#SVGID_4_);fill: #2EA092;}#el_twNZATpMvnv{-webkit-clip-path: url(#SVGID_4_);clip-path: url(#SVGID_4_);fill: #2EA092;}#el_wJ3us0GTvuj{-webkit-clip-path: url(#SVGID_4_);clip-path: url(#SVGID_4_);fill: #2EA092;}#el_tTnebgl3KZw{-webkit-clip-path: url(#SVGID_4_);clip-path: url(#SVGID_4_);fill: #2EA092;}#el_qU2pzJgeOEy{fill: #96049E;}#el_AMQTfMtJ510{fill: #E1859C;}#el_c7ICZoBOc2I{fill: #C2C3C9;}#el_A6E-DtamRVz{fill: #3F3A36;}#el_fONQfkd4fkq{fill: #CEBB8C;}#el_Cm7s6UsN4E0{fill: #FF20AB;}#el_f-3yDWJe19a{fill: #C2C3C9;}#el_qRM2W-Ut-Fn{fill: #C2C3C9;}#el_Y0CVG5tbTyx{fill: #DAF0FB;}#el_SAZWleSUZC3{fill: #FF00AA;}#el_tbLrbo9918L{fill: #E1859C;}#el_NEA2h227ldr{fill: #FF20AB;}#el_TMCVStWDKua{fill: #96049E;}#el_h4WYtoceFK{-webkit-animation-fill-mode: backwards;animation-fill-mode: backwards;opacity: 0;-webkit-animation-name: kf_el_h4WYtoceFK_an_x7B6DpZR5;animation-name: kf_el_h4WYtoceFK_an_x7B6DpZR5;-webkit-animation-timing-function: cubic-bezier(0, 0, 1, 1);animation-timing-function: cubic-bezier(0, 0, 1, 1);}#el_fn9ehwxW02W{-webkit-animation-fill-mode: backwards;animation-fill-mode: backwards;opacity: 0;-webkit-animation-name: kf_el_fn9ehwxW02W_an_5eHPsYDex;animation-name: kf_el_fn9ehwxW02W_an_5eHPsYDex;-webkit-animation-timing-function: cubic-bezier(0, 0, 1, 1);animation-timing-function: cubic-bezier(0, 0, 1, 1);}#el_zC9Z0T1VU3{-webkit-animation-fill-mode: backwards;animation-fill-mode: backwards;opacity: 0;-webkit-animation-name: kf_el_zC9Z0T1VU3_an_p5SenrWT9;animation-name: kf_el_zC9Z0T1VU3_an_p5SenrWT9;-webkit-animation-timing-function: cubic-bezier(0, 0, 1, 1);animation-timing-function: cubic-bezier(0, 0, 1, 1);}#el_opYJHF0FdXK{-webkit-animation-fill-mode: backwards;animation-fill-mode: backwards;opacity: 0;-webkit-animation-name: kf_el_opYJHF0FdXK_an_Eak2uUxsb;animation-name: kf_el_opYJHF0FdXK_an_Eak2uUxsb;-webkit-animation-timing-function: cubic-bezier(0, 0, 1, 1);animation-timing-function: cubic-bezier(0, 0, 1, 1);}#el_yVbN-1wXC8h{-webkit-animation-fill-mode: backwards;animation-fill-mode: backwards;opacity: 0;-webkit-animation-name: kf_el_yVbN-1wXC8h_an_Hmy1GEime;animation-name: kf_el_yVbN-1wXC8h_an_Hmy1GEime;-webkit-animation-timing-function: cubic-bezier(0, 0, 1, 1);animation-timing-function: cubic-bezier(0, 0, 1, 1);}#el_Oz7f6A-nXFk_an_xIowQxH6G{-webkit-animation-fill-mode: backwards;animation-fill-mode: backwards;-webkit-transform: translate(90.19999694824219px, 111.4000015258789px) translate(-90.19999694824219px, -111.4000015258789px) translate(0px, 0px);transform: translate(90.19999694824219px, 111.4000015258789px) translate(-90.19999694824219px, -111.4000015258789px) translate(0px, 0px);-webkit-animation-name: kf_el_Oz7f6A-nXFk_an_xIowQxH6G;animation-name: kf_el_Oz7f6A-nXFk_an_xIowQxH6G;-webkit-animation-timing-function: cubic-bezier(0, 0, 1, 1);animation-timing-function: cubic-bezier(0, 0, 1, 1);}</style>

<g id="el_h4WYtoceFK">
	<path d="M295,252.1c-0.5-0.2-0.9-0.5-1.4-0.7c0.1-1,0.2-1.9,0.4-2.9c6.1-25.4,12.3-50.8,18.2-76.2&#10;&#9;&#9;c2.4-10.3-11.9-23.6-22-20.4c-7,2.2-8.1,8.7-9.7,14.6c-1.8,6.7-3.5,13.4-5.2,20.1c-6.1,24.4-12.7,48.7-17.9,73.3&#10;&#9;&#9;c-2.7,12.6,5,22.7,15.8,23.5c8,0.6,14.6-2.6,19.6-8.5c4.4-5.2,7.9-11.3,12-16.8c16-21.5,32.2-43,48.3-64.5&#10;&#9;&#9;c5.9-7.9,12.1-15.6,17.5-23.7c1.4-2.1,0.6-5.7,0.8-8.6c-2.3,1.2-5.3,1.8-6.8,3.7c-12.4,16-24.1,32.4-36.7,48.2&#10;&#9;&#9;C317.4,226.5,306,239.1,295,252.1z" id="el_dBhDIRQRl9"/>
	<path d="M302,137.9c8.4-0.2,12.1-5.2,15.4-17.7c1.9-7.2-2.7-11.5-9.5-10.3c-3.1,0.5-7,0.8-8.9,2.7&#10;&#9;&#9;c-4,4.2-12.7,4.3-11.9,12.9C287.8,134.4,292.4,138.1,302,137.9z" id="el_hqhAHgTEhZ"/>
	<path d="M295,252.1c11-12.9,22.4-25.6,33-38.9c12.6-15.8,24.3-32.2,36.7-48.2c1.4-1.9,4.5-2.5,6.8-3.7&#10;&#9;&#9;c-0.2,2.9,0.6,6.5-0.8,8.6c-5.5,8.2-11.6,15.9-17.5,23.7c-16.1,21.5-32.2,43-48.3,64.5c-4.1,5.5-7.6,11.5-12,16.8&#10;&#9;&#9;c-5,5.9-11.6,9.1-19.6,8.5c-10.8-0.8-18.6-10.9-15.8-23.5c5.3-24.6,11.9-48.9,17.9-73.3c1.7-6.7,3.4-13.4,5.2-20.1&#10;&#9;&#9;c1.6-5.9,2.7-12.5,9.7-14.6c10.1-3.1,24.4,10.1,22,20.4c-6,25.4-12.2,50.8-18.2,76.2c-0.2,0.9-0.3,1.9-0.4,2.9&#10;&#9;&#9;C294.1,251.6,294.5,251.8,295,252.1z" id="el_waksnpaoLl"/>
	<path d="M302,137.9c-9.6,0.2-14.2-3.6-15-12.4c-0.8-8.5,7.9-8.7,11.9-12.9c1.9-2,5.8-2.2,8.9-2.7&#10;&#9;&#9;c6.9-1.2,11.5,3,9.5,10.3C314.1,132.7,310.4,137.8,302,137.9z" id="el_xrhdKIX_Cw"/>
</g>
<g id="el_zC9Z0T1VU3">
	<path d="M617.4,110.4l-2.3,11.8h24.8v9.9h-26.7l-15.1,78.3l-7.8-40.4h-27.4V164l5.6-5c9.4-8.4,14-13.2,14.1-18.3&#10;&#9;&#9;c0-3.5-2.1-6.3-7.1-6.3c-3.7,0-7,1.9-9.2,3.6l-2.8-7.2c3.2-2.4,8.3-4.4,14.1-4.4c1.6,0,3,0.2,4.4,0.5l-3.2-16.4h-57.2v175h37.1&#10;&#9;&#9;V168.1l15,73.9h3l4.7,7c1.2,1.8,2.2,3.5,3.3,5.3h0.2c1.1-2,2.2-3.6,3.2-5.4l4.6-7h6.4L588,257.8l11.5,16.9h-6.7l-4.8-7.4&#10;&#9;&#9;c-1.3-1.9-2.4-3.7-3.5-5.7h-0.1c-1.1,2-2.2,3.7-3.4,5.7l-1.5,2.4l3.2,15.8h32.2l2.9-14.7c-0.9,0.1-1.8,0.1-2.8,0.1&#10;&#9;&#9;c-5.4,0-10-1.4-12.5-3l2-7.4c1.7,0.9,5.7,2.6,9.7,2.6c2.3,0,4-0.5,5.3-1.3l1.4-7.2c-1.4-2.1-4.4-3.1-7.5-3.1h-4v-7h3.8&#10;&#9;&#9;c3.3-0.1,7.5-1.3,7.5-4.8c0-2.5-2.1-4.4-6.2-4.4c-3.4,0-7,1.5-8.8,2.5l-2-7.1c2.5-1.6,7.6-3.2,13-3.2c3.8,0,6.9,0.9,9.2,2.3&#10;&#9;&#9;l6.7-33.4v-1.2h-25.4v-6.8h25.4V162h7.2v26.5h25.4v6.8h-25.4v26.7h-0.8v63.6h34.5v-175H617.4z" id="el_syla9fbRdj"/>
	<polygon points="639.1,284.5 644.1,284.5 665.2,229.9 660.1,229.9 &#9;" id="el_Y95YFi3wvn"/>
	<polygon points="644.1,284.5 639.1,284.5 660.1,229.9 665.2,229.9 &#9;" id="el_PFQ8PNliry"/>
	<path d="M563.4,130.8l2.8,7.2c2.3-1.7,5.5-3.6,9.2-3.6c5,0,7.1,2.8,7.1,6.3c-0.1,5-4.7,9.9-14.1,18.3l-5.6,5v6.1h27.4&#10;&#9;&#9;l-1.6-8.3h-11.5v-0.1l4-3.3c2.1-1.9,4-3.8,5.7-5.7l-5-25.9c-1.3-0.3-2.8-0.5-4.4-0.5C571.7,126.3,566.7,128.3,563.4,130.8z" id="el_rrWaHpGlSg"/>
	<path d="M614.1,263.1c-4,0-8-1.7-9.7-2.6l-2,7.4c2.5,1.5,7,3,12.5,3c1,0,1.9-0.1,2.8-0.1l1.8-8.9&#10;&#9;&#9;C618.2,262.6,616.4,263.1,614.1,263.1z" id="el_01qzWRX75E"/>
	<path d="M603.7,230.7l2,7.1c1.7-1,5.4-2.5,8.8-2.5c4.1,0,6.2,1.9,6.2,4.4c0,3.6-4.2,4.8-7.5,4.8h-3.8v7h4&#10;&#9;&#9;c3.1,0,6.1,1,7.5,3.1l5-24.7c-2.3-1.4-5.4-2.3-9.2-2.3C611.2,227.5,606.2,229.1,603.7,230.7z" id="el_HDsvmCqBJ5"/>
	<polygon points="575.2,249.3 577.9,262.7 581.2,258 &#9;" id="el_85b026Yai_"/>
	<polygon points="639.8,122.2 615.1,122.2 613.2,132.1 639.8,132.1 &#9;" id="el_7nzCcyWik3"/>
	<polygon points="639.8,195.2 665.2,195.2 665.2,188.4 639.8,188.4 639.8,162 632.6,162 632.6,188.4 607.1,188.4 &#10;&#9;&#9;607.1,195.2 632.6,195.2 632.6,196.4 638.9,164.7 638.9,221.9 639.8,221.9 &#9;" id="el_-ebVbG2Yya"/>
	<path d="M584.3,261.7h0.1c1.1,2,2.2,3.8,3.5,5.7l4.8,7.4h6.7L588,257.8l11.1-15.8h-6.4l-4.6,7&#10;&#9;&#9;c-1.1,1.8-2.2,3.4-3.2,5.4h-0.2c-1.1-1.8-2.1-3.5-3.3-5.3l-4.7-7h-3l1.5,7.3l6,8.7l-3.3,4.7l1.4,7l1.5-2.4&#10;&#9;&#9;C582.1,265.4,583.2,263.6,584.3,261.7z" id="el_FPy1X19A8MW"/>
	<polygon points="639.1,284.5 644.1,284.5 665.2,229.9 660.1,229.9 &#9;" id="el_isRtndBSjdP"/>
	<rect x="639.1" y="195.2" width="9.7" height="26.7" id="el_GbJ7bYCTSJ6"/>
</g>
<g id="el_fn9ehwxW02W">
	
		<ellipse cx="447.2" cy="172.5" rx="3.5" ry="3.5" id="el_7P9tmIF_HrB"/>
	<circle cx="418.7" cy="176.7" r="3.5" id="el_NSmZ64D1DV0"/>
	<path d="M453.1,168.2c-3-8.7-2.9-12.1-5.8-15.5c-6.2-7.9-14.2-7.9-17.2-7.9c-11.3,0-17.2,5.6-20.5,9.7&#10;&#9;&#9;c-1.6,2.1-3.5,5.1-4.7,7.7c-4.9,11.6-4.9,31.1-4.9,32.9c0.2,23.7,5.7,36,12.9,42.9c6.8,6.7,14.2,7.4,17.3,7.4&#10;&#9;&#9;c13.1,0,19.1-9.5,21.4-14.8c1.2-3,2.1-6.7,3.1-13.5c0,0,24.1-9.4,40.3,3.2c2.6,2-0.6,7-1.4,10.2c-0.8,4.9-4.3,19.3-13.4,30.4&#10;&#9;&#9;c-8.4,10-24,20.4-50.9,20.4c-9.2,0-41.9-0.7-59.3-33.9c-4.9-9.3-7-17.9-7.8-21.8c-1.9-9.5-2.7-19-2.7-28.8&#10;&#9;&#9;c0-8.1-0.6-42.2,17.7-65.2c3.1-3.9,6.2-7,10.1-10c8.2-6.3,20.5-12.8,41.9-12.8c36.1,0,52.8,19.5,59.8,36.7c2.7,7,9.5,14.1,4.9,19.7&#10;&#9;&#9;C487.7,173.4,454.8,173.2,453.1,168.2z" id="el_ZEcpJ_TcasA"/>
	<path d="M466.7,201.5c-36.1,42.7-81.3,77.5-100.9,77.9c-19.6,0.3-6.2-34,29.9-76.7c36.1-42.7,81.3-77.5,100.9-77.9&#10;&#9;&#9;C516.2,124.5,502.8,158.9,466.7,201.5z" id="el_Y6Jw8dW5UTL"/>
	<path d="M379.9,199.2c32.3,43.8,78,78.6,102,77.8c24-0.9,17.3-37.1-15.1-80.9c-32.3-43.8-78-78.6-102-77.8&#10;&#9;&#9;C340.9,119.2,347.6,155.4,379.9,199.2z" id="el_6NUOOtd48O-"/>
	<path d="M385.6,196c0,0,5.2,16.8,6.1,18.1l8.8-8.7c0,0-1.2-15.3-0.1-20" id="el_HyztK0QD5i2"/>
	
		<ellipse cx="353.5" cy="125.8" rx="6.4" ry="6.4" id="el_hUMhyJ2pgRG"/>
	
		<ellipse cx="490.9" cy="274.6" rx="6.4" ry="6.4" id="el_VNob9fyEk1-"/>
	<circle cx="501.5" cy="128.3" r="6.4" id="el_KAKCizvVKF5"/>
	<circle cx="362.3" cy="279.1" r="6.4" id="el_XxqxXvu376G"/>
	<circle cx="444.3" cy="227" r="3.5" id="el_OPbY-DDTabX"/>
	<circle cx="390" cy="270" r="3.5" id="el_WOW2OmhrDFl"/>
	<circle cx="482.4" cy="180.2" r="3.5" id="el_eoFQ0LRq8nS"/>
	
		<ellipse cx="454.4" cy="268.7" rx="3.5" ry="3.5" id="el_UMUMs5jmgdB"/>
	<ellipse cx="388" cy="208.9" rx="3.5" ry="3.5" id="el_Y0jNfeuaDlE"/>
	<g id="el_Tsgvwq1GOc-">
		<defs>
			<path id="SVGID_1_" class="st6" d="M453.1,168.2c-1.6-9-2.9-12.1-5.8-15.5c-6.2-7.9-14.2-7.9-17.2-7.9c-11.3,0-17.2,5.6-20.5,9.7&#10;&#9;&#9;&#9;&#9;c-1.6,2.1-3.5,5.1-4.7,7.7c-4.9,11.6-4.9,31.1-4.9,32.9c0.2,23.7,5.7,36,12.9,42.9c6.8,6.7,14.2,7.4,17.3,7.4&#10;&#9;&#9;&#9;&#9;c13.1,0,19.1-9.5,21.4-14.8c1.2-3,2.1-6.7,3.1-13.5c0,0,33.7-4.4,40.3,3.2c2.1,2.5-0.6,7-1.4,10.2c-0.8,4.9-4.3,19.3-13.4,30.4&#10;&#9;&#9;&#9;&#9;c-8.4,10-24,20.4-50.9,20.4c-9.2,0-41.9-0.7-59.3-33.9c-4.9-9.3-7-17.9-7.8-21.8c-1.9-9.5-2.7-19-2.7-28.8&#10;&#9;&#9;&#9;&#9;c0-8.1-0.6-42.2,17.7-65.2c3.1-3.9,6.2-7,10.1-10c8.2-6.3,20.5-12.8,41.9-12.8c36.1,0,52.8,19.5,59.8,36.7&#10;&#9;&#9;&#9;&#9;c2.7,7,3.9,12.5,4.9,19.7L453.1,168.2z"/>
		</defs>
		<clipPath id="SVGID_2_">
			<use xlink:href="#SVGID_1_" style="overflow:visible;"/>
		</clipPath>
	</g>
</g>
<g id="el_Oz7f6A-nXFk_an_xIowQxH6G" data-animator-group="true" data-animator-type="0"><polygon points="260.6,111.4 260.6,150.3 205.8,150.3 205.8,285.6 145.2,285.6 145.2,150.3 90.2,150.3 90.2,111.4 " id="el_Oz7f6A-nXFk"/></g>
<g id="el_yVbN-1wXC8h">
	<g id="el_QvdlTqzR66A">
		<g id="el_QwBxm6nISM5">
			<g id="el_JiVxiY7yVRz">
				<path d="M948.8,158.5c-7.2-9.6-21-17.9-36.1-17.9c-13.1,0-26.5,4.8-26.5,17.9c0,12.7,12.7,16.2,35.8,21.7&#10;&#9;&#9;&#9;&#9;&#9;c24.4,5.9,53.4,16.9,53.4,49.2c0,40.3-32.7,55.1-68.8,55.1c-25.5,0-50.7-8.1-67.8-27.2c-6.2-6.9,13.2-33.1,27.2-25.5&#10;&#9;&#9;&#9;&#9;&#9;c12.9,7,24.4,20.7,42.3,20.7c12,0,26.5-4.8,26.5-19.6c0-13.8-12.7-17.9-37.9-23.8c-24.4-5.9-48.9-15.8-48.9-46.8&#10;&#9;&#9;&#9;&#9;&#9;c0-36.8,33-52.7,65.7-52.7c31.9,0,62.7,14.4,62,25.1C973.8,160.7,948.8,158.5,948.8,158.5z" id="el_UrtC2dRR9Wc"/>
			</g>
		</g>
	</g>
	<g id="el_6xhjJ1til02">
		<defs>
			<path id="SVGID_3_" d="M948.8,158.5c-7.2-9.6-21-17.9-36.1-17.9c-13.1,0-26.5,4.8-26.5,17.9c0,12.7,12.7,16.2,35.8,21.7&#10;&#9;&#9;&#9;&#9;c24.4,5.9,53.4,16.9,53.4,49.2c0,40.3-32.7,55.1-68.8,55.1c-25.5,0-50.7-8.1-67.8-27.2c-6.2-6.9,13.2-33.1,27.2-25.5&#10;&#9;&#9;&#9;&#9;c12.9,7,24.4,20.7,42.3,20.7c12,0,26.5-4.8,26.5-19.6c0-13.8-12.7-17.9-37.9-23.8c-24.4-5.9-48.9-15.8-48.9-46.8&#10;&#9;&#9;&#9;&#9;c0-36.8,33-52.7,65.7-52.7c31.9,0,62.7,14.4,62,25.1C973.8,160.7,948.8,158.5,948.8,158.5z"/>
		</defs>
		<clipPath id="SVGID_4_">
			<use xlink:href="#SVGID_3_" style="overflow:visible;"/>
		</clipPath>
		<path d="M948.9,266.2c3.2,8.9,4.8,17.9,4.2,27.1c-0.1,0.9-0.4,1.8-0.9,2.5c-0.3,0.4-1.2,0.6-1.7,0.5&#10;&#9;&#9;&#9;c-0.3,0-0.6-0.8-0.8-1.3c-0.9-3.2-1.5-6.6-2.6-9.7c-0.7-2-2.2-3.8-3.6-6c-0.6,0.9-0.9,1.4-1.2,1.9c-3,5.4-4.5,11.2-5.3,17.2&#10;&#9;&#9;&#9;c-0.1,0.8,0,1.7-0.4,2.2c-0.5,0.6-1.4,1-2.1,1.4c-0.3-0.6-0.9-1.2-0.9-1.8c-0.6-9.6,1.2-19,3.7-28.2c0.2-0.6,0.3-1.2,0.4-1.7&#10;&#9;&#9;&#9;c0,0,0-0.1,0-0.1c-2.4-0.5-4.9-1-7.3-1.7c-3.2-0.9-5.9-2.7-8.2-5.1c-0.7-0.7-1.1-1.6-0.4-2.3c0.5-0.5,1.6-0.8,2.2-0.6&#10;&#9;&#9;&#9;c3.2,1,6.5,1,9.8,0.8c1.6-0.1,3.2-0.3,5.1-0.5c-2.3-2.2-2.3-4.5-1.3-7c1.2-2.9,3.2-4.9,6.3-5.7c3.9-1,6.5,2,5.4,6&#10;&#9;&#9;&#9;c-0.3,1.1-0.9,2.2-1.6,3.8c3.1-2,5.9-3.6,8.5-5.5c2.2-1.6,4-3.5,6.1-5.1c0.6-0.5,1.7-1.1,2.1-0.9c1.1,0.6,0.4,1.6-0.1,2.4&#10;&#9;&#9;&#9;c-3.7,6.4-8.5,11.8-14.3,16.4C949.8,265.4,949.3,265.8,948.9,266.2z" id="el_tEIdKc3GEc5"/>
		<path d="M947.8,129.1c-2.5-3.8-2.5-7.1-0.1-9.2c2.7-2.4,6-2.5,8.8,0c2.3,2,2.3,5.3,0,9.2c5.4-1.1,10.6-2.5,15.1-5.7&#10;&#9;&#9;&#9;c0.4-0.3,1.3-0.2,1.7,0c0.3,0.2,0.5,1.1,0.3,1.5c-0.3,0.8-0.9,1.6-1.5,2.3c-3.3,4.1-7.3,7.2-12.1,9.5c-0.8,0.4-1.6,0.7-2.4,1.1&#10;&#9;&#9;&#9;c0.8,3.1,1.6,6.1,2.3,9.2c1.5,6.2,2.1,12.5,1.9,18.9c-0.1,1.3,0.1,2.9-1.7,3c-1.9,0.1-1.5-1.6-1.8-2.7c-1.1-4-2-8-3.3-11.9&#10;&#9;&#9;&#9;c-0.6-1.7-1.8-3.2-2.8-5c-2.2,2.6-3.5,5.2-4.4,8.1c-0.9,3.2-1.5,6.4-2.2,9.7c-0.2,1.1-0.5,2-1.8,1.9c-1.3-0.1-1.5-1.1-1.6-2.2&#10;&#9;&#9;&#9;c-0.5-9.4,1.1-18.4,3.8-27.3c0.1-0.5,0.3-0.9,0.4-1.4c-2.4-1.3-4.7-2.6-7-4c-3.4-2.1-6.1-5-8.5-8.2c-0.6-0.8-0.9-1.5-0.2-2.3&#10;&#9;&#9;&#9;c0.8-0.9,1.5-0.3,2.2,0.1C937.4,126.6,942.4,128,947.8,129.1z" id="el_Tu4ZzDZu_d8"/>
		<path d="M914.7,143.4c-3.5,4.5-4.9,9.2-5.8,14.1c-0.2,0.9-0.1,1.8-0.4,2.6c-0.3,0.7-1.1,1.1-1.7,1.7&#10;&#9;&#9;&#9;c-0.4-0.6-1.1-1.1-1.2-1.7c-0.8-6.9,0.2-13.6,1.8-20.2c0.5-2.3,1.2-4.5,1.8-6.8c-0.7-0.3-1.4-0.7-2.1-1c-4.7-2.2-8.7-5.4-11.8-9.5&#10;&#9;&#9;&#9;c-0.2-0.2-0.4-0.4-0.5-0.7c-0.1-0.7-0.1-1.4-0.1-2.1c0.7,0,1.5-0.2,2,0.2c4.1,2.7,8.7,3.9,13.1,4.9c-0.4-1.5-1.1-3.1-1.2-4.7&#10;&#9;&#9;&#9;c-0.1-1.7,0.8-3.1,2.2-4.2c2.3-1.8,5.4-1.6,7.5,0.3c2.3,2.2,2.4,5.1,0.1,8.6c4.8-1,9.3-2.2,13.3-4.8c0.6-0.4,1.5-0.3,2.3-0.5&#10;&#9;&#9;&#9;c-0.1,0.8,0,1.9-0.4,2.5c-3.2,4.5-7.4,7.8-12.4,10.1c-0.5,0.2-1.1,0.5-1.7,0.8c0.6,2.4,1.3,4.7,1.9,7.1c1.6,6.5,2.5,13,1.9,19.7&#10;&#9;&#9;&#9;c-0.1,1.6-0.8,2.2-2,1.6c-0.5-0.2-0.8-0.9-1-1.5c-0.8-3.2-1.3-6.5-2.4-9.6C917.3,148,915.9,146,914.7,143.4z" id="el_jfwUl1trkOM"/>
		<path d="M971.3,231.5c-3.5,4.5-4.9,9.2-5.8,14.1c-0.2,0.9-0.1,1.8-0.4,2.6c-0.3,0.7-1.1,1.1-1.7,1.7&#10;&#9;&#9;&#9;c-0.4-0.6-1.1-1.1-1.2-1.7c-0.8-6.9,0.2-13.6,1.8-20.2c0.5-2.3,1.2-4.5,1.8-6.8c-0.7-0.3-1.4-0.7-2.1-1c-4.7-2.2-8.7-5.4-11.8-9.5&#10;&#9;&#9;&#9;c-0.2-0.2-0.4-0.4-0.5-0.7c-0.1-0.7-0.1-1.4-0.1-2.1c0.7,0,1.5-0.2,2,0.2c4.1,2.7,8.7,3.9,13.1,4.9c-0.4-1.5-1.1-3.1-1.2-4.7&#10;&#9;&#9;&#9;c-0.1-1.7,0.8-3.1,2.2-4.2c2.3-1.8,5.4-1.6,7.5,0.3c2.3,2.2,2.4,5.1,0.1,8.6c4.8-1,9.3-2.2,13.3-4.8c0.6-0.4,1.5-0.3,2.3-0.5&#10;&#9;&#9;&#9;c-0.1,0.8,0,1.9-0.4,2.5c-3.2,4.5-7.4,7.8-12.4,10.1c-0.5,0.2-1.1,0.5-1.7,0.8c0.6,2.4,1.3,4.7,1.9,7.1c1.6,6.5,2.5,13,1.9,19.7&#10;&#9;&#9;&#9;c-0.1,1.6-0.8,2.2-2,1.6c-0.5-0.2-0.8-0.9-1-1.5c-0.8-3.2-1.3-6.5-2.4-9.6C973.9,236.1,972.5,234,971.3,231.5z" id="el_OAofXb-4-kb"/>
		<path d="M879.5,142.3c3.5,9.8,5.3,19.7,4.7,29.9c-0.1,0.9-0.4,2-1,2.8c-0.3,0.4-1.3,0.6-1.9,0.6&#10;&#9;&#9;&#9;c-0.3,0-0.7-0.9-0.8-1.4c-0.9-3.6-1.6-7.2-2.8-10.7c-0.8-2.2-2.4-4.2-3.9-6.7c-0.6,1-1,1.5-1.3,2.1c-3.3,5.9-4.9,12.3-5.9,18.9&#10;&#9;&#9;&#9;c-0.1,0.8,0,1.8-0.5,2.4c-0.5,0.7-1.5,1-2.4,1.5c-0.4-0.7-1-1.3-1-2c-0.6-10.6,1.3-20.9,4.1-31c0.2-0.6,0.3-1.3,0.5-1.9&#10;&#9;&#9;&#9;c0-0.1,0-0.1,0-0.1c-2.7-0.6-5.4-1.1-8-1.8c-3.5-1-6.5-3-9-5.6c-0.8-0.8-1.2-1.7-0.4-2.5c0.6-0.5,1.7-0.9,2.4-0.7&#10;&#9;&#9;&#9;c3.6,1.1,7.2,1.1,10.8,0.9c1.8-0.1,3.5-0.3,5.6-0.5c-2.5-2.4-2.6-5-1.5-7.7c1.3-3.2,3.6-5.4,6.9-6.3c4.2-1.1,7.2,2.2,6,6.6&#10;&#9;&#9;&#9;c-0.3,1.2-1,2.4-1.7,4.1c3.4-2.2,6.5-3.9,9.4-6c2.4-1.7,4.5-3.8,6.7-5.7c0.7-0.5,1.9-1.2,2.3-1c1.2,0.7,0.4,1.8-0.1,2.6&#10;&#9;&#9;&#9;c-4.1,7.1-9.4,13-15.8,18C880.4,141.5,880,141.9,879.5,142.3z" id="el_L4wwtQbY-p-"/>
		<path d="M931.7,228.1c-4.3,4.2-5.7,9-6.7,14.1c-0.2,1.1-0.3,2.1-0.5,3.2c-0.1,0.5-0.5,1.3-0.8,1.4&#10;&#9;&#9;&#9;c-0.6,0.1-1.6-0.1-1.9-0.6c-0.5-0.9-0.9-1.9-1-3c-0.6-9.6,1-18.9,4.1-27.9c0.5-1.4,0.3-2.2-0.9-3.1c-6.3-4.9-11.5-10.8-15.6-17.7&#10;&#9;&#9;&#9;c-0.2-0.3-0.4-0.5-0.4-0.8c0-0.7,0.1-1.4,0.2-2.1c0.6,0.2,1.5,0.1,1.8,0.6c4.4,4.6,9.7,8,15.1,11.2c0.4,0.2,0.7,0.4,1.5,0.8&#10;&#9;&#9;&#9;c-0.4-0.9-0.7-1.4-0.9-2c-1.5-3.1-1.3-6.2,0.6-7.8c1.9-1.6,5.3-1.4,7.9,0.9c1.5,1.4,2.9,3.2,3.7,5.1c1.2,2.5,0.7,5-1.8,7.3&#10;&#9;&#9;&#9;c3.3,0.2,6.1,0.6,8.9,0.5c2.6-0.1,5.2-0.8,7.8-1c0.8-0.1,2.2,0.3,2.2,0.6c0.1,0.9,0.1,2.3-0.5,2.9c-3.8,3.6-8.3,6-13.6,6.6&#10;&#9;&#9;&#9;c-1,0.1-2,0.3-3.2,0.5c0.8,3.1,1.6,6.2,2.3,9.3c1.8,7.8,2.7,15.7,2.3,23.7c0,0.9,0.2,2.1-1.2,2.1c-1.3,0-2.1-0.7-2.4-2&#10;&#9;&#9;&#9;c-0.9-4.4-1.7-8.9-2.9-13.3C934.8,234.5,933.2,231.5,931.7,228.1z" id="el_AgH1x6ERUf2"/>
		<path d="M853.4,247.4c-1.4-4.7-0.3-8.2,2.9-9.7c3.6-1.7,7.1-0.6,9.3,2.8c1.8,2.9,0.8,6.3-3,9.7c6,0.6,12,0.8,17.8-1.2&#10;&#9;&#9;&#9;c0.5-0.2,1.4,0.2,1.8,0.6c0.3,0.3,0.2,1.3-0.1,1.7c-0.6,0.8-1.5,1.4-2.3,1.9c-4.8,3.3-10.1,5.2-15.8,6.1c-0.9,0.1-1.9,0.3-2.9,0.4&#10;&#9;&#9;&#9;c-0.2,3.5-0.3,7-0.5,10.4c-0.4,7-1.8,13.9-4.1,20.5c-0.5,1.4-0.8,3.1-2.8,2.6c-2-0.5-1.1-2.1-1.1-3.4c0.2-4.5,0.4-9.1,0.4-13.6&#10;&#9;&#9;&#9;c0-2-0.8-3.9-1.3-6.2c-3.1,2-5.4,4.3-7.2,7.1c-2,3.1-3.7,6.3-5.4,9.5c-0.6,1-1.2,1.9-2.5,1.4c-1.4-0.5-1.3-1.6-1-2.9&#10;&#9;&#9;&#9;c2.4-10,7.1-19,12.8-27.5c0.3-0.4,0.6-0.9,0.9-1.3c-2.1-2.2-4.2-4.3-6.1-6.5c-2.9-3.3-4.8-7.2-6.3-11.4c-0.4-1-0.4-1.9,0.6-2.5&#10;&#9;&#9;&#9;c1.1-0.7,1.7,0.2,2.2,0.8C843.3,241.5,848.2,244.6,853.4,247.4z" id="el_twNZATpMvnv"/>
		<path d="M895.6,260.7c-1.4-4.7-0.3-8.2,2.9-9.7c3.6-1.7,7.1-0.6,9.3,2.8c1.8,2.9,0.8,6.3-3,9.7c6,0.6,12,0.8,17.8-1.2&#10;&#9;&#9;&#9;c0.5-0.2,1.4,0.2,1.8,0.6c0.3,0.3,0.2,1.3-0.1,1.7c-0.6,0.8-1.5,1.4-2.3,1.9c-4.8,3.3-10.1,5.2-15.8,6.1c-0.9,0.1-1.9,0.3-2.9,0.4&#10;&#9;&#9;&#9;c-0.2,3.5-0.3,7-0.5,10.4c-0.4,7-1.8,13.9-4.1,20.5c-0.5,1.4-0.8,3.1-2.8,2.6c-2-0.5-1.1-2.1-1.1-3.4c0.2-4.5,0.4-9.1,0.4-13.6&#10;&#9;&#9;&#9;c0-2-0.8-3.9-1.3-6.2c-3.1,2-5.4,4.3-7.2,7.1c-2,3.1-3.7,6.3-5.4,9.5c-0.6,1-1.2,1.9-2.5,1.4c-1.4-0.5-1.3-1.6-1-2.9&#10;&#9;&#9;&#9;c2.4-10,7.1-19,12.8-27.5c0.3-0.4,0.6-0.9,0.9-1.3c-2.1-2.2-4.2-4.3-6.1-6.5c-2.9-3.3-4.8-7.2-6.3-11.4c-0.4-1-0.4-1.9,0.6-2.5&#10;&#9;&#9;&#9;c1.1-0.7,1.7,0.2,2.2,0.8C885.4,254.8,890.3,257.8,895.6,260.7z" id="el_wJ3us0GTvuj"/>
		<path d="M886.2,213.4c-4.3,4.2-5.7,9-6.7,14.1c-0.2,1.1-0.3,2.1-0.5,3.2c-0.1,0.5-0.5,1.3-0.8,1.4&#10;&#9;&#9;&#9;c-0.6,0.1-1.6-0.1-1.9-0.6c-0.5-0.9-0.9-1.9-1-3c-0.6-9.6,1-18.9,4.1-27.9c0.5-1.4,0.3-2.2-0.9-3.1c-6.3-4.9-11.5-10.8-15.6-17.7&#10;&#9;&#9;&#9;c-0.2-0.3-0.4-0.5-0.4-0.8c0-0.7,0.1-1.4,0.2-2.1c0.6,0.2,1.5,0.1,1.8,0.6c4.4,4.6,9.7,8,15.1,11.2c0.4,0.2,0.7,0.4,1.5,0.8&#10;&#9;&#9;&#9;c-0.4-0.9-0.7-1.4-0.9-2c-1.5-3.1-1.3-6.2,0.6-7.8c1.9-1.6,5.3-1.4,7.9,0.9c1.5,1.4,2.9,3.2,3.7,5.1c1.2,2.5,0.7,5-1.8,7.3&#10;&#9;&#9;&#9;c3.3,0.2,6.1,0.6,8.9,0.5c2.6-0.1,5.2-0.8,7.8-1c0.8-0.1,2.2,0.3,2.2,0.6c0.1,0.9,0.1,2.3-0.5,2.9c-3.8,3.6-8.3,6-13.6,6.6&#10;&#9;&#9;&#9;c-1,0.1-2,0.3-3.2,0.5c0.8,3.1,1.6,6.2,2.3,9.3c1.8,7.8,2.7,15.7,2.3,23.7c0,0.9,0.2,2.1-1.2,2.1c-1.3,0-2.1-0.7-2.4-2&#10;&#9;&#9;&#9;c-0.9-4.4-1.7-8.9-2.9-13.3C889.3,219.7,887.7,216.8,886.2,213.4z" id="el_tTnebgl3KZw"/>
	</g>
</g>
<g id="el_opYJHF0FdXK">
	<path d="M816.8,282.4c0,0-4.4-3.8-6.1,6c0,0,13.1,8.2-4.3,9.2c0,0-17-0.5-5.6,8.2c0,0,41.7-1,21.7-23.4" id="el_qU2pzJgeOEy"/>
	<path id="el_AMQTfMtJ510" d="M689.2,294.5c-0.9,2.2-0.2,4.5,1.4,5.1l9,3.6c1.6,0.6,3.7-0.6,4.5-2.8l3.5-8.9l-14.9-5.9&#10;&#9;&#9;L689.2,294.5z"/>
	<path id="el_c7ICZoBOc2I" d="M697.2,274.6l-4.4,11.1l14.9,5.9l4.4-11.1c0.9-2.2,0.2-4.5-1.4-5.1l-9-3.6&#10;&#9;&#9;C700,271.1,698,272.4,697.2,274.6z"/>
	<polygon id="el_A6E-DtamRVz" points="773.8,95.7 779.7,98.1 782,83.6 &#9;"/>
	<polygon id="el_fONQfkd4fkq" points="761.3,114.1 776.2,120 779.7,98.1 773.8,95.7 &#9;"/>
	<path id="el_Cm7s6UsN4E0" d="M770.5,113.2c3.5,1.4,5.7,6.8,5.7,6.8l-63.8,157.4l-14.2-4.6l63-158.7&#10;&#9;&#9;C761.3,114.1,767,111.8,770.5,113.2z"/>
	<path d="M829.2,282.1c0.8-2.9,1.7-5.9,2.4-8.8c2-9.3,0.1-17-6.6-22.5c-2.1-1.7-5-2.8-7.9-3.6c-3-0.9-6.4,0.9-8.4,4.2&#10;&#9;&#9;c-1.8,3-2,5.9-1.3,8.5c1.4,5.9,5,10.5,9.9,14.1c5.8,4.4,7.3,10.5,5.6,18.1c-0.1,0.4-0.1,0.7-0.2,1.4c0.7-0.7,1.2-1.3,1.7-1.8&#10;&#9;&#9;C825.9,288.5,827.6,285.3,829.2,282.1z" id="el_613IigkptLj"/>
	<path d="M793.8,223.3c2.6,5.5,5.1,10.8,7.6,16.2c3.1-0.9,12.6-4.8,15.8-5.8c-0.3-1.1-3.5-9.2-4.6-12.6&#10;&#9;&#9;c-0.4-1.3,0.3-2.4-1.1-2.5C808,218.3,797,221.6,793.8,223.3z" id="el_f-3yDWJe19a"/>
	<path d="M793.4,222.3c3.1-2.7,14.3-4.2,18.1-5c0-1.6-1.1-2.1-2.5-2.2c-2.8-0.2-11.8,0-14.8,2.6&#10;&#9;&#9;C791.8,219.2,791.7,219.3,793.4,222.3z" id="el_qRM2W-Ut-Fn"/>
	<path d="M802.5,242c0.8,1.6,1.4,3,2,4.2c2.7-1.4,12.4-5.4,15.1-6.7c-0.3-1.1-1.4-2.4-1.7-3.5&#10;&#9;&#9;C814.9,237,805.7,241.1,802.5,242z" id="el_Y0CVG5tbTyx"/>
	<path d="M746.2,82.1l45.4,135.2c0,0,4-5.2,11.6-3.8L749.5,80.2c0,0-0.8-2.9-2.9-2.1C746.6,78.2,745.4,79.9,746.2,82.1&#10;&#9;&#9;z" id="el_SAZWleSUZC3"/>
	<path d="M816.8,273.6c0,0-4.5-3-3.4-8.3c0,0-1.7,1.5,5.3,6.8c0,0-4.6-8.4-0.3-11.2c0,0-3,7.5,5.5,11.4&#10;&#9;&#9;c0,0-3.1-3.9-1-8c0,0-0.3,3.8,8.4,9c0,0-0.8,9.9-8.9,20.3C822.5,293.6,826.1,280.4,816.8,273.6z" id="el_tbLrbo9918L"/>
	<path d="M746.6,78.2c0,0,4.8-4.4,6.4,0l57.7,135.6c0,0-15.2-1.2-19.1,3.5" id="el_NEA2h227ldr"/>
	<path d="M845.3,222.3c4.8,10.9,2.4,19.3-7.4,25.4c-11.2,6.9-23.7,9-36.6,7.7c-7.2-0.7-14.5-2.3-21.2-4.9&#10;&#9;&#9;c-6.1-2.4-11.3-6.8-17-10.4c-18.1,17.1-40.3,18.8-64,12c-4.5-1.3-8.8-3.8-12.5-6.7c-7.7-5.9-9-13.9-4.5-22.9&#10;&#9;&#9;c0.3,0.3,0.6,0.6,0.7,0.9c3.5,10.7,11.4,14.4,21.6,9.4c4.7-2.4,8.9-5.9,13.1-9.2c4.6-3.6,8.7-7.7,13.4-11.2&#10;&#9;&#9;c10.3-7.6,19.4-7.9,30.3-1c1.9,1.2,3.2,1.3,5.1,0c9.9-6.9,19.9-6.4,29.5,0.6c5.1,3.7,9.7,8,14.5,12c2.9,2.4,5.7,4.9,8.8,6.9&#10;&#9;&#9;C830.8,238.3,840,235.4,845.3,222.3z" id="el_TMCVStWDKua"/>
</g>
</svg>

