<?xml version="1.0" encoding="utf-8"?>
<!-- Generator: Adobe Illustrator 24.0.2, SVG Export Plug-In . SVG Version: 6.00 Build 0)  -->
<svg version="1.1" id="Capa_1" xmlns="http://www.w3.org/2000/svg" xmlns:xlink="http://www.w3.org/1999/xlink" x="0px" y="0px"
	 viewBox="0 0 595.28 196.75" style="enable-background:new 0 0 595.28 196.75;" xml:space="preserve">
<style type="text/css">
	.st0{fill:#ED6B5B;}
	.st1{fill:#575756;}
	.st2{fill:#02A6E0;}
	.st3{fill:#F1B800;}
	.st4{fill:#62C0BB;}
	.st5{fill:#D59CC6;}
	.st6{fill:#E1251B;}
	.st7{fill:#FFFFFF;}
</style>
<g>
	<g id="XMLID_63_">
		<g>
			<circle class="st0" cx="170.11" cy="41.94" r="14.64"/>
		</g>
	</g>
	<g>
		<path class="st1" d="M170.11,57.28c-8.46,0-15.35-6.88-15.35-15.35s6.88-15.35,15.35-15.35c8.46,0,15.35,6.88,15.35,15.35
			S178.57,57.28,170.11,57.28z M170.11,29.61c-6.8,0-12.32,5.53-12.32,12.33s5.53,12.33,12.32,12.33c6.8,0,12.32-5.53,12.32-12.33
			S176.9,29.61,170.11,29.61z"/>
	</g>
	<g id="XMLID_55_">
		<g id="XMLID_60_">
			<g>
				
					<rect x="242.31" y="26.43" transform="matrix(0.7436 0.6686 -0.6686 0.7436 87.1147 -158.4957)" class="st2" width="15.81" height="15.81"/>
			</g>
		</g>
		<g id="XMLID_56_">
			<g>
				<path class="st1" d="M237.25,35.03l12.28-13.66l13.66,12.28L250.9,47.31L237.25,35.03z M249.79,26.4l-7.52,8.36l8.36,7.52
					l7.52-8.36L249.79,26.4z"/>
			</g>
		</g>
	</g>
	<g id="XMLID_48_">
		<g id="XMLID_52_">
			<g>
				<circle class="st3" cx="156.56" cy="149.45" r="13.62"/>
			</g>
		</g>
		<g id="XMLID_49_">
			<g>
				<path class="st1" d="M156.56,163.94c-7.99,0-14.49-6.5-14.49-14.49s6.5-14.49,14.49-14.49c7.99,0,14.49,6.5,14.49,14.49
					S164.55,163.94,156.56,163.94z M156.56,138.12c-6.25,0-11.33,5.08-11.33,11.33s5.08,11.33,11.33,11.33s11.33-5.08,11.33-11.33
					S162.81,138.12,156.56,138.12z"/>
			</g>
		</g>
	</g>
	<g id="XMLID_43_">
		<g id="XMLID_47_">
			<g>
				<circle class="st4" cx="263.18" cy="163.02" r="14.46"/>
			</g>
		</g>
		<g id="XMLID_44_">
			<g>
				<path class="st1" d="M263.18,178.09c-8.31,0-15.07-6.76-15.07-15.07c0-8.31,6.76-15.07,15.07-15.07
					c8.31,0,15.07,6.76,15.07,15.07C278.25,171.33,271.49,178.09,263.18,178.09z M263.18,150.84c-6.71,0-12.18,5.46-12.18,12.18
					c0,6.71,5.46,12.18,12.18,12.18c6.71,0,12.18-5.46,12.18-12.18C275.36,156.3,269.9,150.84,263.18,150.84z"/>
			</g>
		</g>
	</g>
	<g id="XMLID_38_">
		<g id="XMLID_42_">
			<g>
				
					<rect x="201.8" y="145.17" transform="matrix(0.1342 0.991 -0.991 0.1342 335.9633 -75.461)" class="st5" width="18.73" height="18.73"/>
			</g>
		</g>
		<g id="XMLID_39_">
			<g>
				<path class="st1" d="M202.17,166.17l-2.77-20.47l20.47-2.77l2.77,20.47L202.17,166.17z M203.05,148.48l1.9,14.03l14.03-1.9
					l-1.9-14.03L203.05,148.48z"/>
			</g>
		</g>
	</g>
	<g>
		
			<rect x="180.73" y="53.39" transform="matrix(0.841 -0.5411 0.5411 0.841 -5.4794 108.7243)" class="st1" width="3" height="20.59"/>
	</g>
	<g>
		
			<rect x="210.43" y="54.93" transform="matrix(0.6452 -0.764 0.764 0.6452 38.8866 196.6024)" class="st1" width="41.37" height="3"/>
	</g>
	<g>
		
			<rect x="234.35" y="105.08" transform="matrix(0.7489 -0.6627 0.6627 0.7489 -28.3352 189.4685)" class="st1" width="3" height="54.09"/>
	</g>
	<g>
		
			<rect x="205.65" y="117.4" transform="matrix(0.9865 -0.1635 0.1635 0.9865 -18.6692 35.6426)" class="st1" width="3" height="27.62"/>
	</g>
	<g>
		
			<rect x="157.87" y="124.07" transform="matrix(0.6047 -0.7964 0.7964 0.6047 -30.6178 189.4488)" class="st1" width="35.36" height="3"/>
	</g>
</g>
<g>
	<g>
		<path class="st6" d="M201.95,59.82c-19.61,0-33.6,13.4-33.6,32.04c0,18.64,13.99,32.04,33.6,32.04v0
			c19.56,0,33.5-13.35,33.5-32.04C235.45,73.17,221.51,59.82,201.95,59.82z M215.53,105.35c-7.49,7.49-19.64,7.49-27.13,0
			c-7.49-7.49-7.49-19.64,0-27.13c7.49-7.49,19.64-7.49,27.13,0C223.03,85.71,223.03,97.86,215.53,105.35z"/>
	</g>
</g>
<path class="st7" d="M63.71,102.6v15.01c0,3.59-2.85,6.54-6.26,6.54s-6.35-2.95-6.35-6.54V66.97c0-4.7,3.13-8.19,8.38-8.19H77.8
	c6.35,0,11.69,2.03,16.02,5.99c4.33,3.96,6.54,9.21,6.54,15.93c0,6.81-2.21,12.15-6.54,16.11c-4.33,3.87-9.94,5.8-16.85,5.8H63.71z
	 M63.71,90.45h12.98c7.37,0,11.05-3.22,11.05-9.67c0-6.45-3.59-9.67-10.77-9.67H63.71V90.45z"/>
<g>
	<path class="st7" d="M123.38,101.07v16.48c0,3.59-2.85,6.54-6.26,6.54s-6.35-2.95-6.35-6.54V66.82c0-4.7,3.13-8.19,8.38-8.19h18.87
		c6.35,0,11.6,1.93,15.93,5.8c4.33,3.78,6.54,9.02,6.54,15.65c0,10.04-4.97,16.85-11.97,19.06l11.88,14.27
		c2.21,2.3,2.03,6.54-0.28,8.84c-2.85,2.58-6.63,2.49-9.12,0l-14.64-18.23c-1.75-2.12-2.85-2.95-5.16-2.95H123.38z M123.38,89.47
		h13.35c7.37,0,11.05-3.04,11.05-9.21c0-6.17-3.5-9.3-10.59-9.3h-13.81V89.47z"/>
</g>
<g>
	<path class="st7" d="M239.3,109.6c0-3.31,2.49-5.99,5.8-5.99c2.39,0,4.24,1.1,5.62,3.32c2.12,3.41,4.97,5.06,8.47,5.06
		c4.79,0,8.47-3.41,8.47-9.67V64.12c0-3.59,2.95-6.45,6.26-6.45c3.68,0,6.35,2.76,6.35,6.45v37.75c0,6.54-2.03,11.88-6.17,16.02
		c-4.05,4.14-9.11,6.26-15.1,6.26c-8.56,0-15.65-4.6-18.97-11.32C239.58,111.72,239.3,110.62,239.3,109.6z"/>
</g>
<path class="st7" d="M333.86,59.15c3.41,0,6.08,2.58,6.08,5.99c0,3.22-2.85,6.08-6.08,6.08h-26.88v14.55h25.78
	c3.22,0,5.71,2.39,5.71,5.71c0,3.04-2.67,5.8-5.71,5.8h-25.78v14.82h27.07c3.22,0,6.08,2.76,6.08,5.98c0,3.41-2.67,6.08-6.08,6.08
	h-30.57c-5.62,0-9.12-3.96-9.12-9.12V68.17c0-5.16,3.5-9.02,9.12-9.02H333.86z"/>
<path class="st7" d="M391.41,103.89c1.38-2.49,3.22-3.68,5.52-3.68c3.04,0,6.17,2.58,6.17,5.89c0,1.11-0.18,2.21-0.64,3.41
	c-1.93,4.51-5.16,8.1-9.58,10.77c-4.42,2.58-9.3,3.87-14.55,3.87c-7.64,0-14.09-2.49-19.15-7.37c-5.06-4.97-7.83-11.23-8.47-18.78
	c-0.37-4.97-0.37-9.85,0-14.64c0.64-7.55,3.41-13.81,8.47-18.78c5.06-4.97,11.51-7.46,19.15-7.46c5.25,0,10.13,1.29,14.55,3.96
	c4.42,2.58,7.64,6.17,9.58,10.68c0.46,1.2,0.64,2.3,0.64,3.41c0,3.31-3.13,5.89-6.17,5.89c-2.21,0-4.05-1.2-5.52-3.68
	c-2.85-5.43-7.18-8.1-13.07-8.1c-8.75,0-14.46,6.44-15.1,15.65c-0.28,3.96-0.28,7.83,0,11.79c0.64,9.21,6.26,15.28,15.1,15.28
	C384.23,112,388.56,109.33,391.41,103.89z"/>
<path class="st7" d="M428.71,71.12h-14.73c-3.59,0-6.45-2.76-6.45-6.17c0-3.59,2.76-6.17,6.45-6.17h42.08
	c3.68,0,6.45,2.58,6.45,6.17c0,3.31-3.04,6.17-6.45,6.17h-14.73v46.59c0,3.59-2.76,6.45-6.17,6.45c-3.59,0-6.44-3.04-6.44-6.45
	V71.12z"/>
<path class="st7" d="M470.79,64.85c0-3.59,2.95-6.45,6.35-6.45c3.59,0,6.26,2.85,6.26,6.45v52.76c0,3.68-2.67,6.54-6.26,6.54
	c-3.41,0-6.35-2.95-6.35-6.54V64.85z"/>
<path class="st7" d="M546.2,124.06c-2.58,0-4.97-1.47-5.8-3.96l-5.06-14.82h-25.69l-5.06,14.82c-1.01,2.49-3.41,4.05-5.89,4.05
	c-3.68,0-6.17-3.04-6.17-6.45c0-0.83,0.09-1.57,0.37-2.21l17.49-48.61c2.12-5.89,6.63-8.93,12.15-8.93c5.99,0,10.13,2.95,12.25,8.93
	l17.31,48.61c0.28,0.55,0.37,1.29,0.37,2.12C552.46,121.02,549.88,124.06,546.2,124.06z M513.42,94.04h18.05l-7.46-22
	c-0.28-0.83-0.74-1.2-1.47-1.2c-0.83,0-1.29,0.37-1.56,1.2L513.42,94.04z"/>
</svg>
