<svg
  xmlns="http://www.w3.org/2000/svg"
  xmlns:xlink="http://www.w3.org/1999/xlink"
  version="1.1"
  id="Layer_1"
  x="0px"
  y="0px"
  width="54px"
  height="40px"
  viewBox="0 0 54 54"
  style="enable-background:new 0 0 28 42;"
  xml:space="preserve"
>
      <style type="text/css">
        .st0 {
          fill: #1b1464;
        }

        .st1 {
          fill: #73d5f4;
        }

        .st2 {
          fill: none;
          stroke: #0071bc;
          stroke-width: 0.3;
          stroke-miterlimit: 10;
        }

        .st3 {
          opacity: 0.4;
        }

        .st4 {
          clip-path: url(#SVGID_2_);
        }

        .st5 {
          fill: #0071bc;
        }

        .st6 {
          fill: #5ae0d3;
        }

        .st7 {
          clip-path: url(#SVGID_4_);
          fill: #2ea092;
        }

        .st8 {
          fill: #df0209;
        }

        .st9 {
          fill: #e6e6e6;
        }

        .st10 {
          fill: #ffce00;
        }

        .st11 {
          fill: #8b00af;
          stroke: #ffffff;
          stroke-width: 0.3;
        }

        .st12 {
          fill: #3f3a36;
        }

        .st13 {
          fill: #96049e;
        }

        .st14 {
          fill: #e1859c;
        }

        .st15 {
          fill: #c2c3c9;
        }

        .st16 {
          fill: #ff20ab;
        }

        .st17 {
          fill: #daf0fb;
        }

        .st18 {
          fill: #ff00aa;
        }

        .st19 {
          fill: #cebb8c;
        }
      </style>
  <g>
        <g>
          <ellipse
            transform="matrix(0.9239 -0.3825 0.3825 0.9239 -1.7602 15.145)"
            class="st0"
            cx="37.2"
            cy="12"
            rx="0.5"
            ry="0.5"
          />
          <circle class="st0" cx="32.9" cy="12.6" r="0.5" />
          <path
            class="st1"
            d="M38.1,11.3c-0.5-1.3-0.4-1.8-0.9-2.3c-0.9-1.2-2.1-1.2-2.6-1.2c-1.7,0-2.6,0.8-3.1,1.5    c-0.2,0.3-0.5,0.8-0.7,1.1c-0.7,1.7-0.7,4.7-0.7,4.9c0,3.5,0.8,5.4,1.9,6.4c1,1,2.1,1.1,2.6,1.1c2,0,2.9-1.4,3.2-2.2    c0.2-0.5,0.3-1,0.5-2c0,0,3.6-1.4,6,0.5c0.4,0.3-0.1,1-0.2,1.5c-0.1,0.7-0.6,2.9-2,4.6c-1.3,1.5-3.6,3.1-7.6,3.1    c-1.4,0-6.3-0.1-8.9-5.1c-0.7-1.4-1.1-2.7-1.2-3.3c-0.3-1.4-0.4-2.8-0.4-4.3c0-1.2-0.1-6.3,2.7-9.8c0.5-0.6,0.9-1,1.5-1.5    c1.2-0.9,3.1-1.9,6.3-1.9c5.4,0,7.9,2.9,9,5.5c0.4,1,1.4,2.1,0.7,3C43.3,12.1,38.3,12.1,38.1,11.3z"
          />
          <path
            class="st2"
            d="M40.1,16.3C34.7,22.7,27.9,28,25,28c-2.9,0-0.9-5.1,4.5-11.5c5.4-6.4,12.2-11.6,15.1-11.7    C47.5,4.8,45.5,10,40.1,16.3z"
          />
          <path
            class="st2"
            d="M27.1,16c4.8,6.6,11.7,11.8,15.3,11.6c3.6-0.1,2.6-5.6-2.3-12.1C35.3,9,28.5,3.8,24.9,3.9    C21.3,4,22.3,9.4,27.1,16z"
          />
          <path
            class="st1"
            d="M28,15.5c0,0,0.8,2.5,0.9,2.7l1.3-1.3c0,0-0.2-2.3,0-3"
          />
          <ellipse
            transform="matrix(0.9239 -0.3825 0.3825 0.9239 -0.1506 9.2488)"
            class="st0"
            cx="23.2"
            cy="5"
            rx="1"
            ry="1"
          />
          <ellipse
            transform="matrix(0.9239 -0.3825 0.3825 0.9239 -7.1105 18.8122)"
            class="st0"
            cx="43.8"
            cy="27.3"
            rx="1"
            ry="1"
          />
          <circle class="st0" cx="45.3" cy="5.4" r="1" />
          <circle class="st0" cx="24.5" cy="28" r="1" />
          <circle class="st0" cx="36.8" cy="20.2" r="0.5" />
          <circle class="st0" cx="28.6" cy="26.6" r="0.5" />
          <circle class="st0" cx="42.5" cy="13.1" r="0.5" />
          <ellipse
            transform="matrix(0.9239 -0.3825 0.3825 0.9239 -7.1899 16.6561)"
            class="st0"
            cx="38.3"
            cy="26.4"
            rx="0.5"
            ry="0.5"
          />
          <ellipse
            transform="matrix(0.9239 -0.3825 0.3825 0.9239 -4.5205 12.1672)"
            class="st0"
            cx="28.3"
            cy="17.5"
            rx="0.5"
            ry="0.5"
          />
          <g class="st3">
            <defs>
              <path
                id="SVGID_1_"
                class="st3"
                d="M38.1,11.3C37.9,10,37.6,9.5,37.2,9c-0.9-1.2-2.1-1.2-2.6-1.2c-1.7,0-2.6,0.8-3.1,1.5      c-0.2,0.3-0.5,0.8-0.7,1.1c-0.7,1.7-0.7,4.7-0.7,4.9c0,3.5,0.8,5.4,1.9,6.4c1,1,2.1,1.1,2.6,1.1c2,0,2.9-1.4,3.2-2.2      c0.2-0.5,0.3-1,0.5-2c0,0,5-0.7,6,0.5c0.3,0.4-0.1,1-0.2,1.5c-0.1,0.7-0.6,2.9-2,4.6c-1.3,1.5-3.6,3.1-7.6,3.1      c-1.4,0-6.3-0.1-8.9-5.1c-0.7-1.4-1.1-2.7-1.2-3.3c-0.3-1.4-0.4-2.8-0.4-4.3c0-1.2-0.1-6.3,2.7-9.8c0.5-0.6,0.9-1,1.5-1.5      c1.2-0.9,3.1-1.9,6.3-1.9c5.4,0,7.9,2.9,9,5.5c0.4,1,0.6,1.9,0.7,3L38.1,11.3z"
              />
            </defs>
            <clipPath id="SVGID_2_">
              <use xlink:href="#SVGID_1_" style="overflow:visible;" />
            </clipPath>
            <g class="st4">
              <path
                class="st5"
                d="M39.2,5.2L40,6.4l-0.7,1.2h-1.4l-0.7-1.2l0.7-1.2H39.2 M39.4,5h-0.1h-1.4h-0.1l-0.1,0.1l-0.7,1.2l-0.1,0.1      l0.1,0.1l0.7,1.2l0.1,0.1h0.1h1.4h0.1l0.1-0.1l0.7-1.2l0.1-0.1l-0.1-0.1L39.4,5L39.4,5L39.4,5z"
              />
              <g>
                <g>
                  <path
                    class="st5"
                    d="M34.8,2.9l0.4,0.8l-0.4,0.8h-0.9l-0.4-0.8l0.4-0.8H34.8 M34.9,2.8L34.9,2.8h-1h-0.1l0,0.1l-0.4,0.8l0,0.1        l0,0.1l0.4,0.8l0,0.1h0.1h0.9h0.1l0-0.1l0.4-0.8l0-0.1l0-0.1L34.9,2.8L34.9,2.8L34.9,2.8z"
                  />
                </g>
                <g>
                  <path
                    class="st5"
                    d="M37.8,0.7l0.9,0l0.4,0.8l-0.4,0.8h-0.9l-0.4-0.8L37.8,0.7 M37.7,0.5L37.7,0.5l-0.5,0.9l0,0.1l0,0.1        l0.4,0.8l0,0.1h0.1h0.9h0.1l0-0.1l0.4-0.8l0-0.1l0-0.1l-0.4-0.8l0-0.1h-0.1L37.7,0.5L37.7,0.5L37.7,0.5z"
                  />
                </g>
                <g>
                  <path
                    class="st5"
                    d="M43.4,3.4l0.4,0.8l-0.4,0.8h-0.9l-0.4-0.8l0.4-0.8H43.4 M43.5,3.2L43.5,3.2h-1h-0.1l0,0.1L42,4.1l0,0.1        l0,0.1L42.4,5l0,0.1h0.1h0.9h0.1l0-0.1L44,4.2l0-0.1l0-0.1L43.5,3.2L43.5,3.2L43.5,3.2z"
                  />
                </g>
                <g>
                  <path
                    class="st5"
                    d="M43.4,7.9l0.4,0.8l-0.4,0.8l-0.9,0l-0.4-0.8l0.4-0.8H43.4 M43.5,7.7L43.5,7.7h-1h-0.1l0,0.1l-0.4,0.8        l0,0.1l0,0.1l0.4,0.8l0,0.1h0.1l0.9,0h0.1l0-0.1L44,8.7l0-0.1l0-0.1L43.5,7.7L43.5,7.7L43.5,7.7z"
                  />
                </g>
                <g>
                  <path
                    class="st5"
                    d="M38.7,10.6l0.4,0.8l-0.4,0.8l-0.9,0l-0.4-0.8l0.4-0.8H38.7 M38.8,10.5L38.8,10.5h-1h-0.1l0,0.1l-0.4,0.8        l0,0.1l0,0.1l0.4,0.8l0,0.1h0.1l0.9,0h0.1l0-0.1l0.4-0.8l0-0.1l0-0.1L38.8,10.5L38.8,10.5L38.8,10.5z"
                  />
                </g>
                <g>
                  <path
                    class="st5"
                    d="M34.8,8.4l0.4,0.8l-0.4,0.8l-0.9,0l-0.4-0.8l0.4-0.8H34.8 M34.9,8.2L34.9,8.2h-1h-0.1l0,0.1l-0.4,0.8        l0,0.1l0,0.1l0.4,0.8l0,0.1h0.1l0.9,0h0.1l0-0.1l0.4-0.8l0-0.1l0-0.1L34.9,8.2L34.9,8.2L34.9,8.2z"
                  />
                </g>
              </g>
              <g>
                <path
                  class="st5"
                  d="M38.5,4.7h-0.9l-0.6-1l0.6-1c0,0,0,0,0,0h0.7c0,0,0,0,0,0c0,0,0,0,0,0h-0.7L37.3,2c0,0,0,0-0.1,0       c0,0,0,0,0,0.1l0.3,0.6c0,0,0,0,0,0l-0.6,1h-1.2c0,0,0,0,0,0l-0.3-0.6c0,0,0,0-0.1,0c0,0,0,0,0,0.1l0.3,0.6l-0.3,0.6       c0,0,0,0,0,0.1c0,0,0,0,0,0c0,0,0,0,0,0l0.3-0.6c0,0,0,0,0,0h1.2l0.6,1l-0.4,0.8c0,0,0,0,0,0.1c0,0,0,0,0,0c0,0,0,0,0,0       l0.4-0.8L38.5,4.7C38.5,4.8,38.5,4.8,38.5,4.7C38.5,4.7,38.5,4.7,38.5,4.7z"
                />
                <path
                  class="st5"
                  d="M43,7.5h-0.7c0,0,0,0,0,0l-0.6-1l0.6-1c0,0,0,0,0,0l0.7,0c0,0,0,0,0,0c0,0,0,0,0,0l-0.7,0L42,4.7       c0,0,0,0-0.1,0c0,0,0,0,0,0.1l0.3,0.6c0,0,0,0,0,0l-0.6,1l-1.2,0L40,5.6c0,0,0,0-0.1,0c0,0,0,0,0,0.1l0.4,0.8L40,7.2       c0,0,0,0,0,0.1c0,0,0,0,0,0c0,0,0,0,0,0l0.4-0.8l1.2,0l0.6,1c0,0,0,0,0,0l-0.3,0.6c0,0,0,0,0,0.1c0,0,0,0,0,0c0,0,0,0,0,0       l0.3-0.6L43,7.5C43,7.6,43,7.5,43,7.5C43,7.5,43,7.5,43,7.5z"
                />
                <path
                  class="st5"
                  d="M38.5,8h-0.9l-0.4-0.8c0,0,0,0-0.1,0c0,0,0,0,0,0.1l0.4,0.8l-0.6,1h-1.2c0,0,0,0,0,0l-0.3-0.6       c0,0,0,0-0.1,0c0,0,0,0,0,0.1l0.3,0.6l-0.3,0.6c0,0,0,0,0,0.1c0,0,0,0,0,0c0,0,0,0,0,0l0.3-0.6c0,0,0,0,0,0h1.2l0.6,1       c0,0,0,0,0,0l-0.3,0.6c0,0,0,0,0,0.1c0,0,0,0,0,0c0,0,0,0,0,0l0.3-0.6l0.7,0c0,0,0,0,0,0c0,0,0,0,0,0l-0.7,0c0,0,0,0,0,0       l-0.6-1l0.6-1L38.5,8C38.5,8.1,38.5,8.1,38.5,8C38.5,8.1,38.5,8,38.5,8z"
                />
              </g>
              <g>
                <path
                  class="st5"
                  d="M37,4c-0.2,0-0.3-0.1-0.3-0.3c0-0.2,0.1-0.3,0.3-0.3c0.2,0,0.3,0.1,0.3,0.3C37.3,3.9,37.1,4,37,4z M37,3.5       c-0.1,0-0.2,0.1-0.2,0.2c0,0.1,0.1,0.2,0.2,0.2c0.1,0,0.2-0.1,0.2-0.2C37.2,3.6,37.1,3.5,37,3.5z"
                />
                <path
                  class="st5"
                  d="M41.7,6.7c-0.1,0-0.1,0-0.2,0c-0.1-0.1-0.2-0.3-0.1-0.4c0.1-0.1,0.2-0.2,0.3-0.2c0.1,0,0.1,0,0.2,0       C42,6.2,42,6.4,41.9,6.6C41.9,6.7,41.8,6.7,41.7,6.7z M41.7,6.2c-0.1,0-0.2,0-0.2,0.1c-0.1,0.1,0,0.2,0.1,0.3c0,0,0.1,0,0.1,0       c0.1,0,0.2,0,0.2-0.1c0-0.1,0-0.1,0-0.2s-0.1-0.1-0.1-0.1C41.8,6.2,41.7,6.2,41.7,6.2z"
                />
                <path
                  class="st5"
                  d="M37,9.5c-0.1,0-0.2-0.1-0.3-0.2c-0.1-0.1,0-0.3,0.1-0.4c0,0,0.1,0,0.2,0c0.1,0,0.2,0.1,0.3,0.2       c0,0.1,0.1,0.2,0,0.2c0,0.1-0.1,0.1-0.1,0.2C37.1,9.5,37,9.5,37,9.5z M37,8.9c0,0-0.1,0-0.1,0c-0.1,0.1-0.1,0.2-0.1,0.3       c0,0.1,0.1,0.1,0.2,0.1c0,0,0.1,0,0.1,0c0.1,0,0.1-0.1,0.1-0.1c0-0.1,0-0.1,0-0.2C37.1,9,37,8.9,37,8.9z"
                />
              </g>
              <g>
                <g>
                  <path
                    class="st5"
                    d="M35.3,3.3c-0.1,0-0.2-0.1-0.2-0.2c0-0.1,0.1-0.2,0.2-0.2c0.1,0,0.2,0.1,0.2,0.2        C35.5,3.2,35.4,3.3,35.3,3.3z M35.3,3C35.3,3,35.2,3.1,35.3,3c-0.1,0.1-0.1,0.2,0,0.2C35.4,3.2,35.4,3.2,35.3,3        C35.4,3.1,35.4,3,35.3,3z"
                  />
                  <path
                    class="st5"
                    d="M35.3,4.5c-0.1,0-0.2-0.1-0.2-0.2c0-0.1,0.1-0.2,0.2-0.2s0.2,0.1,0.2,0.2C35.5,4.4,35.4,4.5,35.3,4.5z         M35.3,4.2C35.3,4.2,35.2,4.2,35.3,4.2c-0.1,0.1-0.1,0.2,0,0.2S35.4,4.3,35.3,4.2C35.4,4.2,35.4,4.2,35.3,4.2z"
                  />
                  <path
                    class="st5"
                    d="M37.2,2.2c-0.1,0-0.2-0.1-0.2-0.2c0-0.1,0.1-0.2,0.2-0.2c0.1,0,0.2,0.1,0.2,0.2        C37.4,2.1,37.3,2.2,37.2,2.2z M37.2,1.9C37.2,1.9,37.2,2,37.2,1.9c-0.1,0.1-0.1,0.2,0,0.2C37.3,2.1,37.3,2.1,37.2,1.9        C37.3,2,37.3,1.9,37.2,1.9z"
                  />
                  <path
                    class="st5"
                    d="M38.3,2.8c-0.1,0-0.2-0.1-0.2-0.2c0-0.1,0.1-0.2,0.2-0.2c0.1,0,0.2,0.1,0.2,0.2        C38.4,2.7,38.4,2.8,38.3,2.8z M38.3,2.5C38.2,2.5,38.2,2.5,38.3,2.5c-0.1,0.1-0.1,0.2,0,0.2C38.3,2.7,38.4,2.7,38.3,2.5        C38.4,2.5,38.3,2.5,38.3,2.5z"
                  />
                  <path
                    class="st5"
                    d="M43,5.5C43,5.5,42.9,5.5,43,5.5c-0.1,0-0.2-0.1-0.2-0.1c0,0,0-0.1,0-0.1c0-0.1,0.1-0.1,0.1-0.1        c0,0,0.1,0,0.1,0c0,0,0.1,0.1,0.1,0.1c0,0,0,0.1,0,0.1C43.1,5.4,43.1,5.5,43,5.5z M43,5.2C43,5.2,42.9,5.2,43,5.2        c-0.1,0.1-0.1,0.1-0.1,0.1c0,0,0,0,0,0.1c0,0,0,0,0,0c0,0,0.1,0,0.1,0C43.1,5.3,43.1,5.3,43,5.2C43.1,5.3,43.1,5.2,43,5.2        C43,5.2,43,5.2,43,5.2z"
                  />
                  <path
                    class="st5"
                    d="M42,4.9C41.9,4.9,41.9,4.9,42,4.9c-0.1,0-0.2-0.1-0.2-0.1c0,0,0-0.1,0-0.1c0-0.1,0.1-0.1,0.1-0.1        c0,0,0.1,0,0.1,0c0.1,0,0.1,0.1,0.1,0.2C42.1,4.9,42,4.9,42,4.9z M42,4.6C41.9,4.6,41.9,4.6,42,4.6c-0.1,0.1-0.1,0.1-0.1,0.1        c0,0,0,0,0,0.1c0,0,0,0,0,0c0,0,0.1,0,0.1,0C42.1,4.7,42.1,4.7,42,4.6C42,4.6,42,4.6,42,4.6z"
                  />
                  <path
                    class="st5"
                    d="M43,7.7C43,7.7,42.9,7.7,43,7.7c-0.1,0-0.2-0.1-0.2-0.1c0,0,0-0.1,0-0.1c0-0.1,0.1-0.1,0.1-0.1        c0,0,0.1,0,0.1,0c0.1,0,0.1,0.1,0.1,0.2C43.1,7.7,43.1,7.7,43,7.7z M43,7.4C43,7.4,42.9,7.4,43,7.4c-0.1,0.1-0.1,0.1-0.1,0.1        c0,0,0,0,0,0.1c0,0,0,0,0,0c0,0,0.1,0,0.1,0C43.1,7.5,43.1,7.5,43,7.4C43,7.4,43,7.4,43,7.4z"
                  />
                  <path
                    class="st5"
                    d="M42,8.3C41.9,8.3,41.9,8.3,42,8.3c-0.2-0.1-0.2-0.2-0.1-0.3c0-0.1,0.1-0.1,0.1-0.1c0,0,0.1,0,0.1,0        c0.1,0,0.1,0.1,0.1,0.2C42.1,8.2,42,8.3,42,8.3z M42,8C41.9,8,41.9,8,42,8c-0.1,0.1-0.1,0.2,0,0.2c0,0,0,0,0,0        c0,0,0.1,0,0.1,0C42.1,8.1,42.1,8.1,42,8C42,8,42,8,42,8z"
                  />
                  <path
                    class="st5"
                    d="M37.3,11c-0.1,0-0.1,0-0.1-0.1c0-0.1,0-0.2,0.1-0.2c0,0,0.1,0,0.1,0c0.1,0,0.1,0,0.1,0.1c0,0,0,0.1,0,0.1        C37.4,10.9,37.4,11,37.3,11C37.3,11,37.3,11,37.3,11z M37.3,10.8C37.2,10.8,37.2,10.8,37.3,10.8c-0.1,0-0.1,0.1-0.1,0.1        c0,0,0,0,0.1,0c0,0,0,0,0,0c0,0,0,0,0-0.1C37.4,10.9,37.4,10.8,37.3,10.8C37.3,10.8,37.3,10.8,37.3,10.8z"
                  />
                  <path
                    class="st5"
                    d="M38.3,10.4c-0.1,0-0.1,0-0.1-0.1c0-0.1,0-0.2,0.1-0.2c0,0,0.1,0,0.1,0c0.1,0,0.1,0,0.1,0.1        C38.5,10.3,38.5,10.4,38.3,10.4C38.3,10.4,38.3,10.4,38.3,10.4z M38.3,10.2C38.3,10.2,38.3,10.2,38.3,10.2        c-0.1,0-0.1,0.1-0.1,0.1c0,0,0,0,0.1,0c0,0,0,0,0,0C38.4,10.3,38.4,10.3,38.3,10.2C38.4,10.2,38.3,10.2,38.3,10.2z"
                  />
                  <path
                    class="st5"
                    d="M35.3,9.9c-0.1,0-0.1,0-0.1-0.1c0-0.1,0-0.2,0.1-0.2c0,0,0.1,0,0.1,0c0.1,0,0.1,0,0.1,0.1        c0,0,0,0.1,0,0.1C35.5,9.8,35.5,9.9,35.3,9.9C35.4,9.9,35.4,9.9,35.3,9.9z M35.3,9.7C35.3,9.7,35.3,9.7,35.3,9.7        c-0.1,0-0.1,0.1-0.1,0.1c0,0,0,0,0.1,0c0,0,0,0,0,0C35.4,9.8,35.5,9.7,35.3,9.7C35.4,9.7,35.4,9.7,35.3,9.7z"
                  />
                  <path
                    class="st5"
                    d="M35.3,8.7c-0.1,0-0.1,0-0.1-0.1c0-0.1,0-0.2,0.1-0.2c0,0,0.1,0,0.1,0c0.1,0,0.1,0,0.1,0.1        c0,0,0,0.1,0,0.1C35.5,8.7,35.5,8.7,35.3,8.7C35.4,8.7,35.4,8.7,35.3,8.7z M35.3,8.5C35.3,8.5,35.3,8.5,35.3,8.5        c-0.1,0-0.1,0.1-0.1,0.1c0,0,0,0,0.1,0c0,0,0,0,0,0C35.4,8.6,35.5,8.6,35.3,8.5C35.4,8.5,35.4,8.5,35.3,8.5z"
                  />
                </g>
                <g>
                  <path
                    class="st5"
                    d="M37.2,5.7c-0.1,0-0.2-0.1-0.2-0.2c0-0.1,0.1-0.2,0.2-0.2c0.1,0,0.2,0.1,0.2,0.2        C37.3,5.6,37.3,5.7,37.2,5.7z M37.2,5.4C37.1,5.4,37.1,5.4,37.2,5.4c-0.1,0.1-0.1,0.2,0,0.2C37.2,5.6,37.3,5.5,37.2,5.4        C37.3,5.4,37.2,5.4,37.2,5.4z"
                  />
                  <path
                    class="st5"
                    d="M38.5,4.9c-0.1,0-0.2-0.1-0.2-0.2c0-0.1,0.1-0.2,0.2-0.2c0.1,0,0.2,0.1,0.2,0.2        C38.6,4.9,38.6,4.9,38.5,4.9z M38.5,4.7C38.4,4.7,38.4,4.7,38.5,4.7c-0.1,0.1-0.1,0.2,0,0.2C38.5,4.9,38.6,4.8,38.5,4.7        C38.6,4.7,38.5,4.7,38.5,4.7z"
                  />
                  <path
                    class="st5"
                    d="M40,5.8C40,5.8,39.9,5.8,40,5.8c-0.1,0-0.2-0.1-0.2-0.1c0,0,0-0.1,0-0.1c0-0.1,0.1-0.1,0.1-0.1        c0,0,0.1,0,0.1,0c0,0,0.1,0.1,0.1,0.1c0,0,0,0.1,0,0.1C40.1,5.8,40,5.8,40,5.8z M40,5.5C40,5.5,39.9,5.5,40,5.5        c-0.1,0.1-0.1,0.1-0.1,0.1c0,0,0,0,0,0.1c0,0,0,0,0,0c0,0,0.1,0,0.1,0C40.1,5.6,40.1,5.6,40,5.5C40.1,5.6,40.1,5.5,40,5.5        C40,5.5,40,5.5,40,5.5z"
                  />
                  <path
                    class="st5"
                    d="M40,7.4C40,7.4,39.9,7.4,40,7.4c-0.2-0.1-0.2-0.2-0.1-0.3C39.9,7.1,39.9,7,40,7c0,0,0.1,0,0.1,0        c0.1,0,0.1,0.1,0.1,0.2C40.1,7.3,40,7.4,40,7.4z M40,7.1C40,7.1,39.9,7.1,40,7.1c-0.1,0.1-0.1,0.2,0,0.2c0,0,0,0,0,0        c0,0,0.1,0,0.1,0C40.1,7.2,40.1,7.1,40,7.1C40,7.1,40,7.1,40,7.1z"
                  />
                  <path
                    class="st5"
                    d="M38.5,8.3c-0.1,0-0.1,0-0.1-0.1c0,0,0-0.1,0-0.1c0,0,0-0.1,0.1-0.1c0,0,0.1,0,0.1,0c0.1,0,0.1,0,0.1,0.1        c0,0,0,0.1,0,0.1C38.7,8.2,38.6,8.2,38.5,8.3C38.6,8.2,38.5,8.3,38.5,8.3z M38.5,8C38.5,8,38.5,8,38.5,8C38.4,8,38.4,8,38.5,8        c-0.1,0.1-0.1,0.1-0.1,0.1c0,0,0,0,0.1,0c0,0,0,0,0,0c0,0,0,0,0-0.1C38.6,8.1,38.6,8.1,38.5,8C38.6,8,38.5,8,38.5,8z"
                  />
                  <path
                    class="st5"
                    d="M37.1,7.5c-0.1,0-0.1,0-0.1-0.1c0,0,0-0.1,0-0.1c0,0,0-0.1,0.1-0.1c0,0,0.1,0,0.1,0c0.1,0,0.1,0,0.1,0.1        c0,0,0,0.1,0,0.1C37.3,7.4,37.3,7.4,37.1,7.5C37.2,7.5,37.2,7.5,37.1,7.5z M37.1,7.2C37.1,7.2,37.1,7.2,37.1,7.2        C37.1,7.2,37,7.3,37.1,7.2C37,7.3,37,7.3,37,7.4c0,0,0,0,0.1,0c0,0,0,0,0,0c0,0,0,0,0-0.1C37.2,7.3,37.2,7.3,37.1,7.2        C37.2,7.2,37.2,7.2,37.1,7.2z"
                  />
                </g>
              </g>
              <path
                class="st5"
                d="M28.5,7.5l0.7,1.2l-0.7,1.2h-1.4l-0.7-1.2l0.7-1.2H28.5 M28.6,7.3h-0.1h-1.4H27l-0.1,0.1l-0.7,1.2l-0.1,0.1      l0.1,0.1l0.7,1.2l0.1,0.1h0.1h1.4h0.1l0.1-0.1l0.7-1.2l0.1-0.1l-0.1-0.1L28.6,7.3L28.6,7.3L28.6,7.3z"
              />
              <g>
                <g>
                  <path
                    class="st5"
                    d="M24.1,5.2L24.5,6l-0.4,0.8h-0.9L22.7,6l0.4-0.8H24.1 M24.1,5.1L24.1,5.1h-1h-0.1l0,0.1l-0.4,0.8l0,0.1        l0,0.1L23,6.8l0,0.1h0.1h0.9h0.1l0-0.1l0.4-0.8l0-0.1l0-0.1L24.1,5.1L24.1,5.1L24.1,5.1z"
                  />
                </g>
                <g>
                  <path
                    class="st5"
                    d="M27.1,3L28,3l0.4,0.8L28,4.5h-0.9l-0.4-0.8L27.1,3 M27,2.8L27,2.8l-0.5,0.9l0,0.1l0,0.1l0.4,0.8l0,0.1        h0.1H28h0.1l0-0.1l0.4-0.8l0-0.1l0-0.1l-0.4-0.8l0-0.1H28L27,2.8L27,2.8L27,2.8z"
                  />
                </g>
                <g>
                  <path
                    class="st5"
                    d="M32.7,5.7l0.4,0.8l-0.4,0.8h-0.9l-0.4-0.8l0.4-0.8H32.7 M32.8,5.5L32.8,5.5h-1h-0.1l0,0.1l-0.4,0.8l0,0.1        l0,0.1l0.4,0.8l0,0.1h0.1h0.9h0.1l0-0.1l0.4-0.8l0-0.1l0-0.1L32.8,5.5L32.8,5.5L32.8,5.5z"
                  />
                </g>
                <g>
                  <path
                    class="st5"
                    d="M32.7,10.2l0.4,0.8l-0.4,0.8l-0.9,0l-0.4-0.8l0.4-0.8H32.7 M32.8,10L32.8,10h-1h-0.1l0,0.1l-0.4,0.8        l0,0.1l0,0.1l0.4,0.8l0,0.1h0.1l0.9,0h0.1l0-0.1l0.4-0.8l0-0.1l0-0.1L32.8,10L32.8,10L32.8,10z"
                  />
                </g>
                <g>
                  <path
                    class="st5"
                    d="M28,12.9l0.4,0.8L28,14.5l-0.9,0l-0.4-0.8l0.4-0.8H28 M28.1,12.8L28.1,12.8h-1H27l0,0.1l-0.4,0.8l0,0.1        l0,0.1l0.4,0.8l0,0.1h0.1l0.9,0h0.1l0-0.1l0.4-0.8l0-0.1l0-0.1L28.1,12.8L28.1,12.8L28.1,12.8z"
                  />
                </g>
                <g>
                  <path
                    class="st5"
                    d="M24.1,10.7l0.4,0.8l-0.4,0.8l-0.9,0l-0.4-0.8l0.4-0.8H24.1 M24.2,10.5L24.2,10.5h-1h-0.1l0,0.1l-0.4,0.8        l0,0.1l0,0.1l0.4,0.8l0,0.1h0.1l0.9,0h0.1l0-0.1l0.4-0.8l0-0.1l0-0.1L24.2,10.5L24.2,10.5L24.2,10.5z"
                  />
                </g>
              </g>
              <g>
                <path
                  class="st5"
                  d="M27.7,7h-0.9l-0.6-1l0.6-1c0,0,0,0,0,0h0.7c0,0,0,0,0,0c0,0,0,0,0,0h-0.7l-0.3-0.6c0,0,0,0-0.1,0       c0,0,0,0,0,0.1l0.3,0.6c0,0,0,0,0,0l-0.6,1H25c0,0,0,0,0,0l-0.3-0.6c0,0,0,0-0.1,0c0,0,0,0,0,0.1L24.9,6l-0.3,0.6       c0,0,0,0,0,0.1c0,0,0,0,0,0c0,0,0,0,0,0L25,6c0,0,0,0,0,0h1.2l0.6,1l-0.4,0.8c0,0,0,0,0,0.1c0,0,0,0,0,0c0,0,0,0,0,0l0.4-0.8       L27.7,7C27.8,7.1,27.8,7.1,27.7,7C27.8,7,27.8,7,27.7,7z"
                />
                <path
                  class="st5"
                  d="M32.3,9.8h-0.7c0,0,0,0,0,0l-0.6-1l0.6-1c0,0,0,0,0,0l0.7,0c0,0,0,0,0,0c0,0,0,0,0,0l-0.7,0L31.3,7       c0,0,0,0-0.1,0c0,0,0,0,0,0.1l0.3,0.6c0,0,0,0,0,0l-0.6,1l-1.2,0l-0.4-0.8c0,0,0,0-0.1,0c0,0,0,0,0,0.1l0.4,0.8l-0.4,0.8       c0,0,0,0,0,0.1c0,0,0,0,0,0c0,0,0,0,0,0l0.4-0.8l1.2,0l0.6,1c0,0,0,0,0,0l-0.3,0.6c0,0,0,0,0,0.1c0,0,0,0,0,0c0,0,0,0,0,0       l0.3-0.6L32.3,9.8C32.3,9.9,32.3,9.8,32.3,9.8C32.3,9.8,32.3,9.8,32.3,9.8z"
                />
                <path
                  class="st5"
                  d="M27.8,10.3h-0.9l-0.4-0.8c0,0,0,0-0.1,0c0,0,0,0,0,0.1l0.4,0.8l-0.6,1H25c0,0,0,0,0,0l-0.3-0.6       c0,0,0,0-0.1,0c0,0,0,0,0,0.1l0.3,0.6L24.6,12c0,0,0,0,0,0.1c0,0,0,0,0,0c0,0,0,0,0,0l0.3-0.6c0,0,0,0,0,0h1.2l0.6,1       c0,0,0,0,0,0l-0.3,0.6c0,0,0,0,0,0.1c0,0,0,0,0,0c0,0,0,0,0,0l0.3-0.6l0.7,0c0,0,0,0,0,0c0,0,0,0,0,0l-0.7,0c0,0,0,0,0,0       l-0.6-1l0.6-1L27.8,10.3C27.8,10.4,27.8,10.4,27.8,10.3C27.8,10.4,27.8,10.3,27.8,10.3z"
                />
              </g>
              <g>
                <path
                  class="st5"
                  d="M26.2,6.3c-0.2,0-0.3-0.1-0.3-0.3c0-0.2,0.1-0.3,0.3-0.3c0.2,0,0.3,0.1,0.3,0.3       C26.5,6.2,26.4,6.3,26.2,6.3z M26.2,5.8C26.1,5.8,26,5.9,26,6c0,0.1,0.1,0.2,0.2,0.2s0.2-0.1,0.2-0.2       C26.4,5.9,26.3,5.8,26.2,5.8z"
                />
                <path
                  class="st5"
                  d="M30.9,9c-0.1,0-0.1,0-0.2,0c-0.1-0.1-0.2-0.3-0.1-0.4c0.1-0.1,0.2-0.2,0.3-0.2c0.1,0,0.1,0,0.2,0       c0.1,0.1,0.2,0.3,0.1,0.4C31.2,9,31.1,9,30.9,9z M30.9,8.5c-0.1,0-0.2,0-0.2,0.1c-0.1,0.1,0,0.2,0.1,0.3c0,0,0.1,0,0.1,0       c0.1,0,0.2,0,0.2-0.1c0-0.1,0-0.1,0-0.2c0-0.1-0.1-0.1-0.1-0.1C31,8.5,31,8.5,30.9,8.5z"
                />
                <path
                  class="st5"
                  d="M26.2,11.8c-0.1,0-0.2-0.1-0.3-0.2c-0.1-0.1,0-0.3,0.1-0.4c0,0,0.1,0,0.2,0c0.1,0,0.2,0.1,0.3,0.2       c0,0.1,0.1,0.2,0,0.2c0,0.1-0.1,0.1-0.1,0.2C26.3,11.7,26.3,11.8,26.2,11.8z M26.2,11.2c0,0-0.1,0-0.1,0       C26,11.3,26,11.5,26,11.6c0,0.1,0.1,0.1,0.2,0.1c0,0,0.1,0,0.1,0c0.1,0,0.1-0.1,0.1-0.1c0-0.1,0-0.1,0-0.2       C26.4,11.3,26.3,11.2,26.2,11.2z"
                />
              </g>
              <g>
                <g>
                  <path
                    class="st5"
                    d="M24.6,5.6c-0.1,0-0.2-0.1-0.2-0.2c0-0.1,0.1-0.2,0.2-0.2s0.2,0.1,0.2,0.2C24.8,5.5,24.7,5.6,24.6,5.6z         M24.6,5.3C24.5,5.3,24.5,5.3,24.6,5.3c-0.1,0.1-0.1,0.2,0,0.2S24.7,5.5,24.6,5.3C24.7,5.3,24.6,5.3,24.6,5.3z"
                  />
                  <path
                    class="st5"
                    d="M24.6,6.8c-0.1,0-0.2-0.1-0.2-0.2c0-0.1,0.1-0.2,0.2-0.2c0.1,0,0.2,0.1,0.2,0.2        C24.8,6.7,24.7,6.8,24.6,6.8z M24.6,6.5C24.5,6.5,24.5,6.5,24.6,6.5c-0.1,0.1-0.1,0.2,0,0.2C24.6,6.7,24.7,6.6,24.6,6.5        C24.7,6.5,24.6,6.5,24.6,6.5z"
                  />
                  <path
                    class="st5"
                    d="M26.5,4.5c-0.1,0-0.2-0.1-0.2-0.2c0-0.1,0.1-0.2,0.2-0.2c0.1,0,0.2,0.1,0.2,0.2        C26.7,4.4,26.6,4.5,26.5,4.5z M26.5,4.2C26.5,4.2,26.4,4.2,26.5,4.2c-0.1,0.1-0.1,0.2,0,0.2C26.6,4.4,26.6,4.3,26.5,4.2        C26.6,4.2,26.6,4.2,26.5,4.2z"
                  />
                  <path
                    class="st5"
                    d="M27.5,5.1c-0.1,0-0.2-0.1-0.2-0.2c0-0.1,0.1-0.2,0.2-0.2c0.1,0,0.2,0.1,0.2,0.2C27.7,5,27.6,5.1,27.5,5.1        z M27.5,4.8C27.5,4.8,27.4,4.8,27.5,4.8c-0.1,0.1-0.1,0.2,0,0.2C27.6,5,27.6,4.9,27.5,4.8C27.6,4.8,27.6,4.8,27.5,4.8z"
                  />
                  <path
                    class="st5"
                    d="M32.3,7.8C32.2,7.8,32.2,7.8,32.3,7.8c-0.1,0-0.2-0.1-0.2-0.1c0,0,0-0.1,0-0.1c0-0.1,0.1-0.1,0.1-0.1        c0,0,0.1,0,0.1,0c0,0,0.1,0.1,0.1,0.1c0,0,0,0.1,0,0.1C32.4,7.7,32.3,7.8,32.3,7.8z M32.3,7.5C32.2,7.5,32.2,7.5,32.3,7.5        c-0.1,0.1-0.1,0.1-0.1,0.1c0,0,0,0,0,0.1c0,0,0,0,0,0c0,0,0.1,0,0.1,0C32.4,7.6,32.4,7.6,32.3,7.5C32.3,7.5,32.3,7.5,32.3,7.5        C32.3,7.5,32.3,7.5,32.3,7.5z"
                  />
                  <path
                    class="st5"
                    d="M31.2,7.2C31.2,7.2,31.2,7.2,31.2,7.2c-0.1,0-0.2-0.1-0.2-0.1c0,0,0-0.1,0-0.1c0-0.1,0.1-0.1,0.1-0.1        c0,0,0.1,0,0.1,0c0.1,0,0.1,0.1,0.1,0.2C31.4,7.1,31.3,7.2,31.2,7.2z M31.2,6.9C31.2,6.9,31.2,6.9,31.2,6.9        C31.1,7,31.1,7,31.1,7c0,0,0,0,0,0.1c0,0,0,0,0,0c0,0,0.1,0,0.1,0C31.3,7,31.3,6.9,31.2,6.9C31.3,6.9,31.3,6.9,31.2,6.9z"
                  />
                  <path
                    class="st5"
                    d="M32.3,10C32.2,10,32.2,10,32.3,10c-0.1,0-0.2-0.1-0.2-0.1c0,0,0-0.1,0-0.1c0-0.1,0.1-0.1,0.1-0.1        c0,0,0.1,0,0.1,0c0.1,0,0.1,0.1,0.1,0.2C32.4,9.9,32.3,10,32.3,10z M32.3,9.7C32.2,9.7,32.2,9.7,32.3,9.7        c-0.1,0.1-0.1,0.1-0.1,0.1c0,0,0,0,0,0.1c0,0,0,0,0,0c0,0,0.1,0,0.1,0C32.4,9.8,32.4,9.8,32.3,9.7C32.3,9.7,32.3,9.7,32.3,9.7        z"
                  />
                  <path
                    class="st5"
                    d="M31.2,10.6C31.2,10.6,31.2,10.6,31.2,10.6c-0.2-0.1-0.2-0.2-0.1-0.3c0-0.1,0.1-0.1,0.1-0.1        c0,0,0.1,0,0.1,0c0.1,0,0.1,0.1,0.1,0.2C31.4,10.5,31.3,10.6,31.2,10.6z M31.2,10.3C31.2,10.3,31.2,10.3,31.2,10.3        c-0.1,0.1-0.1,0.2,0,0.2c0,0,0,0,0,0c0,0,0.1,0,0.1,0C31.3,10.4,31.3,10.3,31.2,10.3C31.3,10.3,31.3,10.3,31.2,10.3z"
                  />
                  <path
                    class="st5"
                    d="M26.5,13.3c-0.1,0-0.1,0-0.1-0.1c0-0.1,0-0.2,0.1-0.2c0,0,0.1,0,0.1,0c0.1,0,0.1,0,0.1,0.1        c0,0,0,0.1,0,0.1C26.7,13.2,26.6,13.3,26.5,13.3C26.6,13.3,26.6,13.3,26.5,13.3z M26.5,13C26.5,13,26.5,13.1,26.5,13        c-0.1,0-0.1,0.1-0.1,0.1c0,0,0,0,0.1,0c0,0,0,0,0,0c0,0,0,0,0-0.1C26.6,13.1,26.6,13.1,26.5,13C26.6,13.1,26.6,13,26.5,13z"
                  />
                  <path
                    class="st5"
                    d="M27.6,12.7c-0.1,0-0.1,0-0.1-0.1c0-0.1,0-0.2,0.1-0.2c0,0,0.1,0,0.1,0c0.1,0,0.1,0,0.1,0.1        C27.7,12.5,27.7,12.7,27.6,12.7C27.6,12.7,27.6,12.7,27.6,12.7z M27.6,12.5C27.5,12.5,27.5,12.5,27.6,12.5        c-0.1,0-0.1,0.1-0.1,0.1c0,0,0,0,0.1,0c0,0,0,0,0,0C27.6,12.6,27.7,12.5,27.6,12.5C27.6,12.5,27.6,12.5,27.6,12.5z"
                  />
                  <path
                    class="st5"
                    d="M24.6,12.2c-0.1,0-0.1,0-0.1-0.1c0-0.1,0-0.2,0.1-0.2c0,0,0.1,0,0.1,0c0.1,0,0.1,0,0.1,0.1        c0,0,0,0.1,0,0.1C24.8,12.1,24.7,12.2,24.6,12.2C24.7,12.2,24.6,12.2,24.6,12.2z M24.6,11.9C24.6,11.9,24.6,11.9,24.6,11.9        c-0.1,0-0.1,0.1-0.1,0.1c0,0,0,0,0.1,0c0,0,0,0,0,0C24.7,12.1,24.7,12,24.6,11.9C24.7,12,24.6,11.9,24.6,11.9z"
                  />
                  <path
                    class="st5"
                    d="M24.6,11c-0.1,0-0.1,0-0.1-0.1c0-0.1,0-0.2,0.1-0.2c0,0,0.1,0,0.1,0c0.1,0,0.1,0,0.1,0.1c0,0,0,0.1,0,0.1        C24.8,10.9,24.7,11,24.6,11C24.7,11,24.6,11,24.6,11z M24.6,10.8C24.6,10.8,24.6,10.8,24.6,10.8c-0.1,0-0.1,0.1-0.1,0.1        c0,0,0,0,0.1,0c0,0,0,0,0,0C24.7,10.9,24.7,10.9,24.6,10.8C24.7,10.8,24.6,10.8,24.6,10.8z"
                  />
                </g>
                <g>
                  <path
                    class="st5"
                    d="M26.4,7.9c-0.1,0-0.2-0.1-0.2-0.2c0-0.1,0.1-0.2,0.2-0.2c0.1,0,0.2,0.1,0.2,0.2        C26.6,7.9,26.5,7.9,26.4,7.9z M26.4,7.7C26.4,7.7,26.3,7.7,26.4,7.7c-0.1,0.1-0.1,0.2,0,0.2C26.5,7.9,26.5,7.8,26.4,7.7        C26.5,7.7,26.5,7.7,26.4,7.7z"
                  />
                  <path
                    class="st5"
                    d="M27.7,7.2c-0.1,0-0.2-0.1-0.2-0.2c0-0.1,0.1-0.2,0.2-0.2c0.1,0,0.2,0.1,0.2,0.2        C27.9,7.2,27.8,7.2,27.7,7.2z M27.7,7C27.7,7,27.6,7,27.7,7c-0.1,0.1-0.1,0.2,0,0.2C27.8,7.2,27.8,7.1,27.7,7        C27.8,7,27.8,7,27.7,7z"
                  />
                  <path
                    class="st5"
                    d="M29.3,8.1C29.2,8.1,29.2,8.1,29.3,8.1C29.1,8,29.1,8,29.1,8c0,0,0-0.1,0-0.1c0-0.1,0.1-0.1,0.1-0.1        c0,0,0.1,0,0.1,0c0,0,0.1,0.1,0.1,0.1c0,0,0,0.1,0,0.1C29.4,8,29.3,8.1,29.3,8.1z M29.3,7.8C29.2,7.8,29.2,7.8,29.3,7.8        c-0.1,0.1-0.1,0.1-0.1,0.1c0,0,0,0,0,0.1c0,0,0,0,0,0c0,0,0.1,0,0.1,0C29.3,7.9,29.4,7.9,29.3,7.8C29.3,7.9,29.3,7.8,29.3,7.8        C29.3,7.8,29.3,7.8,29.3,7.8z"
                  />
                  <path
                    class="st5"
                    d="M29.3,9.7C29.2,9.7,29.2,9.6,29.3,9.7c-0.2-0.1-0.2-0.2-0.1-0.3c0-0.1,0.1-0.1,0.1-0.1c0,0,0.1,0,0.1,0        c0.1,0,0.1,0.1,0.1,0.2C29.4,9.6,29.3,9.7,29.3,9.7z M29.3,9.4C29.2,9.4,29.2,9.4,29.3,9.4c-0.1,0.1-0.1,0.2,0,0.2        c0,0,0,0,0,0c0,0,0.1,0,0.1,0C29.4,9.5,29.3,9.4,29.3,9.4C29.3,9.4,29.3,9.4,29.3,9.4z"
                  />
                  <path
                    class="st5"
                    d="M27.8,10.5c-0.1,0-0.1,0-0.1-0.1c0,0,0-0.1,0-0.1c0,0,0-0.1,0.1-0.1c0,0,0.1,0,0.1,0c0.1,0,0.1,0,0.1,0.1        c0,0,0,0.1,0,0.1S27.9,10.5,27.8,10.5C27.8,10.5,27.8,10.5,27.8,10.5z M27.8,10.3C27.8,10.3,27.7,10.3,27.8,10.3        C27.7,10.3,27.7,10.3,27.8,10.3c-0.1,0.1-0.1,0.1-0.1,0.1c0,0,0,0,0.1,0c0,0,0,0,0,0c0,0,0,0,0-0.1        C27.9,10.4,27.9,10.4,27.8,10.3C27.8,10.3,27.8,10.3,27.8,10.3z"
                  />
                  <path
                    class="st5"
                    d="M26.4,9.8c-0.1,0-0.1,0-0.1-0.1c0,0,0-0.1,0-0.1c0,0,0-0.1,0.1-0.1c0,0,0.1,0,0.1,0c0.1,0,0.1,0,0.1,0.1        c0,0,0,0.1,0,0.1C26.5,9.7,26.5,9.7,26.4,9.8C26.5,9.8,26.4,9.8,26.4,9.8z M26.4,9.5C26.4,9.5,26.4,9.5,26.4,9.5        C26.3,9.5,26.3,9.5,26.4,9.5c-0.1,0.1-0.1,0.1-0.1,0.1c0,0,0,0,0.1,0c0,0,0,0,0,0c0,0,0,0,0-0.1C26.5,9.6,26.5,9.6,26.4,9.5        C26.5,9.5,26.4,9.5,26.4,9.5z"
                  />
                </g>
              </g>
              <path
                class="st5"
                d="M30.5,18.9l0.7,1.2l-0.7,1.2h-1.4l-0.7-1.2l0.7-1.2H30.5 M30.6,18.8h-0.1h-1.4H29l-0.1,0.1l-0.7,1.2      l-0.1,0.1l0.1,0.1l0.7,1.2l0.1,0.1h0.1h1.4h0.1l0.1-0.1l0.7-1.2l0.1-0.1l-0.1-0.1L30.6,18.8L30.6,18.8L30.6,18.8z"
              />
              <g>
                <g>
                  <path
                    class="st5"
                    d="M26.1,16.7l0.4,0.8l-0.4,0.8h-0.9l-0.4-0.8l0.4-0.8H26.1 M26.2,16.5L26.2,16.5h-1h-0.1l0,0.1l-0.4,0.8        l0,0.1l0,0.1l0.4,0.8l0,0.1h0.1h0.9h0.1l0-0.1l0.4-0.8l0-0.1l0-0.1L26.2,16.5L26.2,16.5L26.2,16.5z"
                  />
                </g>
                <g>
                  <path
                    class="st5"
                    d="M29.1,14.5l0.9,0l0.4,0.8L30,16h-0.9l-0.4-0.8L29.1,14.5 M29,14.3L29,14.3l-0.5,0.9l0,0.1l0,0.1l0.4,0.8        l0,0.1h0.1H30h0.1l0-0.1l0.4-0.8l0-0.1l0-0.1l-0.4-0.8l0-0.1H30L29,14.3L29,14.3L29,14.3z"
                  />
                </g>
                <g>
                  <path
                    class="st5"
                    d="M34.7,17.1l0.4,0.8l-0.4,0.8h-0.9l-0.4-0.8l0.4-0.8H34.7 M34.8,17L34.8,17h-1h-0.1l0,0.1l-0.4,0.8l0,0.1        l0,0.1l0.4,0.8l0,0.1h0.1h0.9h0.1l0-0.1l0.4-0.8l0-0.1l0-0.1L34.8,17L34.8,17L34.8,17z"
                  />
                </g>
                <g>
                  <path
                    class="st5"
                    d="M34.7,21.6l0.4,0.8l-0.4,0.8l-0.9,0l-0.4-0.8l0.4-0.8H34.7 M34.8,21.5L34.8,21.5h-1h-0.1l0,0.1l-0.4,0.8        l0,0.1l0,0.1l0.4,0.8l0,0.1h0.1l0.9,0h0.1l0-0.1l0.4-0.8l0-0.1l0-0.1L34.8,21.5L34.8,21.5L34.8,21.5z"
                  />
                </g>
                <g>
                  <path
                    class="st5"
                    d="M30,24.4l0.4,0.8L30,26l-0.9,0l-0.4-0.8l0.4-0.8H30 M30.1,24.3L30.1,24.3h-1H29l0,0.1l-0.4,0.8l0,0.1        l0,0.1L29,26l0,0.1h0.1l0.9,0h0.1l0-0.1l0.4-0.8l0-0.1l0-0.1L30.1,24.3L30.1,24.3L30.1,24.3z"
                  />
                </g>
                <g>
                  <path
                    class="st5"
                    d="M26.1,22.1l0.4,0.8l-0.4,0.8l-0.9,0l-0.4-0.8l0.4-0.8H26.1 M26.2,22L26.2,22h-1h-0.1l0,0.1l-0.4,0.8        l0,0.1l0,0.1l0.4,0.8l0,0.1h0.1l0.9,0h0.1l0-0.1l0.4-0.8l0-0.1l0-0.1L26.2,22L26.2,22L26.2,22z"
                  />
                </g>
              </g>
              <g>
                <path
                  class="st5"
                  d="M29.7,18.5h-0.9l-0.6-1l0.6-1c0,0,0,0,0,0h0.7c0,0,0,0,0,0c0,0,0,0,0,0h-0.7l-0.3-0.6c0,0,0,0-0.1,0       c0,0,0,0,0,0.1l0.3,0.6c0,0,0,0,0,0l-0.6,1H27c0,0,0,0,0,0l-0.3-0.6c0,0,0,0-0.1,0c0,0,0,0,0,0.1l0.3,0.6L26.6,18       c0,0,0,0,0,0.1c0,0,0,0,0,0c0,0,0,0,0,0l0.3-0.6c0,0,0,0,0,0h1.2l0.6,1l-0.4,0.8c0,0,0,0,0,0.1c0,0,0,0,0,0c0,0,0,0,0,0       l0.4-0.8L29.7,18.5C29.8,18.6,29.8,18.6,29.7,18.5C29.8,18.5,29.8,18.5,29.7,18.5z"
                />
                <path
                  class="st5"
                  d="M34.3,21.2h-0.7c0,0,0,0,0,0l-0.6-1l0.6-1c0,0,0,0,0,0l0.7,0c0,0,0,0,0,0c0,0,0,0,0,0l-0.7,0l-0.3-0.6       c0,0,0,0-0.1,0c0,0,0,0,0,0.1l0.3,0.6c0,0,0,0,0,0l-0.6,1l-1.2,0l-0.4-0.8c0,0,0,0-0.1,0c0,0,0,0,0,0.1l0.4,0.8l-0.4,0.8       c0,0,0,0,0,0.1c0,0,0,0,0,0c0,0,0,0,0,0l0.4-0.8l1.2,0l0.6,1c0,0,0,0,0,0l-0.3,0.6c0,0,0,0,0,0.1c0,0,0,0,0,0c0,0,0,0,0,0       l0.3-0.6L34.3,21.2C34.3,21.3,34.3,21.3,34.3,21.2C34.3,21.3,34.3,21.2,34.3,21.2z"
                />
                <path
                  class="st5"
                  d="M29.8,21.8h-0.9L28.4,21c0,0,0,0-0.1,0c0,0,0,0,0,0.1l0.4,0.8l-0.6,1H27c0,0,0,0,0,0l-0.3-0.6       c0,0,0,0-0.1,0c0,0,0,0,0,0.1l0.3,0.6l-0.3,0.6c0,0,0,0,0,0.1c0,0,0,0,0,0c0,0,0,0,0,0L27,23c0,0,0,0,0,0h1.2l0.6,1       c0,0,0,0,0,0l-0.3,0.6c0,0,0,0,0,0.1c0,0,0,0,0,0c0,0,0,0,0,0l0.3-0.6l0.7,0c0,0,0,0,0,0c0,0,0,0,0,0l-0.7,0c0,0,0,0,0,0       l-0.6-1l0.6-1L29.8,21.8C29.8,21.9,29.8,21.9,29.8,21.8C29.8,21.8,29.8,21.8,29.8,21.8z"
                />
              </g>
              <g>
                <path
                  class="st5"
                  d="M28.2,17.8c-0.2,0-0.3-0.1-0.3-0.3c0-0.2,0.1-0.3,0.3-0.3c0.2,0,0.3,0.1,0.3,0.3       C28.5,17.6,28.4,17.8,28.2,17.8z M28.2,17.2c-0.1,0-0.2,0.1-0.2,0.2c0,0.1,0.1,0.2,0.2,0.2s0.2-0.1,0.2-0.2       C28.4,17.3,28.4,17.2,28.2,17.2z"
                />
                <path
                  class="st5"
                  d="M33,20.5c-0.1,0-0.1,0-0.2,0c-0.1-0.1-0.2-0.3-0.1-0.4c0.1-0.1,0.2-0.2,0.3-0.2c0.1,0,0.1,0,0.2,0       c0.1,0.1,0.2,0.3,0.1,0.4C33.2,20.4,33.1,20.5,33,20.5z M33,20c-0.1,0-0.2,0-0.2,0.1c-0.1,0.1,0,0.2,0.1,0.3c0,0,0.1,0,0.1,0       c0.1,0,0.2,0,0.2-0.1c0-0.1,0-0.1,0-0.2c0-0.1-0.1-0.1-0.1-0.1C33,20,33,20,33,20z"
                />
                <path
                  class="st5"
                  d="M28.2,23.2c-0.1,0-0.2-0.1-0.3-0.2c-0.1-0.1,0-0.3,0.1-0.4c0,0,0.1,0,0.2,0c0.1,0,0.2,0.1,0.3,0.2       c0,0.1,0.1,0.2,0,0.2c0,0.1-0.1,0.1-0.1,0.2C28.4,23.2,28.3,23.2,28.2,23.2z M28.2,22.7c0,0-0.1,0-0.1,0       C28,22.8,28,22.9,28.1,23c0,0.1,0.1,0.1,0.2,0.1c0,0,0.1,0,0.1,0c0.1,0,0.1-0.1,0.1-0.1c0-0.1,0-0.1,0-0.2       C28.4,22.7,28.3,22.7,28.2,22.7z"
                />
              </g>
              <g>
                <g>
                  <path
                    class="st5"
                    d="M26.6,17c-0.1,0-0.2-0.1-0.2-0.2s0.1-0.2,0.2-0.2c0.1,0,0.2,0.1,0.2,0.2S26.7,17,26.6,17z M26.6,16.8        C26.6,16.8,26.5,16.8,26.6,16.8c-0.1,0.1-0.1,0.2,0,0.2C26.7,17,26.7,16.9,26.6,16.8C26.7,16.8,26.7,16.8,26.6,16.8z"
                  />
                  <path
                    class="st5"
                    d="M26.6,18.2c-0.1,0-0.2-0.1-0.2-0.2c0-0.1,0.1-0.2,0.2-0.2c0.1,0,0.2,0.1,0.2,0.2        C26.8,18.2,26.7,18.2,26.6,18.2z M26.6,18C26.6,18,26.5,18,26.6,18c-0.1,0.1-0.1,0.2,0,0.2S26.7,18.1,26.6,18        C26.7,18,26.7,18,26.6,18z"
                  />
                  <path
                    class="st5"
                    d="M28.5,15.9c-0.1,0-0.2-0.1-0.2-0.2c0-0.1,0.1-0.2,0.2-0.2c0.1,0,0.2,0.1,0.2,0.2        C28.7,15.9,28.6,15.9,28.5,15.9z M28.5,15.7C28.5,15.7,28.4,15.7,28.5,15.7c-0.1,0.1-0.1,0.2,0,0.2        C28.6,15.9,28.6,15.8,28.5,15.7C28.6,15.7,28.6,15.7,28.5,15.7z"
                  />
                  <path
                    class="st5"
                    d="M29.6,16.5c-0.1,0-0.2-0.1-0.2-0.2c0-0.1,0.1-0.2,0.2-0.2c0.1,0,0.2,0.1,0.2,0.2        C29.7,16.5,29.6,16.5,29.6,16.5z M29.6,16.3C29.5,16.3,29.5,16.3,29.6,16.3c-0.1,0.1-0.1,0.2,0,0.2        C29.6,16.5,29.6,16.4,29.6,16.3C29.6,16.3,29.6,16.3,29.6,16.3z"
                  />
                  <path
                    class="st5"
                    d="M34.3,19.2C34.2,19.2,34.2,19.2,34.3,19.2c-0.1,0-0.2-0.1-0.2-0.1c0,0,0-0.1,0-0.1c0-0.1,0.1-0.1,0.1-0.1        c0,0,0.1,0,0.1,0c0,0,0.1,0.1,0.1,0.1s0,0.1,0,0.1C34.4,19.2,34.3,19.2,34.3,19.2z M34.3,19C34.2,19,34.2,19,34.3,19        c-0.1,0.1-0.1,0.1-0.1,0.1c0,0,0,0,0,0.1c0,0,0,0,0,0c0,0,0.1,0,0.1,0C34.4,19.1,34.4,19.1,34.3,19C34.4,19,34.3,19,34.3,19        C34.3,19,34.3,19,34.3,19z"
                  />
                  <path
                    class="st5"
                    d="M33.3,18.6C33.2,18.6,33.2,18.6,33.3,18.6c-0.1,0-0.2-0.1-0.2-0.1c0,0,0-0.1,0-0.1c0-0.1,0.1-0.1,0.1-0.1        c0,0,0.1,0,0.1,0c0.1,0,0.1,0.1,0.1,0.2C33.4,18.6,33.3,18.6,33.3,18.6z M33.3,18.4C33.2,18.4,33.2,18.4,33.3,18.4        c-0.1,0.1-0.1,0.1-0.1,0.1c0,0,0,0,0,0.1c0,0,0,0,0,0c0,0,0.1,0,0.1,0C33.4,18.5,33.3,18.4,33.3,18.4        C33.3,18.4,33.3,18.4,33.3,18.4z"
                  />
                  <path
                    class="st5"
                    d="M34.3,21.4C34.2,21.4,34.2,21.4,34.3,21.4c-0.1,0-0.2-0.1-0.2-0.1c0,0,0-0.1,0-0.1c0-0.1,0.1-0.1,0.1-0.1        c0,0,0.1,0,0.1,0c0.1,0,0.1,0.1,0.1,0.2C34.4,21.4,34.3,21.4,34.3,21.4z M34.3,21.2C34.2,21.2,34.2,21.2,34.3,21.2        c-0.1,0.1-0.1,0.1-0.1,0.1c0,0,0,0,0,0.1c0,0,0,0,0,0c0,0,0.1,0,0.1,0C34.4,21.3,34.4,21.2,34.3,21.2        C34.3,21.2,34.3,21.2,34.3,21.2z"
                  />
                  <path
                    class="st5"
                    d="M33.3,22C33.2,22,33.2,22,33.3,22c-0.2-0.1-0.2-0.2-0.1-0.3c0-0.1,0.1-0.1,0.1-0.1c0,0,0.1,0,0.1,0        c0.1,0,0.1,0.1,0.1,0.2C33.4,22,33.3,22,33.3,22z M33.3,21.8C33.2,21.8,33.2,21.8,33.3,21.8c-0.1,0.1-0.1,0.2,0,0.2        c0,0,0,0,0,0c0,0,0.1,0,0.1,0C33.4,21.9,33.3,21.8,33.3,21.8C33.3,21.8,33.3,21.8,33.3,21.8z"
                  />
                  <path
                    class="st5"
                    d="M28.5,24.8c-0.1,0-0.1,0-0.1-0.1c0-0.1,0-0.2,0.1-0.2c0,0,0.1,0,0.1,0c0.1,0,0.1,0,0.1,0.1        c0,0,0,0.1,0,0.1C28.7,24.7,28.7,24.7,28.5,24.8C28.6,24.8,28.6,24.8,28.5,24.8z M28.5,24.5C28.5,24.5,28.5,24.5,28.5,24.5        c-0.1,0-0.1,0.1-0.1,0.1c0,0,0,0,0.1,0c0,0,0,0,0,0c0,0,0,0,0-0.1C28.6,24.6,28.6,24.6,28.5,24.5        C28.6,24.5,28.6,24.5,28.5,24.5z"
                  />
                  <path
                    class="st5"
                    d="M29.6,24.2c-0.1,0-0.1,0-0.1-0.1c0-0.1,0-0.2,0.1-0.2c0,0,0.1,0,0.1,0c0.1,0,0.1,0,0.1,0.1        C29.8,24,29.7,24.1,29.6,24.2C29.6,24.2,29.6,24.2,29.6,24.2z M29.6,23.9C29.5,23.9,29.5,23.9,29.6,23.9        c-0.1,0-0.1,0.1-0.1,0.1c0,0,0,0,0.1,0c0,0,0,0,0,0C29.7,24.1,29.7,24,29.6,23.9C29.6,23.9,29.6,23.9,29.6,23.9z"
                  />
                  <path
                    class="st5"
                    d="M26.6,23.7c-0.1,0-0.1,0-0.1-0.1c0-0.1,0-0.2,0.1-0.2c0,0,0.1,0,0.1,0c0.1,0,0.1,0,0.1,0.1        c0,0,0,0.1,0,0.1C26.8,23.6,26.7,23.6,26.6,23.7C26.7,23.7,26.7,23.7,26.6,23.7z M26.6,23.4C26.6,23.4,26.6,23.4,26.6,23.4        c-0.1,0-0.1,0.1-0.1,0.1c0,0,0,0,0.1,0c0,0,0,0,0,0C26.7,23.6,26.7,23.5,26.6,23.4C26.7,23.4,26.7,23.4,26.6,23.4z"
                  />
                  <path
                    class="st5"
                    d="M26.6,22.5c-0.1,0-0.1,0-0.1-0.1c0-0.1,0-0.2,0.1-0.2c0,0,0.1,0,0.1,0c0.1,0,0.1,0,0.1,0.1        c0,0,0,0.1,0,0.1C26.8,22.4,26.7,22.5,26.6,22.5C26.7,22.5,26.7,22.5,26.6,22.5z M26.6,22.2C26.6,22.2,26.6,22.2,26.6,22.2        c-0.1,0-0.1,0.1-0.1,0.1c0,0,0,0,0.1,0c0,0,0,0,0,0C26.7,22.4,26.7,22.3,26.6,22.2C26.7,22.3,26.7,22.2,26.6,22.2z"
                  />
                </g>
                <g>
                  <path
                    class="st5"
                    d="M28.4,19.4c-0.1,0-0.2-0.1-0.2-0.2c0-0.1,0.1-0.2,0.2-0.2c0.1,0,0.2,0.1,0.2,0.2        C28.6,19.3,28.5,19.4,28.4,19.4z M28.4,19.2C28.4,19.2,28.3,19.2,28.4,19.2c-0.1,0.1-0.1,0.2,0,0.2        C28.5,19.3,28.5,19.3,28.4,19.2C28.5,19.2,28.5,19.2,28.4,19.2z"
                  />
                  <path
                    class="st5"
                    d="M29.7,18.7c-0.1,0-0.2-0.1-0.2-0.2c0-0.1,0.1-0.2,0.2-0.2c0.1,0,0.2,0.1,0.2,0.2        C29.9,18.6,29.8,18.7,29.7,18.7z M29.7,18.4C29.7,18.4,29.7,18.5,29.7,18.4c-0.1,0.1-0.1,0.2,0,0.2        C29.8,18.6,29.8,18.6,29.7,18.4C29.8,18.5,29.8,18.4,29.7,18.4z"
                  />
                  <path
                    class="st5"
                    d="M31.3,19.5C31.2,19.5,31.2,19.5,31.3,19.5c-0.1,0-0.2-0.1-0.2-0.1c0,0,0-0.1,0-0.1c0-0.1,0.1-0.1,0.1-0.1        c0,0,0.1,0,0.1,0c0,0,0.1,0.1,0.1,0.1c0,0,0,0.1,0,0.1C31.4,19.5,31.3,19.5,31.3,19.5z M31.3,19.3        C31.2,19.3,31.2,19.3,31.3,19.3c-0.1,0.1-0.1,0.1-0.1,0.1c0,0,0,0,0,0.1c0,0,0,0,0,0c0,0,0.1,0,0.1,0        C31.4,19.4,31.4,19.4,31.3,19.3C31.4,19.3,31.3,19.3,31.3,19.3C31.3,19.3,31.3,19.3,31.3,19.3z"
                  />
                  <path
                    class="st5"
                    d="M31.3,21.1C31.2,21.1,31.2,21.1,31.3,21.1c-0.2-0.1-0.2-0.2-0.1-0.3c0-0.1,0.1-0.1,0.1-0.1        c0,0,0.1,0,0.1,0c0.1,0,0.1,0.1,0.1,0.2C31.4,21.1,31.3,21.1,31.3,21.1z M31.3,20.9C31.2,20.9,31.2,20.9,31.3,20.9        c-0.1,0.1-0.1,0.2,0,0.2c0,0,0,0,0,0c0,0,0.1,0,0.1,0C31.4,21,31.4,20.9,31.3,20.9C31.3,20.9,31.3,20.9,31.3,20.9z"
                  />
                  <path
                    class="st5"
                    d="M29.8,22c-0.1,0-0.1,0-0.1-0.1c0,0,0-0.1,0-0.1c0,0,0-0.1,0.1-0.1c0,0,0.1,0,0.1,0c0.1,0,0.1,0,0.1,0.1        c0,0,0,0.1,0,0.1S29.9,22,29.8,22C29.8,22,29.8,22,29.8,22z M29.8,21.8C29.8,21.8,29.8,21.8,29.8,21.8        C29.7,21.8,29.7,21.8,29.8,21.8c-0.1,0.1-0.1,0.1-0.1,0.1c0,0,0,0,0.1,0c0,0,0,0,0,0c0,0,0,0,0-0.1        C29.9,21.9,29.9,21.8,29.8,21.8C29.9,21.8,29.8,21.8,29.8,21.8z"
                  />
                  <path
                    class="st5"
                    d="M28.4,21.2c-0.1,0-0.1,0-0.1-0.1c0,0,0-0.1,0-0.1c0,0,0-0.1,0.1-0.1c0,0,0.1,0,0.1,0c0.1,0,0.1,0,0.1,0.1        c0,0,0,0.1,0,0.1C28.6,21.2,28.5,21.2,28.4,21.2C28.5,21.2,28.4,21.2,28.4,21.2z M28.4,21C28.4,21,28.4,21,28.4,21        C28.3,21,28.3,21,28.4,21c-0.1,0.1-0.1,0.1-0.1,0.1c0,0,0,0,0.1,0c0,0,0,0,0,0c0,0,0,0,0-0.1C28.5,21.1,28.5,21,28.4,21        C28.5,21,28.4,21,28.4,21z"
                  />
                </g>
              </g>
              <path
                class="st5"
                d="M33.8,29.3l0.7,1.2l-0.7,1.2h-1.4l-0.7-1.2l0.7-1.2H33.8 M33.9,29.1h-0.1h-1.4h-0.1l-0.1,0.1l-0.7,1.2      l-0.1,0.1l0.1,0.1l0.7,1.2l0.1,0.1h0.1h1.4h0.1l0.1-0.1l0.7-1.2l0.1-0.1l-0.1-0.1L33.9,29.1L33.9,29.1L33.9,29.1z"
              />
              <g>
                <g>
                  <path
                    class="st5"
                    d="M29.3,27l0.4,0.8l-0.4,0.8h-0.9L28,27.8l0.4-0.8H29.3 M29.4,26.9L29.4,26.9h-1h-0.1l0,0.1l-0.4,0.8l0,0.1        l0,0.1l0.4,0.8l0,0.1h0.1h0.9h0.1l0-0.1l0.4-0.8l0-0.1l0-0.1L29.4,26.9L29.4,26.9L29.4,26.9z"
                  />
                </g>
                <g>
                  <path
                    class="st5"
                    d="M32.3,24.8l0.9,0l0.4,0.8l-0.4,0.8h-0.9l-0.4-0.8L32.3,24.8 M32.3,24.7L32.3,24.7l-0.5,0.9l0,0.1l0,0.1        l0.4,0.8l0,0.1h0.1h0.9h0.1l0-0.1l0.4-0.8l0-0.1l0-0.1l-0.4-0.8l0-0.1h-0.1L32.3,24.7L32.3,24.7L32.3,24.7z"
                  />
                </g>
                <g>
                  <path
                    class="st5"
                    d="M38,27.5l0.4,0.8L38,29h-0.9l-0.4-0.8l0.4-0.8H38 M38,27.3L38,27.3h-1H37l0,0.1l-0.4,0.8l0,0.1l0,0.1        l0.4,0.8l0,0.1h0.1H38H38l0-0.1l0.4-0.8l0-0.1l0-0.1L38,27.3L38,27.3L38,27.3z"
                  />
                </g>
                <g>
                  <path
                    class="st5"
                    d="M37.9,32l0.4,0.8l-0.4,0.8l-0.9,0l-0.4-0.8L37,32H37.9 M38,31.9L38,31.9h-1H37l0,0.1l-0.4,0.8l0,0.1        l0,0.1l0.4,0.8l0,0.1H37l0.9,0H38l0-0.1l0.4-0.8l0-0.1l0-0.1L38,31.9L38,31.9L38,31.9z"
                  />
                </g>
                <g>
                  <path
                    class="st5"
                    d="M33.3,34.8l0.4,0.8l-0.4,0.8l-0.9,0l-0.4-0.8l0.4-0.8H33.3 M33.3,34.6L33.3,34.6h-1h-0.1l0,0.1l-0.4,0.8        l0,0.1l0,0.1l0.4,0.8l0,0.1h0.1l0.9,0h0.1l0-0.1l0.4-0.8l0-0.1l0-0.1L33.3,34.6L33.3,34.6L33.3,34.6z"
                  />
                </g>
                <g>
                  <path
                    class="st5"
                    d="M29.4,32.5l0.4,0.8L29.4,34l-0.9,0L28,33.3l0.4-0.8H29.4 M29.4,32.3L29.4,32.3h-1h-0.1l0,0.1l-0.4,0.8        l0,0.1l0,0.1l0.4,0.8l0,0.1h0.1l0.9,0h0.1l0-0.1l0.4-0.8l0-0.1l0-0.1L29.4,32.3L29.4,32.3L29.4,32.3z"
                  />
                </g>
              </g>
              <g>
                <path
                  class="st5"
                  d="M33,28.8h-0.9l-0.6-1l0.6-1c0,0,0,0,0,0h0.7c0,0,0,0,0,0s0,0,0,0h-0.7l-0.3-0.6c0,0,0,0-0.1,0       c0,0,0,0,0,0.1l0.3,0.6c0,0,0,0,0,0l-0.6,1h-1.2c0,0,0,0,0,0l-0.3-0.6c0,0,0,0-0.1,0c0,0,0,0,0,0.1l0.3,0.6l-0.3,0.6       c0,0,0,0,0,0.1c0,0,0,0,0,0c0,0,0,0,0,0l0.3-0.6c0,0,0,0,0,0h1.2l0.6,1l-0.4,0.8c0,0,0,0,0,0.1c0,0,0,0,0,0c0,0,0,0,0,0       l0.4-0.8L33,28.8C33,28.9,33,28.9,33,28.8C33,28.9,33,28.8,33,28.8z"
                />
                <path
                  class="st5"
                  d="M37.5,31.6h-0.7c0,0,0,0,0,0l-0.6-1l0.6-1c0,0,0,0,0,0l0.7,0c0,0,0,0,0,0c0,0,0,0,0,0l-0.7,0l-0.3-0.6       c0,0,0,0-0.1,0c0,0,0,0,0,0.1l0.3,0.6c0,0,0,0,0,0l-0.6,1l-1.2,0l-0.4-0.8c0,0,0,0-0.1,0c0,0,0,0,0,0.1l0.4,0.8l-0.4,0.8       c0,0,0,0,0,0.1c0,0,0,0,0,0c0,0,0,0,0,0l0.4-0.8l1.2,0l0.6,1c0,0,0,0,0,0l-0.3,0.6c0,0,0,0,0,0.1c0,0,0,0,0,0c0,0,0,0,0,0       l0.3-0.6L37.5,31.6C37.6,31.7,37.6,31.7,37.5,31.6C37.6,31.6,37.6,31.6,37.5,31.6z"
                />
                <path
                  class="st5"
                  d="M33,32.2h-0.9l-0.4-0.8c0,0,0,0-0.1,0c0,0,0,0,0,0.1l0.4,0.8l-0.6,1h-1.2c0,0,0,0,0,0l-0.3-0.6       c0,0,0,0-0.1,0c0,0,0,0,0,0.1l0.3,0.6l-0.3,0.6c0,0,0,0,0,0.1c0,0,0,0,0,0c0,0,0,0,0,0l0.3-0.6c0,0,0,0,0,0h1.2l0.6,1       c0,0,0,0,0,0l-0.3,0.6c0,0,0,0,0,0.1c0,0,0,0,0,0c0,0,0,0,0,0l0.3-0.6l0.7,0c0,0,0,0,0,0s0,0,0,0l-0.7,0c0,0,0,0,0,0l-0.6-1       l0.6-1L33,32.2C33,32.2,33.1,32.2,33,32.2C33.1,32.2,33,32.2,33,32.2z"
                />
              </g>
              <g>
                <path
                  class="st5"
                  d="M31.5,28.1c-0.2,0-0.3-0.1-0.3-0.3s0.1-0.3,0.3-0.3c0.2,0,0.3,0.1,0.3,0.3S31.7,28.1,31.5,28.1z        M31.5,27.6c-0.1,0-0.2,0.1-0.2,0.2c0,0.1,0.1,0.2,0.2,0.2s0.2-0.1,0.2-0.2C31.7,27.7,31.6,27.6,31.5,27.6z"
                />
                <path
                  class="st5"
                  d="M36.2,30.8c-0.1,0-0.1,0-0.2,0c-0.1-0.1-0.2-0.3-0.1-0.4c0.1-0.1,0.2-0.2,0.3-0.2c0.1,0,0.1,0,0.2,0       c0.1,0.1,0.2,0.3,0.1,0.4C36.4,30.8,36.3,30.8,36.2,30.8z M36.2,30.3c-0.1,0-0.2,0-0.2,0.1c-0.1,0.1,0,0.2,0.1,0.3       c0,0,0.1,0,0.1,0c0.1,0,0.2,0,0.2-0.1c0-0.1,0-0.1,0-0.2s-0.1-0.1-0.1-0.1C36.3,30.3,36.2,30.3,36.2,30.3z"
                />
                <path
                  class="st5"
                  d="M31.5,33.6c-0.1,0-0.2-0.1-0.3-0.2c-0.1-0.1,0-0.3,0.1-0.4c0,0,0.1,0,0.2,0c0.1,0,0.2,0.1,0.3,0.2       c0,0.1,0.1,0.2,0,0.2c0,0.1-0.1,0.1-0.1,0.2C31.6,33.6,31.6,33.6,31.5,33.6z M31.5,33.1c0,0-0.1,0-0.1,0       c-0.1,0.1-0.1,0.2-0.1,0.3c0,0.1,0.1,0.1,0.2,0.1c0,0,0.1,0,0.1,0c0.1,0,0.1-0.1,0.1-0.1c0-0.1,0-0.1,0-0.2       C31.6,33.1,31.6,33.1,31.5,33.1z"
                />
              </g>
              <g>
                <g>
                  <path
                    class="st5"
                    d="M29.9,27.4c-0.1,0-0.2-0.1-0.2-0.2c0-0.1,0.1-0.2,0.2-0.2c0.1,0,0.2,0.1,0.2,0.2        C30,27.3,30,27.4,29.9,27.4z M29.9,27.1C29.8,27.1,29.8,27.2,29.9,27.1c-0.1,0.1-0.1,0.2,0,0.2S30,27.3,29.9,27.1        C30,27.2,29.9,27.1,29.9,27.1z"
                  />
                  <path
                    class="st5"
                    d="M29.9,28.6c-0.1,0-0.2-0.1-0.2-0.2c0-0.1,0.1-0.2,0.2-0.2s0.2,0.1,0.2,0.2C30,28.5,30,28.6,29.9,28.6z         M29.9,28.3C29.8,28.3,29.8,28.4,29.9,28.3c-0.1,0.1-0.1,0.2,0,0.2S30,28.5,29.9,28.3C30,28.4,29.9,28.3,29.9,28.3z"
                  />
                  <path
                    class="st5"
                    d="M31.8,26.3c-0.1,0-0.2-0.1-0.2-0.2c0-0.1,0.1-0.2,0.2-0.2c0.1,0,0.2,0.1,0.2,0.2        C31.9,26.2,31.9,26.3,31.8,26.3z M31.8,26C31.7,26,31.7,26.1,31.8,26c-0.1,0.1-0.1,0.2,0,0.2C31.8,26.2,31.9,26.2,31.8,26        C31.9,26.1,31.8,26,31.8,26z"
                  />
                  <path
                    class="st5"
                    d="M32.8,26.9c-0.1,0-0.2-0.1-0.2-0.2c0-0.1,0.1-0.2,0.2-0.2c0.1,0,0.2,0.1,0.2,0.2        C33,26.8,32.9,26.9,32.8,26.9z M32.8,26.6C32.8,26.6,32.7,26.7,32.8,26.6c-0.1,0.1-0.1,0.2,0,0.2        C32.9,26.8,32.9,26.8,32.8,26.6C32.9,26.7,32.9,26.6,32.8,26.6z"
                  />
                  <path
                    class="st5"
                    d="M37.5,29.6C37.5,29.6,37.5,29.6,37.5,29.6c-0.1,0-0.2-0.1-0.2-0.1c0,0,0-0.1,0-0.1c0-0.1,0.1-0.1,0.1-0.1        c0,0,0.1,0,0.1,0c0,0,0.1,0.1,0.1,0.1s0,0.1,0,0.1C37.6,29.6,37.6,29.6,37.5,29.6z M37.5,29.3C37.5,29.3,37.5,29.3,37.5,29.3        c-0.1,0.1-0.1,0.1-0.1,0.1c0,0,0,0,0,0.1c0,0,0,0,0,0c0,0,0.1,0,0.1,0C37.6,29.4,37.6,29.4,37.5,29.3        C37.6,29.4,37.6,29.4,37.5,29.3C37.6,29.3,37.5,29.3,37.5,29.3z"
                  />
                  <path
                    class="st5"
                    d="M36.5,29C36.5,29,36.4,29,36.5,29c-0.1,0-0.2-0.1-0.2-0.1c0,0,0-0.1,0-0.1c0-0.1,0.1-0.1,0.1-0.1        c0,0,0.1,0,0.1,0c0.1,0,0.1,0.1,0.1,0.2C36.6,29,36.6,29,36.5,29z M36.5,28.7C36.5,28.7,36.4,28.8,36.5,28.7        c-0.1,0.1-0.1,0.1-0.1,0.1c0,0,0,0,0,0.1c0,0,0,0,0,0c0,0,0.1,0,0.1,0C36.6,28.8,36.6,28.8,36.5,28.7        C36.5,28.7,36.5,28.7,36.5,28.7z"
                  />
                  <path
                    class="st5"
                    d="M37.5,31.8C37.5,31.8,37.5,31.8,37.5,31.8c-0.1,0-0.2-0.1-0.2-0.1c0,0,0-0.1,0-0.1c0-0.1,0.1-0.1,0.1-0.1        c0,0,0.1,0,0.1,0c0.1,0,0.1,0.1,0.1,0.2C37.6,31.8,37.6,31.8,37.5,31.8z M37.5,31.5C37.5,31.5,37.5,31.6,37.5,31.5        c-0.1,0.1-0.1,0.1-0.1,0.1c0,0,0,0,0,0.1c0,0,0,0,0,0c0,0,0.1,0,0.1,0C37.6,31.6,37.6,31.6,37.5,31.5        C37.6,31.5,37.5,31.5,37.5,31.5z"
                  />
                  <path
                    class="st5"
                    d="M36.5,32.4C36.5,32.4,36.4,32.4,36.5,32.4c-0.2-0.1-0.2-0.2-0.1-0.3c0-0.1,0.1-0.1,0.1-0.1        c0,0,0.1,0,0.1,0c0.1,0,0.1,0.1,0.1,0.2C36.6,32.4,36.6,32.4,36.5,32.4z M36.5,32.1C36.5,32.1,36.4,32.1,36.5,32.1        c-0.1,0.1-0.1,0.2,0,0.2c0,0,0,0,0,0c0,0,0.1,0,0.1,0C36.6,32.2,36.6,32.2,36.5,32.1C36.5,32.1,36.5,32.1,36.5,32.1z"
                  />
                  <path
                    class="st5"
                    d="M31.8,35.1c-0.1,0-0.1,0-0.1-0.1c0-0.1,0-0.2,0.1-0.2c0,0,0.1,0,0.1,0c0.1,0,0.1,0,0.1,0.1        c0,0,0,0.1,0,0.1S31.9,35.1,31.8,35.1C31.9,35.1,31.8,35.1,31.8,35.1z M31.8,34.9C31.8,34.9,31.8,34.9,31.8,34.9        c-0.1,0-0.1,0.1-0.1,0.1c0,0,0,0,0.1,0c0,0,0,0,0,0c0,0,0,0,0-0.1C31.9,35,31.9,34.9,31.8,34.9C31.9,34.9,31.8,34.9,31.8,34.9        z"
                  />
                  <path
                    class="st5"
                    d="M32.8,34.5c-0.1,0-0.1,0-0.1-0.1c0-0.1,0-0.2,0.1-0.2c0,0,0.1,0,0.1,0c0.1,0,0.1,0,0.1,0.1        C33,34.4,33,34.5,32.8,34.5C32.9,34.5,32.8,34.5,32.8,34.5z M32.8,34.3C32.8,34.3,32.8,34.3,32.8,34.3c-0.1,0-0.1,0.1-0.1,0.1        c0,0,0,0,0.1,0c0,0,0,0,0,0C32.9,34.4,32.9,34.4,32.8,34.3C32.9,34.3,32.9,34.3,32.8,34.3z"
                  />
                  <path
                    class="st5"
                    d="M29.9,34c-0.1,0-0.1,0-0.1-0.1c0-0.1,0-0.2,0.1-0.2c0,0,0.1,0,0.1,0c0.1,0,0.1,0,0.1,0.1c0,0,0,0.1,0,0.1        C30,34,30,34,29.9,34C29.9,34,29.9,34,29.9,34z M29.9,33.8C29.9,33.8,29.8,33.8,29.9,33.8c-0.1,0-0.1,0.1-0.1,0.1        c0,0,0,0,0.1,0c0,0,0,0,0,0C30,33.9,30,33.9,29.9,33.8C29.9,33.8,29.9,33.8,29.9,33.8z"
                  />
                  <path
                    class="st5"
                    d="M29.9,32.8c-0.1,0-0.1,0-0.1-0.1c0-0.1,0-0.2,0.1-0.2c0,0,0.1,0,0.1,0c0.1,0,0.1,0,0.1,0.1        c0,0,0,0.1,0,0.1C30,32.8,30,32.8,29.9,32.8C29.9,32.8,29.9,32.8,29.9,32.8z M29.9,32.6C29.9,32.6,29.8,32.6,29.9,32.6        c-0.1,0-0.1,0.1-0.1,0.1c0,0,0,0,0.1,0c0,0,0,0,0,0C30,32.7,30,32.7,29.9,32.6C29.9,32.6,29.9,32.6,29.9,32.6z"
                  />
                </g>
                <g>
                  <path
                    class="st5"
                    d="M31.7,29.8c-0.1,0-0.2-0.1-0.2-0.2c0-0.1,0.1-0.2,0.2-0.2c0.1,0,0.2,0.1,0.2,0.2        C31.9,29.7,31.8,29.8,31.7,29.8z M31.7,29.5C31.6,29.5,31.6,29.5,31.7,29.5c-0.1,0.1-0.1,0.2,0,0.2        C31.7,29.7,31.8,29.7,31.7,29.5C31.8,29.5,31.7,29.5,31.7,29.5z"
                  />
                  <path
                    class="st5"
                    d="M33,29.1c-0.1,0-0.2-0.1-0.2-0.2c0-0.1,0.1-0.2,0.2-0.2c0.1,0,0.2,0.1,0.2,0.2C33.2,29,33.1,29.1,33,29.1        z M33,28.8C33,28.8,32.9,28.8,33,28.8C32.9,28.9,33,29,33,29C33.1,29,33.1,28.9,33,28.8C33.1,28.8,33.1,28.8,33,28.8z"
                  />
                  <path
                    class="st5"
                    d="M34.5,29.9C34.5,29.9,34.5,29.9,34.5,29.9c-0.1,0-0.2-0.1-0.2-0.1c0,0,0-0.1,0-0.1c0-0.1,0.1-0.1,0.1-0.1        c0,0,0.1,0,0.1,0c0,0,0.1,0.1,0.1,0.1c0,0,0,0.1,0,0.1C34.6,29.9,34.6,29.9,34.5,29.9z M34.5,29.6        C34.5,29.6,34.5,29.7,34.5,29.6c-0.1,0.1-0.1,0.1-0.1,0.1c0,0,0,0,0,0.1c0,0,0,0,0,0c0,0,0.1,0,0.1,0        C34.6,29.8,34.6,29.7,34.5,29.6C34.6,29.7,34.6,29.7,34.5,29.6C34.6,29.6,34.5,29.6,34.5,29.6z"
                  />
                  <path
                    class="st5"
                    d="M34.5,31.5C34.5,31.5,34.5,31.5,34.5,31.5c-0.2-0.1-0.2-0.2-0.1-0.3c0-0.1,0.1-0.1,0.1-0.1        c0,0,0.1,0,0.1,0c0.1,0,0.1,0.1,0.1,0.2C34.6,31.4,34.6,31.5,34.5,31.5z M34.5,31.2C34.5,31.2,34.5,31.2,34.5,31.2        c-0.1,0.1-0.1,0.2,0,0.2c0,0,0,0,0,0c0,0,0.1,0,0.1,0C34.6,31.3,34.6,31.3,34.5,31.2C34.6,31.2,34.5,31.2,34.5,31.2z"
                  />
                  <path
                    class="st5"
                    d="M33,32.4c-0.1,0-0.1,0-0.1-0.1c0,0,0-0.1,0-0.1c0,0,0-0.1,0.1-0.1c0,0,0.1,0,0.1,0c0.1,0,0.1,0,0.1,0.1        c0,0,0,0.1,0,0.1C33.2,32.3,33.2,32.3,33,32.4C33.1,32.4,33.1,32.4,33,32.4z M33,32.1C33,32.1,33,32.1,33,32.1        C33,32.1,33,32.2,33,32.1c-0.1,0.1-0.1,0.1-0.1,0.1c0,0,0,0,0.1,0c0,0,0,0,0,0c0,0,0,0,0-0.1C33.1,32.2,33.1,32.2,33,32.1        C33.1,32.1,33.1,32.1,33,32.1z"
                  />
                  <path
                    class="st5"
                    d="M31.7,31.6c-0.1,0-0.1,0-0.1-0.1c0,0,0-0.1,0-0.1c0,0,0-0.1,0.1-0.1c0,0,0.1,0,0.1,0c0.1,0,0.1,0,0.1,0.1        c0,0,0,0.1,0,0.1C31.8,31.5,31.8,31.5,31.7,31.6C31.7,31.6,31.7,31.6,31.7,31.6z M31.7,31.3C31.6,31.3,31.6,31.3,31.7,31.3        C31.6,31.4,31.6,31.4,31.7,31.3c-0.1,0.1-0.1,0.1-0.1,0.1c0,0,0,0,0.1,0c0,0,0,0,0,0c0,0,0,0,0-0.1        C31.8,31.4,31.8,31.4,31.7,31.3C31.7,31.3,31.7,31.3,31.7,31.3z"
                  />
                </g>
              </g>
              <path
                class="st5"
                d="M40.8,21.2l0.7,1.2l-0.7,1.2h-1.4l-0.7-1.2l0.7-1.2H40.8 M40.9,21h-0.1h-1.4h-0.1l-0.1,0.1l-0.7,1.2      l-0.1,0.1l0.1,0.1l0.7,1.2l0.1,0.1h0.1h1.4h0.1l0.1-0.1l0.7-1.2l0.1-0.1l-0.1-0.1L40.9,21L40.9,21L40.9,21z"
              />
              <g>
                <g>
                  <path
                    class="st5"
                    d="M36.3,18.9l0.4,0.8l-0.4,0.8h-0.9L35,19.7l0.4-0.8H36.3 M36.4,18.8L36.4,18.8h-1h-0.1l0,0.1l-0.4,0.8        l0,0.1l0,0.1l0.4,0.8l0,0.1h0.1h0.9h0.1l0-0.1l0.4-0.8l0-0.1l0-0.1L36.4,18.8L36.4,18.8L36.4,18.8z"
                  />
                </g>
                <g>
                  <path
                    class="st5"
                    d="M39.3,16.7l0.9,0l0.4,0.8l-0.4,0.8h-0.9l-0.4-0.8L39.3,16.7 M39.2,16.5L39.2,16.5l-0.5,0.9l0,0.1l0,0.1        l0.4,0.8l0,0.1h0.1h0.9h0.1l0-0.1l0.4-0.8l0-0.1l0-0.1l-0.4-0.8l0-0.1h-0.1L39.2,16.5L39.2,16.5L39.2,16.5z"
                  />
                </g>
                <g>
                  <path
                    class="st5"
                    d="M44.9,19.4l0.4,0.8l-0.4,0.8H44l-0.4-0.8l0.4-0.8H44.9 M45,19.2L45,19.2h-1H44l0,0.1l-0.4,0.8l0,0.1        l0,0.1l0.4,0.8l0,0.1H44h0.9H45l0-0.1l0.4-0.8l0-0.1l0-0.1L45,19.2L45,19.2L45,19.2z"
                  />
                </g>
                <g>
                  <path
                    class="st5"
                    d="M44.9,23.9l0.4,0.8l-0.4,0.8l-0.9,0l-0.4-0.8l0.4-0.8H44.9 M45,23.7L45,23.7h-1h-0.1l0,0.1l-0.4,0.8        l0,0.1l0,0.1l0.4,0.8l0,0.1H44l0.9,0H45l0-0.1l0.4-0.8l0-0.1l0-0.1L45,23.7L45,23.7L45,23.7z"
                  />
                </g>
                <g>
                  <path
                    class="st5"
                    d="M40.2,26.6l0.4,0.8l-0.4,0.8l-0.9,0l-0.4-0.8l0.4-0.8H40.2 M40.3,26.5L40.3,26.5h-1h-0.1l0,0.1l-0.4,0.8        l0,0.1l0,0.1l0.4,0.8l0,0.1h0.1l0.9,0h0.1l0-0.1l0.4-0.8l0-0.1l0-0.1L40.3,26.5L40.3,26.5L40.3,26.5z"
                  />
                </g>
                <g>
                  <path
                    class="st5"
                    d="M36.3,24.3l0.4,0.8l-0.4,0.8l-0.9,0L35,25.1l0.4-0.8H36.3 M36.4,24.2L36.4,24.2h-1h-0.1l0,0.1l-0.4,0.8        l0,0.1l0,0.1l0.4,0.8l0,0.1h0.1l0.9,0h0.1l0-0.1l0.4-0.8l0-0.1l0-0.1L36.4,24.2L36.4,24.2L36.4,24.2z"
                  />
                </g>
              </g>
              <g>
                <path
                  class="st5"
                  d="M40,20.7h-0.9l-0.6-1l0.6-1c0,0,0,0,0,0h0.7c0,0,0,0,0,0s0,0,0,0h-0.7L38.8,18c0,0,0,0-0.1,0       c0,0,0,0,0,0.1l0.3,0.6c0,0,0,0,0,0l-0.6,1h-1.2c0,0,0,0,0,0l-0.3-0.6c0,0,0,0-0.1,0c0,0,0,0,0,0.1l0.3,0.6l-0.3,0.6       c0,0,0,0,0,0.1c0,0,0,0,0,0c0,0,0,0,0,0l0.3-0.6c0,0,0,0,0,0h1.2l0.6,1l-0.4,0.8c0,0,0,0,0,0.1c0,0,0,0,0,0c0,0,0,0,0,0       l0.4-0.8L40,20.7C40,20.8,40,20.8,40,20.7C40,20.7,40,20.7,40,20.7z"
                />
                <path
                  class="st5"
                  d="M44.5,23.5h-0.7c0,0,0,0,0,0l-0.6-1l0.6-1c0,0,0,0,0,0l0.7,0c0,0,0,0,0,0c0,0,0,0,0,0l-0.7,0l-0.3-0.6       c0,0,0,0-0.1,0c0,0,0,0,0,0.1l0.3,0.6c0,0,0,0,0,0l-0.6,1l-1.2,0l-0.4-0.8c0,0,0,0-0.1,0c0,0,0,0,0,0.1l0.4,0.8l-0.4,0.8       c0,0,0,0,0,0.1c0,0,0,0,0,0c0,0,0,0,0,0l0.4-0.8l1.2,0l0.6,1c0,0,0,0,0,0l-0.3,0.6c0,0,0,0,0,0.1c0,0,0,0,0,0c0,0,0,0,0,0       l0.3-0.6L44.5,23.5C44.5,23.5,44.6,23.5,44.5,23.5C44.6,23.5,44.5,23.5,44.5,23.5z"
                />
                <path
                  class="st5"
                  d="M40,24h-0.9l-0.4-0.8c0,0,0,0-0.1,0c0,0,0,0,0,0.1l0.4,0.8l-0.6,1h-1.2c0,0,0,0,0,0l-0.3-0.6       c0,0,0,0-0.1,0c0,0,0,0,0,0.1l0.3,0.6l-0.3,0.6c0,0,0,0,0,0.1c0,0,0,0,0,0c0,0,0,0,0,0l0.3-0.6c0,0,0,0,0,0h1.2l0.6,1       c0,0,0,0,0,0l-0.3,0.6c0,0,0,0,0,0.1c0,0,0,0,0,0c0,0,0,0,0,0l0.3-0.6l0.7,0c0,0,0,0,0,0c0,0,0,0,0,0l-0.7,0c0,0,0,0,0,0       l-0.6-1l0.6-1L40,24C40,24.1,40,24.1,40,24C40,24,40,24,40,24z"
                />
              </g>
              <g>
                <path
                  class="st5"
                  d="M38.5,20c-0.2,0-0.3-0.1-0.3-0.3s0.1-0.3,0.3-0.3s0.3,0.1,0.3,0.3S38.6,20,38.5,20z M38.5,19.5       c-0.1,0-0.2,0.1-0.2,0.2c0,0.1,0.1,0.2,0.2,0.2c0.1,0,0.2-0.1,0.2-0.2C38.7,19.6,38.6,19.5,38.5,19.5z"
                />
                <path
                  class="st5"
                  d="M43.2,22.7c-0.1,0-0.1,0-0.2,0c-0.1-0.1-0.2-0.3-0.1-0.4c0.1-0.1,0.2-0.2,0.3-0.2c0.1,0,0.1,0,0.2,0       c0.1,0.1,0.2,0.3,0.1,0.4C43.4,22.6,43.3,22.7,43.2,22.7z M43.2,22.2c-0.1,0-0.2,0-0.2,0.1c-0.1,0.1,0,0.2,0.1,0.3       c0,0,0.1,0,0.1,0c0.1,0,0.2,0,0.2-0.1c0-0.1,0-0.1,0-0.2c0-0.1-0.1-0.1-0.1-0.1C43.3,22.2,43.2,22.2,43.2,22.2z"
                />
                <path
                  class="st5"
                  d="M38.5,25.4c-0.1,0-0.2-0.1-0.3-0.2c-0.1-0.1,0-0.3,0.1-0.4c0,0,0.1,0,0.2,0c0.1,0,0.2,0.1,0.3,0.2       c0,0.1,0.1,0.2,0,0.2c0,0.1-0.1,0.1-0.1,0.2C38.6,25.4,38.5,25.4,38.5,25.4z M38.5,24.9c0,0-0.1,0-0.1,0       c-0.1,0.1-0.1,0.2-0.1,0.3c0,0.1,0.1,0.1,0.2,0.1c0,0,0.1,0,0.1,0c0.1,0,0.1-0.1,0.1-0.1c0-0.1,0-0.1,0-0.2       C38.6,25,38.6,24.9,38.5,24.9z"
                />
              </g>
              <g>
                <g>
                  <path
                    class="st5"
                    d="M36.8,19.3c-0.1,0-0.2-0.1-0.2-0.2c0-0.1,0.1-0.2,0.2-0.2S37,19,37,19.1C37,19.2,36.9,19.3,36.8,19.3z         M36.8,19C36.8,19,36.7,19,36.8,19c-0.1,0.1-0.1,0.2,0,0.2S36.9,19.1,36.8,19C36.9,19,36.9,19,36.8,19z"
                  />
                  <path
                    class="st5"
                    d="M36.8,20.4c-0.1,0-0.2-0.1-0.2-0.2c0-0.1,0.1-0.2,0.2-0.2c0.1,0,0.2,0.1,0.2,0.2        C37,20.4,36.9,20.4,36.8,20.4z M36.8,20.2C36.8,20.2,36.7,20.2,36.8,20.2c-0.1,0.1-0.1,0.2,0,0.2        C36.9,20.4,36.9,20.3,36.8,20.2C36.9,20.2,36.9,20.2,36.8,20.2z"
                  />
                  <path
                    class="st5"
                    d="M38.8,18.2c-0.1,0-0.2-0.1-0.2-0.2c0-0.1,0.1-0.2,0.2-0.2c0.1,0,0.2,0.1,0.2,0.2        C38.9,18.1,38.8,18.2,38.8,18.2z M38.8,17.9C38.7,17.9,38.7,17.9,38.8,17.9c-0.1,0.1-0.1,0.2,0,0.2        C38.8,18.1,38.9,18,38.8,17.9C38.9,17.9,38.8,17.9,38.8,17.9z"
                  />
                  <path
                    class="st5"
                    d="M39.8,18.7c-0.1,0-0.2-0.1-0.2-0.2c0-0.1,0.1-0.2,0.2-0.2c0.1,0,0.2,0.1,0.2,0.2        C39.9,18.7,39.9,18.7,39.8,18.7z M39.8,18.5C39.7,18.5,39.7,18.5,39.8,18.5c-0.1,0.1-0.1,0.2,0,0.2        C39.8,18.7,39.9,18.6,39.8,18.5C39.9,18.5,39.8,18.5,39.8,18.5z"
                  />
                  <path
                    class="st5"
                    d="M44.5,21.5C44.5,21.5,44.4,21.4,44.5,21.5c-0.1,0-0.2-0.1-0.2-0.1c0,0,0-0.1,0-0.1c0-0.1,0.1-0.1,0.1-0.1        c0,0,0.1,0,0.1,0c0,0,0.1,0.1,0.1,0.1s0,0.1,0,0.1C44.6,21.4,44.6,21.5,44.5,21.5z M44.5,21.2C44.5,21.2,44.4,21.2,44.5,21.2        c-0.1,0.1-0.1,0.1-0.1,0.1c0,0,0,0,0,0.1c0,0,0,0,0,0c0,0,0.1,0,0.1,0C44.6,21.3,44.6,21.3,44.5,21.2        C44.6,21.2,44.6,21.2,44.5,21.2C44.5,21.2,44.5,21.2,44.5,21.2z"
                  />
                  <path
                    class="st5"
                    d="M43.5,20.9C43.5,20.9,43.4,20.9,43.5,20.9c-0.1,0-0.2-0.1-0.2-0.1c0,0,0-0.1,0-0.1c0-0.1,0.1-0.1,0.1-0.1        c0,0,0.1,0,0.1,0c0.1,0,0.1,0.1,0.1,0.2C43.6,20.8,43.5,20.9,43.5,20.9z M43.5,20.6C43.4,20.6,43.4,20.6,43.5,20.6        c-0.1,0.1-0.1,0.1-0.1,0.1c0,0,0,0,0,0.1c0,0,0,0,0,0c0,0,0.1,0,0.1,0C43.6,20.7,43.6,20.6,43.5,20.6        C43.5,20.6,43.5,20.6,43.5,20.6z"
                  />
                  <path
                    class="st5"
                    d="M44.5,23.7C44.5,23.7,44.4,23.7,44.5,23.7c-0.1,0-0.2-0.1-0.2-0.1c0,0,0-0.1,0-0.1c0-0.1,0.1-0.1,0.1-0.1        c0,0,0.1,0,0.1,0c0.1,0,0.1,0.1,0.1,0.2C44.6,23.6,44.6,23.7,44.5,23.7z M44.5,23.4C44.5,23.4,44.4,23.4,44.5,23.4        c-0.1,0.1-0.1,0.1-0.1,0.1c0,0,0,0,0,0.1c0,0,0,0,0,0c0,0,0.1,0,0.1,0C44.6,23.5,44.6,23.4,44.5,23.4        C44.5,23.4,44.5,23.4,44.5,23.4z"
                  />
                  <path
                    class="st5"
                    d="M43.5,24.3C43.5,24.3,43.4,24.2,43.5,24.3c-0.2-0.1-0.2-0.2-0.1-0.3c0-0.1,0.1-0.1,0.1-0.1        c0,0,0.1,0,0.1,0c0.1,0,0.1,0.1,0.1,0.2C43.6,24.2,43.5,24.3,43.5,24.3z M43.5,24C43.4,24,43.4,24,43.5,24        c-0.1,0.1-0.1,0.2,0,0.2c0,0,0,0,0,0c0,0,0.1,0,0.1,0C43.6,24.1,43.6,24,43.5,24C43.5,24,43.5,24,43.5,24z"
                  />
                  <path
                    class="st5"
                    d="M38.8,27c-0.1,0-0.1,0-0.1-0.1c0-0.1,0-0.2,0.1-0.2c0,0,0.1,0,0.1,0c0.1,0,0.1,0,0.1,0.1c0,0,0,0.1,0,0.1        C38.9,26.9,38.9,27,38.8,27C38.8,27,38.8,27,38.8,27z M38.8,26.7C38.8,26.7,38.7,26.7,38.8,26.7c-0.1,0-0.1,0.1-0.1,0.1        c0,0,0,0,0.1,0c0,0,0,0,0,0c0,0,0,0,0-0.1C38.9,26.8,38.9,26.8,38.8,26.7C38.8,26.8,38.8,26.7,38.8,26.7z"
                  />
                  <path
                    class="st5"
                    d="M39.8,26.4c-0.1,0-0.1,0-0.1-0.1c0-0.1,0-0.2,0.1-0.2c0,0,0.1,0,0.1,0c0.1,0,0.1,0,0.1,0.1        C40,26.2,40,26.3,39.8,26.4C39.9,26.4,39.8,26.4,39.8,26.4z M39.8,26.1C39.8,26.1,39.8,26.2,39.8,26.1c-0.1,0-0.1,0.1-0.1,0.1        c0,0,0,0,0.1,0c0,0,0,0,0,0C39.9,26.3,39.9,26.2,39.8,26.1C39.9,26.2,39.8,26.1,39.8,26.1z"
                  />
                  <path
                    class="st5"
                    d="M36.9,25.9c-0.1,0-0.1,0-0.1-0.1c0-0.1,0-0.2,0.1-0.2c0,0,0.1,0,0.1,0c0.1,0,0.1,0,0.1,0.1        c0,0,0,0.1,0,0.1C37,25.8,37,25.9,36.9,25.9C36.9,25.9,36.9,25.9,36.9,25.9z M36.9,25.6C36.8,25.6,36.8,25.6,36.9,25.6        c-0.1,0-0.1,0.1-0.1,0.1c0,0,0,0,0.1,0c0,0,0,0,0,0C36.9,25.8,37,25.7,36.9,25.6C36.9,25.7,36.9,25.6,36.9,25.6z"
                  />
                  <path
                    class="st5"
                    d="M36.9,24.7c-0.1,0-0.1,0-0.1-0.1c0-0.1,0-0.2,0.1-0.2c0,0,0.1,0,0.1,0c0.1,0,0.1,0,0.1,0.1        c0,0,0,0.1,0,0.1C37,24.6,37,24.7,36.9,24.7C36.9,24.7,36.9,24.7,36.9,24.7z M36.9,24.4C36.8,24.4,36.8,24.5,36.9,24.4        c-0.1,0-0.1,0.1-0.1,0.1c0,0,0,0,0.1,0c0,0,0,0,0,0C36.9,24.6,37,24.5,36.9,24.4C36.9,24.5,36.9,24.4,36.9,24.4z"
                  />
                </g>
                <g>
                  <path
                    class="st5"
                    d="M38.7,21.6c-0.1,0-0.2-0.1-0.2-0.2c0-0.1,0.1-0.2,0.2-0.2c0.1,0,0.2,0.1,0.2,0.2        C38.8,21.6,38.8,21.6,38.7,21.6z M38.7,21.4C38.6,21.4,38.6,21.4,38.7,21.4c-0.1,0.1-0.1,0.2,0,0.2        C38.7,21.6,38.8,21.5,38.7,21.4C38.8,21.4,38.7,21.4,38.7,21.4z"
                  />
                  <path
                    class="st5"
                    d="M40,20.9c-0.1,0-0.2-0.1-0.2-0.2c0-0.1,0.1-0.2,0.2-0.2c0.1,0,0.2,0.1,0.2,0.2        C40.1,20.8,40.1,20.9,40,20.9z M40,20.7C39.9,20.7,39.9,20.7,40,20.7c-0.1,0.1-0.1,0.2,0,0.2C40,20.8,40.1,20.8,40,20.7        C40.1,20.7,40,20.7,40,20.7z"
                  />
                  <path
                    class="st5"
                    d="M41.5,21.8C41.5,21.8,41.4,21.8,41.5,21.8c-0.1,0-0.2-0.1-0.2-0.1c0,0,0-0.1,0-0.1c0-0.1,0.1-0.1,0.1-0.1        c0,0,0.1,0,0.1,0c0,0,0.1,0.1,0.1,0.1c0,0,0,0.1,0,0.1C41.6,21.7,41.6,21.8,41.5,21.8z M41.5,21.5        C41.5,21.5,41.4,21.5,41.5,21.5c-0.1,0.1-0.1,0.1-0.1,0.1c0,0,0,0,0,0.1c0,0,0,0,0,0c0,0,0.1,0,0.1,0        C41.6,21.6,41.6,21.6,41.5,21.5C41.6,21.5,41.6,21.5,41.5,21.5C41.5,21.5,41.5,21.5,41.5,21.5z"
                  />
                  <path
                    class="st5"
                    d="M41.5,23.3C41.5,23.3,41.4,23.3,41.5,23.3c-0.2-0.1-0.2-0.2-0.1-0.3c0-0.1,0.1-0.1,0.1-0.1        c0,0,0.1,0,0.1,0c0.1,0,0.1,0.1,0.1,0.2C41.6,23.3,41.6,23.3,41.5,23.3z M41.5,23.1C41.5,23.1,41.4,23.1,41.5,23.1        c-0.1,0.1-0.1,0.2,0,0.2c0,0,0,0,0,0c0,0,0.1,0,0.1,0C41.6,23.2,41.6,23.1,41.5,23.1C41.5,23.1,41.5,23.1,41.5,23.1z"
                  />
                  <path
                    class="st5"
                    d="M40,24.2c-0.1,0-0.1,0-0.1-0.1c0,0,0-0.1,0-0.1c0,0,0-0.1,0.1-0.1c0,0,0.1,0,0.1,0c0.1,0,0.1,0,0.1,0.1        c0,0,0,0.1,0,0.1C40.2,24.2,40.1,24.2,40,24.2C40.1,24.2,40,24.2,40,24.2z M40,24C40,24,40,24,40,24C39.9,24,39.9,24,40,24        c-0.1,0.1-0.1,0.1-0.1,0.1c0,0,0,0,0.1,0c0,0,0,0,0,0c0,0,0,0,0-0.1C40.1,24.1,40.1,24,40,24C40.1,24,40.1,24,40,24z"
                  />
                  <path
                    class="st5"
                    d="M38.6,23.5c-0.1,0-0.1,0-0.1-0.1c0,0,0-0.1,0-0.1c0,0,0-0.1,0.1-0.1c0,0,0.1,0,0.1,0c0.1,0,0.1,0,0.1,0.1        c0,0,0,0.1,0,0.1C38.8,23.4,38.8,23.4,38.6,23.5C38.7,23.4,38.7,23.5,38.6,23.5z M38.6,23.2C38.6,23.2,38.6,23.2,38.6,23.2        C38.6,23.2,38.6,23.2,38.6,23.2c-0.1,0.1-0.1,0.1-0.1,0.1c0,0,0,0,0.1,0c0,0,0,0,0,0c0,0,0,0,0-0.1        C38.7,23.3,38.7,23.3,38.6,23.2C38.7,23.2,38.7,23.2,38.6,23.2z"
                  />
                </g>
              </g>
            </g>
          </g>
        </g>
    <g>
          <g>
            <g>
              <g>
                <path
                  class="st6"
                  d="M44,30.2c-0.9-1.2-2.6-2.2-4.5-2.2c-1.6,0-3.3,0.6-3.3,2.2c0,1.6,1.6,2,4.4,2.7c3,0.7,6.6,2.1,6.6,6.1       c0,5-4,6.8-8.5,6.8c-3.2,0-6.3-1-8.4-3.4c-0.8-0.9,1.6-4.1,3.4-3.2c1.6,0.9,3,2.6,5.2,2.6c1.5,0,3.3-0.6,3.3-2.4       c0-1.7-1.6-2.2-4.7-2.9c-3-0.7-6-2-6-5.8c0-4.6,4.1-6.5,8.1-6.5c3.9,0,7.8,1.8,7.7,3.1C47.1,30.4,44,30.2,44,30.2z"
                />
              </g>
            </g>
          </g>
      <g>
            <defs>
              <path
                id="SVGID_3_"
                d="M44,30.2c-0.9-1.2-2.6-2.2-4.5-2.2c-1.6,0-3.3,0.6-3.3,2.2c0,1.6,1.6,2,4.4,2.7c3,0.7,6.6,2.1,6.6,6.1      c0,5-4,6.8-8.5,6.8c-3.2,0-6.3-1-8.4-3.4c-0.8-0.9,1.6-4.1,3.4-3.2c1.6,0.9,3,2.6,5.2,2.6c1.5,0,3.3-0.6,3.3-2.4      c0-1.7-1.6-2.2-4.7-2.9c-3-0.7-6-2-6-5.8c0-4.6,4.1-6.5,8.1-6.5c3.9,0,7.8,1.8,7.7,3.1C47.1,30.4,44,30.2,44,30.2z"
              />
            </defs>
        <clipPath id="SVGID_4_">
              <use xlink:href="#SVGID_3_" style="overflow:visible;" />
            </clipPath>
        <path
          class="st7"
          d="M44.1,43.5c0.4,1.1,0.6,2.2,0.5,3.4c0,0.1,0,0.2-0.1,0.3c0,0-0.1,0.1-0.2,0.1c0,0-0.1-0.1-0.1-0.2     c-0.1-0.4-0.2-0.8-0.3-1.2c-0.1-0.3-0.3-0.5-0.4-0.7c-0.1,0.1-0.1,0.2-0.1,0.2c-0.4,0.7-0.6,1.4-0.7,2.1c0,0.1,0,0.2-0.1,0.3     c-0.1,0.1-0.2,0.1-0.3,0.2c0-0.1-0.1-0.1-0.1-0.2c-0.1-1.2,0.1-2.3,0.5-3.5c0-0.1,0-0.1,0.1-0.2c0,0,0,0,0,0     c-0.3-0.1-0.6-0.1-0.9-0.2c-0.4-0.1-0.7-0.3-1-0.6c-0.1-0.1-0.1-0.2,0-0.3c0.1-0.1,0.2-0.1,0.3-0.1c0.4,0.1,0.8,0.1,1.2,0.1     c0.2,0,0.4,0,0.6-0.1c-0.3-0.3-0.3-0.6-0.2-0.9c0.1-0.4,0.4-0.6,0.8-0.7c0.5-0.1,0.8,0.2,0.7,0.7c0,0.1-0.1,0.3-0.2,0.5     c0.4-0.2,0.7-0.4,1.1-0.7c0.3-0.2,0.5-0.4,0.8-0.6c0.1-0.1,0.2-0.1,0.3-0.1c0.1,0.1,0,0.2,0,0.3c-0.5,0.8-1.1,1.5-1.8,2     C44.2,43.4,44.1,43.4,44.1,43.5z"
        />
        <path
          class="st7"
          d="M43.9,26.5c-0.3-0.5-0.3-0.9,0-1.1c0.3-0.3,0.7-0.3,1.1,0c0.3,0.2,0.3,0.7,0,1.1c0.7-0.1,1.3-0.3,1.9-0.7     c0,0,0.2,0,0.2,0c0,0,0.1,0.1,0,0.2c0,0.1-0.1,0.2-0.2,0.3c-0.4,0.5-0.9,0.9-1.5,1.2c-0.1,0-0.2,0.1-0.3,0.1     c0.1,0.4,0.2,0.8,0.3,1.1c0.2,0.8,0.3,1.6,0.2,2.3c0,0.2,0,0.4-0.2,0.4c-0.2,0-0.2-0.2-0.2-0.3c-0.1-0.5-0.3-1-0.4-1.5     c-0.1-0.2-0.2-0.4-0.3-0.6c-0.3,0.3-0.4,0.6-0.5,1c-0.1,0.4-0.2,0.8-0.3,1.2c0,0.1-0.1,0.2-0.2,0.2c-0.2,0-0.2-0.1-0.2-0.3     c-0.1-1.2,0.1-2.3,0.5-3.4c0-0.1,0-0.1,0-0.2c-0.3-0.2-0.6-0.3-0.9-0.5c-0.4-0.3-0.8-0.6-1.1-1c-0.1-0.1-0.1-0.2,0-0.3     c0.1-0.1,0.2,0,0.3,0C42.6,26.2,43.3,26.4,43.9,26.5z"
        />
        <path
          class="st7"
          d="M39.8,28.3c-0.4,0.6-0.6,1.1-0.7,1.7c0,0.1,0,0.2-0.1,0.3c0,0.1-0.1,0.1-0.2,0.2c0-0.1-0.1-0.1-0.1-0.2     c-0.1-0.8,0-1.7,0.2-2.5c0.1-0.3,0.1-0.6,0.2-0.8c-0.1,0-0.2-0.1-0.3-0.1c-0.6-0.3-1.1-0.7-1.5-1.2c0,0-0.1-0.1-0.1-0.1     c0-0.1,0-0.2,0-0.3c0.1,0,0.2,0,0.2,0c0.5,0.3,1.1,0.5,1.6,0.6c-0.1-0.2-0.1-0.4-0.1-0.6c0-0.2,0.1-0.4,0.3-0.5     c0.3-0.2,0.7-0.2,0.9,0c0.3,0.3,0.3,0.6,0,1.1c0.6-0.1,1.1-0.3,1.6-0.6c0.1,0,0.2,0,0.3-0.1c0,0.1,0,0.2-0.1,0.3     c-0.4,0.6-0.9,1-1.5,1.2c-0.1,0-0.1,0.1-0.2,0.1c0.1,0.3,0.2,0.6,0.2,0.9c0.2,0.8,0.3,1.6,0.2,2.4c0,0.2-0.1,0.3-0.2,0.2     c-0.1,0-0.1-0.1-0.1-0.2c-0.1-0.4-0.2-0.8-0.3-1.2C40.1,28.9,40,28.6,39.8,28.3z"
        />
        <path
          class="st7"
          d="M46.8,39.2c-0.4,0.6-0.6,1.1-0.7,1.7c0,0.1,0,0.2-0.1,0.3c0,0.1-0.1,0.1-0.2,0.2c0-0.1-0.1-0.1-0.1-0.2     c-0.1-0.8,0-1.7,0.2-2.5c0.1-0.3,0.1-0.6,0.2-0.8c-0.1,0-0.2-0.1-0.3-0.1c-0.6-0.3-1.1-0.7-1.5-1.2c0,0-0.1-0.1-0.1-0.1     c0-0.1,0-0.2,0-0.3c0.1,0,0.2,0,0.2,0c0.5,0.3,1.1,0.5,1.6,0.6c-0.1-0.2-0.1-0.4-0.1-0.6c0-0.2,0.1-0.4,0.3-0.5     c0.3-0.2,0.7-0.2,0.9,0c0.3,0.3,0.3,0.6,0,1.1c0.6-0.1,1.1-0.3,1.6-0.6c0.1,0,0.2,0,0.3-0.1c0,0.1,0,0.2-0.1,0.3     c-0.4,0.6-0.9,1-1.5,1.2c-0.1,0-0.1,0.1-0.2,0.1c0.1,0.3,0.2,0.6,0.2,0.9c0.2,0.8,0.3,1.6,0.2,2.4c0,0.2-0.1,0.3-0.2,0.2     c-0.1,0-0.1-0.1-0.1-0.2c-0.1-0.4-0.2-0.8-0.3-1.2C47.1,39.8,47,39.5,46.8,39.2z"
        />
        <path
          class="st7"
          d="M35.5,28.2c0.4,1.2,0.7,2.4,0.6,3.7c0,0.1-0.1,0.2-0.1,0.3c0,0.1-0.2,0.1-0.2,0.1c0,0-0.1-0.1-0.1-0.2     c-0.1-0.4-0.2-0.9-0.4-1.3c-0.1-0.3-0.3-0.5-0.5-0.8c-0.1,0.1-0.1,0.2-0.2,0.3c-0.4,0.7-0.6,1.5-0.7,2.3c0,0.1,0,0.2-0.1,0.3     c-0.1,0.1-0.2,0.1-0.3,0.2c0-0.1-0.1-0.2-0.1-0.2c-0.1-1.3,0.2-2.6,0.5-3.8c0-0.1,0-0.2,0.1-0.2c0,0,0,0,0,0     c-0.3-0.1-0.7-0.1-1-0.2c-0.4-0.1-0.8-0.4-1.1-0.7c-0.1-0.1-0.1-0.2,0-0.3c0.1-0.1,0.2-0.1,0.3-0.1c0.4,0.1,0.9,0.1,1.3,0.1     c0.2,0,0.4,0,0.7-0.1c-0.3-0.3-0.3-0.6-0.2-1c0.2-0.4,0.4-0.7,0.9-0.8c0.5-0.1,0.9,0.3,0.7,0.8c0,0.2-0.1,0.3-0.2,0.5     c0.4-0.3,0.8-0.5,1.2-0.7c0.3-0.2,0.6-0.5,0.8-0.7c0.1-0.1,0.2-0.2,0.3-0.1c0.1,0.1,0.1,0.2,0,0.3c-0.5,0.9-1.2,1.6-1.9,2.2     C35.6,28.1,35.5,28.1,35.5,28.2z"
        />
        <path
          class="st7"
          d="M41.9,38.8c-0.5,0.5-0.7,1.1-0.8,1.7c0,0.1,0,0.3-0.1,0.4c0,0.1-0.1,0.2-0.1,0.2c-0.1,0-0.2,0-0.2-0.1     c-0.1-0.1-0.1-0.2-0.1-0.4c-0.1-1.2,0.1-2.3,0.5-3.4c0.1-0.2,0-0.3-0.1-0.4c-0.8-0.6-1.4-1.3-1.9-2.2c0,0-0.1-0.1-0.1-0.1     c0-0.1,0-0.2,0-0.3c0.1,0,0.2,0,0.2,0.1c0.5,0.6,1.2,1,1.9,1.4c0,0,0.1,0.1,0.2,0.1c-0.1-0.1-0.1-0.2-0.1-0.2     c-0.2-0.4-0.2-0.8,0.1-1c0.2-0.2,0.7-0.2,1,0.1c0.2,0.2,0.4,0.4,0.5,0.6c0.1,0.3,0.1,0.6-0.2,0.9c0.4,0,0.8,0.1,1.1,0.1     c0.3,0,0.6-0.1,1-0.1c0.1,0,0.3,0,0.3,0.1c0,0.1,0,0.3-0.1,0.4c-0.5,0.4-1,0.7-1.7,0.8c-0.1,0-0.2,0-0.4,0.1     c0.1,0.4,0.2,0.8,0.3,1.2c0.2,1,0.3,1.9,0.3,2.9c0,0.1,0,0.3-0.2,0.3c-0.2,0-0.3-0.1-0.3-0.2c-0.1-0.5-0.2-1.1-0.4-1.6     C42.3,39.5,42.1,39.2,41.9,38.8z"
        />
        <path
          class="st7"
          d="M32.2,41.2c-0.2-0.6,0-1,0.4-1.2c0.4-0.2,0.9-0.1,1.2,0.3c0.2,0.4,0.1,0.8-0.4,1.2c0.7,0.1,1.5,0.1,2.2-0.1     c0.1,0,0.2,0,0.2,0.1c0,0,0,0.2,0,0.2c-0.1,0.1-0.2,0.2-0.3,0.2c-0.6,0.4-1.2,0.6-2,0.8c-0.1,0-0.2,0-0.4,0c0,0.4,0,0.9-0.1,1.3     c-0.1,0.9-0.2,1.7-0.5,2.5c-0.1,0.2-0.1,0.4-0.3,0.3c-0.2-0.1-0.1-0.3-0.1-0.4c0-0.6,0.1-1.1,0-1.7c0-0.2-0.1-0.5-0.2-0.8     c-0.4,0.2-0.7,0.5-0.9,0.9c-0.2,0.4-0.5,0.8-0.7,1.2c-0.1,0.1-0.1,0.2-0.3,0.2C30,46.1,30,46,30,45.8c0.3-1.2,0.9-2.4,1.6-3.4     c0-0.1,0.1-0.1,0.1-0.2c-0.3-0.3-0.5-0.5-0.8-0.8c-0.4-0.4-0.6-0.9-0.8-1.4c0-0.1-0.1-0.2,0.1-0.3c0.1-0.1,0.2,0,0.3,0.1     C31,40.4,31.6,40.8,32.2,41.2z"
        />
        <path
          class="st7"
          d="M37.5,42.8c-0.2-0.6,0-1,0.4-1.2c0.4-0.2,0.9-0.1,1.2,0.3c0.2,0.4,0.1,0.8-0.4,1.2c0.7,0.1,1.5,0.1,2.2-0.1     c0.1,0,0.2,0,0.2,0.1c0,0,0,0.2,0,0.2c-0.1,0.1-0.2,0.2-0.3,0.2c-0.6,0.4-1.2,0.6-2,0.8c-0.1,0-0.2,0-0.4,0c0,0.4,0,0.9-0.1,1.3     c-0.1,0.9-0.2,1.7-0.5,2.5c-0.1,0.2-0.1,0.4-0.3,0.3c-0.2-0.1-0.1-0.3-0.1-0.4c0-0.6,0.1-1.1,0-1.7c0-0.2-0.1-0.5-0.2-0.8     c-0.4,0.2-0.7,0.5-0.9,0.9c-0.2,0.4-0.5,0.8-0.7,1.2c-0.1,0.1-0.1,0.2-0.3,0.2c-0.2-0.1-0.2-0.2-0.1-0.4c0.3-1.2,0.9-2.4,1.6-3.4     c0-0.1,0.1-0.1,0.1-0.2c-0.3-0.3-0.5-0.5-0.8-0.8c-0.4-0.4-0.6-0.9-0.8-1.4c0-0.1-0.1-0.2,0.1-0.3c0.1-0.1,0.2,0,0.3,0.1     C36.2,42.1,36.8,42.4,37.5,42.8z"
        />
        <path
          class="st7"
          d="M36.3,36.9c-0.5,0.5-0.7,1.1-0.8,1.7c0,0.1,0,0.3-0.1,0.4c0,0.1-0.1,0.2-0.1,0.2c-0.1,0-0.2,0-0.2-0.1     c-0.1-0.1-0.1-0.2-0.1-0.4c-0.1-1.2,0.1-2.3,0.5-3.4c0.1-0.2,0-0.3-0.1-0.4c-0.8-0.6-1.4-1.3-1.9-2.2c0,0-0.1-0.1-0.1-0.1     c0-0.1,0-0.2,0-0.3c0.1,0,0.2,0,0.2,0.1c0.5,0.6,1.2,1,1.9,1.4c0,0,0.1,0.1,0.2,0.1c-0.1-0.1-0.1-0.2-0.1-0.2     c-0.2-0.4-0.2-0.8,0.1-1c0.2-0.2,0.7-0.2,1,0.1c0.2,0.2,0.4,0.4,0.5,0.6c0.1,0.3,0.1,0.6-0.2,0.9c0.4,0,0.8,0.1,1.1,0.1     c0.3,0,0.6-0.1,1-0.1c0.1,0,0.3,0,0.3,0.1c0,0.1,0,0.3-0.1,0.4c-0.5,0.4-1,0.7-1.7,0.8c-0.1,0-0.2,0-0.4,0.1     c0.1,0.4,0.2,0.8,0.3,1.2c0.2,1,0.3,1.9,0.3,2.9c0,0.1,0,0.3-0.2,0.3c-0.2,0-0.3-0.1-0.3-0.2c-0.1-0.5-0.2-1.1-0.4-1.6     C36.7,37.7,36.5,37.4,36.3,36.9z"
        />
          </g>
        </g>
    <polygon
      class="st8"
      points="27,3 27,8.4 19.4,8.4 19.4,27 11.1,27 11.1,8.4 3.5,8.4 3.5,3  "
    />
    <g>
          <polygon
            class="st9"
            points="18.5,45.3 19.1,45.3 21.6,38.8 21,38.8   "
          />
      <path
        class="st10"
        d="M15.8,24.4l-0.3,1.4h3V27h-3.2l-1.8,9.4l-0.9-4.9H9.3v-0.7l0.7-0.6c1.1-1,1.7-1.6,1.7-2.2    c0-0.4-0.3-0.8-0.9-0.8c-0.4,0-0.8,0.2-1.1,0.4l-0.3-0.9c0.4-0.3,1-0.5,1.7-0.5c0.2,0,0.4,0,0.5,0.1l-0.4-2H4.3v21.1h4.5V31.3    l1.8,8.9H11l0.6,0.8c0.1,0.2,0.3,0.4,0.4,0.6h0c0.1-0.2,0.3-0.4,0.4-0.7l0.6-0.8h0.8l-1.3,1.9l1.4,2h-0.8l-0.6-0.9    c-0.2-0.2-0.3-0.4-0.4-0.7h0c-0.1,0.2-0.3,0.4-0.4,0.7l-0.2,0.3l0.4,1.9h3.9l0.4-1.8c-0.1,0-0.2,0-0.3,0c-0.7,0-1.2-0.2-1.5-0.4    l0.2-0.9c0.2,0.1,0.7,0.3,1.2,0.3c0.3,0,0.5-0.1,0.6-0.2l0.2-0.9c-0.2-0.2-0.5-0.4-0.9-0.4h-0.5v-0.8h0.5c0.4,0,0.9-0.2,0.9-0.6    c0-0.3-0.2-0.5-0.7-0.5c-0.4,0-0.8,0.2-1.1,0.3l-0.2-0.9c0.3-0.2,0.9-0.4,1.6-0.4c0.5,0,0.8,0.1,1.1,0.3l0.8-4v-0.1h-3.1v-0.8h3.1    v-3.2h0.9v3.2h3.1v0.8h-3.1v3.2h-0.1v7.7h4.1V24.4H15.8z"
      />
      <polygon
        class="st9"
        points="19.1,45.3 18.5,45.3 21,38.8 21.6,38.8   "
      />
      <path
        class="st9"
        d="M9.4,26.8l0.3,0.9c0.3-0.2,0.7-0.4,1.1-0.4c0.6,0,0.9,0.3,0.9,0.8c0,0.6-0.6,1.2-1.7,2.2l-0.7,0.6v0.7h3.3    l-0.2-1H11v0l0.5-0.4c0.3-0.2,0.5-0.5,0.7-0.7l-0.6-3.1c-0.2,0-0.3-0.1-0.5-0.1C10.3,26.3,9.7,26.5,9.4,26.8z"
      />
      <path
        class="st9"
        d="M15.5,42.8c-0.5,0-1-0.2-1.2-0.3L14,43.4c0.3,0.2,0.8,0.4,1.5,0.4c0.1,0,0.2,0,0.3,0l0.2-1.1    C15.9,42.7,15.7,42.8,15.5,42.8z"
      />
      <path
        class="st9"
        d="M14.2,38.9l0.2,0.9c0.2-0.1,0.6-0.3,1.1-0.3c0.5,0,0.7,0.2,0.7,0.5c0,0.4-0.5,0.6-0.9,0.6h-0.5v0.8h0.5    c0.4,0,0.7,0.1,0.9,0.4l0.6-3c-0.3-0.2-0.6-0.3-1.1-0.3C15.1,38.5,14.5,38.7,14.2,38.9z"
      />
      <polygon class="st9" points="10.8,41.1 11.1,42.7 11.5,42.2   " />
      <polygon
        class="st9"
        points="18.6,25.8 15.6,25.8 15.3,27 18.6,27   "
      />
      <polygon
        class="st9"
        points="18.5,34.6 21.6,34.6 21.6,33.8 18.5,33.8 18.5,30.6 17.7,30.6 17.7,33.8 14.6,33.8 14.6,34.6     17.7,34.6 17.7,34.7 18.4,30.9 18.4,37.8 18.5,37.8   "
      />
      <path
        class="st9"
        d="M11.9,42.6L11.9,42.6c0.2,0.2,0.3,0.5,0.4,0.7l0.6,0.9h0.8l-1.4-2l1.3-1.9h-0.8l-0.6,0.8    c-0.1,0.2-0.3,0.4-0.4,0.7h0c-0.1-0.2-0.3-0.4-0.4-0.6L11,40.2h-0.4l0.2,0.9l0.7,1l-0.4,0.6l0.2,0.8l0.2-0.3    C11.6,43,11.7,42.8,11.9,42.6z"
      />
      <polygon
        class="st9"
        points="18.5,45.3 19.1,45.3 21.6,38.8 21,38.8   "
      />
      <rect x="4.3" y="25.7" class="st9" width="3.8" height="0.3" />
      <rect x="4.3" y="26.2" class="st9" width="2.4" height="0.1" />
      <rect x="4.3" y="26.7" class="st9" width="2.4" height="0.1" />
      <rect x="4.3" y="27.1" class="st9" width="2.4" height="0.1" />
      <rect x="4.3" y="27.5" class="st9" width="2.4" height="0.1" />
      <rect x="4.3" y="28" class="st9" width="2.4" height="0.1" />
      <rect x="4.3" y="28.4" class="st9" width="2.4" height="0.1" />
      <rect x="4.3" y="28.9" class="st9" width="2.4" height="0.1" />
      <rect x="4.3" y="29.3" class="st9" width="2.4" height="0.1" />
      <rect x="4.3" y="30.7" class="st9" width="2.4" height="0.1" />
      <rect x="4.3" y="31.2" class="st9" width="2.4" height="0.1" />
      <rect x="4.3" y="31.6" class="st9" width="2.4" height="0.1" />
      <rect x="4.3" y="32" class="st9" width="2.4" height="0.1" />
      <rect x="4.3" y="32.5" class="st9" width="2.4" height="0.1" />
      <rect x="4.3" y="32.9" class="st9" width="2.4" height="0.1" />
      <rect x="4.3" y="33.4" class="st9" width="2.4" height="0.1" />
      <rect x="4.3" y="33.8" class="st9" width="2.4" height="0.1" />
      <rect x="4.3" y="35.4" class="st9" width="2.4" height="0.1" />
      <rect x="4.3" y="35.8" class="st9" width="2.4" height="0.1" />
      <rect x="4.3" y="36.2" class="st9" width="2.4" height="0.1" />
      <rect x="4.3" y="36.7" class="st9" width="2.4" height="0.1" />
      <rect x="4.3" y="37.1" class="st9" width="2.4" height="0.1" />
      <rect x="4.3" y="37.5" class="st9" width="2.4" height="0.1" />
      <rect x="4.3" y="38" class="st9" width="2.4" height="0.1" />
      <rect x="4.3" y="38.4" class="st9" width="2.4" height="0.1" />
      <rect x="4.3" y="39.5" class="st9" width="2.4" height="0.1" />
      <rect x="4.3" y="40" class="st9" width="2.4" height="0.1" />
      <rect x="4.3" y="40.4" class="st9" width="2.4" height="0.1" />
      <rect x="4.3" y="40.8" class="st9" width="2.4" height="0.1" />
      <rect x="4.3" y="41.3" class="st9" width="2.4" height="0.1" />
      <rect x="4.3" y="41.7" class="st9" width="2.4" height="0.1" />
      <rect x="4.3" y="42.2" class="st9" width="2.4" height="0.1" />
      <rect x="4.3" y="42.6" class="st9" width="2.4" height="0.1" />
      <rect x="4.3" y="43.6" class="st9" width="2.4" height="0.1" />
      <rect x="4.3" y="44" class="st9" width="2.4" height="0.1" />
      <rect x="4.3" y="44.4" class="st9" width="2.4" height="0.1" />
      <rect x="4.3" y="44.9" class="st9" width="2.4" height="0.1" />
      <rect x="4.3" y="29.9" class="st9" width="3.8" height="0.3" />
      <rect x="4.3" y="34.6" class="st9" width="3.8" height="0.3" />
      <rect x="4.3" y="39" class="st9" width="3.8" height="0.3" />
      <rect x="4.3" y="43" class="st9" width="3.8" height="0.3" />
      <rect x="18.5" y="34.6" class="st9" width="1.2" height="3.2" />
        </g>
    <g>
          <path
            class="st11"
            d="M22.1,23.9c-0.1,0-0.1-0.1-0.2-0.1c0-0.1,0-0.2,0-0.3c0.7-3,1.5-6,2.2-9c0.3-1.2-1.4-2.8-2.6-2.4    c-0.8,0.3-1,1-1.2,1.7c-0.2,0.8-0.4,1.6-0.6,2.4c-0.7,2.9-1.5,5.8-2.1,8.7c-0.3,1.5,0.6,2.7,1.9,2.8c0.9,0.1,1.7-0.3,2.3-1    c0.5-0.6,0.9-1.3,1.4-2c1.9-2.6,3.8-5.1,5.7-7.6c0.7-0.9,1.4-1.8,2.1-2.8c0.2-0.2,0.1-0.7,0.1-1c-0.3,0.1-0.6,0.2-0.8,0.4    c-1.5,1.9-2.9,3.8-4.3,5.7C24.7,20.8,23.4,22.3,22.1,23.9z"
          />
      <path
        class="st11"
        d="M22.9,10.3c1,0,1.4-0.6,1.8-2.1c0.2-0.9-0.3-1.4-1.1-1.2c-0.4,0.1-0.8,0.1-1.1,0.3C22,7.8,21,7.9,21.1,8.9    C21.2,9.9,21.8,10.4,22.9,10.3z"
      />
      <path
        class="st11"
        d="M22.1,23.9c1.3-1.5,2.7-3,3.9-4.6c1.5-1.9,2.9-3.8,4.3-5.7c0.2-0.2,0.5-0.3,0.8-0.4c0,0.3,0.1,0.8-0.1,1    c-0.6,1-1.4,1.9-2.1,2.8c-1.9,2.5-3.8,5.1-5.7,7.6c-0.5,0.7-0.9,1.4-1.4,2c-0.6,0.7-1.4,1.1-2.3,1c-1.3-0.1-2.2-1.3-1.9-2.8    c0.6-2.9,1.4-5.8,2.1-8.7c0.2-0.8,0.4-1.6,0.6-2.4c0.2-0.7,0.3-1.5,1.2-1.7c1.2-0.4,2.9,1.2,2.6,2.4c-0.7,3-1.4,6-2.2,9    c0,0.1,0,0.2,0,0.3C21.9,23.8,22,23.8,22.1,23.9z"
      />
      <path
        class="st11"
        d="M22.9,10.3c-1.1,0-1.7-0.4-1.8-1.5c-0.1-1,0.9-1,1.4-1.5c0.2-0.2,0.7-0.3,1.1-0.3c0.8-0.1,1.4,0.4,1.1,1.2    C24.3,9.7,23.9,10.3,22.9,10.3z"
      />
        </g>
    <g>
          <polygon
            id="XMLID_37_"
            class="st12"
            points="28.2,22.8 28.8,23 29,21.7   "
          />
      <g>
            <g>
              <path
                class="st13"
                d="M33.1,43.5c0,0-0.5-0.4-0.7,0.7c0,0,1.5,0.9-0.5,1.1c0,0-1.9-0.1-0.6,0.9c0,0,4.8-0.1,2.5-2.7"
              />
              <path
                id="XMLID_35_"
                class="st14"
                d="M18.5,44.9c-0.1,0.2,0,0.5,0.2,0.6l1,0.4c0.2,0.1,0.4-0.1,0.5-0.3l0.4-1l-1.7-0.7      L18.5,44.9z"
              />
              <path
                id="XMLID_34_"
                class="st15"
                d="M19.4,42.7l-0.5,1.3l1.7,0.7l0.5-1.3c0.1-0.2,0-0.5-0.2-0.6l-1-0.4      C19.8,42.3,19.5,42.4,19.4,42.7z"
              />
              <path
                id="XMLID_33_"
                class="st16"
                d="M27.8,24.2c0.4,0.2,0.7,0.8,0.7,0.8l-7.3,18l-1.6-0.5l7.2-18.1      C26.8,24.3,27.4,24.1,27.8,24.2z"
              />
              <path
                d="M34.5,43.5c0.1-0.3,0.2-0.7,0.3-1c0.2-1.1,0-1.9-0.8-2.6c-0.2-0.2-0.6-0.3-0.9-0.4c-0.3-0.1-0.7,0.1-1,0.5      c-0.2,0.3-0.2,0.7-0.2,1c0.2,0.7,0.6,1.2,1.1,1.6c0.7,0.5,0.8,1.2,0.6,2.1c0,0,0,0.1,0,0.2c0.1-0.1,0.1-0.1,0.2-0.2      C34.1,44.2,34.3,43.9,34.5,43.5z"
              />
              <path
                class="st15"
                d="M30.5,36.8c0.3,0.6,0.6,1.2,0.9,1.8c0.4-0.1,1.4-0.5,1.8-0.7c0-0.1-0.4-1-0.5-1.4c0-0.1,0-0.3-0.1-0.3      C32.1,36.2,30.8,36.6,30.5,36.8z"
              />
              <path
                class="st15"
                d="M30.4,36.7c0.4-0.3,1.6-0.5,2.1-0.6c0-0.2-0.1-0.2-0.3-0.3c-0.3,0-1.4,0-1.7,0.3      C30.2,36.3,30.2,36.3,30.4,36.7z"
              />
              <path
                class="st17"
                d="M31.5,38.9c0.1,0.2,0.2,0.3,0.2,0.5c0.3-0.2,1.4-0.6,1.7-0.8c0-0.1-0.2-0.3-0.2-0.4      C32.9,38.4,31.8,38.8,31.5,38.9z"
              />
              <path
                class="st18"
                d="M25,20.7l5.2,15.4c0,0,0.5-0.6,1.3-0.4l-6.1-15.2c0,0-0.1-0.3-0.3-0.2C25.1,20.2,24.9,20.4,25,20.7z"
              />
              <path
                class="st14"
                d="M33.1,42.5c0,0-0.5-0.3-0.4-1c0,0-0.2,0.2,0.6,0.8c0,0-0.5-1,0-1.3c0,0-0.3,0.9,0.6,1.3      c0,0-0.3-0.4-0.1-0.9c0,0,0,0.4,1,1c0,0-0.1,1.1-1,2.3C33.7,44.8,34.2,43.3,33.1,42.5z"
              />
              <path
                class="st16"
                d="M25.1,20.2c0,0,0.5-0.5,0.7,0l6.6,15.5c0,0-1.7-0.1-2.2,0.4"
              />
              <path
                class="st13"
                d="M36.3,36.7c0.6,1.2,0.3,2.2-0.8,2.9c-1.3,0.8-2.7,1-4.2,0.9c-0.8-0.1-1.7-0.3-2.4-0.6      c-0.7-0.3-1.3-0.8-1.9-1.2c-2.1,2-4.6,2.1-7.3,1.4c-0.5-0.1-1-0.4-1.4-0.8c-0.9-0.7-1-1.6-0.5-2.6c0,0,0.1,0.1,0.1,0.1      c0.4,1.2,1.3,1.6,2.5,1.1c0.5-0.3,1-0.7,1.5-1.1c0.5-0.4,1-0.9,1.5-1.3c1.2-0.9,2.2-0.9,3.5-0.1c0.2,0.1,0.4,0.2,0.6,0      c1.1-0.8,2.3-0.7,3.4,0.1c0.6,0.4,1.1,0.9,1.7,1.4c0.3,0.3,0.6,0.6,1,0.8C34.7,38.5,35.7,38.2,36.3,36.7z"
              />
            </g>
        <polygon
          id="XMLID_17_"
          class="st19"
          points="27,24.4 28.4,25 28.7,22.9 28.2,22.7    "
        />
          </g>
        </g>
      </g>
    </svg>
