<svg version="1.1" id="Capa_1" xmlns="http://www.w3.org/2000/svg" xmlns:xlink="http://www.w3.org/1999/xlink" x="0px" y="0px"
	 width="241.8px" height="440.8px" viewBox="0 0 241.8 440.8" style="enable-background:new 0 0 241.8 440.8;" xml:space="preserve"
	>
<style type="text/css">
	.st0{fill:none;stroke:#000000;stroke-width:0.9796;stroke-miterlimit:10;}
</style>
<g transform="translate(0.000000,720.000000) scale(0.100000,-0.100000)">
	<path class="st0" d="M2276.3,6338.3c-2.2,579.4-2.9,617.7-15.9,652.4c-34,94.6-106.9,148.1-221.1,161.8
		c-72.2,8.7-1552.6,8.7-1627,0c-57.1-7.2-122.1-34.7-156.8-67.2c-31.8-30.3-62.9-96.1-73-155.3c-5.1-34.7-7.2-592.4-5.8-1966.6
		l2.2-1918.2l18.8-48.4c10.1-26,28.9-60.7,41.2-75.9c26.7-34,91-69.4,144.5-80.9c26.7-5.8,283.2-7.9,848.2-7.9
		c869.9,0,851.1-0.7,924,36.1c36.8,19.5,82.4,73,101.9,122.1l16.6,40.5l2.2,861.9V6338.3z M2205.5,4963.4V3229.5h-978.9H247.6
		v1733.9v1733.9h978.9h978.9V4963.4z"/>
</g>
<path class="st0" d="M132.7,28.3h-26.6c-1,0-1.9-0.9-1.9-1.9v-0.6c0-1,0.9-1.9,1.9-1.9h26.6c1,0,1.9,0.9,1.9,1.9v0.6
	C134.6,27.4,133.7,28.3,132.7,28.3z"/>
<circle class="st0" cx="121" cy="417.2" r="10.8"/>
</svg>
