<?xml version="1.0" encoding="utf-8"?>
<!-- Generator: Adobe Illustrator 24.0.2, SVG Export Plug-In . SVG Version: 6.00 Build 0)  -->
<svg version="1.1" id="OBJECTS" xmlns="http://www.w3.org/2000/svg" xmlns:xlink="http://www.w3.org/1999/xlink" x="0px" y="0px"
	 viewBox="0 0 461 373" style="enable-background:new 0 0 461 373;" xml:space="preserve">
<style type="text/css">
	.st0{fill:#112B46;}
	.st1{fill:#1D262D;}
	.st2{fill:#606BF1;}
	.st3{fill:#FBD15B;}
	.st4{fill:#FF8578;}
	.st5{fill:#F9FBFC;}
	.st6{fill:#F1F2F2;}
	.st7{fill:url(#SVGID_1_);}
	.st8{fill:url(#SVGID_2_);}
	.st9{fill:#F7B094;}
	.st10{fill:#3D3D7A;}
	.st11{fill:#0A2033;}
	.st12{fill:#30475E;}
	.st13{fill:url(#SVGID_3_);}
	.st14{fill:#56548C;}
	.st15{fill:url(#SVGID_4_);}
	.st16{fill:#F4675D;}
	.st17{fill:url(#SVGID_5_);}
	.st18{fill:#E8987C;}
	.st19{fill:url(#SVGID_6_);}
	.st20{fill:#6D4B35;}
	.st21{fill:#ABB5BA;}
	.st22{fill:#8495A0;}
	.st23{fill:none;}
	.st24{fill:#141B56;}
	.st25{fill:#A5B7C6;}
	.st26{fill:url(#SVGID_7_);}
	.st27{fill:#747DED;}
	.st28{fill:url(#SVGID_8_);}
	.st29{fill:url(#SVGID_9_);}
	.st30{fill:#95A8B5;}
</style>
<g>
	<g>
		<g>
			<g>
				<rect x="100.7" y="39.6" class="st0" width="97.6" height="91.1"/>
			</g>
			<g>
				<rect x="100.7" y="39.6" class="st1" width="97.6" height="9.6"/>
			</g>
			<g>
				<g>
					<path class="st2" d="M177.2,44.5c0,1-0.8,1.8-1.8,1.8s-1.8-0.8-1.8-1.8s0.8-1.8,1.8-1.8S177.2,43.5,177.2,44.5z"/>
				</g>
				<g>
					<path class="st3" d="M184.6,44.5c0,1-0.8,1.8-1.8,1.8c-1,0-1.8-0.8-1.8-1.8s0.8-1.8,1.8-1.8C183.8,42.7,184.6,43.5,184.6,44.5z
						"/>
				</g>
				<g>
					<path class="st4" d="M191.4,44.7c0,1-0.8,1.8-1.8,1.8c-1,0-1.8-0.8-1.8-1.8s0.8-1.8,1.8-1.8C190.6,42.9,191.4,43.7,191.4,44.7z
						"/>
				</g>
			</g>
			<g>
				<g>
					<g>
						<rect x="118.1" y="58.2" class="st4" width="13.8" height="1.2"/>
					</g>
					<g>
						<rect x="134.3" y="58.2" class="st3" width="13.8" height="1.2"/>
					</g>
					<g>
						<rect x="122.4" y="64.4" class="st2" width="21.4" height="1.2"/>
					</g>
					<g>
						<rect x="147.3" y="64.4" class="st4" width="10.9" height="1.2"/>
					</g>
					<g>
						<rect x="129.8" y="70.7" class="st3" width="9.4" height="1.2"/>
					</g>
					<g>
						<rect x="144.6" y="70.7" class="st3" width="31.2" height="1.2"/>
					</g>
					<g>
						<rect x="137.1" y="76.9" class="st2" width="35.7" height="1.2"/>
					</g>
					<g>
						<rect x="128.2" y="83.2" class="st4" width="11" height="1.2"/>
					</g>
					<g>
						<rect x="143.9" y="83.2" class="st2" width="11" height="1.2"/>
					</g>
				</g>
				<g>
					<g>
						<rect x="118.1" y="115.6" class="st4" width="16" height="1.2"/>
					</g>
					<g>
						<rect x="139.7" y="115.6" class="st3" width="16" height="1.2"/>
					</g>
					<g>
						<rect x="160.6" y="115.6" class="st4" width="16" height="1.2"/>
					</g>
					<g>
						<rect x="122.4" y="109.4" class="st2" width="31.2" height="1.2"/>
					</g>
					<g>
						<rect x="158.4" y="109.4" class="st4" width="31.2" height="1.2"/>
					</g>
					<g>
						<rect x="129.8" y="103.1" class="st4" width="31" height="1.2"/>
					</g>
					<g>
						<rect x="163.5" y="103.1" class="st3" width="8.6" height="1.2"/>
					</g>
					<g>
						<rect x="127.8" y="96.9" class="st3" width="11.7" height="1.2"/>
					</g>
					<g>
						<rect x="145.6" y="96.9" class="st2" width="11.7" height="1.2"/>
					</g>
					<g>
						<rect x="164.8" y="96.9" class="st4" width="11.7" height="1.2"/>
					</g>
					<g>
						<rect x="141.3" y="90.6" class="st3" width="16.4" height="1.2"/>
					</g>
					<g>
						<rect x="118.8" y="90.6" class="st2" width="16.4" height="1.2"/>
					</g>
				</g>
			</g>
			<g>
				<g>
					<g>
						<rect x="109" y="57" class="st5" width="1.5" height="1.5"/>
					</g>
				</g>
				<g>
					<g>
						<path class="st5" d="M110.5,111.6H109v-3h1.5V111.6z M110.5,104H109v-3h1.5V104z M110.5,96.4H109v-3h1.5V96.4z M110.5,88.8
							H109v-3h1.5V88.8z M110.5,81.3H109v-3h1.5V81.3z M110.5,73.7H109v-3h1.5V73.7z M110.5,66.1H109v-3h1.5V66.1z"/>
					</g>
				</g>
				<g>
					<g>
						<rect x="109" y="116.1" class="st5" width="1.5" height="1.5"/>
					</g>
				</g>
			</g>
		</g>
		<g>
			<g>
				<rect x="219.3" y="20.2" class="st4" width="80.3" height="49.5"/>
			</g>
			<g>
				<path class="st5" d="M250.5,40.1l-9.6,4.1l9.6,4l-1.3,2.9L237.8,46v-3.5l11.5-5.2L250.5,40.1z"/>
				<path class="st5" d="M264.6,30.7l-6.9,26.6l-3.3-0.8l7-26.6L264.6,30.7z"/>
				<path class="st5" d="M281.2,42.5V46l-11.5,5.1l-1.2-2.9l9.5-4l-9.5-4.1l1.2-2.8L281.2,42.5z"/>
			</g>
		</g>
		<g>
			<g>
				<rect x="296.9" y="116.2" class="st2" width="45.8" height="32.6"/>
			</g>
			<g>
				<path class="st6" d="M316,123.2c-1.5,0-2,0.4-2,1.5v4.9c0,1.9-0.8,2.5-2.1,2.9c1.3,0.4,2.1,0.9,2.1,2.8v4.9c0,1.1,0.5,1.5,2,1.5
					v2.1c-3.7,0-4.8-1.2-4.8-3.7v-4.6c0-1.3-0.4-1.8-1.6-1.8v-2.5c1.2,0,1.6-0.5,1.6-1.9v-4.6c0-2.5,1.1-3.7,4.8-3.7V123.2z"/>
				<path class="st6" d="M328.2,124.7v4.6c0,1.3,0.4,1.9,1.6,1.9v2.5c-1.2,0-1.6,0.5-1.6,1.8v4.6c0,2.5-1.1,3.7-4.8,3.7v-2.1
					c1.4,0,2-0.4,2-1.5v-4.9c0-1.9,0.8-2.5,2.1-2.8c-1.3-0.4-2.1-1-2.1-2.9v-4.9c0-1.1-0.5-1.5-2-1.5V121
					C327.2,121,328.2,122.2,328.2,124.7z"/>
			</g>
		</g>
		<g>
			<g>
				<rect x="69.7" y="27.3" class="st3" width="51.3" height="34.3"/>
			</g>
			<g>
				<g>
					<path class="st5" d="M86.7,37.2c-2.5,3.1-2.4,7.5,0.1,10.6c2.8,3.4,7.7,4,11.2,1.7l5.4,5.4c0.2,0.2,0.6,0.2,0.8,0l1.5-1.5
						c0.2-0.2,0.2-0.6,0-0.8l-5.4-5.4c2.2-3.3,1.8-7.7-1.1-10.6C95.7,33,89.9,33.2,86.7,37.2z M97.5,46.6c-2.3,2.3-6.1,2.3-8.4,0
						c-2.3-2.3-2.3-6.1,0-8.4c2.3-2.3,6.1-2.3,8.4,0C99.8,40.5,99.8,44.3,97.5,46.6z"/>
				</g>
			</g>
		</g>
		<g>
			<g>
				<radialGradient id="SVGID_1_" cx="258.0268" cy="132.8308" r="12.9255" gradientUnits="userSpaceOnUse">
					<stop  offset="0" style="stop-color:#FFC8AF"/>
					<stop  offset="1" style="stop-color:#FFBB9C"/>
				</radialGradient>
				<path class="st7" d="M270.3,133.4c-0.1,1.1-1.7,13-13.8,13c-12.8,0-10.6-12.7-10.6-12.7l0-0.1c1.2-0.3,2.6-0.4,4-0.2v-6
					l14.5-8.1h0.5v14C264.9,133.3,267.2,133,270.3,133.4z"/>
				<g>
					<g id="XMLID_43_">
						<g>
							
								<radialGradient id="SVGID_2_" cx="260.1116" cy="109.6397" r="20.3775" gradientTransform="matrix(0.9776 -0.2105 0.2105 0.9776 -26.8154 57.0046)" gradientUnits="userSpaceOnUse">
								<stop  offset="0" style="stop-color:#FFC8AF"/>
								<stop  offset="1" style="stop-color:#FFBB9C"/>
							</radialGradient>
							<path class="st8" d="M263.3,92.6c2.1,2.1,3.6,4.8,4.4,8.1c1.4,6.1,0.1,12.6-1.7,18.6c-0.3,1-0.7,2-1.3,2.9
								c-0.4,0.6-1,1.1-1.6,1.6c-2.6,2.2-5.2,4.5-7.7,6.7c-1.7,1.5-12.5,2.8-14.5,1.3c-7.9-5.6-9.4-22-7.8-30.4
								C235.6,87.5,253.4,82.6,263.3,92.6z"/>
						</g>
					</g>
					<path class="st9" d="M258.8,110.3c0.1-1.3,1.5-2.8,2.9-1.9c1.4,0.9,1.1,3.3,0.5,4.6c-0.5,1-2,2.1-3.1,1.2
						c-0.9-0.8,0.5-1.7,0.5-2.5c0-0.7-1.3-1.1-0.7-1.8"/>
					<path class="st9" d="M259.1,116.5c1.4,0.4,3.9-0.7,4.5-2.7c0.6-2,0.6-4.3,0.6-4.3s0.7,1.8,0.4,4.7c-0.4,2.9-1.4,5.7-3.7,5.7
						C258.5,120.1,259.1,116.5,259.1,116.5z"/>
					<path class="st10" d="M257.3,114.4c0,0-0.1,0-0.2,0c-0.9,0.1-1.2-1-1.4-1.6c-0.3-1.6-0.3-3.2-0.3-4.8c0-0.4,0-0.9-0.1-1.3
						c-0.5-1.1-1.8-1.9-2.2-3.1c-0.5-1.4,0.9-2.8,0.3-4.3c-0.8-2.3-3.8-2.8-5.9-2.8c-3.2,0-6.4,0.6-9.5,1.1c-3.4,0.5-7.6,1-10.6-1.1
						c-3.6-2.6-5.1-9.2-2.4-12.9c1.4-2,4.2-3,6.6-3.1c2.6-0.1,4.7,1.5,7.1,2.2c1.9,0.6,3.7-1.2,5.4-1.5c2.2-0.4,3.1,2,5.1,2
						c1.9,0.1,3.7-1.4,5.6-1.7c3.7-0.7,3.4,3,5.9,4.3c1.5,0.8,3.5,0.3,5,1.1c1.2,0.6,1.3,1.7,1.6,2.9c0.2,1,0.2,2.2,0.6,3.2
						c0.3,0.9,1,1.4,1.6,2.1c0.6,0.8,1,1.6,1.4,2.6c0.7,2.1,0.9,4.4,0.7,6.6c-0.3,3.7-1.5,7.3-2.7,10.8c-0.8,2.3-1.1,4.6-2.3,6.7
						c-0.3,0.6-1.8,2.2-2.3,1c-0.1-0.3-0.1-0.6-0.1-0.9c0.2-2.3,2.3-17.3-3.3-15.5c-1.2,0.4-2,1.4-2.4,2.5c-0.5,1.4-0.6,2.7-0.5,4.1
						c0,0.2,0,0.4,0,0.6C257.6,114.1,257.6,114.3,257.3,114.4z"/>
				</g>
			</g>
			<path class="st9" d="M249.8,132.1c6.4-1,10.7-6.1,10.7-6.1s-1.7,8.6-11.1,9L249.8,132.1z"/>
			<g>
				<path class="st11" d="M260.4,249h9.2v88.5c0,0.9-0.7,1.6-1.6,1.6h-6c-0.9,0-1.6-0.7-1.6-1.6V249z"/>
				<path class="st12" d="M239.7,250.3h50.7v1.4c0,3.5-2.8,6.3-6.3,6.3H246c-3.5,0-6.3-2.8-6.3-6.3V250.3z"/>
				<g>
					<path class="st11" d="M260.4,328.7h9.2v20.5c0,0.9-0.7,1.6-1.6,1.6h-6c-0.9,0-1.6-0.7-1.6-1.6V328.7z"/>
					<path class="st11" d="M217.2,345.4c0,3,2.4,5.4,5.4,5.4c3,0,5.4-2.4,5.4-5.4c0-3-2.4-5.4-5.4-5.4
						C219.6,340,217.2,342.4,217.2,345.4z"/>
					<path class="st11" d="M302.1,345.4c0,3,2.4,5.4,5.4,5.4c3,0,5.4-2.4,5.4-5.4c0-3-2.4-5.4-5.4-5.4
						C304.5,340,302.1,342.4,302.1,345.4z"/>
					
						<rect x="255.8" y="321.8" transform="matrix(-1 -1.224647e-16 1.224647e-16 -1 530.088 659.8245)" class="st12" width="18.6" height="16.2"/>
					<path class="st3" d="M217.2,341.8h95.8V340c0-3.2-2.6-5.8-5.8-5.8h-84.3c-3.2,0-5.8,2.6-5.8,5.8V341.8z"/>
				</g>
				<rect x="261.8" y="259.8" class="st12" width="3.2" height="60.5"/>
			</g>
			<path class="st3" d="M301.3,184.9c-2.2-0.1-4,1.8-3.9,4c0.6,11-1.7,37.8-11.9,46.9c-12.5,11.2-48,9.7-48,9.7s-5.9,7.2,5.9,8.8
				c11.7,1.6,44.7,0.5,52.7-6.9c7.7-7.2,12.3-26.1,8.9-59C304.7,186.4,303.2,184.9,301.3,184.9L301.3,184.9z"/>
			<g id="XMLID_42_">
				<g>
					<radialGradient id="SVGID_3_" cx="230.4697" cy="328.0002" r="8.1259" gradientUnits="userSpaceOnUse">
						<stop  offset="0" style="stop-color:#FFC8AF"/>
						<stop  offset="1" style="stop-color:#FFBB9C"/>
					</radialGradient>
					<polygon class="st13" points="234.8,320.4 239,330 226.1,335.6 221.9,326 					"/>
					<path class="st14" d="M295.8,213.5c-0.8,1.6-58.2,0-63.7,0.5c0,0-35.1,16.8-40.2,32.5c-0.5,1.6-0.7,3.7-0.5,6.2
						c1.4,22.1,26.6,75.1,26.6,75.1l3.9-1.7l12.9-5.6l1.8-0.8c0,0-20-59.5-16-62.7c4-3.2,49.3-11.2,65-15.4
						C301.4,237.1,295.8,213.5,295.8,213.5z"/>
					<radialGradient id="SVGID_4_" cx="179.0056" cy="330.0382" r="7.4015" gradientUnits="userSpaceOnUse">
						<stop  offset="0" style="stop-color:#FFC8AF"/>
						<stop  offset="1" style="stop-color:#FFBB9C"/>
					</radialGradient>
					<polygon class="st15" points="185.6,322.8 186.6,337.3 172.5,337.3 171.4,322.8 					"/>
					<path class="st10" d="M231.8,213.5l-0.5,0.2c0,0-58.8,8.3-68.4,24.8c-6.2,10.7,5.8,89.2,5.8,89.2l20.8,0c0,0-3.1-65.4-2.1-69
						c1.2-4.2,3.2-5.7,4-6.1c-0.2-2.5,0-4.6,0.5-6.2c5-15.7,40.2-32.5,40.2-32.5C232,213.9,231.9,213.7,231.8,213.5z"/>
					<path class="st4" d="M288.7,159.1l-3.9,0.5c0,0-1,10.6-3.3,21.3l-49.2,18.7l-0.7,3.6c-0.2,0-0.4,0-0.6,0c0,0.7,0,1.5,0,2.1
						c0.1,4.1,0.4,7.1,0.8,8.2c0.1,0.2,0.2,0.4,0.3,0.5c1.3,1.1,18.7-1,37.5,5.9c16.3,6,25.4,12.5,25.9,11.6
						C300.6,220.9,291.3,179.1,288.7,159.1z"/>
					<path class="st16" d="M283.6,183.5c-1.3,6.3-4.7,18.8-11.3,20.5c-8.7,2.2-25.5,2.1-41.2,1.2c0-0.7,0-1.4,0-2.1
						c0.2,0,0.4,0,0.6,0l0.7-3.6l49.2-18.7c2.3-10.6,3.3-21.3,3.3-21.3s0,0.1,0,0.2C284.8,161.5,285.5,174.2,283.6,183.5z"/>
					<path class="st16" d="M234.3,143.4c-0.9,1.6-2.1,18.7-2.8,35.7l-10-9.4C225.7,161.4,234.3,143.4,234.3,143.4z"/>
					<path class="st9" d="M228.2,191.5c-8.5,1.5-16.3,2.7-16.3,2.7l0,0.4c-9.4-7.5-23.8-28.9-23.8-28.9s4.3-5.2,5.4-6.5
						c0.2-0.2,23.6,15.9,24.8,15.8c0.3,0,1.5-2.1,3.1-5.3l10,9.4c-0.2,4-0.3,8.1-0.4,11.9C230.1,191.1,229.2,191.3,228.2,191.5z"/>
					<radialGradient id="SVGID_5_" cx="224.0676" cy="191.1497" r="41.4442" gradientUnits="userSpaceOnUse">
						<stop  offset="0" style="stop-color:#FFC8AF"/>
						<stop  offset="1" style="stop-color:#FFBB9C"/>
					</radialGradient>
					<path class="st17" d="M212,194.2l-0.2,7h-25.6c0,0,2.5-10,9.5-10c6.9,0,9.6,3.7,9.6,3.7L212,194.2z"/>
					<path class="st9" d="M193.3,159l0.2,0.2c-1.1,1.4-5.4,6.5-5.4,6.5l-2.7-1.9c0,0-2.9,1.8-6.4-0.1c-3.6-1.9-1.4-6.5-1.2-7.1
						c-0.7,0.2-5,3.6-5.6,3.3c-0.7-0.4-1.2-1.6,3.6-6.3c4.8-4.7,11.2,1.3,11.4,1.3L193.3,159z"/>
					<path class="st9" d="M179.7,162.9c0,0-1,1.9,0.8,2.8c1.8,0.8,5.4,1.4,6.9,1.3s2.7-2.3,2.7-2.3l-4.6-4.3h-3.7L179.7,162.9z"/>
					<path class="st18" d="M179.4,163.9c0.3-0.9,2.9-0.4,4.5-0.4c1.2,0,1.9-0.3,2.2-1.2c0.4-0.9-1.4-2.4-1.7-1.9
						c-0.3,0.5,0.6,1.1,0.7,1.7c0,0.6-1.7,0.8-3.1,0.8c-1.3,0-3.7,0.4-3.7,0.4L179.4,163.9z"/>
				</g>
			</g>
			<radialGradient id="SVGID_6_" cx="224.0676" cy="191.1497" r="41.444" gradientUnits="userSpaceOnUse">
				<stop  offset="0" style="stop-color:#FFC8AF"/>
				<stop  offset="1" style="stop-color:#FFBB9C"/>
			</radialGradient>
			<path class="st19" d="M278.9,190l-25-8.9c-1.8,3.4-3.8,6-5.7,6.5c-2.9,0.8-10,2.1-17.1,3.3c-0.9,0.2-1.9,0.3-2.8,0.5
				c-8.5,1.5-16.3,2.7-16.3,2.7l0,0.4v0.3l-0.2,6.3v1.6c0,0,8.5-0.4,19.2,0.3c15,1.1,34.4,1.7,40.8-1.3
				C274.7,200.4,277.1,195.7,278.9,190C279,190,279,190,278.9,190z"/>
			<polygon class="st9" points="253.9,181.1 278.9,190 277.8,193.4 253,182.7 			"/>
			<path class="st4" d="M253.9,181.1c-1.8,3.4-3.8,6-5.7,6.5c-2.9,0.8-10,2.1-17.1,3.3c0.1-3.8,0.2-7.8,0.4-11.9
				c0.7-17,1.9-34.1,2.8-35.7c1.4-2.7,5.4-8.5,11.6-9.8l0,0.1c0,0-2.1,12.7,10.6,12.7c12.2,0,13.7-11.8,13.8-13
				c6.3,0.7,15.9,3.8,17.2,16.4c0.3,2.5,0.7,5.7,1.2,9.3l-3.9,0.5c0,0-1.6,17.7-5.7,30.3c0,0-0.1,0-0.1,0L253.9,181.1z"/>
			<polygon class="st20" points="253.6,178.8 263.6,154.6 256.3,179.8 			"/>
			<path class="st4" d="M270.3,133.4h-5.4c0,0-7.8,8.5-12.7,8.5s-2.3-8.5-2.3-8.5h-2.4c-7,0-12.9,5.2-13.7,12.2
				c-0.1,0.8-0.2,1.5-0.2,2.2c-0.5,5.2,20.3,8.9,20.3,8.9l10.7-0.6l6.5-12.7l1.3-5.2L270.3,133.4z"/>
			<g>
				<g>
					<g id="XMLID_39_">
						<g>
							<path class="st6" d="M204.6,346.7c0.5,2.6,2.3,4.5,4.9,4l34.7-6.5c0.9-0.2,1.5-1,1.3-1.9l-0.6-3.1
								C244.9,339.2,208.4,345.6,204.6,346.7L204.6,346.7z"/>
							<path class="st10" d="M214.9,338c0.4-0.3,0.7-0.6,1.1-0.9c0.7-0.6,1.4-1.2,2-1.8c0.3-0.3,0.7-0.6,1-0.9
								c0.6-0.6,1.2-1.1,1.8-1.6c0.4-0.3,0.7-0.7,1.1-1c0.6-0.5,1.1-1,1.4-1.3c0.3-0.3,0.7-0.3,1,0c1.4,1.2,6,3.9,14.4-1.2
								c0.4-0.2,0.9-0.1,1.1,0.3l5.1,9.7c0,0-36.5,6.4-40.3,7.4C205.8,345.9,210.5,341.9,214.9,338z"/>
						</g>
					</g>
				</g>
			</g>
			<g>
				<g>
					<g id="XMLID_44_">
						<g>
							<path class="st6" d="M149.9,346.4c0.1,2.6,1.6,4.8,4.2,4.7l35.3-0.9c0.9,0,1.6-0.8,1.6-1.7l-0.1-3.1
								C190.9,345.4,153.9,345.9,149.9,346.4L149.9,346.4z"/>
							<path class="st10" d="M161.5,339.4c0.4-0.3,0.8-0.5,1.2-0.8c0.8-0.5,1.6-1,2.3-1.5c0.4-0.3,0.8-0.5,1.2-0.7
								c0.7-0.5,1.4-0.9,2-1.3c0.4-0.3,0.8-0.5,1.2-0.8c0.7-0.4,1.2-0.8,1.6-1c0.3-0.2,0.8-0.2,1,0.1c1.2,1.4,5.3,4.9,14.4,1.1
								c0.4-0.2,0.9,0,1.1,0.5l3.4,10.4c0,0-37,0.5-41,0.9C151.3,345.8,156.5,342.5,161.5,339.4z"/>
						</g>
					</g>
				</g>
			</g>
			<g>
				<polygon class="st21" points="124.8,202.8 106,152.5 159.6,152.5 178.5,202.8 				"/>
				<polygon class="st22" points="181.8,202.8 178.5,202.8 159.6,152.5 162.7,152.7 180.1,198.2 				"/>
				<g>
					<path class="st22" d="M180.8,202.8h35.5l-0.1-3.2c0,0-35.5,0-36.1,0"/>
				</g>
			</g>
			<g>
				<g>
					<rect x="323.3" y="212.4" class="st22" width="8.5" height="140.2"/>
				</g>
				<g>
					<rect x="276.9" y="212.4" class="st21" width="8.5" height="140.2"/>
				</g>
				<g>
					<rect x="128.5" y="212.4" class="st22" width="8.5" height="140.2"/>
				</g>
				<g>
					<rect x="82.2" y="212.4" class="st21" width="8.5" height="140.2"/>
				</g>
				<path class="st24" d="M340.4,212.9H74c-2.3,0-4.1-1.9-4.1-4.1v-1.8c0-2.3,1.9-4.1,4.1-4.1h266.4c2.3,0,4.1,1.9,4.1,4.1v1.8
					C344.5,211.1,342.6,212.9,340.4,212.9z"/>
			</g>
			<polygon class="st22" points="114.9,157.8 115.9,160.3 126.6,160.3 125.6,157.8 			"/>
			<polygon class="st18" points="221.4,169.7 220.6,171.2 231.4,182.4 231.4,179.1 			"/>
		</g>
	</g>
	<g>
		<rect x="10.3" y="350.8" class="st25" width="431.9" height="9.9"/>
		<g>
			<g>
				
					<linearGradient id="SVGID_7_" gradientUnits="userSpaceOnUse" x1="470.4222" y1="34.0408" x2="431.0822" y2="83.6331" gradientTransform="matrix(0.7834 -0.6215 0.6215 0.7834 -25.3086 504.9251)">
					<stop  offset="0" style="stop-color:#606BF1"/>
					<stop  offset="1" style="stop-color:#58479F"/>
				</linearGradient>
				<path class="st26" d="M373.7,277.7c-1.7,8.3-1.2,22.5-12.2,24.8c-3,0.6-5.8-1.5-7.6-3.8c-2.3-3.1-2.8-9.6-2.8-13.3
					c0-3,1-6.3,1.4-9.2c0.4-3.2,0.6-6.5,1-9.7c1.4-11.6,7.4-21.3,17.7-27.1c0.8,3.8,2.6,7,4.2,10.7c0.7,1.7,1.4,3.4,1.9,5.2
					c0.8,3.1-0.2,6.2-0.9,9.2C375.2,268.7,374.6,273.2,373.7,277.7z"/>
				<path class="st27" d="M359.6,302.7c0.1-0.7,0.2-1.4,0.3-2.1c1.3,0,2.7-0.8,3.8-1.3c1.9-1,3.5-2.4,5-3.9c0.1-0.1-0.1-0.2-0.1-0.1
					c-1.5,1.3-3.1,2.5-4.8,3.3c-1,0.5-2.5,1.2-3.7,1.4c0.1-0.8,0.2-1.7,0.4-2.5c1.4-0.2,2.6-1.1,3.8-1.8c2-1.2,3.7-2.7,5.4-4.1
					c0,0,0,0,0,0c-2.7,2-5.7,4.7-9.1,5.3c0.2-1,0.4-2.1,0.6-3.1c0-0.1,0-0.1,0-0.2c3.9-1,6.6-4.1,9.6-6.6c0,0,0-0.1-0.1-0.1
					c-3,2.3-5.8,4.9-9.4,6.1c0.3-1.5,0.6-2.9,1-4.4c3.6-1.3,6.4-3.4,8.9-6.3c0,0,0-0.1-0.1-0.1c-2.6,2.7-5.4,4.2-8.7,5.7
					c0.3-1.5,0.7-2.9,1-4.4c1.5-0.8,3.2-1.2,4.6-2.2c1.4-1,2.7-2.2,3.6-3.6c0-0.1-0.1-0.1-0.1-0.1c-2,2.9-5,3.8-7.9,5.3
					c0.3-1.4,0.5-2.7,0.8-4.1c3.2-1.8,6.8-3.4,8.6-6.8c0,0,0-0.1,0,0c-1.9,3.1-5.3,4.5-8.4,6.2c0-0.2,0.1-0.5,0.1-0.7
					c0.2-1.3,0.4-2.5,0.6-3.8c1.9-0.7,3.6-1.8,5.3-2.9c1.2-0.8,2.5-1.5,3.2-2.8c0-0.1-0.1-0.2-0.1-0.1c-1.7,2.5-5.5,3.9-8.3,5.2
					c0.2-1.3,0.4-2.6,0.5-3.9c3.1-1.9,6.8-2.9,8.7-6.3c0.1-0.1-0.1-0.2-0.2-0.1c-2,3.1-5.5,4.1-8.5,5.8c0.1-0.8,0.2-1.6,0.4-2.4
					c3.4-1.2,7.3-4.1,9.1-7.1c0.1-0.2-0.1-0.3-0.3-0.2c-1.8,2.7-5.4,5.6-8.7,6.6c0.2-1.3,0.4-2.6,0.6-3.9c0,0,0-0.1,0.1-0.1
					c1.5-0.4,3-1.5,4.3-2.3c1.6-1,3.1-2.1,4.1-3.7c0.1-0.2-0.2-0.3-0.3-0.2c-1.5,2.7-5,4.5-8,5.5c0.1-0.5,0.2-0.9,0.3-1.4
					c0.1-0.7,0.3-1.4,0.4-2.1c1.2-0.8,2.7-1.2,3.9-2.1c1-0.8,2-1.7,2.9-2.6c0.1-0.1,0-0.2-0.1-0.1c-1.2,1.1-2.5,2.2-4,3
					c-0.8,0.4-1.8,0.7-2.6,1.2c0.2-1.1,0.5-2.3,0.7-3.4c0,0,0,0,0,0c0,0,0,0,0,0c0.1,0,0.1,0,0.2-0.1c1.6-0.4,2.9-1.8,4-3
					c0,0,0-0.1,0,0c-1.2,1.1-2.5,2.2-4,2.7c0,0,0,0,0,0c0,0-0.1,0-0.1,0c0.2-0.9,0.3-1.9,0.5-2.8c0.1,0,0.2-0.1,0.2-0.2
					c0.9-0.6,1.7-1.3,2.4-2c0.1-0.1,0-0.1-0.1-0.1c-0.8,0.7-1.5,1.2-2.4,1.7c0.3-1.9,0.5-3.9,0.7-5.8c0-0.2-0.3-0.2-0.3,0
					c-0.2,1.9-0.4,3.8-0.8,5.6c-0.9-1.2-1.9-2.4-2.5-3.8c0-0.1-0.1,0-0.1,0c0.3,0.8,0.7,1.6,1.2,2.3c0.4,0.7,0.7,1.4,1.3,2
					c-0.2,1-0.4,2-0.6,3c-1.1-0.2-2.1-0.4-3-1.2c-1.1-1-1.7-2.3-1.8-3.8c0-0.2-0.3-0.2-0.3,0c0.1,1.4,0.7,2.6,1.6,3.7
					c1,1.1,2.1,1.4,3.5,1.7c-0.2,1.1-0.5,2.3-0.7,3.4c-1-0.6-1.9-1.4-2.8-2.1c-1.4-1.2-2.3-2.5-3.6-3.8c-0.1-0.1-0.3,0.1-0.2,0.2
					c1.2,1.3,2,2.6,3.3,3.7c1,0.8,2,1.8,3.2,2.4c0,0.1,0,0.1,0,0.2c0,0,0,0,0,0c-0.1,0.1-0.1,0.2,0,0.3c-0.2,1.1-0.5,2.2-0.7,3.3
					c0,0.1,0,0.1,0,0.2c-2.6-1.2-6.4-3.2-6.7-6.2c0-0.3-0.5-0.2-0.4,0.1c0.8,3.4,4.5,4.9,7,6.7c-0.3,1.2-0.5,2.5-0.7,3.7
					c-1.7-0.6-3.2-1.3-4.6-2.4c-1.3-1-3.1-2.2-3.6-3.8c0,0-0.1,0-0.1,0c0.5,1.5,2.1,2.6,3.3,3.7c1.5,1.3,3,2.5,4.9,3
					c0,0.1,0,0.1,0,0.2c-0.1,0.8-0.3,1.6-0.4,2.4c-3.1-0.2-7.5-2.6-9.1-5c0,0,0,0,0,0c1.1,1.8,2.7,2.8,4.6,3.8
					c1.4,0.7,2.9,1.5,4.4,1.6c-0.2,1.5-0.4,2.9-0.7,4.4c-1.3-0.5-2.8-0.7-4.1-1.3c-2-0.8-3.5-2.2-4.7-4c-0.1-0.1-0.2,0-0.2,0.1
					c2.2,3.4,5.3,4.4,8.9,5.7c-0.2,1.2-0.4,2.4-0.6,3.6c-3-0.6-6.8-2.4-8.3-5c-0.1-0.2-0.4,0-0.3,0.2c1,1.7,2.6,2.7,4.3,3.5
					c1.2,0.6,2.9,1.6,4.3,1.7c0,0,0,0.1,0,0.1c-0.3,1.7-0.6,3.5-1,5.2c-3.3-0.8-5.5-3.3-7.9-5.6c-0.2-0.2-0.4,0.1-0.3,0.2
					c2.5,2.4,4.6,5,8,5.8c-0.3,1.4-0.6,2.8-1,4.2c-2.8-0.8-5.6-2.8-7.5-5.1c-0.1-0.2-0.4,0.1-0.2,0.2c1.9,2.5,4.6,4.4,7.6,5.4
					c-0.4,1.5-0.7,3-1.1,4.5c-2.9-0.4-5.1-2.3-6.9-4.6c0-0.1-0.1,0-0.1,0.1c1.6,2.2,4,4.8,6.9,5c-0.1,0.5-0.2,1-0.4,1.4
					c-0.1,0.3-0.2,0.6-0.2,0.9c-2.2-0.6-4.2-1.4-6-2.9c-0.1,0-0.1,0-0.1,0.1c1.7,1.5,3.8,2.6,6,3.3c-0.2,0.9-0.5,1.8-0.8,2.8
					c-0.5-0.3-1.1-0.5-1.7-0.7c-1.1-0.3-1.8-1-2.7-1.6c-0.1-0.1-0.2,0.1-0.1,0.1c0.8,0.5,1.4,1.2,2.4,1.6c0.7,0.3,1.4,0.6,2,0.9
					c-1,3.7-1.9,7.7-1.4,11.2c0.1,0.8,1.4,1,1.6,0.2C359.4,308.1,359.3,305.3,359.6,302.7z"/>
			</g>
			<g>
				
					<linearGradient id="SVGID_8_" gradientUnits="userSpaceOnUse" x1="573.4376" y1="-79.4815" x2="534.0987" y2="-29.8905" gradientTransform="matrix(0.4479 -0.8941 0.8941 0.4479 128.3891 792.675)">
					<stop  offset="0" style="stop-color:#606BF1"/>
					<stop  offset="1" style="stop-color:#58479F"/>
				</linearGradient>
				<path class="st28" d="M338.8,275.3c2,8.3,8.4,20.9-0.6,27.6c-2.4,1.8-5.9,1.1-8.5-0.3c-3.3-1.8-6.6-7.5-8.1-10.9
					c-1.2-2.7-1.7-6.1-2.7-9c-1-3.1-2.1-6.1-3.2-9.2c-3.7-11.1-2.3-22.5,4.6-32.1c2.3,3.1,5.3,5.3,8.3,7.9c1.4,1.2,2.7,2.5,3.9,3.9
					c2.1,2.5,2.5,5.7,3,8.7C336.4,266.5,337.8,270.9,338.8,275.3z"/>
				<path class="st27" d="M336.6,303.9c-0.2-0.7-0.4-1.3-0.7-2c1.2-0.6,2.1-1.8,2.9-2.8c1.3-1.7,2.1-3.7,2.8-5.7
					c0-0.1-0.1-0.2-0.2-0.1c-0.8,1.8-1.7,3.5-3,5c-0.7,0.8-1.7,2.1-2.8,2.8c-0.2-0.8-0.5-1.6-0.7-2.4c1.2-0.7,1.9-2.1,2.7-3.2
					c1.3-1.9,2.2-4,3.2-6c0,0,0,0,0,0c-1.6,2.9-3.2,6.7-6,8.7c-0.3-1-0.5-2-0.8-3.1c0-0.1,0-0.1,0-0.2c3.1-2.6,4.3-6.5,5.9-10
					c0-0.1-0.1-0.1-0.1-0.1c-1.7,3.3-3.1,6.9-6,9.5c-0.3-1.5-0.7-2.9-1-4.4c2.7-2.7,4.4-5.8,5.4-9.5c0-0.1-0.1-0.1-0.1,0
					c-1.2,3.5-3.1,6.1-5.4,8.9c-0.3-1.5-0.6-2.9-1-4.4c1.1-1.3,2.4-2.4,3.2-3.9c0.9-1.5,1.5-3.1,1.7-4.8c0-0.1-0.1-0.1-0.1,0
					c-0.6,3.4-2.9,5.5-4.9,8.1c-0.3-1.4-0.7-2.7-1-4c2.2-3,4.7-6,4.9-9.8c0,0-0.1,0-0.1,0c-0.4,3.7-2.9,6.3-5,9.2
					c-0.1-0.2-0.1-0.5-0.2-0.7c-0.4-1.2-0.7-2.5-1.1-3.7c1.4-1.5,2.5-3.2,3.6-4.9c0.8-1.2,1.6-2.4,1.8-3.9c0-0.1-0.1-0.1-0.1,0
					c-0.5,3-3.4,5.9-5.4,8.2c-0.4-1.2-0.8-2.5-1.1-3.7c2-3,4.9-5.5,5.2-9.4c0-0.1-0.2-0.1-0.2,0c-0.5,3.7-3.3,6-5.2,8.8
					c-0.2-0.8-0.5-1.5-0.7-2.3c2.5-2.5,4.9-6.7,5.2-10.3c0-0.2-0.3-0.2-0.3,0c-0.5,3.2-2.6,7.3-5.1,9.7c-0.4-1.3-0.7-2.5-1.1-3.8
					c0,0,0-0.1,0-0.1c1.2-1,2.1-2.6,2.9-3.9c1-1.5,1.9-3.2,2.1-5.1c0-0.2-0.3-0.2-0.3,0c-0.2,3-2.7,6.2-4.9,8.3
					c-0.1-0.5-0.2-0.9-0.4-1.4c-0.2-0.7-0.3-1.4-0.5-2.1c0.7-1.3,2-2.3,2.7-3.6c0.6-1.1,1.1-2.4,1.5-3.6c0-0.1-0.1-0.2-0.2-0.1
					c-0.6,1.6-1.3,3.1-2.3,4.4c-0.6,0.8-1.3,1.4-1.8,2.2c-0.3-1.1-0.5-2.3-0.8-3.4c0,0,0,0,0,0c0,0,0,0,0,0c0.1,0,0.1-0.1,0.2-0.1
					c1.3-1.1,1.8-2.9,2.3-4.4c0,0,0-0.1-0.1,0c-0.6,1.5-1.3,3.1-2.5,4.1c0,0,0,0,0,0c0,0-0.1,0-0.1,0c-0.2-0.9-0.5-1.8-0.7-2.8
					c0.1-0.1,0.1-0.2,0.1-0.3c0.5-0.9,0.9-1.9,1.3-2.9c0-0.1-0.1-0.1-0.1,0c-0.4,0.9-0.9,1.7-1.5,2.5c-0.5-1.9-1.1-3.7-1.9-5.6
					c-0.1-0.2-0.3-0.1-0.3,0.1c0.6,1.8,1.2,3.6,1.7,5.4c-1.3-0.7-2.7-1.4-3.8-2.4c-0.1-0.1-0.1,0-0.1,0.1c0.6,0.6,1.3,1.1,2.1,1.6
					c0.7,0.4,1.3,1,2,1.3c0.3,1,0.5,2,0.7,3c-1.1,0.3-2.1,0.5-3.2,0.2c-1.4-0.4-2.5-1.3-3.3-2.6c-0.1-0.2-0.3,0-0.3,0.1
					c0.7,1.2,1.7,2.1,3,2.6c1.3,0.6,2.5,0.4,3.8,0.1c0.3,1.1,0.5,2.3,0.8,3.4c-1.2-0.1-2.3-0.4-3.4-0.7c-1.8-0.4-3.2-1.3-4.8-2
					c-0.2-0.1-0.3,0.2-0.1,0.3c1.6,0.6,2.9,1.5,4.6,2c1.2,0.3,2.6,0.8,3.9,0.9c0,0.1,0,0.1,0,0.2c0,0,0,0,0,0c0,0.1,0,0.2,0.1,0.2
					c0.2,1.1,0.5,2.2,0.7,3.3c0,0.1,0,0.1,0.1,0.2c-2.8,0-7.1-0.2-8.7-2.8c-0.1-0.2-0.5,0-0.3,0.2c2.1,2.7,6.1,2.5,9.2,3.1
					c0.3,1.2,0.6,2.5,1,3.7c-1.7,0.2-3.5,0.2-5.2-0.2c-1.6-0.4-3.7-0.7-4.9-1.9c0,0-0.1,0-0.1,0.1c1.1,1.2,3,1.5,4.5,1.9
					c1.9,0.6,3.8,1,5.7,0.7c0,0.1,0,0.1,0.1,0.2c0.2,0.8,0.4,1.5,0.7,2.3c-2.9,1.1-7.9,0.8-10.3-0.7c0,0,0,0,0,0
					c1.7,1.2,3.7,1.4,5.7,1.5c1.5,0,3.2,0.1,4.7-0.4c0.4,1.4,0.8,2.9,1.3,4.3c-1.4,0.1-2.8,0.5-4.3,0.6c-2.1,0.1-4.1-0.5-5.9-1.6
					c-0.1-0.1-0.2,0.1-0.1,0.2c3.4,2.2,6.6,1.8,10.5,1.4c0.3,1.2,0.7,2.3,1,3.5c-2.9,0.7-7.2,0.7-9.6-1c-0.2-0.1-0.4,0.1-0.2,0.3
					c1.6,1.1,3.5,1.4,5.4,1.4c1.3,0,3.3,0.3,4.6-0.3c0,0,0,0.1,0,0.1c0.5,1.7,0.9,3.4,1.3,5.1c-3.4,0.6-6.3-0.7-9.5-1.7
					c-0.2-0.1-0.4,0.3-0.1,0.3c3.2,1.2,6.3,2.5,9.7,1.9c0.3,1.4,0.6,2.8,0.9,4.2c-2.9,0.5-6.3-0.2-8.9-1.5c-0.2-0.1-0.3,0.2-0.1,0.3
					c2.8,1.5,6.1,2,9.1,1.7c0.3,1.5,0.6,3,0.9,4.5c-2.8,0.8-5.6,0.1-8.2-1.2c-0.1,0-0.1,0.1-0.1,0.1c2.4,1.3,5.6,2.6,8.4,1.7
					c0.1,0.5,0.2,1,0.3,1.4c0.1,0.3,0.1,0.6,0.2,0.9c-2.3,0.3-4.4,0.5-6.7-0.1c-0.1,0-0.1,0.1,0,0.1c2.2,0.7,4.5,0.8,6.8,0.4
					c0.2,0.9,0.3,1.9,0.5,2.8c-0.6,0-1.2,0-1.8,0.1c-1.1,0.2-2.1-0.2-3.2-0.3c-0.1,0-0.1,0.1,0,0.2c1,0.1,1.8,0.5,2.8,0.5
					c0.7-0.1,1.5,0,2.2,0c0.7,3.8,1.5,7.8,3.5,10.8c0.4,0.7,1.7,0.3,1.6-0.5C338.7,308.9,337.5,306.4,336.6,303.9z"/>
			</g>
			<g>
				
					<linearGradient id="SVGID_9_" gradientUnits="userSpaceOnUse" x1="533.0806" y1="-43.4088" x2="484.3969" y2="17.9624" gradientTransform="matrix(0.6073 -0.7945 0.7945 0.6073 45.8431 675.4667)">
					<stop  offset="0" style="stop-color:#606BF1"/>
					<stop  offset="1" style="stop-color:#58479F"/>
				</linearGradient>
				<path class="st29" d="M357.9,268.9c0.5,10.5,5.4,27.4-7.1,33.4c-3.4,1.6-7.4,0-10.2-2.3c-3.6-3-6.3-10.7-7.4-15.2
					c-0.9-3.6-0.6-7.8-1.2-11.5c-0.6-4-1.2-7.9-1.7-11.9c-1.9-14.3,2.4-27.8,13-37.9c2.1,4.3,5.3,7.7,8.3,11.6
					c1.4,1.8,2.7,3.7,3.8,5.6c1.9,3.5,1.7,7.5,1.7,11.3C357,257.6,357.7,263.3,357.9,268.9z"/>
				<path class="st27" d="M348.6,303.2c-0.1-0.9-0.2-1.7-0.3-2.6c1.6-0.4,3-1.7,4.1-2.7c2-1.8,3.4-4,4.8-6.2
					c0.1-0.1-0.1-0.2-0.2-0.1c-1.4,2-2.9,3.9-4.8,5.4c-1.1,0.9-2.6,2.2-4,2.8c-0.1-1-0.2-2.1-0.3-3.1c1.6-0.6,2.8-2.1,4-3.3
					c2-2,3.6-4.3,5.3-6.6c0,0,0-0.1,0,0c-2.6,3.2-5.4,7.4-9.3,9.2c-0.1-1.3-0.2-2.6-0.2-3.9c0-0.1,0-0.1,0-0.2
					c4.4-2.4,6.7-6.9,9.5-10.8c0-0.1,0-0.1-0.1-0.1c-2.9,3.7-5.4,7.7-9.5,10.1c-0.1-1.9-0.1-3.7-0.2-5.6c3.9-2.7,6.7-6,8.8-10.3
					c0-0.1-0.1-0.1-0.1-0.1c-2.3,4-5.2,6.7-8.7,9.5c0-1.8-0.1-3.7-0.2-5.5c1.6-1.4,3.4-2.4,4.8-4c1.4-1.6,2.5-3.4,3.2-5.4
					c0-0.1-0.1-0.2-0.2-0.1c-1.5,4-4.9,6-7.9,8.7c-0.1-1.7-0.2-3.4-0.3-5.1c3.3-3.1,7.1-6.2,8.2-10.8c0,0-0.1-0.1-0.1,0
					c-1.4,4.4-5,7-8.2,10c0-0.3,0-0.6-0.1-0.9c-0.1-1.6-0.3-3.2-0.5-4.7c2-1.5,3.8-3.3,5.5-5.1c1.2-1.3,2.5-2.6,3-4.3
					c0-0.1-0.1-0.2-0.2-0.1c-1.3,3.5-5.5,6.4-8.4,8.7c-0.2-1.6-0.3-3.2-0.5-4.8c3.2-3.2,7.2-5.6,8.5-10.2c0-0.1-0.2-0.2-0.2-0.1
					c-1.4,4.3-5.3,6.5-8.4,9.5c-0.1-1-0.2-2-0.3-3c3.7-2.5,7.5-7.1,8.7-11.3c0.1-0.2-0.3-0.3-0.4-0.1c-1.4,3.8-4.8,8.3-8.4,10.6
					c-0.2-1.6-0.3-3.2-0.4-4.8c0,0,0-0.1,0-0.2c1.7-1,3.1-2.7,4.5-4.1c1.6-1.6,3.1-3.4,3.7-5.7c0.1-0.2-0.3-0.4-0.4-0.1
					c-1,3.7-4.7,6.9-7.9,9c0-0.6-0.1-1.2-0.1-1.8c0-0.9-0.1-1.8-0.1-2.6c1.2-1.4,2.9-2.3,4.1-3.7c1-1.2,1.8-2.6,2.6-4
					c0.1-0.1-0.1-0.3-0.2-0.1c-1.1,1.7-2.3,3.4-3.8,4.8c-0.9,0.8-1.9,1.4-2.7,2.2c-0.1-1.4-0.1-2.9-0.2-4.3c0,0,0,0,0,0
					c0,0,0,0,0.1,0c0.1,0,0.2-0.1,0.2-0.1c1.8-1,2.9-3.1,3.9-4.8c0,0,0-0.1-0.1,0c-1.1,1.6-2.3,3.4-4,4.5c0,0,0,0,0,0
					c0,0-0.1,0-0.1,0c-0.1-1.2-0.1-2.3-0.2-3.5c0.1-0.1,0.2-0.2,0.2-0.3c0.9-1,1.6-2.1,2.2-3.2c0-0.1-0.1-0.2-0.1-0.1
					c-0.7,1-1.5,1.9-2.4,2.7c-0.2-2.4-0.5-4.8-1-7.2c0-0.2-0.4-0.1-0.3,0.1c0.4,2.3,0.6,4.6,0.8,7c-1.4-1.1-3-2.3-4.1-3.8
					c-0.1-0.1-0.2,0-0.1,0.1c0.6,0.9,1.4,1.7,2.1,2.4c0.7,0.7,1.3,1.5,2.1,2.1c0.1,1.3,0.2,2.5,0.2,3.8c-1.4,0.1-2.6,0.2-4-0.5
					c-1.6-0.8-2.8-2.2-3.4-3.9c-0.1-0.2-0.4-0.1-0.3,0.1c0.6,1.6,1.6,3,3,3.9c1.5,1,3,1,4.7,1c0.1,1.5,0.1,2.9,0.2,4.4
					c-1.4-0.4-2.7-1.1-4-1.7c-2.1-0.9-3.5-2.4-5.4-3.5c-0.2-0.1-0.4,0.2-0.2,0.3c1.8,1.1,3.2,2.5,5.1,3.5c1.4,0.7,3,1.6,4.6,1.9
					c0,0.1,0,0.2,0,0.2c0,0,0,0,0,0.1c-0.1,0.1,0,0.2,0,0.3c0,1.4,0.1,2.8,0.1,4.2c0,0.1,0,0.2,0,0.3c-3.4-0.6-8.6-1.9-9.9-5.4
					c-0.1-0.3-0.6-0.1-0.4,0.2c1.9,3.8,6.8,4.5,10.4,5.9c0.1,1.6,0.2,3.1,0.3,4.7c-2.2-0.2-4.3-0.5-6.3-1.5
					c-1.8-0.8-4.3-1.7-5.5-3.4c0-0.1-0.1,0-0.1,0.1c1.1,1.7,3.3,2.5,5.1,3.4c2.2,1.2,4.3,2.1,6.8,2.1c0,0.1,0,0.1,0,0.2
					c0.1,1,0.2,2,0.3,3c-3.8,0.7-9.7-0.9-12.4-3.2c0,0,0,0,0,0c1.8,1.8,4.1,2.6,6.6,3.1c1.9,0.4,3.9,0.9,5.8,0.6
					c0.2,1.8,0.4,3.7,0.5,5.5c-1.8-0.2-3.6,0-5.3-0.3c-2.6-0.4-4.9-1.6-6.8-3.4c-0.1-0.1-0.3,0.1-0.2,0.2c3.6,3.5,7.6,3.7,12.4,4.2
					c0.1,1.5,0.3,3,0.4,4.5c-3.7,0.2-8.9-0.8-11.5-3.4c-0.2-0.2-0.5,0.1-0.3,0.3c1.6,1.7,3.9,2.5,6.2,3c1.6,0.4,3.9,1.1,5.7,0.8
					c0,0,0,0.1,0,0.1c0.2,2.2,0.3,4.3,0.4,6.5c-4.2,0-7.6-2.3-11.1-4.3c-0.2-0.1-0.5,0.2-0.2,0.4c3.7,2.2,7,4.5,11.4,4.6
					c0.1,1.8,0.1,3.5,0.1,5.3c-3.6-0.1-7.6-1.6-10.5-3.9c-0.2-0.2-0.4,0.2-0.2,0.3c3,2.4,6.9,3.9,10.7,4.2c0,1.9,0,3.8,0,5.7
					c-3.6,0.4-6.9-1.2-9.7-3.4c-0.1-0.1-0.2,0.1-0.1,0.1c2.6,2.2,6.2,4.5,9.8,3.9c0,0.6,0,1.2,0,1.8c0,0.4,0,0.7,0,1.1
					c-2.8-0.1-5.5-0.4-8.1-1.7c-0.1,0-0.1,0.1,0,0.1c2.5,1.3,5.3,2,8.2,2.1c0,1.1-0.1,2.3-0.1,3.5c-0.7-0.1-1.4-0.3-2.2-0.3
					c-1.4-0.1-2.5-0.7-3.8-1.1c-0.1,0-0.2,0.1-0.1,0.2c1.2,0.4,2.1,1.1,3.3,1.2c0.9,0.1,1.8,0.3,2.7,0.5c-0.1,4.8,0.1,9.8,1.7,13.9
					c0.4,0.9,2,0.8,2-0.3C349.9,309.7,349.1,306.4,348.6,303.2z"/>
			</g>
			<polygon class="st30" points="364.8,307.1 364.4,315.7 363.7,329 362.5,350.8 332.9,350.8 331.7,329 331,315.7 330.5,307.1 			
				"/>
			<polygon class="st25" points="364.4,315.7 364.3,317.4 364.2,319.1 363.7,329 331.7,329 331.1,319.1 331,317.4 331,315.7 			"/>
			<polygon class="st30" points="364.3,317.4 364.2,319.1 331.1,319.1 331,317.4 			"/>
		</g>
	</g>
</g>
</svg>
