<svg id="Layer_2" data-name="Layer 2" xmlns="http://www.w3.org/2000/svg" xmlns:xlink="http://www.w3.org/1999/xlink" viewBox="0 0 660 649"><defs><style>.cls-1{fill:none;}.cls-2{clip-path:url(#clip-path);}.cls-3{fill:#e2e2e2;}.cls-4{fill:#bcbcbc;}</style><clipPath id="clip-path"><circle class="cls-1" cx="347" cy="322" r="308"/></clipPath></defs><title>SCL_webresponsive_native_2</title><g class="cls-2"><rect class="cls-3" width="660" height="649"/><path class="cls-4" d="M55,564l207-60V450s-17-35-18-56,1-8,1-8-24,5-26-42,0-49,5-44l5,5s-19-72-12-110,25-68,25-68h5s1,4,9,0-1-10,26-18,31,2,53,0,41-4,61-3,15,10,26,16,10-8,38,6,21,25,21,25-14,6-7,16,13-2,14,28-9,100-9,100,9,0,9,24-8,45-16,57-15,8-15,8-1,21-2,34-8,22-11,28,1,56,1,56l205,60v76H55"/></g></svg>