<svg xmlns="http://www.w3.org/2000/svg" xmlns:xlink="http://www.w3.org/1999/xlink" width="52" height="51" viewBox="0 0 52 51">
  <defs>
    <clipPath id="clip-path">
      <path id="Path_2564" data-name="Path 2564" d="M526.577,181.132a4.473,4.473,0,0,0-.942-2.5,3.3,3.3,0,0,0-2.763-1.27,3.937,3.937,0,0,0-3.3,1.57,7.538,7.538,0,0,0-.754,1.233,16.7,16.7,0,0,0-.785,5.307c.032,3.812.911,5.793,2.073,6.913a3.968,3.968,0,0,0,2.795,1.2,3.718,3.718,0,0,0,3.454-2.392,9.644,9.644,0,0,0,.5-2.167s5.43-.707,6.5.523c.344.4-.094,1.121-.219,1.644a11.245,11.245,0,0,1-2.167,4.9c-1.35,1.607-3.862,3.289-8.195,3.289a10.279,10.279,0,0,1-9.545-5.456,13.486,13.486,0,0,1-1.256-3.513,22.906,22.906,0,0,1-.44-4.634c0-1.308-.094-6.8,2.858-10.5a9,9,0,0,1,1.633-1.607,10.416,10.416,0,0,1,6.751-2.055c5.809,0,8.509,3.139,9.64,5.9a12.66,12.66,0,0,1,.785,3.177Z" transform="translate(-511.537 -171.602)" fill="none"/>
    </clipPath>
    <clipPath id="clip-path-2">
      <path id="Path_2575" data-name="Path 2575" d="M626.568,529.771a6.226,6.226,0,0,0-4.809-2.382c-1.74,0-3.527.641-3.527,2.382,0,1.695,1.695,2.153,4.763,2.886,3.252.779,7.1,2.245,7.1,6.55,0,5.359-4.351,7.329-9.16,7.329a11.877,11.877,0,0,1-9.023-3.619c-.828-.923,1.756-4.4,3.618-3.389,1.723.937,3.252,2.748,5.634,2.748,1.6,0,3.527-.641,3.527-2.611,0-1.832-1.695-2.382-5.038-3.161-3.252-.779-6.5-2.107-6.5-6.229,0-4.9,4.4-7.008,8.748-7.008,4.242,0,8.344,1.915,8.245,3.344A3.245,3.245,0,0,1,626.568,529.771Z" transform="translate(-611.753 -523.267)" fill="none"/>
    </clipPath>
    <clipPath id="clip-Artboard_5">
      <rect width="52" height="51"/>
    </clipPath>
  </defs>
  <g id="Artboard_5" data-name="Artboard – 5" clip-path="url(#clip-Artboard_5)">
    <rect width="52" height="51" fill="#fff"/>
    <g id="Group_3693" data-name="Group 3693" transform="translate(-10.639 -14.224)">
      <g id="Group_3586" data-name="Group 3586" transform="translate(13.581 16.224)">
        <g id="Group_3570" data-name="Group 3570" transform="translate(20.131 0)">
          <circle id="Ellipse_731" data-name="Ellipse 731" cx="0.562" cy="0.562" r="0.562" transform="translate(15.547 9.666)" fill="#1b1464"/>
          <circle id="Ellipse_732" data-name="Ellipse 732" cx="0.562" cy="0.562" r="0.562" transform="translate(10.964 10.336)" fill="#1b1464"/>
          <path id="Path_2405" data-name="Path 2405" d="M526.577,181.132c-.49-1.4-.471-1.943-.942-2.5a3.3,3.3,0,0,0-2.763-1.27,3.937,3.937,0,0,0-3.3,1.57,7.538,7.538,0,0,0-.754,1.233,16.7,16.7,0,0,0-.785,5.307c.032,3.812.911,5.793,2.073,6.913a3.968,3.968,0,0,0,2.795,1.2,3.718,3.718,0,0,0,3.454-2.392,9.644,9.644,0,0,0,.5-2.167s3.886-1.508,6.5.523c.414.322-.094,1.121-.219,1.644a11.245,11.245,0,0,1-2.167,4.9c-1.35,1.607-3.862,3.289-8.195,3.289a10.279,10.279,0,0,1-9.545-5.456,13.486,13.486,0,0,1-1.256-3.513,22.906,22.906,0,0,1-.44-4.634c0-1.308-.094-6.8,2.858-10.5a9,9,0,0,1,1.633-1.607,10.416,10.416,0,0,1,6.751-2.055c5.809,0,8.509,3.139,9.64,5.9.44,1.121,1.524,2.27.785,3.177C532.154,181.97,526.86,181.938,526.577,181.132Z" transform="translate(-509.521 -171.602)" fill="#73d5f4"/>
          <g id="Group_3505" data-name="Group 3505" transform="translate(1.503 2.515)">
            <path id="Path_2406" data-name="Path 2406" d="M505.216,234.592a1.287,1.287,0,0,1-1.287-.686c-.815-1.72,1.646-6.431,6.125-11.722,5.816-6.871,13.12-12.5,16.283-12.558a1.3,1.3,0,0,1,1.333.685c.815,1.72-1.646,6.43-6.125,11.722-5.816,6.871-13.12,12.5-16.283,12.558Zm21.166-24.9h-.044c-3.146.053-10.428,5.676-16.233,12.535-4.462,5.272-6.92,9.954-6.116,11.651a1.245,1.245,0,0,0,1.272.648c3.146-.053,10.428-5.676,16.233-12.535,4.462-5.272,6.92-9.954,6.116-11.651A1.226,1.226,0,0,0,526.382,209.692Z" transform="translate(-503.774 -209.626)" fill="#0071bc"/>
          </g>
          <g id="Group_3506" data-name="Group 3506" transform="translate(0.501 1.462)">
            <path id="Path_2407" data-name="Path 2407" d="M509.7,219.346c-3.907,0-11.174-5.576-16.316-12.547-3.742-5.073-5.49-9.739-4.454-11.885a2.172,2.172,0,0,1,2.054-1.2c3.869-.139,11.253,5.489,16.458,12.545,3.742,5.073,5.491,9.738,4.455,11.884a2.173,2.173,0,0,1-2.054,1.2Zm-16.263-12.586c5.13,6.955,12.373,12.52,16.261,12.52l.141,0a2.111,2.111,0,0,0,2-1.164c1.025-2.124-.721-6.763-4.448-11.816-5.193-7.041-12.549-12.654-16.4-12.518a2.111,2.111,0,0,0-2,1.164C487.961,197.068,489.707,201.707,493.434,206.761Z" transform="translate(-488.632 -193.711)" fill="#0071bc"/>
          </g>
          <path id="Path_2408" data-name="Path 2408" d="M574.639,358.983s.84,2.7.99,2.909l1.41-1.406a19.311,19.311,0,0,1-.015-3.229" transform="translate(-568.449 -344.977)" fill="#73d5f4"/>
          <circle id="Ellipse_733" data-name="Ellipse 733" cx="1.025" cy="1.025" r="1.025" transform="translate(0 1.677)" fill="#1b1464"/>
          <circle id="Ellipse_734" data-name="Ellipse 734" cx="1.025" cy="1.025" r="1.025" transform="translate(22.128 25.65)" fill="#1b1464"/>
          <circle id="Ellipse_735" data-name="Ellipse 735" cx="1.025" cy="1.025" r="1.025" transform="translate(23.839 2.081)" fill="#1b1464"/>
          <circle id="Ellipse_736" data-name="Ellipse 736" cx="1.025" cy="1.025" r="1.025" transform="translate(1.409 26.371)" fill="#1b1464"/>
          <circle id="Ellipse_737" data-name="Ellipse 737" cx="0.562" cy="0.562" r="0.562" transform="translate(15.087 18.437)" fill="#1b1464"/>
          <circle id="Ellipse_738" data-name="Ellipse 738" cx="0.562" cy="0.562" r="0.562" transform="translate(6.344 25.372)" fill="#1b1464"/>
          <circle id="Ellipse_739" data-name="Ellipse 739" cx="0.562" cy="0.562" r="0.562" transform="translate(21.225 10.898)" fill="#1b1464"/>
          <circle id="Ellipse_740" data-name="Ellipse 740" cx="0.562" cy="0.562" r="0.562" transform="translate(16.715 25.168)" fill="#1b1464"/>
          <circle id="Ellipse_741" data-name="Ellipse 741" cx="0.562" cy="0.562" r="0.562" transform="translate(6.007 15.531)" fill="#1b1464"/>
          <g id="Group_3569" data-name="Group 3569" transform="translate(2.016)" opacity="0.4">
            <g id="Group_3568" data-name="Group 3568" clip-path="url(#clip-path)">
              <g id="Group_3567" data-name="Group 3567" transform="translate(-1.684 -2.092)">
                <path id="Path_2409" data-name="Path 2409" d="M722.1,212.628l.769,1.331-.769,1.331h-1.537l-.769-1.331.769-1.331H722.1m.112-.194H720.45l-.056.1-.769,1.331-.056.1.056.1.769,1.331.056.1h1.762l.056-.1.769-1.331.056-.1-.056-.1-.769-1.331-.056-.1Z" transform="translate(-704.125 -207.641)" fill="#0071bc"/>
                <g id="Group_3513" data-name="Group 3513" transform="translate(11.55)">
                  <g id="Group_3507" data-name="Group 3507" transform="translate(0 2.404)">
                    <path id="Path_2410" data-name="Path 2410" d="M662.325,176.462l.484.838-.484.838h-.967l-.483-.838.483-.838h.967m.09-.156h-1.147l-.045.078-.483.838-.045.078.045.078.483.838.045.078h1.147l.045-.078.484-.838.045-.078-.045-.078-.484-.838-.045-.078Z" transform="translate(-660.695 -176.306)" fill="#0071bc"/>
                  </g>
                  <g id="Group_3508" data-name="Group 3508" transform="translate(4.212)">
                    <path id="Path_2411" data-name="Path 2411" d="M725.044,140.123h.967l.484.838-.484.838h-.967l-.484-.838.484-.838m-.09-.156-.045.078-.484.838-.045.078.045.078.484.838.045.078H726.1l.045-.078.484-.838.045-.078-.045-.078-.484-.838-.045-.078h-1.147Z" transform="translate(-724.381 -139.967)" fill="#0071bc"/>
                  </g>
                  <g id="Group_3509" data-name="Group 3509" transform="translate(9.296 2.886)">
                    <path id="Path_2412" data-name="Path 2412" d="M802.872,183.756l.484.838-.484.838H801.9l-.484-.838.484-.838h.967m.09-.156h-1.147l-.045.078-.484.838-.045.078.045.078.484.838.045.078h1.147l.045-.078.484-.838.045-.078-.045-.078-.484-.838-.045-.078Z" transform="translate(-801.241 -183.6)" fill="#0071bc"/>
                  </g>
                  <g id="Group_3510" data-name="Group 3510" transform="translate(9.272 7.736)">
                    <path id="Path_2413" data-name="Path 2413" d="M802.5,257.078l.484.838-.484.838h-.967l-.484-.838.484-.838h.967m.09-.155h-1.147L801.4,257l-.484.838-.045.078.045.078.484.838.045.078h1.147l.045-.078.484-.838.045-.078-.045-.078-.484-.838-.045-.078Z" transform="translate(-800.869 -256.923)" fill="#0071bc"/>
                  </g>
                  <g id="Group_3511" data-name="Group 3511" transform="translate(4.228 10.703)">
                    <path id="Path_2414" data-name="Path 2414" d="M726.243,301.931l.484.838-.484.838h-.967l-.484-.838.484-.838h.967m.09-.156h-1.147l-.045.078-.484.838-.045.078.045.078.484.838.045.078h1.147l.045-.078.484-.838.045-.078-.045-.078-.484-.838-.045-.078Z" transform="translate(-724.613 -301.775)" fill="#0071bc"/>
                  </g>
                  <g id="Group_3512" data-name="Group 3512" transform="translate(0.04 8.256)">
                    <path id="Path_2415" data-name="Path 2415" d="M662.929,264.947l.484.838-.484.838h-.967l-.484-.838.484-.838h.967m.09-.156h-1.147l-.045.078-.484.838-.045.078.045.078.484.838.045.078h1.147l.045-.078.483-.838.045-.078-.045-.078-.483-.838-.045-.078Z" transform="translate(-661.299 -264.791)" fill="#0071bc"/>
                  </g>
                </g>
                <g id="Group_3514" data-name="Group 3514" transform="translate(13.716 1.522)">
                  <path id="Path_2416" data-name="Path 2416" d="M696.864,165.958h-.944l-.636-1.1.65-1.126a.052.052,0,0,0,.005-.014h.71a.049.049,0,1,0,0-.1h-.707l-.354-.613a.049.049,0,0,0-.084.049l.355.615a.046.046,0,0,0-.01.012l-.65,1.126h-1.3l-.015,0-.355-.615a.049.049,0,0,0-.084.049l.354.613-.354.613a.049.049,0,0,0,.018.066.048.048,0,0,0,.024.007.049.049,0,0,0,.042-.024l.355-.615.015,0h1.3l.636,1.1-.472.817a.049.049,0,0,0,.084.049l.472-.817h.944a.049.049,0,1,0,0-.1Z" transform="translate(-693.439 -162.981)" fill="#0071bc"/>
                  <path id="Path_2417" data-name="Path 2417" d="M772.467,210.058h-.71a.05.05,0,0,0-.005-.014l-.65-1.126.65-1.126a.05.05,0,0,0,.005-.014h.71a.049.049,0,0,0,0-.1h-.707l-.354-.613a.049.049,0,0,0-.084.049l.355.615a.051.051,0,0,0-.01.011l-.65,1.126h-1.273l-.472-.817a.049.049,0,1,0-.084.049l.472.817-.472.817a.049.049,0,1,0,.084.049l.472-.817h1.273l.65,1.126a.053.053,0,0,0,.009.012l-.355.615a.049.049,0,0,0,.018.066.049.049,0,0,0,.066-.018l.354-.613h.707a.049.049,0,0,0,0-.1Z" transform="translate(-764.172 -204.129)" fill="#0071bc"/>
                  <path id="Path_2418" data-name="Path 2418" d="M697.1,250.008h-.944l-.472-.817a.049.049,0,0,0-.084.049l.472.817-.636,1.1h-1.3l-.015,0-.355-.615a.049.049,0,1,0-.084.049l.354.613-.354.613a.049.049,0,1,0,.084.049l.355-.615.015,0h1.3l.65,1.126a.052.052,0,0,0,.01.012l-.355.615a.049.049,0,0,0,.042.073.048.048,0,0,0,.042-.024l.354-.613h.708a.049.049,0,1,0,0-.1h-.711a.044.044,0,0,0-.005-.014l-.65-1.126.636-1.1h.944a.049.049,0,0,0,0-.1Z" transform="translate(-693.656 -243.465)" fill="#0071bc"/>
                </g>
                <g id="Group_3515" data-name="Group 3515" transform="translate(15.17 3.061)">
                  <path id="Path_2419" data-name="Path 2419" d="M715.755,186.923a.335.335,0,1,1,.335-.335A.336.336,0,0,1,715.755,186.923Zm0-.573a.238.238,0,1,0,.238.238A.238.238,0,0,0,715.755,186.349Z" transform="translate(-715.42 -186.252)" fill="#0071bc"/>
                  <path id="Path_2420" data-name="Path 2420" d="M792.617,230.985a.335.335,0,1,1,.291-.168A.336.336,0,0,1,792.617,230.985Zm0-.574a.238.238,0,1,0,.119.032A.239.239,0,0,0,792.618,230.411Z" transform="translate(-787.198 -227.4)" fill="#0071bc"/>
                  <path id="Path_2421" data-name="Path 2421" d="M715.989,275.622a.335.335,0,1,1,.29-.5.335.335,0,0,1-.29.5Zm0-.573a.238.238,0,1,0,.23.3.236.236,0,0,0-.024-.181A.239.239,0,0,0,715.989,275.048Z" transform="translate(-715.638 -269.084)" fill="#0071bc"/>
                </g>
                <g id="Group_3518" data-name="Group 3518" transform="translate(13.584 1.39)">
                  <g id="Group_3516" data-name="Group 3516">
                    <path id="Path_2422" data-name="Path 2422" d="M691.624,179.321a.181.181,0,1,1,.181-.181A.181.181,0,0,1,691.624,179.321Zm0-.283a.1.1,0,1,0,.1.1A.1.1,0,0,0,691.624,179.038Z" transform="translate(-691.443 -177.771)" fill="#0071bc"/>
                    <path id="Path_2423" data-name="Path 2423" d="M691.624,198.581a.181.181,0,1,1,.181-.181A.181.181,0,0,1,691.624,198.581Zm0-.283a.1.1,0,1,0,.1.1A.1.1,0,0,0,691.624,198.3Z" transform="translate(-691.443 -195.757)" fill="#0071bc"/>
                    <path id="Path_2424" data-name="Path 2424" d="M722.758,161.346a.181.181,0,1,1,.18-.181A.181.181,0,0,1,722.758,161.346Zm0-.283a.1.1,0,1,0,.1.1A.1.1,0,0,0,722.758,161.063Z" transform="translate(-720.518 -160.985)" fill="#0071bc"/>
                    <path id="Path_2425" data-name="Path 2425" d="M739.438,170.976a.181.181,0,1,1,.18-.181A.181.181,0,0,1,739.438,170.976Zm0-.283a.1.1,0,1,0,.1.1A.1.1,0,0,0,739.438,170.693Z" transform="translate(-736.094 -169.978)" fill="#0071bc"/>
                    <path id="Path_2426" data-name="Path 2426" d="M816.3,215.039a.181.181,0,0,1-.09-.024.181.181,0,0,1-.066-.247.18.18,0,0,1,.331.043.178.178,0,0,1-.018.137A.181.181,0,0,1,816.3,215.039Zm0-.283a.1.1,0,0,0-.052.192.1.1,0,0,0,.051.014.1.1,0,0,0,.089-.051.1.1,0,0,0-.089-.154Z" transform="translate(-807.869 -211.127)" fill="#0071bc"/>
                    <path id="Path_2427" data-name="Path 2427" d="M799.617,205.409a.181.181,0,1,1,.157-.09A.18.18,0,0,1,799.617,205.409Zm0-.283a.1.1,0,0,0-.089.051.1.1,0,0,0,.089.154.1.1,0,0,0,0-.206Z" transform="translate(-792.294 -202.134)" fill="#0071bc"/>
                    <path id="Path_2428" data-name="Path 2428" d="M816.3,250.989a.182.182,0,0,1-.09-.024.181.181,0,0,1-.066-.247.181.181,0,1,1,.156.271Zm0-.283a.1.1,0,0,0-.089.051.1.1,0,1,0,.089-.051Z" transform="translate(-807.869 -244.699)" fill="#0071bc"/>
                    <path id="Path_2429" data-name="Path 2429" d="M799.618,260.619a.181.181,0,0,1-.156-.271.181.181,0,1,1,.156.271Zm0-.283a.1.1,0,0,0-.052.192.1.1,0,0,0,.1-.178A.1.1,0,0,0,799.619,260.336Z" transform="translate(-792.295 -253.692)" fill="#0071bc"/>
                    <path id="Path_2430" data-name="Path 2430" d="M722.99,305.256a.181.181,0,1,1,.156-.271.181.181,0,0,1-.066.247A.181.181,0,0,1,722.99,305.256Zm0-.283a.1.1,0,1,0,.1.129.1.1,0,0,0-.01-.078A.1.1,0,0,0,722.99,304.973Z" transform="translate(-720.735 -295.376)" fill="#0071bc"/>
                    <path id="Path_2431" data-name="Path 2431" d="M739.67,295.626a.181.181,0,0,1-.09-.337.179.179,0,0,1,.09-.024.181.181,0,1,1,0,.361Zm0-.283a.1.1,0,1,0,.089.051A.1.1,0,0,0,739.67,295.343Z" transform="translate(-736.312 -286.383)" fill="#0071bc"/>
                    <path id="Path_2432" data-name="Path 2432" d="M691.856,287.281a.181.181,0,1,1,.156-.271.181.181,0,0,1-.066.247A.181.181,0,0,1,691.856,287.281Zm0-.283a.1.1,0,0,0,0,.206.1.1,0,0,0,.089-.154A.1.1,0,0,0,691.856,287Z" transform="translate(-691.66 -278.59)" fill="#0071bc"/>
                    <path id="Path_2433" data-name="Path 2433" d="M691.856,268.02a.181.181,0,1,1,.156-.271.181.181,0,0,1-.066.247A.181.181,0,0,1,691.856,268.02Zm0-.283a.1.1,0,1,0,.089.051A.1.1,0,0,0,691.856,267.737Z" transform="translate(-691.66 -260.603)" fill="#0071bc"/>
                  </g>
                  <g id="Group_3517" data-name="Group 3517" transform="translate(1.934 2.977)">
                    <path id="Path_2434" data-name="Path 2434" d="M721.414,217.945a.181.181,0,1,1,.18-.181A.181.181,0,0,1,721.414,217.945Zm0-.283a.1.1,0,1,0,.1.1A.1.1,0,0,0,721.414,217.662Z" transform="translate(-721.197 -216.817)" fill="#0071bc"/>
                    <path id="Path_2435" data-name="Path 2435" d="M742.678,206.347a.181.181,0,1,1,.181-.181A.181.181,0,0,1,742.678,206.347Zm0-.284a.1.1,0,1,0,.1.1A.1.1,0,0,0,742.678,206.064Z" transform="translate(-741.054 -205.986)" fill="#0071bc"/>
                    <path id="Path_2436" data-name="Path 2436" d="M767.365,220.087a.181.181,0,1,1,.156-.09A.18.18,0,0,1,767.365,220.087Zm0-.283a.1.1,0,0,0-.1.13.1.1,0,0,0,.048.062.1.1,0,0,0,.141-.038.1.1,0,0,0-.038-.141A.1.1,0,0,0,767.365,219.8Z" transform="translate(-764.109 -218.817)" fill="#0071bc"/>
                    <path id="Path_2437" data-name="Path 2437" d="M767.367,245.738a.181.181,0,1,1,.156-.09A.181.181,0,0,1,767.367,245.738Zm0-.283a.1.1,0,1,0,.051.014A.1.1,0,0,0,767.367,245.455Z" transform="translate(-764.111 -242.772)" fill="#0071bc"/>
                    <path id="Path_2438" data-name="Path 2438" d="M743.264,260.255a.181.181,0,1,1,.09-.024A.181.181,0,0,1,743.264,260.255Zm0-.283a.1.1,0,1,0,.089.051A.1.1,0,0,0,743.264,259.972Z" transform="translate(-741.602 -256.328)" fill="#0071bc"/>
                    <path id="Path_2439" data-name="Path 2439" d="M720.868,247.531a.181.181,0,1,1,.09-.024A.181.181,0,0,1,720.868,247.531Zm0-.284a.1.1,0,0,0-.1.076.1.1,0,0,0,.01.078.1.1,0,0,0,.188-.025.1.1,0,0,0-.01-.078A.1.1,0,0,0,720.867,247.248Z" transform="translate(-720.687 -244.446)" fill="#0071bc"/>
                  </g>
                </g>
                <path id="Path_2440" data-name="Path 2440" d="M547.483,249.863l.769,1.331-.769,1.331h-1.537l-.769-1.331.769-1.331h1.537m.112-.194h-1.762l-.056.1-.769,1.331-.056.1.056.1.769,1.331.056.1h1.762l.056-.1.769-1.331.056-.1-.056-.1-.769-1.331-.056-.1Z" transform="translate(-541.058 -242.413)" fill="#0071bc"/>
                <g id="Group_3525" data-name="Group 3525" transform="translate(0 2.463)">
                  <g id="Group_3519" data-name="Group 3519" transform="translate(0 2.404)">
                    <path id="Path_2441" data-name="Path 2441" d="M487.708,213.7l.484.838-.484.838h-.967l-.484-.838.484-.838h.967m.09-.155h-1.147l-.045.078-.483.838-.045.078.045.078.483.838.045.078H487.8l.045-.078.484-.838.045-.078-.045-.078-.484-.838-.045-.078Z" transform="translate(-486.078 -213.542)" fill="#0071bc"/>
                  </g>
                  <g id="Group_3520" data-name="Group 3520" transform="translate(4.212)">
                    <path id="Path_2442" data-name="Path 2442" d="M550.427,177.358h.967l.484.838-.484.838h-.967l-.484-.838.484-.838m-.09-.155-.045.078-.484.838-.045.078.045.078.484.838.045.078h1.147l.045-.078.484-.838.045-.078-.045-.078-.484-.838-.045-.078h-1.147Z" transform="translate(-549.764 -177.203)" fill="#0071bc"/>
                  </g>
                  <g id="Group_3521" data-name="Group 3521" transform="translate(9.296 2.886)">
                    <path id="Path_2443" data-name="Path 2443" d="M628.254,220.992l.484.838-.484.838h-.967l-.484-.838.484-.838h.967m.09-.156H627.2l-.045.078-.484.838-.045.078.045.078.484.838.045.078h1.147l.045-.078.484-.838.045-.078-.045-.078-.484-.838-.045-.078Z" transform="translate(-626.624 -220.836)" fill="#0071bc"/>
                  </g>
                  <g id="Group_3522" data-name="Group 3522" transform="translate(9.272 7.736)">
                    <path id="Path_2444" data-name="Path 2444" d="M627.882,294.314l.483.838-.483.838h-.967l-.484-.838.484-.838h.967m.09-.155h-1.147l-.045.078-.484.838-.045.078.045.078.484.838.045.078h1.147l.045-.078.484-.838.045-.078-.045-.078-.484-.838-.045-.078Z" transform="translate(-626.252 -294.158)" fill="#0071bc"/>
                  </g>
                  <g id="Group_3523" data-name="Group 3523" transform="translate(4.228 10.703)">
                    <path id="Path_2445" data-name="Path 2445" d="M551.626,339.166l.484.838-.484.838h-.967l-.484-.838.484-.838h.967m.09-.155h-1.147l-.045.078-.484.838L550,340l.045.078.484.838.045.078h1.147l.045-.078.484-.838.045-.078-.045-.078-.484-.838-.045-.078Z" transform="translate(-549.996 -339.01)" fill="#0071bc"/>
                  </g>
                  <g id="Group_3524" data-name="Group 3524" transform="translate(0.04 8.256)">
                    <path id="Path_2446" data-name="Path 2446" d="M488.312,302.181l.484.838-.484.838h-.967l-.484-.838.484-.838h.967m.09-.155h-1.147l-.045.078-.484.838-.045.078.045.078.484.838.045.078H488.4l.045-.078.484-.838.045-.078-.045-.078-.484-.838-.045-.078Z" transform="translate(-486.682 -302.026)" fill="#0071bc"/>
                  </g>
                </g>
                <g id="Group_3526" data-name="Group 3526" transform="translate(2.166 3.985)">
                  <path id="Path_2447" data-name="Path 2447" d="M522.247,203.193H521.3l-.636-1.1.65-1.126a.044.044,0,0,0,.005-.014h.71a.049.049,0,1,0,0-.1h-.707l-.354-.613a.049.049,0,1,0-.084.049l.355.615a.046.046,0,0,0-.01.011l-.65,1.126h-1.3l-.015,0-.355-.615a.049.049,0,1,0-.084.049l.354.613-.354.613a.049.049,0,1,0,.084.049l.355-.615.015,0h1.3l.636,1.1-.472.817a.049.049,0,0,0,.018.066.048.048,0,0,0,.024.007.049.049,0,0,0,.042-.024l.472-.817h.944a.049.049,0,1,0,0-.1Z" transform="translate(-518.822 -200.216)" fill="#0071bc"/>
                  <path id="Path_2448" data-name="Path 2448" d="M597.85,247.294h-.71a.046.046,0,0,0-.005-.014l-.65-1.126.65-1.126a.044.044,0,0,0,.005-.014h.71a.049.049,0,0,0,0-.1h-.708l-.354-.613a.049.049,0,1,0-.084.049l.355.615a.046.046,0,0,0-.009.012l-.65,1.126h-1.273l-.472-.817a.049.049,0,0,0-.084.049l.472.817-.472.817a.049.049,0,1,0,.084.049l.472-.817H596.4l.65,1.126a.046.046,0,0,0,.009.012l-.355.615a.049.049,0,1,0,.084.049l.354-.613h.708a.049.049,0,0,0,0-.1Z" transform="translate(-589.555 -241.365)" fill="#0071bc"/>
                  <path id="Path_2449" data-name="Path 2449" d="M522.479,287.243h-.944l-.472-.817a.049.049,0,1,0-.084.049l.472.817-.636,1.1h-1.3l-.015,0-.355-.615a.049.049,0,0,0-.084.049l.354.613-.354.613a.049.049,0,0,0,.018.066.048.048,0,0,0,.024.007.048.048,0,0,0,.042-.024l.355-.615.015,0h1.3l.65,1.126a.047.047,0,0,0,.01.012l-.355.615a.049.049,0,1,0,.084.049l.354-.613h.707a.049.049,0,1,0,0-.1h-.71a.044.044,0,0,0-.005-.014l-.65-1.126.636-1.1h.944a.049.049,0,1,0,0-.1Z" transform="translate(-519.039 -280.701)" fill="#0071bc"/>
                </g>
                <g id="Group_3527" data-name="Group 3527" transform="translate(3.62 5.524)">
                  <path id="Path_2450" data-name="Path 2450" d="M541.138,224.158a.335.335,0,1,1,.335-.335A.336.336,0,0,1,541.138,224.158Zm0-.573a.238.238,0,1,0,.238.238A.238.238,0,0,0,541.138,223.584Z" transform="translate(-540.803 -223.487)" fill="#0071bc"/>
                  <path id="Path_2451" data-name="Path 2451" d="M618,268.22a.335.335,0,1,1,.291-.168A.335.335,0,0,1,618,268.22Zm0-.573a.238.238,0,1,0,.206.357.238.238,0,0,0-.206-.357Z" transform="translate(-612.581 -264.635)" fill="#0071bc"/>
                  <path id="Path_2452" data-name="Path 2452" d="M541.372,312.857a.335.335,0,1,1,.29-.5.335.335,0,0,1-.29.5Zm0-.573a.238.238,0,1,0,.207.119A.239.239,0,0,0,541.372,312.283Z" transform="translate(-541.021 -306.319)" fill="#0071bc"/>
                </g>
                <g id="Group_3530" data-name="Group 3530" transform="translate(2.034 3.853)">
                  <g id="Group_3528" data-name="Group 3528">
                    <path id="Path_2453" data-name="Path 2453" d="M517.007,216.557a.181.181,0,1,1,.18-.181A.181.181,0,0,1,517.007,216.557Zm0-.283a.1.1,0,1,0,.1.1A.1.1,0,0,0,517.007,216.274Z" transform="translate(-516.826 -215.007)" fill="#0071bc"/>
                    <path id="Path_2454" data-name="Path 2454" d="M517.007,235.817a.181.181,0,1,1,.18-.181A.181.181,0,0,1,517.007,235.817Zm0-.283a.1.1,0,1,0,.1.1A.1.1,0,0,0,517.007,235.534Z" transform="translate(-516.826 -232.993)" fill="#0071bc"/>
                    <path id="Path_2455" data-name="Path 2455" d="M548.141,198.582a.181.181,0,1,1,.181-.181A.181.181,0,0,1,548.141,198.582Zm0-.283a.1.1,0,1,0,.1.1A.1.1,0,0,0,548.141,198.3Z" transform="translate(-545.901 -198.221)" fill="#0071bc"/>
                    <path id="Path_2456" data-name="Path 2456" d="M564.821,208.212a.181.181,0,1,1,.18-.181A.181.181,0,0,1,564.821,208.212Zm0-.283a.1.1,0,1,0,.1.1A.1.1,0,0,0,564.821,207.929Z" transform="translate(-561.477 -207.214)" fill="#0071bc"/>
                    <path id="Path_2457" data-name="Path 2457" d="M641.679,252.274a.181.181,0,1,1,.157-.09A.181.181,0,0,1,641.679,252.274Zm0-.284a.1.1,0,1,0,.051.014A.1.1,0,0,0,641.68,251.991Z" transform="translate(-633.252 -248.362)" fill="#0071bc"/>
                    <path id="Path_2458" data-name="Path 2458" d="M625,242.644a.181.181,0,0,1-.09-.024.18.18,0,0,1-.066-.247.181.181,0,1,1,.156.271Zm0-.284a.1.1,0,0,0-.089.051.1.1,0,1,0,.089-.051Z" transform="translate(-617.677 -239.369)" fill="#0071bc"/>
                    <path id="Path_2459" data-name="Path 2459" d="M641.679,288.224a.181.181,0,1,1,.156-.09A.181.181,0,0,1,641.679,288.224Zm0-.283a.1.1,0,1,0,.051.014A.1.1,0,0,0,641.679,287.941Z" transform="translate(-633.252 -281.934)" fill="#0071bc"/>
                    <path id="Path_2460" data-name="Path 2460" d="M625,297.855a.181.181,0,1,1,.156-.09A.18.18,0,0,1,625,297.855Zm0-.283a.1.1,0,1,0,.051.014A.1.1,0,0,0,625,297.572Z" transform="translate(-617.678 -290.928)" fill="#0071bc"/>
                    <path id="Path_2461" data-name="Path 2461" d="M548.373,342.491a.181.181,0,1,1,.174-.134.181.181,0,0,1-.174.134Zm0-.284a.1.1,0,1,0,.089.051A.1.1,0,0,0,548.373,342.208Z" transform="translate(-546.118 -332.611)" fill="#0071bc"/>
                    <path id="Path_2462" data-name="Path 2462" d="M565.053,332.861a.181.181,0,1,1,.09-.024A.181.181,0,0,1,565.053,332.861Zm0-.284a.1.1,0,0,0-.089.154.1.1,0,1,0,.089-.154Z" transform="translate(-561.695 -323.618)" fill="#0071bc"/>
                    <path id="Path_2463" data-name="Path 2463" d="M517.239,324.516a.181.181,0,1,1,.156-.271.181.181,0,0,1-.156.271Zm0-.283a.1.1,0,1,0,.089.051A.1.1,0,0,0,517.239,324.233Z" transform="translate(-517.043 -315.825)" fill="#0071bc"/>
                    <path id="Path_2464" data-name="Path 2464" d="M517.239,305.256a.181.181,0,1,1,.156-.271.181.181,0,0,1-.156.271Zm0-.284a.1.1,0,1,0,.089.051A.1.1,0,0,0,517.239,304.973Z" transform="translate(-517.043 -297.839)" fill="#0071bc"/>
                  </g>
                  <g id="Group_3529" data-name="Group 3529" transform="translate(1.934 2.976)">
                    <path id="Path_2465" data-name="Path 2465" d="M546.8,255.18a.181.181,0,1,1,.181-.181A.181.181,0,0,1,546.8,255.18Zm0-.284a.1.1,0,1,0,.1.1A.1.1,0,0,0,546.8,254.9Z" transform="translate(-546.58 -254.052)" fill="#0071bc"/>
                    <path id="Path_2466" data-name="Path 2466" d="M568.061,243.582a.181.181,0,1,1,.181-.181A.181.181,0,0,1,568.061,243.582Zm0-.283a.1.1,0,1,0,.1.1A.1.1,0,0,0,568.061,243.3Z" transform="translate(-566.437 -243.221)" fill="#0071bc"/>
                    <path id="Path_2467" data-name="Path 2467" d="M592.748,257.322a.181.181,0,1,1,.156-.09A.18.18,0,0,1,592.748,257.322Zm0-.284a.1.1,0,0,0-.089.052.1.1,0,0,0,.038.14.1.1,0,0,0,.151-.116.1.1,0,0,0-.048-.062A.1.1,0,0,0,592.748,257.039Z" transform="translate(-589.492 -256.052)" fill="#0071bc"/>
                    <path id="Path_2468" data-name="Path 2468" d="M592.75,282.974a.181.181,0,1,1,.157-.09A.182.182,0,0,1,592.75,282.974Zm0-.283a.1.1,0,0,0-.052.192.1.1,0,0,0,.051.014.1.1,0,1,0,0-.206Z" transform="translate(-589.494 -280.007)" fill="#0071bc"/>
                    <path id="Path_2469" data-name="Path 2469" d="M568.647,297.49a.181.181,0,0,1-.174-.227.181.181,0,1,1,.265.2A.182.182,0,0,1,568.647,297.49Zm0-.284a.1.1,0,1,0,.1.129.1.1,0,0,0-.01-.078A.1.1,0,0,0,568.647,297.207Z" transform="translate(-566.985 -293.563)" fill="#0071bc"/>
                    <path id="Path_2470" data-name="Path 2470" d="M546.25,284.766a.182.182,0,0,1-.156-.09.181.181,0,0,1,.066-.247.181.181,0,1,1,.09.337Zm0-.284a.1.1,0,0,0,0,.206.1.1,0,0,0,.051-.014.1.1,0,0,0-.052-.192Z" transform="translate(-546.07 -281.681)" fill="#0071bc"/>
                  </g>
                </g>
                <path id="Path_2471" data-name="Path 2471" d="M580.227,436.462l.769,1.331-.769,1.331h-1.537l-.769-1.331.769-1.331h1.537m.112-.194h-1.762l-.056.1-.769,1.331-.056.1.056.1.769,1.331.056.1h1.762l.056-.1.769-1.331.056-.1-.056-.1-.769-1.331-.056-.1Z" transform="translate(-571.636 -416.669)" fill="#0071bc"/>
                <g id="Group_3537" data-name="Group 3537" transform="translate(2.166 14.805)">
                  <g id="Group_3531" data-name="Group 3531" transform="translate(0 2.404)">
                    <path id="Path_2472" data-name="Path 2472" d="M520.452,400.3l.484.838-.484.838h-.967l-.483-.838.483-.838h.967m.09-.155H519.4l-.045.078-.484.838-.045.078.045.078.484.838.045.078h1.147l.045-.078.484-.838.045-.078-.045-.078-.484-.838-.045-.078Z" transform="translate(-518.822 -400.141)" fill="#0071bc"/>
                  </g>
                  <g id="Group_3532" data-name="Group 3532" transform="translate(4.212)">
                    <path id="Path_2473" data-name="Path 2473" d="M583.171,363.957h.967l.484.838-.484.838h-.967l-.484-.838.484-.838m-.09-.155-.045.078-.484.838-.045.078.045.078.484.838.045.078h1.147l.045-.078.484-.838.045-.078-.045-.078-.484-.838-.045-.078h-1.147Z" transform="translate(-582.508 -363.802)" fill="#0071bc"/>
                  </g>
                  <g id="Group_3533" data-name="Group 3533" transform="translate(9.296 2.886)">
                    <path id="Path_2474" data-name="Path 2474" d="M661,407.591l.484.838-.484.838h-.967l-.484-.838.484-.838H661m.09-.156h-1.147l-.045.078-.483.838-.045.078.045.078.483.838.045.078h1.147l.045-.078.484-.838.045-.078-.045-.078-.484-.838-.045-.078Z" transform="translate(-659.368 -407.435)" fill="#0071bc"/>
                  </g>
                  <g id="Group_3534" data-name="Group 3534" transform="translate(9.272 7.736)">
                    <path id="Path_2475" data-name="Path 2475" d="M660.626,480.913l.484.838-.484.838h-.967l-.484-.838.484-.838h.967m.09-.155h-1.147l-.045.078-.484.838-.045.078.045.078.484.838.045.078h1.147l.045-.078.484-.838.045-.078-.045-.078-.484-.838-.045-.078Z" transform="translate(-658.996 -480.758)" fill="#0071bc"/>
                  </g>
                  <g id="Group_3535" data-name="Group 3535" transform="translate(4.228 10.703)">
                    <path id="Path_2476" data-name="Path 2476" d="M584.37,525.765l.484.838-.484.838H583.4l-.483-.838.483-.838h.967m.09-.156h-1.147l-.045.078-.484.838-.045.078.045.078.484.838.045.078h1.147l.045-.078.484-.838.045-.078-.045-.078-.484-.838-.045-.078Z" transform="translate(-582.74 -525.609)" fill="#0071bc"/>
                  </g>
                  <g id="Group_3536" data-name="Group 3536" transform="translate(0.04 8.256)">
                    <path id="Path_2477" data-name="Path 2477" d="M521.057,488.782l.483.838-.483.838h-.967l-.484-.838.484-.838h.967m.09-.156H520l-.045.078-.484.838-.045.078.045.078.484.838.045.078h1.147l.045-.078.484-.838.045-.078-.045-.078-.484-.838-.045-.078Z" transform="translate(-519.426 -488.626)" fill="#0071bc"/>
                  </g>
                </g>
                <g id="Group_3538" data-name="Group 3538" transform="translate(4.332 16.327)">
                  <path id="Path_2478" data-name="Path 2478" d="M554.991,389.792h-.944l-.636-1.1.65-1.126a.038.038,0,0,0,.005-.014h.71a.049.049,0,1,0,0-.1h-.707l-.354-.613a.049.049,0,0,0-.084.049l.355.615a.047.047,0,0,0-.01.012l-.65,1.126h-1.3l-.015,0-.355-.615a.049.049,0,0,0-.084.049l.354.613-.354.613a.049.049,0,1,0,.084.049l.355-.615.015,0h1.3l.636,1.1-.472.817a.049.049,0,0,0,.084.049l.472-.817h.944a.049.049,0,1,0,0-.1Z" transform="translate(-551.566 -386.815)" fill="#0071bc"/>
                  <path id="Path_2479" data-name="Path 2479" d="M630.594,433.893h-.711a.046.046,0,0,0-.005-.014l-.65-1.126.65-1.126a.043.043,0,0,0,.005-.014h.711a.049.049,0,0,0,0-.1h-.708l-.354-.613a.049.049,0,1,0-.084.049l.355.615a.05.05,0,0,0-.01.012l-.65,1.126h-1.273l-.472-.817a.049.049,0,1,0-.084.049l.472.817-.472.817a.049.049,0,1,0,.084.049l.472-.817h1.273l.65,1.126a.047.047,0,0,0,.01.012l-.355.615a.048.048,0,0,0,.018.066.047.047,0,0,0,.024.007.049.049,0,0,0,.042-.024l.354-.613h.708a.049.049,0,0,0,0-.1Z" transform="translate(-622.299 -427.964)" fill="#0071bc"/>
                  <path id="Path_2480" data-name="Path 2480" d="M555.223,473.842h-.944l-.472-.817a.049.049,0,0,0-.084.049l.472.817-.636,1.1h-1.3l-.015,0-.355-.615a.049.049,0,0,0-.084.049l.354.613-.354.613a.049.049,0,0,0,.084.049l.355-.615.015,0h1.3l.65,1.126a.047.047,0,0,0,.01.012l-.355.615a.049.049,0,1,0,.084.049l.354-.613h.708a.049.049,0,1,0,0-.1h-.71a.052.052,0,0,0-.005-.014l-.65-1.126.636-1.1h.944a.049.049,0,1,0,0-.1Z" transform="translate(-551.782 -467.3)" fill="#0071bc"/>
                </g>
                <g id="Group_3539" data-name="Group 3539" transform="translate(5.786 17.867)">
                  <path id="Path_2481" data-name="Path 2481" d="M573.882,410.757a.335.335,0,1,1,.335-.335A.336.336,0,0,1,573.882,410.757Zm0-.573a.238.238,0,1,0,.238.238A.238.238,0,0,0,573.882,410.183Z" transform="translate(-573.547 -410.086)" fill="#0071bc"/>
                  <path id="Path_2482" data-name="Path 2482" d="M650.744,454.82a.335.335,0,1,1,.291-.168A.335.335,0,0,1,650.744,454.82Zm0-.574a.238.238,0,1,0,.23.177.237.237,0,0,0-.111-.145A.239.239,0,0,0,650.744,454.246Z" transform="translate(-645.325 -451.235)" fill="#0071bc"/>
                  <path id="Path_2483" data-name="Path 2483" d="M574.116,499.456a.335.335,0,1,1,.29-.5.336.336,0,0,1-.29.5Zm0-.574a.238.238,0,1,0,.206.119A.239.239,0,0,0,574.115,498.882Z" transform="translate(-573.765 -492.918)" fill="#0071bc"/>
                </g>
                <g id="Group_3542" data-name="Group 3542" transform="translate(4.2 16.196)">
                  <g id="Group_3540" data-name="Group 3540">
                    <path id="Path_2484" data-name="Path 2484" d="M549.751,403.156a.181.181,0,1,1,.181-.181A.181.181,0,0,1,549.751,403.156Zm0-.283a.1.1,0,1,0,.1.1A.1.1,0,0,0,549.751,402.873Z" transform="translate(-549.57 -401.606)" fill="#0071bc"/>
                    <path id="Path_2485" data-name="Path 2485" d="M549.751,422.416a.181.181,0,1,1,.181-.181A.181.181,0,0,1,549.751,422.416Zm0-.283a.1.1,0,1,0,.1.1A.1.1,0,0,0,549.751,422.133Z" transform="translate(-549.57 -419.592)" fill="#0071bc"/>
                    <path id="Path_2486" data-name="Path 2486" d="M580.884,385.181a.181.181,0,1,1,.181-.181A.181.181,0,0,1,580.884,385.181Zm0-.284a.1.1,0,1,0,.1.1A.1.1,0,0,0,580.884,384.9Z" transform="translate(-578.645 -384.82)" fill="#0071bc"/>
                    <path id="Path_2487" data-name="Path 2487" d="M597.565,394.811a.181.181,0,1,1,.181-.181A.181.181,0,0,1,597.565,394.811Zm0-.284a.1.1,0,1,0,.1.1A.1.1,0,0,0,597.565,394.528Z" transform="translate(-594.221 -393.813)" fill="#0071bc"/>
                    <path id="Path_2488" data-name="Path 2488" d="M674.423,438.873a.18.18,0,0,1-.174-.134.178.178,0,0,1,.018-.137.18.18,0,0,1,.247-.066.181.181,0,0,1,.066.247A.181.181,0,0,1,674.423,438.873Zm0-.283a.1.1,0,0,0-.089.051.1.1,0,0,0,.038.141.1.1,0,0,0,.141-.038.1.1,0,0,0-.089-.154Z" transform="translate(-665.996 -434.961)" fill="#0071bc"/>
                    <path id="Path_2489" data-name="Path 2489" d="M657.744,429.243a.181.181,0,1,1,.157-.09A.181.181,0,0,1,657.744,429.243Zm0-.283a.1.1,0,0,0-.089.051.1.1,0,0,0,.089.154.1.1,0,1,0,0-.206Z" transform="translate(-650.42 -425.968)" fill="#0071bc"/>
                    <path id="Path_2490" data-name="Path 2490" d="M674.423,474.824a.18.18,0,0,1-.174-.134.178.178,0,0,1,.018-.137.181.181,0,1,1,.156.271Zm0-.284a.1.1,0,0,0-.089.052.1.1,0,0,0,.038.14.1.1,0,1,0,.1-.178A.1.1,0,0,0,674.424,474.541Z" transform="translate(-665.996 -468.534)" fill="#0071bc"/>
                    <path id="Path_2491" data-name="Path 2491" d="M657.745,484.454a.181.181,0,1,1,.157-.09A.18.18,0,0,1,657.745,484.454Zm0-.284a.1.1,0,1,0,.051.014A.1.1,0,0,0,657.746,484.171Z" transform="translate(-650.422 -477.527)" fill="#0071bc"/>
                    <path id="Path_2492" data-name="Path 2492" d="M581.117,529.091a.181.181,0,1,1,.156-.271.181.181,0,0,1-.156.271Zm0-.284a.1.1,0,0,0-.051.014.1.1,0,1,0,.1.178.1.1,0,0,0,.038-.141A.1.1,0,0,0,581.117,528.808Z" transform="translate(-578.862 -519.211)" fill="#0071bc"/>
                    <path id="Path_2493" data-name="Path 2493" d="M597.8,519.461a.18.18,0,1,1,.09-.024A.181.181,0,0,1,597.8,519.461Zm0-.283a.1.1,0,0,0-.051.014.1.1,0,1,0,.051-.014Z" transform="translate(-594.438 -510.218)" fill="#0071bc"/>
                    <path id="Path_2494" data-name="Path 2494" d="M549.983,511.115a.181.181,0,1,1,.156-.271.181.181,0,0,1-.156.271Zm0-.284a.1.1,0,1,0,.089.051A.1.1,0,0,0,549.983,510.832Z" transform="translate(-549.787 -502.424)" fill="#0071bc"/>
                    <path id="Path_2495" data-name="Path 2495" d="M549.983,491.855a.181.181,0,1,1,.174-.134.181.181,0,0,1-.174.134Zm0-.284a.1.1,0,1,0,.089.051A.1.1,0,0,0,549.983,491.572Z" transform="translate(-549.787 -484.438)" fill="#0071bc"/>
                  </g>
                  <g id="Group_3541" data-name="Group 3541" transform="translate(1.934 2.976)">
                    <path id="Path_2496" data-name="Path 2496" d="M579.541,441.779a.181.181,0,1,1,.181-.181A.181.181,0,0,1,579.541,441.779Zm0-.283a.1.1,0,1,0,.1.1A.1.1,0,0,0,579.541,441.5Z" transform="translate(-579.324 -440.651)" fill="#0071bc"/>
                    <path id="Path_2497" data-name="Path 2497" d="M600.8,430.181a.181.181,0,1,1,.181-.181A.181.181,0,0,1,600.8,430.181Zm0-.283a.1.1,0,1,0,.1.1A.1.1,0,0,0,600.8,429.9Z" transform="translate(-599.181 -429.82)" fill="#0071bc"/>
                    <path id="Path_2498" data-name="Path 2498" d="M625.492,443.921a.18.18,0,1,1,.157-.09A.18.18,0,0,1,625.492,443.921Zm0-.284a.1.1,0,0,0-.089.051.1.1,0,0,0,.038.141.1.1,0,0,0,.151-.116.1.1,0,0,0-.1-.076Z" transform="translate(-622.236 -442.651)" fill="#0071bc"/>
                    <path id="Path_2499" data-name="Path 2499" d="M625.494,469.573a.181.181,0,1,1,.157-.09A.181.181,0,0,1,625.494,469.573Zm0-.283a.1.1,0,1,0,.051.014A.1.1,0,0,0,625.494,469.29Z" transform="translate(-622.238 -466.606)" fill="#0071bc"/>
                    <path id="Path_2500" data-name="Path 2500" d="M601.391,484.09a.181.181,0,0,1-.175-.227.181.181,0,0,1,.174-.134.181.181,0,0,1,0,.361Zm0-.284a.1.1,0,1,0,.1.129.1.1,0,0,0-.01-.078A.1.1,0,0,0,601.39,483.807Z" transform="translate(-599.728 -480.163)" fill="#0071bc"/>
                    <path id="Path_2501" data-name="Path 2501" d="M578.994,471.365a.181.181,0,0,1-.156-.09.181.181,0,0,1,.066-.247.181.181,0,0,1,.247.066.181.181,0,0,1-.066.247A.181.181,0,0,1,578.994,471.365Zm0-.284a.1.1,0,0,0-.051.014.1.1,0,1,0,.051-.014Z" transform="translate(-578.814 -468.28)" fill="#0071bc"/>
                  </g>
                </g>
                <path id="Path_2502" data-name="Path 2502" d="M633.163,604.855l.768,1.331-.768,1.331h-1.538l-.769-1.331.769-1.331h1.538m.112-.194h-1.762l-.056.1-.769,1.331-.056.1.056.1.769,1.331.056.1h1.762l.056-.1.769-1.331.056-.1-.056-.1-.769-1.331-.056-.1Z" transform="translate(-621.071 -573.924)" fill="#0071bc"/>
                <g id="Group_3549" data-name="Group 3549" transform="translate(5.667 25.943)">
                  <g id="Group_3543" data-name="Group 3543" transform="translate(0 2.404)">
                    <path id="Path_2503" data-name="Path 2503" d="M573.387,568.69l.484.838-.484.838h-.967l-.484-.838.484-.838h.967m.09-.156h-1.147l-.045.078-.483.838-.045.078.045.078.483.838.045.078h1.147l.045-.078.484-.838.045-.078-.045-.078-.484-.838-.045-.078Z" transform="translate(-571.757 -568.534)" fill="#0071bc"/>
                  </g>
                  <g id="Group_3544" data-name="Group 3544" transform="translate(4.212)">
                    <path id="Path_2504" data-name="Path 2504" d="M636.106,532.351h.967l.484.838-.484.838h-.967l-.483-.838.483-.838m-.09-.156-.045.078-.483.838-.045.078.045.078.483.838.045.078h1.147l.045-.078.484-.838.045-.078-.045-.078-.484-.838-.045-.078h-1.147Z" transform="translate(-635.443 -532.195)" fill="#0071bc"/>
                  </g>
                  <g id="Group_3545" data-name="Group 3545" transform="translate(9.296 2.886)">
                    <path id="Path_2505" data-name="Path 2505" d="M713.934,575.983l.484.838-.484.838h-.967l-.484-.838.484-.838h.967m.09-.156h-1.147l-.045.078-.484.838-.045.078.045.078.484.837.045.078h1.147l.045-.078.484-.837.045-.078-.045-.078-.484-.838-.045-.078Z" transform="translate(-712.304 -575.828)" fill="#0071bc"/>
                  </g>
                  <g id="Group_3546" data-name="Group 3546" transform="translate(9.272 7.736)">
                    <path id="Path_2506" data-name="Path 2506" d="M713.562,649.307l.484.838-.484.838h-.967l-.484-.838.484-.838h.967m.09-.156H712.5l-.045.078-.484.838-.045.078.045.078.484.838.045.078h1.147l.045-.078.484-.838.045-.078-.045-.078-.484-.838-.045-.078Z" transform="translate(-711.931 -649.151)" fill="#0071bc"/>
                  </g>
                  <g id="Group_3547" data-name="Group 3547" transform="translate(4.228 10.703)">
                    <path id="Path_2507" data-name="Path 2507" d="M637.306,694.158l.484.838-.484.838h-.967l-.484-.838.484-.838h.967m.09-.155h-1.147l-.045.078-.484.838-.045.078.045.078.484.837.045.078H637.4l.045-.078.484-.837.045-.078-.045-.078-.484-.838L637.4,694Z" transform="translate(-635.676 -694.003)" fill="#0071bc"/>
                  </g>
                  <g id="Group_3548" data-name="Group 3548" transform="translate(0.04 8.256)">
                    <path id="Path_2508" data-name="Path 2508" d="M573.992,657.174l.484.838-.484.838h-.967l-.484-.838.484-.838h.967m.09-.155h-1.147l-.045.078-.484.837-.045.078.045.078.484.838.045.078h1.147l.045-.078.484-.838.045-.078-.045-.078-.484-.837-.045-.078Z" transform="translate(-572.362 -657.019)" fill="#0071bc"/>
                  </g>
                </g>
                <g id="Group_3550" data-name="Group 3550" transform="translate(7.833 27.466)">
                  <path id="Path_2509" data-name="Path 2509" d="M607.927,558.185h-.944l-.636-1.1.65-1.126a.049.049,0,0,0,.005-.014h.71a.049.049,0,0,0,0-.1h-.708l-.354-.613a.049.049,0,1,0-.084.048l.355.615a.045.045,0,0,0-.009.011l-.65,1.126h-1.3l-.015,0-.355-.615a.049.049,0,0,0-.084.049l.354.612-.354.613a.049.049,0,0,0,.018.066.047.047,0,0,0,.024.007.049.049,0,0,0,.042-.024l.355-.615.015,0h1.3l.636,1.1-.472.817a.049.049,0,0,0,.018.067.048.048,0,0,0,.024.006.049.049,0,0,0,.042-.024l.472-.817h.944a.049.049,0,0,0,0-.1Z" transform="translate(-604.501 -555.208)" fill="#0071bc"/>
                  <path id="Path_2510" data-name="Path 2510" d="M683.53,602.286h-.71a.048.048,0,0,0-.005-.014l-.65-1.126.65-1.126a.047.047,0,0,0,.005-.014h.71a.049.049,0,1,0,0-.1h-.708l-.354-.612a.049.049,0,1,0-.084.048l.355.615a.045.045,0,0,0-.009.011l-.65,1.126h-1.273l-.472-.817a.049.049,0,0,0-.084.049l.472.817-.472.817a.049.049,0,0,0,.042.073.049.049,0,0,0,.042-.024l.472-.818h1.273l.65,1.126a.047.047,0,0,0,.009.012l-.355.615a.049.049,0,0,0,.018.066.049.049,0,0,0,.025.007.049.049,0,0,0,.042-.024l.354-.613h.708a.049.049,0,1,0,0-.1Z" transform="translate(-675.234 -596.357)" fill="#0071bc"/>
                  <path id="Path_2511" data-name="Path 2511" d="M608.159,642.235h-.944l-.472-.817a.049.049,0,1,0-.084.049l.472.817-.636,1.1h-1.3l-.015,0-.355-.615a.049.049,0,1,0-.084.048l.354.613-.354.613a.049.049,0,0,0,.018.066.05.05,0,0,0,.024.006.049.049,0,0,0,.042-.024l.355-.615.015,0h1.3l.65,1.126a.054.054,0,0,0,.01.012l-.355.615a.049.049,0,0,0,.018.067.048.048,0,0,0,.024.006.049.049,0,0,0,.042-.024l.354-.613h.707a.049.049,0,1,0,0-.1h-.711a.048.048,0,0,0,0-.014l-.65-1.126.636-1.1h.944a.049.049,0,1,0,0-.1Z" transform="translate(-604.718 -635.693)" fill="#0071bc"/>
                </g>
                <g id="Group_3551" data-name="Group 3551" transform="translate(9.287 29.005)">
                  <path id="Path_2512" data-name="Path 2512" d="M626.818,579.15a.335.335,0,1,1,.335-.335A.336.336,0,0,1,626.818,579.15Zm0-.573a.238.238,0,1,0,.238.238A.238.238,0,0,0,626.818,578.576Z" transform="translate(-626.483 -578.479)" fill="#0071bc"/>
                  <path id="Path_2513" data-name="Path 2513" d="M703.679,623.213a.335.335,0,1,1,.291-.168A.334.334,0,0,1,703.679,623.213Zm0-.573a.238.238,0,1,0,.206.357.238.238,0,0,0-.206-.357Z" transform="translate(-698.26 -619.627)" fill="#0071bc"/>
                  <path id="Path_2514" data-name="Path 2514" d="M627.051,667.85a.335.335,0,1,1,.29-.5.335.335,0,0,1-.29.5Zm0-.573a.238.238,0,1,0,.206.119A.237.237,0,0,0,627.051,667.276Z" transform="translate(-626.701 -661.312)" fill="#0071bc"/>
                </g>
                <g id="Group_3554" data-name="Group 3554" transform="translate(7.701 27.334)">
                  <g id="Group_3552" data-name="Group 3552">
                    <path id="Path_2515" data-name="Path 2515" d="M602.686,571.549a.181.181,0,1,1,.181-.181A.181.181,0,0,1,602.686,571.549Zm0-.283a.1.1,0,1,0,.1.1A.1.1,0,0,0,602.686,571.266Z" transform="translate(-602.506 -569.999)" fill="#0071bc"/>
                    <path id="Path_2516" data-name="Path 2516" d="M602.686,590.809a.181.181,0,1,1,.181-.181A.181.181,0,0,1,602.686,590.809Zm0-.283a.1.1,0,1,0,.1.1A.1.1,0,0,0,602.686,590.526Z" transform="translate(-602.505 -587.985)" fill="#0071bc"/>
                    <path id="Path_2517" data-name="Path 2517" d="M633.82,553.574a.181.181,0,1,1,.181-.181A.181.181,0,0,1,633.82,553.574Zm0-.284a.1.1,0,1,0,.1.1A.1.1,0,0,0,633.82,553.291Z" transform="translate(-631.581 -553.213)" fill="#0071bc"/>
                    <path id="Path_2518" data-name="Path 2518" d="M650.5,563.2a.181.181,0,1,1,.181-.181A.181.181,0,0,1,650.5,563.2Zm0-.284a.1.1,0,1,0,.1.1A.1.1,0,0,0,650.5,562.921Z" transform="translate(-647.158 -562.206)" fill="#0071bc"/>
                    <path id="Path_2519" data-name="Path 2519" d="M727.359,607.266a.181.181,0,1,1,.156-.09A.181.181,0,0,1,727.359,607.266Zm0-.283a.1.1,0,0,0-.051.192.1.1,0,0,0,.051.014.1.1,0,0,0,.089-.052.1.1,0,0,0-.089-.154Z" transform="translate(-718.932 -603.354)" fill="#0071bc"/>
                    <path id="Path_2520" data-name="Path 2520" d="M710.679,597.636a.181.181,0,0,1-.174-.134.179.179,0,0,1,.018-.137.181.181,0,1,1,.156.271Zm0-.284a.1.1,0,1,0,.051.014A.1.1,0,0,0,710.68,597.353Z" transform="translate(-703.356 -594.361)" fill="#0071bc"/>
                    <path id="Path_2521" data-name="Path 2521" d="M727.359,643.217a.181.181,0,0,1-.156-.271.181.181,0,1,1,.156.271Zm0-.283a.1.1,0,0,0-.1.13.1.1,0,0,0,.048.062.1.1,0,1,0,.052-.192Z" transform="translate(-718.932 -636.927)" fill="#0071bc"/>
                    <path id="Path_2522" data-name="Path 2522" d="M710.681,652.847a.181.181,0,1,1,.157-.09A.182.182,0,0,1,710.681,652.847Zm0-.283a.1.1,0,0,0-.052.192.1.1,0,0,0,.1-.178A.1.1,0,0,0,710.681,652.564Z" transform="translate(-703.357 -645.92)" fill="#0071bc"/>
                    <path id="Path_2523" data-name="Path 2523" d="M634.053,697.484a.181.181,0,0,1-.09-.337.178.178,0,0,1,.09-.024.181.181,0,1,1,0,.361Zm0-.284a.1.1,0,1,0,0,.206.1.1,0,0,0,.089-.154A.1.1,0,0,0,634.053,697.2Z" transform="translate(-631.798 -687.605)" fill="#0071bc"/>
                    <path id="Path_2524" data-name="Path 2524" d="M650.733,687.854a.181.181,0,1,1,.09-.024A.181.181,0,0,1,650.733,687.854Zm0-.284a.1.1,0,0,0-.051.014.1.1,0,0,0,.052.192.1.1,0,0,0,.051-.014.1.1,0,0,0-.052-.192Z" transform="translate(-647.374 -678.611)" fill="#0071bc"/>
                    <path id="Path_2525" data-name="Path 2525" d="M602.918,679.508a.181.181,0,1,1,.09-.024A.18.18,0,0,1,602.918,679.508Zm0-.284a.1.1,0,1,0,.089.052A.1.1,0,0,0,602.918,679.225Z" transform="translate(-602.722 -670.817)" fill="#0071bc"/>
                    <path id="Path_2526" data-name="Path 2526" d="M602.918,660.248a.181.181,0,1,1,.09-.024A.181.181,0,0,1,602.918,660.248Zm0-.284a.1.1,0,0,0-.051.014.1.1,0,1,0,.051-.014Z" transform="translate(-602.722 -652.831)" fill="#0071bc"/>
                  </g>
                  <g id="Group_3553" data-name="Group 3553" transform="translate(1.934 2.977)">
                    <path id="Path_2527" data-name="Path 2527" d="M632.477,610.172a.181.181,0,1,1,.181-.18A.181.181,0,0,1,632.477,610.172Zm0-.283a.1.1,0,1,0,.1.1A.1.1,0,0,0,632.477,609.889Z" transform="translate(-632.26 -609.044)" fill="#0071bc"/>
                    <path id="Path_2528" data-name="Path 2528" d="M653.74,598.575a.181.181,0,1,1,.181-.18A.181.181,0,0,1,653.74,598.575Zm0-.283a.1.1,0,1,0,.1.1A.1.1,0,0,0,653.74,598.292Z" transform="translate(-652.117 -598.214)" fill="#0071bc"/>
                    <path id="Path_2529" data-name="Path 2529" d="M678.428,612.314a.181.181,0,0,1-.174-.134.179.179,0,0,1,.018-.137.18.18,0,0,1,.247-.066.18.18,0,0,1,.066.247A.182.182,0,0,1,678.428,612.314Zm0-.283a.1.1,0,0,0-.089.051.1.1,0,0,0,.038.141.1.1,0,0,0,.141-.038.1.1,0,0,0-.038-.141A.1.1,0,0,0,678.429,612.031Z" transform="translate(-675.172 -611.044)" fill="#0071bc"/>
                    <path id="Path_2530" data-name="Path 2530" d="M678.429,637.966a.181.181,0,1,1,.157-.09A.181.181,0,0,1,678.429,637.966Zm0-.283a.1.1,0,0,0-.052.192.1.1,0,0,0,.051.014.1.1,0,0,0,0-.206Z" transform="translate(-675.173 -634.999)" fill="#0071bc"/>
                    <path id="Path_2531" data-name="Path 2531" d="M654.326,652.483a.181.181,0,1,1,.156-.271.181.181,0,0,1-.156.271Zm0-.284a.1.1,0,0,0-.051.014.1.1,0,0,0-.038.141.1.1,0,0,0,.14.038.1.1,0,0,0,.038-.141A.1.1,0,0,0,654.326,652.2Z" transform="translate(-652.664 -648.556)" fill="#0071bc"/>
                    <path id="Path_2532" data-name="Path 2532" d="M631.93,639.758a.181.181,0,0,1-.156-.09.181.181,0,0,1,.066-.247.18.18,0,0,1,.247.066.181.181,0,0,1-.156.271Zm0-.284a.1.1,0,0,0-.051.014.1.1,0,0,0-.038.141.1.1,0,0,0,.089.051.1.1,0,0,0,.051-.014.1.1,0,0,0-.052-.192Z" transform="translate(-631.749 -636.673)" fill="#0071bc"/>
                  </g>
                </g>
                <path id="Path_2533" data-name="Path 2533" d="M746.635,472.514l.769,1.331-.769,1.331H745.1l-.768-1.331.768-1.331h1.537m.112-.194h-1.762l-.056.1-.769,1.331-.056.1.056.1.769,1.331.056.1h1.762l.056-.1.769-1.331.056-.1-.056-.1-.769-1.331-.056-.1Z" transform="translate(-727.038 -450.337)" fill="#0071bc"/>
                <g id="Group_3561" data-name="Group 3561" transform="translate(13.173 17.19)">
                  <g id="Group_3555" data-name="Group 3555" transform="translate(0 2.404)">
                    <path id="Path_2534" data-name="Path 2534" d="M686.86,436.348l.483.838-.483.838h-.967l-.484-.838.484-.838h.967m.09-.156H685.8l-.045.078-.484.837-.045.078.045.078.484.838.045.078h1.147L687,438.1l.484-.838.045-.078-.045-.078L687,436.27l-.045-.078Z" transform="translate(-685.23 -436.192)" fill="#0071bc"/>
                  </g>
                  <g id="Group_3556" data-name="Group 3556" transform="translate(4.212)">
                    <path id="Path_2535" data-name="Path 2535" d="M749.579,400.009h.967l.483.838-.484.838h-.967l-.483-.838.483-.838m-.09-.155-.045.078-.483.838-.045.078.045.078.483.838.045.078h1.147l.045-.078.484-.838.045-.078-.045-.078-.484-.838-.045-.078h-1.147Z" transform="translate(-748.916 -399.854)" fill="#0071bc"/>
                  </g>
                  <g id="Group_3557" data-name="Group 3557" transform="translate(9.296 2.886)">
                    <path id="Path_2536" data-name="Path 2536" d="M827.406,443.642l.484.838-.484.838h-.967l-.483-.838.483-.838h.967m.09-.155h-1.147l-.045.078-.484.838-.045.078.045.078.484.838.045.078H827.5l.045-.078.484-.838.045-.078-.045-.078-.484-.838-.045-.078Z" transform="translate(-825.776 -443.486)" fill="#0071bc"/>
                  </g>
                  <g id="Group_3558" data-name="Group 3558" transform="translate(9.272 7.736)">
                    <path id="Path_2537" data-name="Path 2537" d="M827.034,516.964l.484.838-.484.838h-.967l-.484-.838.484-.838h.967m.09-.156h-1.147l-.045.078-.483.838-.045.078.045.078.483.838.045.078h1.147l.045-.078.484-.838.045-.078-.045-.078-.484-.838-.045-.078Z" transform="translate(-825.404 -516.809)" fill="#0071bc"/>
                  </g>
                  <g id="Group_3559" data-name="Group 3559" transform="translate(4.228 10.703)">
                    <path id="Path_2538" data-name="Path 2538" d="M750.778,561.817l.484.838-.484.838h-.967l-.484-.838.484-.838h.967m.09-.155h-1.147l-.045.078-.484.838-.045.078.045.078.484.838.045.078h1.147l.045-.078.484-.838.045-.078-.045-.078-.484-.838-.045-.078Z" transform="translate(-749.148 -561.661)" fill="#0071bc"/>
                  </g>
                  <g id="Group_3560" data-name="Group 3560" transform="translate(0.04 8.256)">
                    <path id="Path_2539" data-name="Path 2539" d="M687.465,524.833l.484.838-.484.838H686.5l-.484-.838.484-.838h.967m.09-.156h-1.147l-.045.078-.484.838-.045.078.045.078.484.838.045.078h1.147l.045-.078.484-.838.045-.078-.045-.078-.483-.838-.045-.078Z" transform="translate(-685.835 -524.677)" fill="#0071bc"/>
                  </g>
                </g>
                <g id="Group_3562" data-name="Group 3562" transform="translate(15.339 18.712)">
                  <path id="Path_2540" data-name="Path 2540" d="M721.4,425.844h-.944l-.636-1.1.65-1.126a.049.049,0,0,0,.005-.014h.71a.049.049,0,0,0,0-.1h-.707l-.354-.613a.049.049,0,0,0-.084.049l.355.615a.049.049,0,0,0-.01.011l-.65,1.126h-1.3l-.015,0-.355-.615a.049.049,0,0,0-.084.049l.354.613-.354.613a.048.048,0,0,0,.018.066.047.047,0,0,0,.024.007.049.049,0,0,0,.042-.024l.355-.615.015,0h1.3l.636,1.1-.472.817a.048.048,0,0,0,.018.066.047.047,0,0,0,.024.006.048.048,0,0,0,.042-.024l.472-.817h.944a.049.049,0,1,0,0-.1Z" transform="translate(-717.974 -422.867)" fill="#0071bc"/>
                  <path id="Path_2541" data-name="Path 2541" d="M797,469.945h-.71a.045.045,0,0,0-.005-.014l-.65-1.126.65-1.126a.042.042,0,0,0,.005-.014H797a.049.049,0,1,0,0-.1h-.708l-.354-.613a.049.049,0,0,0-.084.049l.355.615a.044.044,0,0,0-.01.011l-.65,1.126H794.28l-.472-.817a.049.049,0,1,0-.084.049l.472.817-.472.817a.048.048,0,0,0,.018.066.047.047,0,0,0,.024.007.048.048,0,0,0,.042-.024l.472-.817h1.272l.65,1.126a.045.045,0,0,0,.01.012l-.355.615a.049.049,0,0,0,.084.049l.354-.613H797a.049.049,0,0,0,0-.1Z" transform="translate(-788.707 -464.015)" fill="#0071bc"/>
                  <path id="Path_2542" data-name="Path 2542" d="M721.632,509.894h-.944l-.472-.817a.049.049,0,1,0-.084.049l.472.817-.636,1.1h-1.3l-.015,0-.355-.615a.049.049,0,0,0-.084.049l.354.613-.354.613a.049.049,0,0,0,.018.066.047.047,0,0,0,.024.007.048.048,0,0,0,.042-.024l.355-.615.015,0h1.3l.65,1.126a.045.045,0,0,0,.01.012l-.355.615a.049.049,0,1,0,.084.049l.354-.613h.707a.049.049,0,1,0,0-.1h-.71a.051.051,0,0,0-.005-.014l-.65-1.126.636-1.1h.944a.049.049,0,1,0,0-.1Z" transform="translate(-718.191 -503.351)" fill="#0071bc"/>
                </g>
                <g id="Group_3563" data-name="Group 3563" transform="translate(16.792 20.251)">
                  <path id="Path_2543" data-name="Path 2543" d="M740.291,446.809a.335.335,0,1,1,.335-.335A.336.336,0,0,1,740.291,446.809Zm0-.573a.238.238,0,1,0,.238.238A.238.238,0,0,0,740.291,446.235Z" transform="translate(-739.956 -446.138)" fill="#0071bc"/>
                  <path id="Path_2544" data-name="Path 2544" d="M817.152,490.871a.335.335,0,1,1,.291-.168A.335.335,0,0,1,817.152,490.871Zm0-.574a.238.238,0,1,0,.206.357.238.238,0,0,0-.087-.325A.239.239,0,0,0,817.153,490.3Z" transform="translate(-811.733 -487.286)" fill="#0071bc"/>
                  <path id="Path_2545" data-name="Path 2545" d="M740.525,535.508a.335.335,0,1,1,.29-.5.335.335,0,0,1-.29.5Zm0-.573a.238.238,0,1,0,.207.119A.238.238,0,0,0,740.524,534.934Z" transform="translate(-740.174 -528.97)" fill="#0071bc"/>
                </g>
                <g id="Group_3566" data-name="Group 3566" transform="translate(15.206 18.58)">
                  <g id="Group_3564" data-name="Group 3564">
                    <path id="Path_2546" data-name="Path 2546" d="M716.159,439.207a.181.181,0,1,1,.181-.181A.181.181,0,0,1,716.159,439.207Zm0-.283a.1.1,0,1,0,.1.1A.1.1,0,0,0,716.159,438.924Z" transform="translate(-715.978 -437.657)" fill="#0071bc"/>
                    <path id="Path_2547" data-name="Path 2547" d="M716.159,458.467a.181.181,0,1,1,.181-.181A.181.181,0,0,1,716.159,458.467Zm0-.283a.1.1,0,1,0,.1.1A.1.1,0,0,0,716.159,458.184Z" transform="translate(-715.978 -455.643)" fill="#0071bc"/>
                    <path id="Path_2548" data-name="Path 2548" d="M747.294,421.232a.181.181,0,1,1,.181-.181A.181.181,0,0,1,747.294,421.232Zm0-.283a.1.1,0,1,0,.1.1A.1.1,0,0,0,747.294,420.949Z" transform="translate(-745.054 -420.871)" fill="#0071bc"/>
                    <path id="Path_2549" data-name="Path 2549" d="M763.973,430.862a.181.181,0,1,1,.181-.181A.181.181,0,0,1,763.973,430.862Zm0-.283a.1.1,0,1,0,.1.1A.1.1,0,0,0,763.973,430.579Z" transform="translate(-760.63 -429.864)" fill="#0071bc"/>
                    <path id="Path_2550" data-name="Path 2550" d="M840.832,474.925a.182.182,0,0,1-.09-.024.18.18,0,0,1-.066-.247.181.181,0,1,1,.156.271Zm0-.284a.1.1,0,0,0-.051.192.1.1,0,0,0,.051.014.1.1,0,0,0,.089-.051.1.1,0,0,0-.038-.141A.1.1,0,0,0,840.833,474.642Z" transform="translate(-832.405 -471.013)" fill="#0071bc"/>
                    <path id="Path_2551" data-name="Path 2551" d="M824.152,465.3a.181.181,0,1,1,.157-.09A.18.18,0,0,1,824.152,465.3Zm0-.284a.1.1,0,0,0-.089.051.1.1,0,0,0-.01.078.1.1,0,0,0,.048.063.1.1,0,1,0,.052-.192Z" transform="translate(-816.829 -462.02)" fill="#0071bc"/>
                    <path id="Path_2552" data-name="Path 2552" d="M840.831,510.875a.181.181,0,1,1,.157-.09A.18.18,0,0,1,840.831,510.875Zm0-.284a.1.1,0,1,0,.051.014A.1.1,0,0,0,840.832,510.592Z" transform="translate(-832.405 -504.585)" fill="#0071bc"/>
                    <path id="Path_2553" data-name="Path 2553" d="M824.153,520.505a.181.181,0,0,1,0-.361.179.179,0,0,1,.09.024.181.181,0,0,1-.09.337Zm0-.284a.1.1,0,0,0-.051.192.1.1,0,0,0,.051.014.1.1,0,1,0,0-.206Z" transform="translate(-816.83 -513.578)" fill="#0071bc"/>
                    <path id="Path_2554" data-name="Path 2554" d="M747.526,565.142a.181.181,0,1,1,.156-.271.178.178,0,0,1,.018.137.18.18,0,0,1-.084.11A.184.184,0,0,1,747.526,565.142Zm0-.283a.1.1,0,1,0,.1.13.1.1,0,0,0-.1-.13Z" transform="translate(-745.27 -555.262)" fill="#0071bc"/>
                    <path id="Path_2555" data-name="Path 2555" d="M764.206,555.512a.181.181,0,1,1,.09-.024A.181.181,0,0,1,764.206,555.512Zm0-.283a.1.1,0,1,0,0,.206.1.1,0,0,0,.051-.014.1.1,0,0,0-.051-.192Z" transform="translate(-760.847 -546.269)" fill="#0071bc"/>
                    <path id="Path_2556" data-name="Path 2556" d="M716.392,547.167a.181.181,0,1,1,.156-.271.181.181,0,0,1-.156.271Zm0-.283a.1.1,0,1,0,.089.051A.1.1,0,0,0,716.391,546.884Z" transform="translate(-716.196 -538.476)" fill="#0071bc"/>
                    <path id="Path_2557" data-name="Path 2557" d="M716.392,527.907a.181.181,0,0,1-.09-.337.179.179,0,0,1,.09-.024.181.181,0,0,1,.156.09.181.181,0,0,1-.066.247A.181.181,0,0,1,716.392,527.907Zm0-.284a.1.1,0,1,0,.089.052A.1.1,0,0,0,716.391,527.624Z" transform="translate(-716.196 -520.49)" fill="#0071bc"/>
                  </g>
                  <g id="Group_3565" data-name="Group 3565" transform="translate(1.934 2.977)">
                    <path id="Path_2558" data-name="Path 2558" d="M745.95,477.831a.181.181,0,1,1,.181-.181A.181.181,0,0,1,745.95,477.831Zm0-.283a.1.1,0,1,0,.1.1A.1.1,0,0,0,745.95,477.548Z" transform="translate(-745.733 -476.703)" fill="#0071bc"/>
                    <path id="Path_2559" data-name="Path 2559" d="M767.213,466.233a.181.181,0,1,1,.18-.181A.181.181,0,0,1,767.213,466.233Zm0-.283a.1.1,0,1,0,.1.1A.1.1,0,0,0,767.213,465.95Z" transform="translate(-765.589 -465.872)" fill="#0071bc"/>
                    <path id="Path_2560" data-name="Path 2560" d="M791.9,479.973a.181.181,0,1,1,.157-.09A.18.18,0,0,1,791.9,479.973Zm0-.284a.1.1,0,0,0-.089.052.1.1,0,0,0,.089.154.1.1,0,0,0,.1-.13.1.1,0,0,0-.048-.062A.1.1,0,0,0,791.9,479.69Z" transform="translate(-788.645 -478.703)" fill="#0071bc"/>
                    <path id="Path_2561" data-name="Path 2561" d="M791.9,505.624a.181.181,0,1,1,.157-.09A.181.181,0,0,1,791.9,505.624Zm0-.284a.1.1,0,1,0,.051.014A.1.1,0,0,0,791.9,505.341Z" transform="translate(-788.646 -502.657)" fill="#0071bc"/>
                    <path id="Path_2562" data-name="Path 2562" d="M767.8,520.141a.181.181,0,1,1,.09-.024A.181.181,0,0,1,767.8,520.141Zm0-.284a.1.1,0,0,0-.051.014.1.1,0,0,0-.038.14.1.1,0,0,0,.089.052.1.1,0,0,0,.089-.154A.1.1,0,0,0,767.8,519.858Z" transform="translate(-766.137 -516.214)" fill="#0071bc"/>
                    <path id="Path_2563" data-name="Path 2563" d="M745.4,507.417a.181.181,0,0,1-.175-.227.181.181,0,1,1,.265.2A.181.181,0,0,1,745.4,507.417Zm0-.284a.1.1,0,1,0,.052.192.1.1,0,0,0,.038-.14A.1.1,0,0,0,745.4,507.134Z" transform="translate(-745.222 -504.332)" fill="#0071bc"/>
                  </g>
                </g>
              </g>
            </g>
          </g>
        </g>
        <g id="Group_3576" data-name="Group 3576" transform="translate(28.776 23.26)">
          <g id="Group_3573" data-name="Group 3573" transform="translate(0 0)">
            <g id="Group_3572" data-name="Group 3572">
              <g id="Group_3571" data-name="Group 3571">
                <path id="Path_2565" data-name="Path 2565" d="M626.568,529.771a6.226,6.226,0,0,0-4.809-2.382c-1.74,0-3.527.641-3.527,2.382,0,1.695,1.695,2.153,4.763,2.886,3.252.779,7.1,2.245,7.1,6.55,0,5.359-4.351,7.329-9.16,7.329a11.877,11.877,0,0,1-9.023-3.619c-.828-.923,1.756-4.4,3.618-3.389,1.723.937,3.252,2.748,5.634,2.748,1.6,0,3.527-.641,3.527-2.611,0-1.832-1.695-2.382-5.038-3.161-3.252-.779-6.5-2.107-6.5-6.229,0-4.9,4.4-7.008,8.748-7.008,4.242,0,8.344,1.915,8.245,3.344A3.245,3.245,0,0,1,626.568,529.771Z" transform="translate(-611.753 -523.267)" fill="#5ae0d3"/>
              </g>
            </g>
          </g>
          <g id="Group_3575" data-name="Group 3575" transform="translate(0 0)">
            <g id="Group_3574" data-name="Group 3574" clip-path="url(#clip-path-2)">
              <path id="Path_2566" data-name="Path 2566" d="M784.659,800.767a9.039,9.039,0,0,1,.566,3.609.689.689,0,0,1-.115.334.28.28,0,0,1-.229.068c-.041-.005-.084-.1-.1-.167-.115-.432-.193-.876-.343-1.3a5.014,5.014,0,0,0-.472-.8c-.077.122-.12.184-.157.25a6.514,6.514,0,0,0-.707,2.288c-.014.1,0,.223-.057.294a1,1,0,0,1-.284.187c-.044-.079-.121-.156-.126-.237a11.625,11.625,0,0,1,.49-3.75c.021-.077.04-.154.059-.231,0-.006,0-.014,0-.011-.326-.073-.653-.127-.968-.221a2.511,2.511,0,0,1-1.091-.681c-.093-.1-.145-.211-.047-.3a.362.362,0,0,1,.295-.08,3.683,3.683,0,0,0,1.308.108c.214-.014.427-.041.679-.065a.776.776,0,0,1-.179-.933,1.216,1.216,0,0,1,.833-.765c.513-.137.87.262.723.8a4.578,4.578,0,0,1-.21.5c.411-.262.784-.478,1.13-.728.286-.207.538-.461.814-.683.079-.064.225-.151.278-.12.141.082.051.213-.011.319a7.594,7.594,0,0,1-1.9,2.179C784.774,800.672,784.719,800.718,784.659,800.767Z" transform="translate(-769.824 -779.943)" fill="#2ea092"/>
              <path id="Path_2567" data-name="Path 2567" d="M801.011,541.508c-.33-.5-.327-.943-.012-1.228a.836.836,0,0,1,1.177-.006c.312.267.312.7-.006,1.229a4.972,4.972,0,0,0,2.012-.764.25.25,0,0,1,.229,0,.216.216,0,0,1,.046.2,1.346,1.346,0,0,1-.2.306,4.539,4.539,0,0,1-1.607,1.266c-.1.05-.208.1-.318.148.1.412.211.815.309,1.221a9.132,9.132,0,0,1,.249,2.52c-.007.174.017.381-.228.4s-.2-.207-.245-.359c-.141-.529-.27-1.062-.44-1.582a3.932,3.932,0,0,0-.372-.665,2.785,2.785,0,0,0-.579,1.073c-.12.423-.2.857-.294,1.288-.029.142-.07.263-.236.254s-.205-.145-.214-.3a10.47,10.47,0,0,1,.5-3.637c.019-.062.035-.125.052-.185-.315-.179-.631-.348-.935-.536a4.215,4.215,0,0,1-1.134-1.092c-.077-.1-.116-.2-.02-.312s.2-.042.289.017A5.207,5.207,0,0,0,801.011,541.508Z" transform="translate(-786.326 -538.926)" fill="#2ea092"/>
              <path id="Path_2568" data-name="Path 2568" d="M729.9,537.4a3.989,3.989,0,0,0-.767,1.878,1.369,1.369,0,0,1-.058.34c-.043.09-.145.152-.221.227-.054-.074-.146-.144-.155-.224a7.569,7.569,0,0,1,.241-2.689c.072-.3.161-.6.245-.91l-.275-.133a4.168,4.168,0,0,1-1.574-1.27c-.022-.029-.06-.056-.063-.086-.011-.091-.009-.185-.012-.277.089.006.2-.021.264.022a5.063,5.063,0,0,0,1.74.649,3.221,3.221,0,0,1-.159-.62.656.656,0,0,1,.293-.556.763.763,0,0,1,1,.046c.308.289.319.677.014,1.141a5.192,5.192,0,0,0,1.773-.641.887.887,0,0,1,.306-.061c-.017.111,0,.246-.057.329a4.046,4.046,0,0,1-1.647,1.344l-.232.108c.084.316.173.627.249.941a8.057,8.057,0,0,1,.253,2.625c-.019.214-.108.288-.267.213a.322.322,0,0,1-.127-.2c-.108-.427-.179-.865-.315-1.282A7.364,7.364,0,0,0,729.9,537.4Z" transform="translate(-719.624 -532.908)" fill="#2ea092"/>
              <path id="Path_2569" data-name="Path 2569" d="M843.8,714.582a3.992,3.992,0,0,0-.767,1.878,1.358,1.358,0,0,1-.058.34c-.043.09-.145.152-.221.227-.054-.074-.146-.144-.155-.223a7.561,7.561,0,0,1,.241-2.689c.072-.3.16-.6.245-.91l-.275-.133a4.171,4.171,0,0,1-1.574-1.27c-.022-.029-.059-.055-.063-.086-.011-.091-.009-.185-.012-.277.089.005.2-.021.264.022a5.065,5.065,0,0,0,1.74.649,3.212,3.212,0,0,1-.159-.62.655.655,0,0,1,.292-.556.764.764,0,0,1,1,.046c.308.289.318.677.014,1.141a5.19,5.19,0,0,0,1.773-.641.884.884,0,0,1,.306-.061c-.017.111,0,.246-.057.329a4.044,4.044,0,0,1-1.647,1.344l-.231.108c.084.316.173.627.249.941a8.06,8.06,0,0,1,.253,2.625c-.019.213-.108.288-.267.213a.32.32,0,0,1-.127-.2c-.108-.427-.18-.865-.315-1.282A7.34,7.34,0,0,0,843.8,714.582Z" transform="translate(-825.983 -698.369)" fill="#2ea092"/>
              <path id="Path_2570" data-name="Path 2570" d="M639.856,547.865a9.957,9.957,0,0,1,.622,3.973.758.758,0,0,1-.127.367.308.308,0,0,1-.252.074c-.045-.006-.093-.114-.111-.184-.126-.476-.213-.965-.377-1.426a5.5,5.5,0,0,0-.52-.886c-.084.134-.132.2-.173.276a7.174,7.174,0,0,0-.779,2.518c-.016.11,0,.245-.062.324a1.106,1.106,0,0,1-.313.206c-.048-.087-.134-.172-.139-.261a12.8,12.8,0,0,1,.539-4.129c.023-.084.044-.169.065-.254,0-.007,0-.016,0-.012-.359-.08-.719-.14-1.066-.244a2.762,2.762,0,0,1-1.2-.75c-.1-.106-.16-.232-.052-.333a.4.4,0,0,1,.325-.089,4.05,4.05,0,0,0,1.44.119c.236-.016.47-.045.747-.072a.854.854,0,0,1-.2-1.028,1.339,1.339,0,0,1,.917-.842c.565-.151.958.288.8.88a4.983,4.983,0,0,1-.231.552c.453-.289.863-.525,1.244-.8.315-.228.592-.508.9-.752.087-.07.247-.166.306-.132.155.09.056.234-.011.352a8.368,8.368,0,0,1-2.1,2.4C639.982,547.76,639.922,547.811,639.856,547.865Z" transform="translate(-634.256 -543.52)" fill="#2ea092"/>
              <path id="Path_2571" data-name="Path 2571" d="M756.708,693.057a3.36,3.36,0,0,0-.9,1.875c-.028.14-.037.285-.072.423-.017.07-.066.178-.112.184a.3.3,0,0,1-.252-.073.862.862,0,0,1-.129-.393,9.431,9.431,0,0,1,.547-3.711.3.3,0,0,0-.125-.409A8.159,8.159,0,0,1,753.6,688.6c-.02-.034-.058-.068-.058-.1,0-.095.016-.189.025-.284.083.023.194.02.245.074a8.829,8.829,0,0,0,2.012,1.49l.2.111-.126-.261a.86.86,0,0,1,.079-1.042.825.825,0,0,1,1.052.119,2.155,2.155,0,0,1,.5.682.8.8,0,0,1-.238.977c.435.027.813.078,1.189.065.345-.012.687-.1,1.033-.136.1-.01.293.036.3.076a.5.5,0,0,1-.068.382,3.138,3.138,0,0,1-1.816.877c-.134.016-.267.038-.424.06.1.416.207.827.3,1.241a11.553,11.553,0,0,1,.31,3.155c-.006.12.029.28-.166.285a.294.294,0,0,1-.313-.268c-.125-.591-.222-1.19-.39-1.769A11.741,11.741,0,0,0,756.708,693.057Z" transform="translate(-744.16 -677.3)" fill="#2ea092"/>
              <path id="Path_2572" data-name="Path 2572" d="M610.031,778.506c-.186-.632-.04-1.1.384-1.3a.92.92,0,0,1,1.241.373c.242.382.1.839-.4,1.291a5.471,5.471,0,0,0,2.364-.156.276.276,0,0,1,.239.078.238.238,0,0,1-.017.229,1.489,1.489,0,0,1-.311.257,4.993,4.993,0,0,1-2.1.815c-.125.019-.25.035-.382.054-.022.467-.04.926-.068,1.385a10.061,10.061,0,0,1-.55,2.733c-.063.181-.1.407-.368.342s-.149-.284-.142-.457c.021-.6.058-1.205.047-1.807a4.348,4.348,0,0,0-.177-.819,3.069,3.069,0,0,0-.955.943c-.263.407-.491.836-.724,1.261-.077.139-.159.254-.33.191s-.169-.219-.13-.38a11.52,11.52,0,0,1,1.7-3.666c.04-.059.077-.12.115-.178-.273-.29-.552-.569-.812-.866a4.637,4.637,0,0,1-.842-1.514c-.048-.132-.056-.251.079-.335s.229.022.3.111A5.74,5.74,0,0,0,610.031,778.506Z" transform="translate(-607.897 -760.173)" fill="#2ea092"/>
              <path id="Path_2573" data-name="Path 2573" d="M694.848,805.249c-.186-.632-.04-1.1.384-1.3a.92.92,0,0,1,1.241.372c.242.382.1.839-.4,1.291a5.47,5.47,0,0,0,2.364-.156.276.276,0,0,1,.239.078.239.239,0,0,1-.017.229,1.5,1.5,0,0,1-.311.257,4.993,4.993,0,0,1-2.1.815c-.125.019-.25.035-.382.054-.023.467-.04.926-.068,1.385a10.063,10.063,0,0,1-.55,2.733c-.063.181-.1.407-.368.342s-.149-.284-.143-.457c.022-.6.057-1.205.047-1.807a4.344,4.344,0,0,0-.177-.819,3.068,3.068,0,0,0-.955.943c-.263.407-.491.836-.724,1.261-.076.14-.158.254-.33.191s-.169-.219-.13-.38a11.522,11.522,0,0,1,1.7-3.666c.04-.059.077-.12.114-.178-.273-.29-.552-.569-.812-.866a4.635,4.635,0,0,1-.842-1.515c-.048-.132-.057-.25.079-.335s.228.022.3.111A5.74,5.74,0,0,0,694.848,805.249Z" transform="translate(-687.104 -785.147)" fill="#2ea092"/>
              <path id="Path_2574" data-name="Path 2574" d="M665.208,663.436a3.358,3.358,0,0,0-.9,1.875c-.028.14-.037.285-.072.424-.018.07-.066.178-.112.184a.3.3,0,0,1-.252-.073.86.86,0,0,1-.129-.393,9.436,9.436,0,0,1,.547-3.711.3.3,0,0,0-.125-.409,8.156,8.156,0,0,1-2.073-2.356c-.02-.034-.058-.068-.058-.1,0-.095.016-.19.025-.284.083.023.194.02.245.074a8.829,8.829,0,0,0,2.012,1.49l.2.111-.126-.26a.86.86,0,0,1,.079-1.042.825.825,0,0,1,1.052.119,2.156,2.156,0,0,1,.5.682.8.8,0,0,1-.238.977c.435.027.813.078,1.188.065.345-.012.687-.1,1.033-.136.1-.01.293.036.3.076a.5.5,0,0,1-.068.382,3.139,3.139,0,0,1-1.816.877c-.134.016-.267.038-.424.06.1.416.207.827.3,1.241a11.55,11.55,0,0,1,.31,3.155c-.006.12.029.28-.166.285a.293.293,0,0,1-.313-.268c-.125-.591-.223-1.19-.39-1.769A11.752,11.752,0,0,0,665.208,663.436Z" transform="translate(-658.712 -649.638)" fill="#2ea092"/>
            </g>
          </g>
        </g>
        <path id="Path_2576" data-name="Path 2576" d="M201.951,180.385v5.756h-8.124v20.013h-8.98v-20H176.7v-5.765Z" transform="translate(-176.702 -179.804)" fill="#df0209"/>
        <g id="Group_3577" data-name="Group 3577" transform="translate(0.855 23.558)">
          <path id="Path_2577" data-name="Path 2577" d="M419.722,768.885h.653l2.728-7.065h-.663Z" transform="translate(-404.503 -746.34)" fill="#e6e6e6"/>
          <path id="Path_2578" data-name="Path 2578" d="M202.039,527.772l-.295,1.528h3.206v1.287H201.5l-1.958,10.146-1.009-5.229h-3.546v-.789l.72-.652c1.218-1.089,1.809-1.715,1.827-2.367,0-.455-.274-.815-.918-.815a2.019,2.019,0,0,0-1.192.463l-.369-.935a3.085,3.085,0,0,1,1.826-.574,2.735,2.735,0,0,1,.569.058l-.41-2.123h-7.406v22.672h4.806v-15.2l1.946,9.578h.392l.6.909c.157.236.289.454.428.691h.026c.14-.253.28-.472.42-.7l.595-.9h.83l-1.442,2.046,1.486,2.186h-.874l-.621-.953c-.166-.245-.306-.481-.455-.734h-.018c-.14.253-.289.481-.446.734l-.2.307.415,2.04H201.7l.382-1.9c-.117.011-.238.019-.364.019a3.212,3.212,0,0,1-1.614-.385l.259-.953a2.994,2.994,0,0,0,1.263.335,1.24,1.24,0,0,0,.688-.174l.187-.935a1.178,1.178,0,0,0-.976-.4H201v-.911h.493c.426-.008.97-.167.97-.627,0-.326-.268-.569-.8-.569a2.479,2.479,0,0,0-1.137.326l-.259-.92a3.406,3.406,0,0,1,1.681-.41,2.218,2.218,0,0,1,1.193.3l.869-4.331v-.158h-3.3v-.875h3.3v-3.428h.933v3.428h3.3v.875h-3.3v3.457h-.108v8.233H209.3V527.772Z" transform="translate(-189.631 -527.772)" fill="#ffce00"/>
          <path id="Path_2579" data-name="Path 2579" d="M420.376,768.885h-.653l2.719-7.065h.663Z" transform="translate(-404.503 -746.34)" fill="#e6e6e6"/>
          <path id="Path_2580" data-name="Path 2580" d="M270.6,559.555l.369.935a2.02,2.02,0,0,1,1.192-.463c.643,0,.918.36.918.815-.017.651-.609,1.278-1.827,2.367l-.72.652v.789h3.546l-.207-1.072h-1.487v-.017l.514-.429a8.431,8.431,0,0,0,.744-.74L273,559.04a2.723,2.723,0,0,0-.569-.059A3.087,3.087,0,0,0,270.6,559.555Z" transform="translate(-265.183 -556.917)" fill="#e6e6e6"/>
          <path id="Path_2581" data-name="Path 2581" d="M349.427,822.145a3,3,0,0,1-1.262-.334l-.259.953a3.213,3.213,0,0,0,1.614.385c.126,0,.247-.008.364-.019l.232-1.159A1.24,1.24,0,0,1,349.427,822.145Z" transform="translate(-337.436 -802.362)" fill="#e6e6e6"/>
          <path id="Path_2582" data-name="Path 2582" d="M350.433,757.494l.259.92a2.478,2.478,0,0,1,1.137-.326c.535,0,.8.242.8.569,0,.46-.543.619-.97.627h-.493v.911h.519a1.178,1.178,0,0,1,.976.4l.643-3.2a2.216,2.216,0,0,0-1.192-.3A3.406,3.406,0,0,0,350.433,757.494Z" transform="translate(-339.797 -741.916)" fill="#e6e6e6"/>
          <path id="Path_2583" data-name="Path 2583" d="M294.641,799.849l.352,1.731.424-.61Z" transform="translate(-287.695 -781.853)" fill="#e6e6e6"/>
          <path id="Path_2584" data-name="Path 2584" d="M372.462,550.872h-3.206l-.248,1.287h3.455Z" transform="translate(-357.143 -549.344)" fill="#e6e6e6"/>
          <path id="Path_2585" data-name="Path 2585" d="M361.4,633.062h3.3v-.875h-3.3V628.76h-.933v3.428h-3.3v.875h3.3v.158l.825-4.114v7.412h.108Z" transform="translate(-346.091 -622.08)" fill="#e6e6e6"/>
          <path id="Path_2586" data-name="Path 2586" d="M293.093,788.027h.018c.148.253.288.49.455.734l.621.953h.874l-1.486-2.185,1.442-2.046h-.83l-.595.9c-.14.228-.28.446-.42.7h-.027c-.139-.236-.271-.454-.428-.691l-.6-.909h-.392l.193.95.776,1.122-.424.609.184.9.2-.307C292.8,788.508,292.953,788.281,293.093,788.027Z" transform="translate(-284.968 -768.437)" fill="#e6e6e6"/>
          <path id="Path_2587" data-name="Path 2587" d="M419.722,768.885h.653l2.728-7.065h-.663Z" transform="translate(-404.503 -746.34)" fill="#e6e6e6"/>
          <rect id="Rectangle_1258" data-name="Rectangle 1258" width="4.079" height="0.343" transform="translate(0 1.373)" fill="#e6e6e6"/>
          <rect id="Rectangle_1259" data-name="Rectangle 1259" width="2.607" height="0.123" transform="translate(0 1.998)" fill="#e6e6e6"/>
          <rect id="Rectangle_1260" data-name="Rectangle 1260" width="2.607" height="0.123" transform="translate(0 2.46)" fill="#e6e6e6"/>
          <rect id="Rectangle_1261" data-name="Rectangle 1261" width="2.607" height="0.123" transform="translate(0 2.917)" fill="#e6e6e6"/>
          <rect id="Rectangle_1262" data-name="Rectangle 1262" width="2.607" height="0.123" transform="translate(0 3.397)" fill="#e6e6e6"/>
          <rect id="Rectangle_1263" data-name="Rectangle 1263" width="2.607" height="0.123" transform="translate(0 3.858)" fill="#e6e6e6"/>
          <rect id="Rectangle_1264" data-name="Rectangle 1264" width="2.607" height="0.123" transform="translate(0 4.316)" fill="#e6e6e6"/>
          <rect id="Rectangle_1265" data-name="Rectangle 1265" width="2.607" height="0.123" transform="translate(0 4.855)" fill="#e6e6e6"/>
          <rect id="Rectangle_1266" data-name="Rectangle 1266" width="2.607" height="0.123" transform="translate(0 5.313)" fill="#e6e6e6"/>
          <rect id="Rectangle_1267" data-name="Rectangle 1267" width="2.607" height="0.123" transform="translate(0 6.813)" fill="#e6e6e6"/>
          <rect id="Rectangle_1268" data-name="Rectangle 1268" width="2.607" height="0.123" transform="translate(0 7.275)" fill="#e6e6e6"/>
          <rect id="Rectangle_1269" data-name="Rectangle 1269" width="2.607" height="0.123" transform="translate(0 7.732)" fill="#e6e6e6"/>
          <rect id="Rectangle_1270" data-name="Rectangle 1270" width="2.607" height="0.123" transform="translate(0 8.212)" fill="#e6e6e6"/>
          <rect id="Rectangle_1271" data-name="Rectangle 1271" width="2.607" height="0.123" transform="translate(0 8.673)" fill="#e6e6e6"/>
          <rect id="Rectangle_1272" data-name="Rectangle 1272" width="2.607" height="0.123" transform="translate(0 9.131)" fill="#e6e6e6"/>
          <rect id="Rectangle_1273" data-name="Rectangle 1273" width="2.607" height="0.123" transform="translate(0 9.67)" fill="#e6e6e6"/>
          <rect id="Rectangle_1274" data-name="Rectangle 1274" width="2.607" height="0.123" transform="translate(0 10.128)" fill="#e6e6e6"/>
          <rect id="Rectangle_1275" data-name="Rectangle 1275" width="2.607" height="0.123" transform="translate(0 11.794)" fill="#e6e6e6"/>
          <rect id="Rectangle_1276" data-name="Rectangle 1276" width="2.607" height="0.123" transform="translate(0 12.256)" fill="#e6e6e6"/>
          <rect id="Rectangle_1277" data-name="Rectangle 1277" width="2.607" height="0.123" transform="translate(0 12.713)" fill="#e6e6e6"/>
          <rect id="Rectangle_1278" data-name="Rectangle 1278" width="2.607" height="0.123" transform="translate(0 13.193)" fill="#e6e6e6"/>
          <rect id="Rectangle_1279" data-name="Rectangle 1279" width="2.607" height="0.123" transform="translate(0 13.654)" fill="#e6e6e6"/>
          <rect id="Rectangle_1280" data-name="Rectangle 1280" width="2.607" height="0.123" transform="translate(0 14.112)" fill="#e6e6e6"/>
          <rect id="Rectangle_1281" data-name="Rectangle 1281" width="2.607" height="0.123" transform="translate(0 14.651)" fill="#e6e6e6"/>
          <rect id="Rectangle_1282" data-name="Rectangle 1282" width="2.607" height="0.123" transform="translate(0 15.109)" fill="#e6e6e6"/>
          <rect id="Rectangle_1283" data-name="Rectangle 1283" width="2.607" height="0.123" transform="translate(0 16.293)" fill="#e6e6e6"/>
          <rect id="Rectangle_1284" data-name="Rectangle 1284" width="2.607" height="0.123" transform="translate(0 16.755)" fill="#e6e6e6"/>
          <rect id="Rectangle_1285" data-name="Rectangle 1285" width="2.607" height="0.123" transform="translate(0 17.213)" fill="#e6e6e6"/>
          <rect id="Rectangle_1286" data-name="Rectangle 1286" width="2.607" height="0.123" transform="translate(0 17.692)" fill="#e6e6e6"/>
          <rect id="Rectangle_1287" data-name="Rectangle 1287" width="2.607" height="0.123" transform="translate(0 18.153)" fill="#e6e6e6"/>
          <rect id="Rectangle_1288" data-name="Rectangle 1288" width="2.607" height="0.123" transform="translate(0 18.611)" fill="#e6e6e6"/>
          <rect id="Rectangle_1289" data-name="Rectangle 1289" width="2.607" height="0.123" transform="translate(0 19.151)" fill="#e6e6e6"/>
          <rect id="Rectangle_1290" data-name="Rectangle 1290" width="2.607" height="0.123" transform="translate(0 19.608)" fill="#e6e6e6"/>
          <rect id="Rectangle_1291" data-name="Rectangle 1291" width="2.607" height="0.123" transform="translate(0 20.634)" fill="#e6e6e6"/>
          <rect id="Rectangle_1292" data-name="Rectangle 1292" width="2.607" height="0.123" transform="translate(0 21.096)" fill="#e6e6e6"/>
          <rect id="Rectangle_1293" data-name="Rectangle 1293" width="2.607" height="0.123" transform="translate(0 21.554)" fill="#e6e6e6"/>
          <rect id="Rectangle_1294" data-name="Rectangle 1294" width="2.607" height="0.123" transform="translate(0 22.033)" fill="#e6e6e6"/>
          <rect id="Rectangle_1295" data-name="Rectangle 1295" width="4.079" height="0.343" transform="translate(0 5.934)" fill="#e6e6e6"/>
          <rect id="Rectangle_1296" data-name="Rectangle 1296" width="4.079" height="0.343" transform="translate(0 10.993)" fill="#e6e6e6"/>
          <rect id="Rectangle_1297" data-name="Rectangle 1297" width="4.079" height="0.343" transform="translate(0 15.743)" fill="#e6e6e6"/>
          <rect id="Rectangle_1298" data-name="Rectangle 1298" width="4.079" height="0.343" transform="translate(0 20.01)" fill="#e6e6e6"/>
          <rect id="Rectangle_1299" data-name="Rectangle 1299" width="1.25" height="3.457" transform="translate(15.219 10.982)" fill="#e6e6e6"/>
        </g>
        <g id="Group_3582" data-name="Group 3582" transform="translate(15.048 4.819)">
          <g id="Group_3578" data-name="Group 3578" transform="translate(0 5.306)">
            <path id="Path_2588" data-name="Path 2588" d="M409.575,338.024l-.181-.092c.017-.121.023-.245.051-.364.776-3.241,1.564-6.478,2.326-9.722.309-1.314-1.518-3.007-2.807-2.605-.895.279-1.035,1.11-1.24,1.868-.23.85-.447,1.7-.659,2.56-.775,3.112-1.617,6.209-2.289,9.342a2.34,2.34,0,0,0,2.021,3,2.893,2.893,0,0,0,2.5-1.083c.564-.667,1-1.436,1.528-2.139q3.068-4.121,6.155-8.229c.752-1,1.539-1.986,2.237-3.028.179-.267.077-.722.1-1.091-.294.154-.682.235-.867.474-1.576,2.037-3.077,4.133-4.677,6.149C412.431,334.76,410.98,336.374,409.575,338.024Z" transform="translate(-404.674 -325.147)" fill="#8b00af"/>
            <path id="Path_2589" data-name="Path 2589" d="M406.559,341.587q-.116,0-.234-.008a2.219,2.219,0,0,1-1.639-.889,2.613,2.613,0,0,1-.412-2.151c.482-2.248,1.061-4.514,1.621-6.706.221-.864.449-1.758.668-2.638.191-.767.419-1.672.66-2.56.018-.065.035-.13.052-.2.184-.706.375-1.435,1.211-1.7a2.556,2.556,0,0,1,2.849,2.644c-.514,2.184-1.047,4.4-1.564,6.546q-.382,1.588-.763,3.176a1.983,1.983,0,0,0-.037.243c0,.031-.007.063-.011.094l.136.07c.426-.5.862-1,1.285-1.492.967-1.117,1.967-2.272,2.9-3.447.914-1.152,1.811-2.349,2.677-3.507.651-.87,1.324-1.769,2-2.642a1.36,1.36,0,0,1,.582-.353c.1-.04.2-.082.3-.13l.053-.028,0,.059a3.5,3.5,0,0,0,0,.361,1.3,1.3,0,0,1-.11.745c-.5.751-1.062,1.483-1.6,2.191-.209.274-.425.557-.635.838l-1.5,2c-1.528,2.04-3.109,4.15-4.656,6.229-.208.28-.407.575-.6.861a14.633,14.633,0,0,1-.93,1.28A2.932,2.932,0,0,1,406.559,341.587Zm2.346-16.839a1.347,1.347,0,0,0-.4.059c-.8.249-.987.961-1.166,1.649-.017.066-.034.131-.052.2-.241.888-.468,1.792-.659,2.559-.219.88-.447,1.774-.668,2.638-.56,2.191-1.138,4.457-1.62,6.7a2.548,2.548,0,0,0,.4,2.1,2.154,2.154,0,0,0,1.591.862,2.864,2.864,0,0,0,2.472-1.072,14.576,14.576,0,0,0,.926-1.275c.193-.286.392-.582.6-.863,1.548-2.079,3.128-4.189,4.657-6.229l1.5-2c.21-.281.427-.564.636-.838.54-.707,1.1-1.438,1.6-2.188a1.261,1.261,0,0,0,.1-.706c0-.1-.007-.21,0-.311-.08.039-.166.073-.25.107a1.315,1.315,0,0,0-.555.332c-.676.873-1.349,1.772-2,2.641-.867,1.158-1.764,2.356-2.679,3.508-.934,1.176-1.934,2.332-2.9,3.449-.428.494-.871,1.006-1.3,1.512l-.017.02-.225-.115,0-.023c.005-.038.01-.077.014-.115a2.044,2.044,0,0,1,.038-.251q.38-1.588.763-3.176c.516-2.145,1.05-4.362,1.563-6.546a2.113,2.113,0,0,0-.79-1.909A2.412,2.412,0,0,0,408.9,324.748Z" transform="translate(-404.203 -324.682)" fill="#fff"/>
          </g>
          <g id="Group_3579" data-name="Group 3579" transform="translate(3.842 0)">
            <path id="Path_2590" data-name="Path 2590" d="M464.708,248.544c1.075-.019,1.541-.664,1.963-2.26.244-.921-.339-1.464-1.217-1.309a2.207,2.207,0,0,0-1.141.347c-.516.535-1.622.555-1.521,1.641C462.9,248.087,463.484,248.566,464.708,248.544Z" transform="translate(-462.753 -244.916)" fill="#8b00af"/>
            <path id="Path_2591" data-name="Path 2591" d="M464.162,248.118c-1.189,0-1.767-.5-1.87-1.612-.07-.754.427-1.01.907-1.259a2.369,2.369,0,0,0,.623-.408,1.651,1.651,0,0,1,.934-.322c.077-.011.152-.023.224-.035a1.153,1.153,0,0,1,1.074.278,1.116,1.116,0,0,1,.18,1.073c-.447,1.689-.951,2.266-1.995,2.284h-.079Zm1.109-3.6a1.614,1.614,0,0,0-.278.025c-.073.013-.149.024-.226.036a1.613,1.613,0,0,0-.9.3,2.416,2.416,0,0,1-.641.421c-.482.249-.937.485-.872,1.194.1,1.109.665,1.572,1.882,1.551h0c1.007-.018,1.495-.582,1.932-2.235a1.054,1.054,0,0,0-.165-1.011A.974.974,0,0,0,465.271,244.522Z" transform="translate(-462.285 -244.456)" fill="#fff"/>
          </g>
          <g id="Group_3580" data-name="Group 3580" transform="translate(0 5.306)">
            <path id="Path_2592" data-name="Path 2592" d="M409.575,338.024c1.4-1.65,2.856-3.264,4.2-4.96,1.6-2.017,3.1-4.113,4.677-6.149.185-.239.573-.32.867-.474-.027.368.075.823-.1,1.091-.7,1.041-1.484,2.023-2.237,3.028q-3.079,4.113-6.155,8.229c-.523.7-.965,1.472-1.528,2.139a2.893,2.893,0,0,1-2.5,1.083,2.34,2.34,0,0,1-2.021-3c.672-3.134,1.514-6.231,2.289-9.342.213-.855.429-1.709.659-2.56.205-.758.346-1.59,1.24-1.868,1.289-.4,3.116,1.292,2.807,2.605-.763,3.244-1.551,6.482-2.326,9.722-.028.119-.035.242-.051.364Z" transform="translate(-404.674 -325.147)" fill="#8b00af"/>
            <path id="Path_2593" data-name="Path 2593" d="M406.559,341.587q-.116,0-.234-.008a2.219,2.219,0,0,1-1.639-.889,2.613,2.613,0,0,1-.412-2.151c.482-2.248,1.061-4.514,1.621-6.706.221-.864.449-1.758.668-2.638.191-.767.419-1.672.66-2.56.018-.065.035-.13.052-.2.184-.706.375-1.435,1.211-1.7a2.556,2.556,0,0,1,2.849,2.644c-.514,2.184-1.047,4.4-1.564,6.546q-.382,1.588-.763,3.176a1.983,1.983,0,0,0-.037.243c0,.031-.007.063-.011.094l.136.07c.426-.5.862-1,1.285-1.492.967-1.117,1.967-2.272,2.9-3.447.914-1.152,1.811-2.349,2.677-3.507.651-.87,1.324-1.769,2-2.642a1.36,1.36,0,0,1,.582-.353c.1-.04.2-.082.3-.13l.053-.028,0,.059a3.5,3.5,0,0,0,0,.361,1.3,1.3,0,0,1-.11.745c-.5.751-1.062,1.483-1.6,2.191-.209.274-.425.557-.635.838l-1.5,2c-1.528,2.04-3.109,4.15-4.656,6.229-.208.28-.407.575-.6.861a14.633,14.633,0,0,1-.93,1.28A2.932,2.932,0,0,1,406.559,341.587Zm2.346-16.839a1.347,1.347,0,0,0-.4.059c-.8.249-.987.961-1.166,1.649-.017.066-.034.131-.052.2-.241.888-.468,1.792-.659,2.559-.219.88-.447,1.774-.668,2.638-.56,2.191-1.138,4.457-1.62,6.7a2.548,2.548,0,0,0,.4,2.1,2.154,2.154,0,0,0,1.591.862,2.864,2.864,0,0,0,2.472-1.072,14.576,14.576,0,0,0,.926-1.275c.193-.286.392-.582.6-.863,1.548-2.079,3.128-4.189,4.657-6.229l1.5-2c.21-.281.427-.564.636-.838.54-.707,1.1-1.438,1.6-2.188a1.261,1.261,0,0,0,.1-.706c0-.1-.007-.21,0-.311-.08.039-.166.073-.25.107a1.315,1.315,0,0,0-.555.332c-.676.873-1.349,1.772-2,2.641-.867,1.158-1.764,2.356-2.679,3.508-.934,1.176-1.934,2.332-2.9,3.449-.428.494-.871,1.006-1.3,1.512l-.017.02-.225-.115,0-.023c.005-.038.01-.077.014-.115a2.044,2.044,0,0,1,.038-.251q.38-1.588.763-3.176c.516-2.145,1.05-4.362,1.563-6.546a2.113,2.113,0,0,0-.79-1.909A2.412,2.412,0,0,0,408.9,324.748Z" transform="translate(-404.203 -324.682)" fill="#fff"/>
          </g>
          <g id="Group_3581" data-name="Group 3581" transform="translate(3.842 0)">
            <path id="Path_2594" data-name="Path 2594" d="M464.708,248.544c-1.223.022-1.811-.456-1.915-1.581-.1-1.086,1.005-1.106,1.521-1.641a2.207,2.207,0,0,1,1.141-.347c.878-.155,1.461.388,1.217,1.309C466.249,247.879,465.782,248.524,464.708,248.544Z" transform="translate(-462.753 -244.916)" fill="#8b00af"/>
            <path id="Path_2595" data-name="Path 2595" d="M464.162,248.118c-1.189,0-1.767-.5-1.87-1.612-.07-.754.427-1.01.907-1.259a2.369,2.369,0,0,0,.623-.408,1.651,1.651,0,0,1,.934-.322c.077-.011.152-.023.224-.035a1.153,1.153,0,0,1,1.074.278,1.116,1.116,0,0,1,.18,1.073c-.447,1.689-.951,2.266-1.995,2.284h-.079Zm1.109-3.6a1.614,1.614,0,0,0-.278.025c-.073.013-.149.024-.226.036a1.613,1.613,0,0,0-.9.3,2.416,2.416,0,0,1-.641.421c-.482.249-.937.485-.872,1.194.1,1.109.665,1.572,1.882,1.551h0c1.007-.018,1.495-.582,1.932-2.235a1.054,1.054,0,0,0-.165-1.011A.974.974,0,0,0,465.271,244.522Z" transform="translate(-462.285 -244.456)" fill="#fff"/>
          </g>
        </g>
        <g id="Group_3585" data-name="Group 3585" transform="translate(14.945 18.842)">
          <path id="Path_2596" data-name="Path 2596" d="M578.346,484.729l.606.24.236-1.481Z" transform="translate(-566.724 -481.701)" fill="#3f3a36"/>
          <g id="Group_3584" data-name="Group 3584">
            <g id="Group_3583" data-name="Group 3583">
              <path id="Path_2597" data-name="Path 2597" d="M623.09,838.124s-.546-.461-.748.739c0,0,1.609,1-.53,1.135,0,0-2.084-.066-.693,1,0,0,5.12-.122,2.666-2.877" transform="translate(-606.221 -812.798)" fill="#96049e"/>
              <path id="Path_2598" data-name="Path 2598" d="M420.184,846.443a.471.471,0,0,0,.172.63l1.1.437a.471.471,0,0,0,.557-.341l.433-1.093-1.832-.725Z" transform="translate(-418.979 -819.628)" fill="#e1859c"/>
              <path id="Path_2599" data-name="Path 2599" d="M427.936,819.682l-.538,1.36,1.832.725.538-1.36a.471.471,0,0,0-.173-.63l-1.1-.437A.471.471,0,0,0,427.936,819.682Z" transform="translate(-425.76 -795.32)" fill="#c2c3c9"/>
              <path id="Path_2600" data-name="Path 2600" d="M446.492,524.323c.428.169.7.839.7.839l-7.834,19.34-1.742-.57,7.744-19.495A1.942,1.942,0,0,1,446.492,524.323Z" transform="translate(-435.303 -519.784)" fill="#ff20ab"/>
              <path id="Path_2601" data-name="Path 2601" d="M642.164,777.918c.1-.359.211-.72.289-1.077a2.575,2.575,0,0,0-.816-2.762,2.949,2.949,0,0,0-.973-.446.959.959,0,0,0-1.031.512,1.329,1.329,0,0,0-.163,1.046,3.04,3.04,0,0,0,1.213,1.731,2,2,0,0,1,.688,2.227c-.01.046-.011.091-.019.168l.2-.22Z" transform="translate(-623.765 -752.628)"/>
              <path id="Path_2602" data-name="Path 2602" d="M615.011,721.447l.931,1.987c.38-.115,1.546-.591,1.939-.71-.04-.135-.426-1.126-.559-1.544-.051-.161.037-.3-.133-.311A6.816,6.816,0,0,0,615.011,721.447Z" transform="translate(-600.964 -703.378)" fill="#c2c3c9"/>
              <path id="Path_2603" data-name="Path 2603" d="M612.3,715.131a7.348,7.348,0,0,1,2.222-.612c0-.193-.139-.258-.312-.269a3.488,3.488,0,0,0-1.817.313C612.1,714.759,612.093,714.772,612.3,715.131Z" transform="translate(-598.298 -697.193)" fill="#c2c3c9"/>
              <path id="Path_2604" data-name="Path 2604" d="M631.223,754l.25.516c.335-.167,1.522-.661,1.852-.826-.042-.13-.169-.3-.21-.424C632.743,753.379,631.609,753.883,631.223,754Z" transform="translate(-616.104 -733.634)" fill="#daf0fb"/>
              <path id="Path_2605" data-name="Path 2605" d="M526.133,460.3l5.581,16.608a1.483,1.483,0,0,1,1.426-.466l-6.6-16.366s-.1-.36-.356-.254A.567.567,0,0,0,526.133,460.3Z" transform="translate(-517.934 -459.58)" fill="#f0a"/>
              <path id="Path_2606" data-name="Path 2606" d="M651.505,800.985a1.026,1.026,0,0,1-.413-1.025s-.212.19.655.831c0,0-.561-1.034-.034-1.37a1.084,1.084,0,0,0,.681,1.4.985.985,0,0,1-.12-.983s-.034.469,1.032,1.1a5.185,5.185,0,0,1-1.1,2.5A2.411,2.411,0,0,0,651.505,800.985Z" transform="translate(-634.637 -776.737)" fill="#e1859c"/>
              <path id="Path_2607" data-name="Path 2607" d="M527.287,456.7s.586-.541.789,0l7.088,16.661s-1.872-.148-2.342.425" transform="translate(-519.042 -456.464)" fill="#ff20ab"/>
              <path id="Path_2608" data-name="Path 2608" d="M423.01,700.262a2.207,2.207,0,0,1-.905,3.116,7.035,7.035,0,0,1-4.494.95,9.716,9.716,0,0,1-2.605-.6,13.673,13.673,0,0,1-2.09-1.278c-2.22,2.105-4.951,2.307-7.863,1.48a4.734,4.734,0,0,1-1.538-.82,2.066,2.066,0,0,1-.553-2.816.458.458,0,0,1,.083.109,1.716,1.716,0,0,0,2.65,1.152,10,10,0,0,0,1.613-1.131c.563-.44,1.071-.951,1.645-1.374a2.929,2.929,0,0,1,3.719-.126.481.481,0,0,0,.627,0,2.887,2.887,0,0,1,3.624.068c.621.452,1.186.98,1.781,1.468a11.76,11.76,0,0,0,1.082.845C421.238,702.232,422.368,701.876,423.01,700.262Z" transform="translate(-402.642 -682.318)" fill="#96049e"/>
            </g>
            <path id="Path_2609" data-name="Path 2609" d="M558.558,501.862l1.525.6.357-2.243-.606-.24Z" transform="translate(-548.245 -497.104)" fill="#cebb8c"/>
          </g>
        </g>
      </g>
    </g>
  </g>
</svg>
