<?xml version="1.0" standalone="no"?>
<!DOCTYPE svg PUBLIC "-//W3C//DTD SVG 20010904//EN"
 "http://www.w3.org/TR/2001/REC-SVG-20010904/DTD/svg10.dtd">
<svg version="1.0" xmlns="http://www.w3.org/2000/svg"
 width="78.000000pt" height="78.000000pt" viewBox="0 0 78.000000 78.000000"
 preserveAspectRatio="xMidYMid meet">
<metadata>
Created by potrace 1.11, written by Peter Selinger 2001-2013
</metadata>
<g transform="translate(0.000000,78.000000) scale(0.100000,-0.100000)"
fill="#000000" stroke="none">
<path d="M600 698 c0 -4 13 -27 30 -50 16 -24 37 -72 46 -108 43 -172 -41
-346 -206 -424 -56 -26 -76 -30 -145 -30 -49 0 -97 6 -125 17 -64 23 -60 14 7
-19 52 -25 69 -28 158 -28 91 -1 105 2 158 28 68 35 150 118 180 183 18 39 22
66 22 148 0 87 -3 107 -26 155 -24 50 -98 145 -99 128z"/>
<path d="M210 560 c0 -18 7 -20 65 -20 l65 0 0 -145 0 -145 25 0 25 0 0 145 0
144 62 3 c50 2 63 6 66 21 3 16 -9 17 -152 17 -149 0 -156 -1 -156 -20z"/>
</g>
</svg>
