<svg xmlns="http://www.w3.org/2000/svg" width="130.117" height="28.198" viewBox="0 0 130.117 28.198"><defs><style>.a{fill:#e20000;}.b{fill:#ffa0ba;}.c{fill:#ff0aaa;}.d{fill:#ffb500;}.e{fill:#babcbe;}.f{fill:#ff6f21;}.g,.h{fill:#6f5db8;}.h,.m{opacity:0.5;}.i{fill:#81d8c5;}.j{fill:#008659;}.k{fill:#6fd3f4;}.l{opacity:0.7;}.m{fill:#fff;}</style></defs><path class="a" d="M221.575,312.6a.237.237,0,0,1,.284.181c.388,1.949.78,3.867,1.127,5.793.031.173.042.428-.4.589a13.346,13.346,0,0,1-5.248.813,13.541,13.541,0,0,1-3.021-.416,6.064,6.064,0,0,1-4.539-5.751c-.133-1.941-.085-3.9-.116-5.845,0-.279,0-.558,0-.929h-1.458a.45.45,0,0,1-.444-.451c0-1.691.017-3.123.017-4.779,0-.476.175-.588.393-.665a9.677,9.677,0,0,0,6.093-6.829h2.848a.353.353,0,0,1,.353.353v5.211h4.485a.315.315,0,0,1,.315.315v6.436a.38.38,0,0,1-.38.38h-4.246c0,1.564-.08,3.032.031,4.485.062.815.753,1.267,1.625,1.335a6.922,6.922,0,0,0,1.28-.023A8.532,8.532,0,0,0,221.575,312.6Z" transform="translate(-207.764 -294.312)"/><g transform="translate(87.387 1.029)"><path class="b" d="M575.962,380.689s-2.49,0-2.46.8c.023.6,1.234.395,1.234.869s-2.5.658-1.724,1.355c.572.513,3.925-.6,4.068-1.17s-2.032-.616-1.577-.981a4.885,4.885,0,0,1,1.765-.514Z" transform="translate(-554.394 -356.674)"/><path class="b" d="M514.54,365.987l-3.605-2.287-1.513,2.387c-.425.654-.293,1.242.15,1.523l2,1.267c.444.282,1.032.15,1.457-.5Z" transform="translate(-509.163 -344.61)"/><path class="c" d="M518.365,329.07l-3.605-2.285L524.4,311.4,528,313.685Z" transform="translate(-513.137 -307.474)"/><rect class="d" width="17.101" height="0.518" transform="matrix(0.53, -0.848, 0.848, 0.53, 2.551, 19.3)"/><rect class="d" width="17.093" height="0.518" transform="translate(4.295 20.352) rotate(-57.454)"/><path class="e" d="M517.6,364.608l-3.605-2.286-.869,1.385,3.605,2.286Z" transform="translate(-511.977 -343.632)"/><path class="d" d="M550.707,304.211,548,306.3l.419,1.3,1.393-.151.424,1.3,1.37-.165.629-3.374a3.265,3.265,0,0,1-1.522-1Z" transform="translate(-536.736 -302.37)"/><path class="f" d="M557.348,301.594a3.268,3.268,0,0,0,1.523,1l.311-1.668a.335.335,0,0,0-.534-.327Z" transform="translate(-543.377 -299.753)"/><path class="f" d="M570.679,363.836l1.914-.98a3.3,3.3,0,0,1,1.908,3.382,2.082,2.082,0,0,0,.106.869,5.735,5.735,0,0,1-.482-1.273,1.355,1.355,0,0,0-.054,1.364,2.253,2.253,0,0,1-1.117-1.13,2.2,2.2,0,0,0,.124,1.294.964.964,0,0,1-.731-.25,3.2,3.2,0,0,0,1.262,1.391C570.537,367.948,570.679,363.836,570.679,363.836Z" transform="translate(-552.843 -344.011)"/><path class="d" d="M576.428,374.4a.965.965,0,0,0,.732.25,2.195,2.195,0,0,1-.124-1.294,2.254,2.254,0,0,0,1.118,1.13,1.355,1.355,0,0,1,.054-1.364,5.738,5.738,0,0,0,.482,1.273,2.46,2.46,0,0,0,1.111,1.278,5.107,5.107,0,0,1-2.111.119,3.2,3.2,0,0,1-1.261-1.392Z" transform="translate(-556.926 -351.302)"/><path class="e" d="M566.716,354.425l1.15,2.074-3.884,2.033-1.035-2.176Z" transform="translate(-547.354 -338.025)"/><path class="e" d="M561.519,353.445l-.326-.685,3.705-1.894.366.661Z" transform="translate(-546.108 -335.498)"/><path class="c" d="M543.28,315.153l-7.214-15.1a1.544,1.544,0,0,1,2.746-1.406l8.145,14.619Z" transform="translate(-528.164 -297.861)"/><path class="g" d="M532.413,347.627a2.573,2.573,0,0,1-2.275,1.725c-1.689,0-4.478-3.78-6.276-3.78a3.414,3.414,0,0,0-1.852.6,1.059,1.059,0,0,1-1.154,0,3.415,3.415,0,0,0-1.852-.6c-1.8,0-4.587,3.78-6.276,3.78a2.573,2.573,0,0,1-2.275-1.725,3.612,3.612,0,0,0,1.137,3.6c1.851,1.7,7.707,1.358,9.835-1.1l.007-.027.006.027c2.129,2.459,7.984,2.8,9.836,1.1A3.612,3.612,0,0,0,532.413,347.627Z" transform="translate(-510.004 -331.739)"/><path class="h" d="M542.655,325.057l.744-1.189-2.174-4.569-.745,1.189Z" transform="translate(-531.4 -313.084)"/></g><g transform="translate(18.679 2.054)"><path class="g" d="M280.419,308.291a3.592,3.592,0,0,0,3.525-4.571,3.169,3.169,0,0,0-2.595-2.245,3.612,3.612,0,0,0-4.289,4.445A3.34,3.34,0,0,0,280.419,308.291Z" transform="translate(-275.555 -301.398)"/><path class="g" d="M282.362,340.557a.212.212,0,0,0-.19.109c-.67,1.19-1.308,1.8-1.948,1.973-.5.136-.995-.011-.951-.831l.715-9.511a.336.336,0,0,0-.336-.336h-6.2a.336.336,0,0,0-.336.336l-.916,9.285c-.01.115-.017.23-.017.347a4.81,4.81,0,0,0,4.8,4.8c3.153,0,5.851-3.2,6.355-5.882a.21.21,0,0,0-.2-.244C282.907,340.583,282.552,340.564,282.362,340.557Z" transform="translate(-272.188 -323.099)"/></g><path class="i" d="M338.167,318.293a.313.313,0,0,1-.142.4c-.407.213-.776.405-1.147.593-1.5.76-2.994,1.513-4.487,2.277a.464.464,0,0,1-.649-.072,2.619,2.619,0,0,0-2.841-.627,2.887,2.887,0,0,0-1.939,2.2,3.35,3.35,0,0,0,1.15,3.35,3.175,3.175,0,0,0,3.557.272,2.6,2.6,0,0,0,1.4-2.731.466.466,0,0,1,.207-.369c1.819-.822,3.647-1.624,5.471-2.437.331-.147.475.054.57.3a6.151,6.151,0,0,1,.472,2.241c.022,4.495-2.354,7.486-6.269,9.257a9.2,9.2,0,0,1-12.051-4.078,10.561,10.561,0,0,1,5.752-14.58,9.715,9.715,0,0,1,5.6-.187,7.818,7.818,0,0,1,5.084,3.639A4.328,4.328,0,0,1,338.167,318.293Z" transform="translate(-287.658 -308.138)"/><circle class="j" cx="1.081" cy="1.081" r="1.081" transform="translate(32.797 4.8)"/><circle class="j" cx="1.081" cy="1.081" r="1.081" transform="translate(31.317 21.113)"/><circle class="j" cx="1.081" cy="1.081" r="1.081" transform="translate(52.355 18.732)"/><path class="j" d="M369.1,336.679q.516,1.008.962,2.053l.329-.147q-.444-1.055-.957-2.077l-.025-.046-.334.169Z" transform="translate(-322.308 -324.241)"/><path class="j" d="M324.42,310.551a13.65,13.65,0,0,1-.227-3.892,5.927,5.927,0,0,1,.478-1.866,2.6,2.6,0,0,1,3.1-1.581,5.933,5.933,0,0,1,1.791.706,13.022,13.022,0,0,1,2.7,2.137c.136-.007.272-.01.407-.012a13.67,13.67,0,0,0-2.974-2.356,6.171,6.171,0,0,0-1.875-.718,2.883,2.883,0,0,0-3.362,1.721,6.163,6.163,0,0,0-.513,1.94,13.907,13.907,0,0,0,.2,3.972c.04.22.087.438.134.656q.1-.19.214-.373C324.468,310.773,324.441,310.663,324.42,310.551Z" transform="translate(-290.214 -300.398)"/><path class="j" d="M361.889,369.906a10.9,10.9,0,0,1-.045,1.548,5.9,5.9,0,0,1-.476,1.861,2.584,2.584,0,0,1-3.08,1.577,5.923,5.923,0,0,1-1.789-.7,10.863,10.863,0,0,1-1.245-.839q-.208.025-.415.041a11.4,11.4,0,0,0,1.521,1.042,6.178,6.178,0,0,0,1.877.723,2.894,2.894,0,0,0,3.38-1.726,6.193,6.193,0,0,0,.516-1.946,11.48,11.48,0,0,0,.046-1.907Q362.04,369.746,361.889,369.906Z" transform="translate(-312.197 -347.757)"/><path class="j" d="M332.466,343.968a27.487,27.487,0,0,1-4.447-6.444,27.813,27.813,0,0,1-2.559-7.043q-.11.183-.214.373a28.423,28.423,0,0,0,2.467,6.827,27.8,27.8,0,0,0,4.535,6.5,17.144,17.144,0,0,0,1.58,1.452q.207-.016.415-.041A16.218,16.218,0,0,1,332.466,343.968Z" transform="translate(-291.184 -319.994)"/><path class="j" d="M324.028,366.276a5.953,5.953,0,0,1-1.909.312,2.618,2.618,0,0,1-2.707-2.2,5.954,5.954,0,0,1-.08-1.93,12.2,12.2,0,0,1,.621-2.678c-.046-.131-.092-.261-.132-.393a12.839,12.839,0,0,0-.731,3.046,6.188,6.188,0,0,0,.092,2.007,2.851,2.851,0,0,0,2.933,2.375,6.179,6.179,0,0,0,1.979-.326,11.529,11.529,0,0,0,1.784-.753q-.145-.047-.288-.1A11.093,11.093,0,0,1,324.028,366.276Z" transform="translate(-286.782 -340.518)"/><path class="j" d="M361.18,307.755a5.929,5.929,0,0,1,1.9-.314,2.607,2.607,0,0,1,2.694,2.182,5.933,5.933,0,0,1,.088,1.926,13.714,13.714,0,0,1-1.016,3.775c-.241.585-.508,1.158-.8,1.721l.322-.143c.246-.489.48-.983.691-1.488a13.959,13.959,0,0,0,1.05-3.839,6.192,6.192,0,0,0-.085-2.01,2.861,2.861,0,0,0-2.944-2.4,6.2,6.2,0,0,0-1.988.326,13.542,13.542,0,0,0-3.292,1.638q.218.021.435.05A12.834,12.834,0,0,1,361.18,307.755Z" transform="translate(-314.302 -303.44)"/><path class="j" d="M349.421,346.008a29.413,29.413,0,0,0,3.454-5.263l-.322.143a29.515,29.515,0,0,1-3.284,5,27.664,27.664,0,0,1-5.73,5.381,16.664,16.664,0,0,1-1.925,1.135q.143.052.288.1a17.366,17.366,0,0,0,1.757-1.059A27.857,27.857,0,0,0,349.421,346.008Z" transform="translate(-302.805 -327.283)"/><path class="j" d="M383.091,336.93a6.23,6.23,0,0,0-1.239-1.594,14.078,14.078,0,0,0-3.3-2.265c-.429-.22-.866-.421-1.308-.613l-.176.09-.186.094c.519.215,1.032.445,1.533.7a13.8,13.8,0,0,1,3.251,2.189,5.98,5.98,0,0,1,1.2,1.517,2.6,2.6,0,0,1-.628,3.437,5.993,5.993,0,0,1-1.665,1,11.487,11.487,0,0,1-1.921.6c-.054.089-.109.177-.165.264a11.951,11.951,0,0,0,2.173-.652,6.215,6.215,0,0,0,1.728-1.035,2.857,2.857,0,0,0,.7-3.723Z" transform="translate(-327.851 -321.397)"/><path class="j" d="M307.764,331.713a5.988,5.988,0,0,1-1.2-1.526,2.593,2.593,0,0,1,.642-3.429,5.973,5.973,0,0,1,1.665-.986,13.806,13.806,0,0,1,3.817-.882l.05,0c.1-.114.2-.226.3-.335-.127.012-.253.019-.38.033a14.084,14.084,0,0,0-3.89.937,6.228,6.228,0,0,0-1.728,1.046,2.859,2.859,0,0,0-.682,3.731,6.223,6.223,0,0,0,1.245,1.585,13.134,13.134,0,0,0,2.7,1.922c-.021-.1-.045-.2-.062-.3A12.659,12.659,0,0,1,307.764,331.713Z" transform="translate(-277.477 -315.784)"/><path class="j" d="M336.913,358.7a29.63,29.63,0,0,1-15.373-2.845q-.388-.2-.768-.417c.017.1.042.2.063.3.2.111.4.219.6.322a30.062,30.062,0,0,0,15.5,2.863c.573-.062,1.145-.148,1.711-.265.057-.087.112-.175.165-.264a17.456,17.456,0,0,1-1.9.307Z" transform="translate(-288.006 -337.715)"/><g transform="translate(112.068 5.592)"><path class="k" d="M596.313,326.406c.132-.27.292-.43.543-.254l.234.147a10.435,10.435,0,0,0,4.842,1.67c.618,0,1.383-.327,1.383-1.054,0-1.055-1.128-1.092-1.892-1.2-3.129-.436-6.039-1.711-6.039-5.348,0-4.839,4.875-6.768,9.023-6.768a17.355,17.355,0,0,1,6.966,1.368.614.614,0,0,1,.3.8l-1.716,4a.578.578,0,0,1-.791.289,8.869,8.869,0,0,0-3.891-1.069c-.582,0-1.346.182-1.346.874,0,.946,1.019,1.019,2.329,1.237,3.347.546,6.076,1.711,6.076,5.6,0,5.021-4.984,7.095-9.351,7.095a22.162,22.162,0,0,1-8.443-1.978.416.416,0,0,1-.225-.542C594.828,330.019,596.313,326.406,596.313,326.406Z" transform="translate(-594.288 -313.598)"/><g class="l" transform="translate(0.697 0.033)"><path class="g" d="M611.406,366.814c-.015-.048-.031-.095-.048-.141a1.05,1.05,0,1,0-1.1-.105c-.027.046-.051.092-.076.14a7.921,7.921,0,0,1-2.285-.659.419.419,0,0,0-.149-.017,7.922,7.922,0,0,1-2.378.3c-.016-.048-.033-.094-.05-.14a1.05,1.05,0,1,0-1.1-.085c-.025.047-.049.093-.073.141a7.967,7.967,0,0,1-2.259-.6.143.143,0,0,0-.1-.033,7.926,7.926,0,0,1-2.375-.328c0-.05-.007-.1-.012-.148a1.05,1.05,0,1,0-1.044-.37l-.109.117a8.725,8.725,0,0,1-1.331-.675l-.224.548a5.161,5.161,0,0,0,1.011.835,13.409,13.409,0,0,0-.9,1.568c.765.306,1.543.586,2.331.83a13.507,13.507,0,0,0,.263-1.81,7.242,7.242,0,0,0,2.339-.221,7.327,7.327,0,0,0,2.061,1.113,13.481,13.481,0,0,0-.462,1.776c.449.039.9.062,1.353.062.367,0,.738-.016,1.111-.046a13.1,13.1,0,0,0-.209-1.668,7.217,7.217,0,0,0,2.2-.823,7.316,7.316,0,0,0,2.035,1.149c-.05.136-.1.276-.141.417a8.688,8.688,0,0,0,1.928-1.125C611.538,366.818,611.469,366.816,611.406,366.814Z" transform="translate(-596.691 -348.756)"/><path class="g" d="M603.764,339.854l.342.052c.257.037.554.066.837.128a13.906,13.906,0,0,0-.136-2.014,7.24,7.24,0,0,0,2.233-.719,7.315,7.315,0,0,0,1.979,1.243,19.132,19.132,0,0,0-1.076,4.2.221.221,0,0,0,.19.251l.286.038a.222.222,0,0,0,.244-.172,9.719,9.719,0,0,1,.886-2.251.1.1,0,0,1,.193.027,10.57,10.57,0,0,1,.263,2.407.222.222,0,0,0,.19.227l.289.039a.221.221,0,0,0,.249-.192,19.13,19.13,0,0,0,.063-4.333,7.237,7.237,0,0,0,2.249-.679,9.18,9.18,0,0,0,1.584.577,4.343,4.343,0,0,0-.38-.755,6.846,6.846,0,0,1-1.125-.156.14.14,0,0,0-.1-.013,7.927,7.927,0,0,1-2.393.147c-.013-.049-.027-.1-.041-.143a1.05,1.05,0,1,0-1.1-.157c-.027.044-.054.089-.081.136a7.928,7.928,0,0,1-2.251-.766.139.139,0,0,0-.057-.016.143.143,0,0,0-.091-.008,7.93,7.93,0,0,1-2.39.192c-.014-.048-.027-.1-.043-.143a1.05,1.05,0,1,0-1.1-.136c-.027.045-.054.091-.079.137a7.964,7.964,0,0,1-2.228-.706.142.142,0,0,0-.095-.038,7.927,7.927,0,0,1-2.357-.439c0-.051,0-.1,0-.149a1.049,1.049,0,1,0-.593-2,6.682,6.682,0,0,0-.057.884,4.978,4.978,0,0,0,.569,2.429c.013-.091.026-.183.036-.273a7.247,7.247,0,0,0,2.346-.111,7.33,7.33,0,0,0,2.006,1.21,13.571,13.571,0,0,0-.55,1.773c.376.1.763.18,1.155.247A.1.1,0,0,1,603.764,339.854Z" transform="translate(-597.668 -327.823)"/><path class="g" d="M608.414,318.95a.221.221,0,0,0,.2.247l.286.033a.222.222,0,0,0,.242-.177,9.706,9.706,0,0,1,.844-2.267.1.1,0,0,1,.194.023,10.6,10.6,0,0,1,.307,2.4.222.222,0,0,0,.2.223l.29.033a.221.221,0,0,0,.244-.2,19.15,19.15,0,0,0-.017-4.333,7.232,7.232,0,0,0,2.233-.719,7.323,7.323,0,0,0,1.979,1.243,18.165,18.165,0,0,0-1.012,3.789,1.994,1.994,0,0,1,.865-.188,10.857,10.857,0,0,1,.679-1.535.1.1,0,0,1,.193.027,11.709,11.709,0,0,1,.239,1.6,7.956,7.956,0,0,1,.827.186,17.616,17.616,0,0,0-.01-3.639,7.237,7.237,0,0,0,2.249-.679,7.329,7.329,0,0,0,2.24.685c-.012.087-.022.176-.031.266l.055-.13a.614.614,0,0,0-.3-.8c-.143-.067-.3-.125-.446-.188a7.141,7.141,0,0,1-1.439-.168.143.143,0,0,0-.1-.014,7.922,7.922,0,0,1-2.393.147c-.013-.048-.027-.1-.041-.143a1.047,1.047,0,0,0,.6-.743,20.149,20.149,0,0,0-2.077-.226,1.05,1.05,0,0,0,.375.813c-.027.045-.054.09-.081.136a7.911,7.911,0,0,1-2.251-.766.143.143,0,0,0-.058-.016.14.14,0,0,0-.09-.008,7.764,7.764,0,0,1-2.195.2,10.77,10.77,0,0,0-1.841.639l.046.017A19.138,19.138,0,0,0,608.414,318.95Z" transform="translate(-605.014 -313.712)"/></g></g><g transform="translate(56.615 5.966)"><g transform="translate(0.001 0)"><path class="d" d="M410.2,334.332h-6.816a.348.348,0,0,1-.348-.348V315.8a.357.357,0,0,1,.356-.359c1,0,4.135-.011,5.429-.024.549-.006.774.136.783.719a22.031,22.031,0,0,0,.209,2.4c.032.254.09.733.292.737s.313-.413.4-.646a5.764,5.764,0,0,1,2.911-3.126c3.123-1.548,6.069-.065,6.921,3.3.043.17.077.469.294.469s.307-.308.367-.492a5.535,5.535,0,0,1,3.894-3.645,4.858,4.858,0,0,1,6.173,3.453,10.558,10.558,0,0,1,.539,3.03c.061,4.085.027,7.07.027,11.156,0,.1-.009.775-.018,1.208a.347.347,0,0,1-.348.34H424.74a.346.346,0,0,1-.348-.347c0-1.2.006-5.206.009-7.318a10.675,10.675,0,0,0-.239-3.272,1.4,1.4,0,0,0-1.4-.854,1.509,1.509,0,0,0-1.47.908,7.7,7.7,0,0,0-.213,2c-.03,2.824-.01,4.9-.012,7.719,0,.125-.009.511-.02.816a.347.347,0,0,1-.347.335h-6.571a.347.347,0,0,1-.348-.347v-.913c0-2.846.02-4.857,0-7.7a6.377,6.377,0,0,0-.271-1.969,1.473,1.473,0,0,0-2.685.027,7.022,7.022,0,0,0-.264,1.988c-.025,2.915-.013,5.614-.012,8.587A.349.349,0,0,1,410.2,334.332Z" transform="translate(-403.035 -314.888)"/></g><path class="m" d="M405.64,317.776h-2.591a.354.354,0,0,0-.016.077v.154h2.607Z" transform="translate(-403.033 -316.939)"/><rect class="m" width="2.606" height="0.231" transform="translate(0.001 1.58)"/><rect class="m" width="2.606" height="0.231" transform="translate(0.001 2.322)"/><rect class="m" width="2.606" height="0.231" transform="translate(0.001 3.064)"/><rect class="m" width="3.74" height="0.451" transform="translate(0.001 3.807)"/><rect class="m" width="2.606" height="0.231" transform="translate(0.001 4.815)"/><rect class="m" width="2.606" height="0.231" transform="translate(0.001 5.558)"/><rect class="m" width="2.606" height="0.231" transform="translate(0.001 6.3)"/><rect class="m" width="2.606" height="0.231" transform="translate(0.001 7.042)"/><rect class="m" width="3.74" height="0.451" transform="translate(0.001 7.784)"/><rect class="m" width="2.606" height="0.231" transform="translate(0.001 8.793)"/><rect class="m" width="2.606" height="0.231" transform="translate(0.001 9.535)"/><rect class="m" width="2.606" height="0.231" transform="translate(0.001 10.278)"/><rect class="m" width="2.606" height="0.231" transform="translate(0.001 11.02)"/><rect class="m" width="3.74" height="0.451" transform="translate(0.001 11.762)"/><rect class="m" width="2.606" height="0.231" transform="translate(0.001 12.771)"/><rect class="m" width="2.606" height="0.231" transform="translate(0.001 13.513)"/><rect class="m" width="2.606" height="0.231" transform="translate(0.001 14.256)"/><rect class="m" width="2.606" height="0.231" transform="translate(0.001 14.998)"/><rect class="m" width="3.74" height="0.451" transform="translate(0.001 15.74)"/><rect class="m" width="2.606" height="0.231" transform="translate(0.001 16.749)"/><rect class="m" width="2.606" height="0.231" transform="translate(0.001 17.491)"/><rect class="m" width="2.606" height="0.231" transform="translate(0.001 18.233)"/><path class="m" d="M405.639,380.335h-2.607v.121a.336.336,0,0,0,.022.109h2.584Z" transform="translate(-403.032 -361.36)"/><rect class="m" width="2.043" height="0.618" transform="translate(11.789 17.514)"/><path class="m" d="M453.3,366.974a1.22,1.22,0,0,1-1.259.92v.52h1.183V371.3h.724v-4.325Z" transform="translate(-437.834 -351.872)"/><path class="m" d="M441.424,347.22h.914v-2.2h2.1v-.881h-2.1v-2.175h-.914v2.175h-1.37c.008.154.011.3.012.434,0,.151,0,.3,0,.446h1.355Z" transform="translate(-429.32 -334.115)"/><path class="m" d="M446.185,322.2a1.188,1.188,0,1,0,1.214,1.184,1.2,1.2,0,0,0-1.214-1.184Zm0,1.779a.592.592,0,1,1,.574-.592A.592.592,0,0,1,446.185,323.979Z" transform="translate(-432.851 -320.08)"/><path class="m" d="M437.34,319.325l3.13-4.372a4.364,4.364,0,0,0-.635-.063l-3.188,4.434Z" transform="translate(-426.9 -314.889)"/><path class="m" d="M436.189,317.245a1.208,1.208,0,0,0,1.214-1.191,1.137,1.137,0,0,0-.109-.482,6.008,6.008,0,0,0-.592.2.616.616,0,0,1,.068.28.58.58,0,0,1-1.11.25,6.042,6.042,0,0,0-.5.353A1.212,1.212,0,0,0,436.189,317.245Z" transform="translate(-425.841 -315.373)"/><path class="m" d="M474.242,335.349H475.3c-.272-.366-1.389-1.933-1.661-2.3l1.6-2.214H474.2l-1.088,1.585-1.107-1.585h-1.07l1.623,2.214-.74,1.012a1.114,1.114,0,0,1,.553.645l.7-1.019Z" transform="translate(-451.251 -326.213)"/><path class="m" d="M487.714,326.28h2.908l-1.792,1.651.45.76a1.655,1.655,0,0,1,.535-.093,1.132,1.132,0,0,1,1.238,1.135,1.147,1.147,0,0,1-1.285,1.125,1.313,1.313,0,0,1-1.351-1.313l-.9.206a2.086,2.086,0,0,0,2.261,1.914,2.2,2.2,0,0,0,1.833-.821c-.005-.559-.012-1.134-.021-1.734,0-.2-.016-.406-.034-.609a1.932,1.932,0,0,0-1.45-.635l1.153-1.066q-.094-.365-.208-.72a6.536,6.536,0,0,0-.25-.644h-3.087Z" transform="translate(-463.021 -322.379)"/><path class="m" d="M478.99,365.4a2.161,2.161,0,0,0-1.894-.99,2.656,2.656,0,0,0-.38.029v.849a1.5,1.5,0,0,1,.38-.051,1.276,1.276,0,0,1,.981.4,2.87,2.87,0,0,1,.543,2,3.211,3.211,0,0,1-.42,1.848h1a4.461,4.461,0,0,0,.339-1.848,3.972,3.972,0,0,0-.554-2.237Z" transform="translate(-455.352 -350.054)"/><path class="m" d="M495.948,364.682a1.2,1.2,0,0,1,.6-.686l.417-.267q0-.4,0-.8l-.766.5a2.2,2.2,0,0,0-1.161,1.945h1.92q0-.348,0-.686Z" transform="translate(-468.361 -348.999)"/><path class="m" d="M495.217,355.691a1.762,1.762,0,0,0,.008.2l.739.09c-.008-.076-.015-.15-.015-.217a.9.9,0,0,1,.942-1,1.248,1.248,0,0,1,.2.017v-.65c-.062-.005-.121-.016-.187-.016A1.576,1.576,0,0,0,495.217,355.691Z" transform="translate(-468.489 -342.737)"/><path class="m" d="M422.79,355.55a1.229,1.229,0,0,0,.8,1.146,1.278,1.278,0,0,0-.927,1.207c0,.784.648,1.4,1.772,1.4.017,0,.031,0,.047,0v-.641c-.016,0-.03,0-.047,0-.656,0-1.025-.361-1.025-.822s.377-.837,1.025-.837c.016,0,.03,0,.046,0v-.626c-.016,0-.031,0-.047,0a.828.828,0,0,1-.9-.8.817.817,0,0,1,.9-.784c.018,0,.034,0,.052,0q0-.305,0-.612l-.054,0A1.472,1.472,0,0,0,422.79,355.55Z" transform="translate(-416.971 -342.798)"/></g></svg>