<?xml version="1.0" encoding="utf-8"?>
<!-- Generator: Adobe Illustrator 24.0.2, SVG Export Plug-In . SVG Version: 6.00 Build 0)  -->
<svg version="1.1" id="Layer_1" xmlns="http://www.w3.org/2000/svg" xmlns:xlink="http://www.w3.org/1999/xlink" x="0px" y="0px"
	 viewBox="0 0 1000 302" style="enable-background:new 0 0 1000 302;" xml:space="preserve">
<style type="text/css">
	.st0{fill:#FFA0BA;}
	.st1{opacity:0.5;clip-path:url(#XMLID_2_);fill:#FFFFFF;}
	.st2{opacity:0.5;clip-path:url(#XMLID_2_);}
	.st3{fill:#FFFFFF;}
	.st4{fill:#E00000;}
	.st5{opacity:0.7;clip-path:url(#XMLID_3_);}
	.st6{fill:#008659;}
	.st7{fill:#FF0AAA;}
	.st8{fill:none;stroke:#FFB500;stroke-width:1.786;stroke-miterlimit:10;}
	.st9{fill:#BABCBE;}
	.st10{fill:#FFB500;}
	.st11{fill:#FF6F21;}
	.st12{fill:#6F5DB8;}
	.st13{opacity:0.5;}
	.st14{fill:#6FD3F4;}
</style>
<path class="st0" d="M812.4,229.6c0,0-17,0-16.8,5.4c0.2,4.1,8.4,2.7,8.4,5.9s-17.1,4.5-11.8,9.3c3.9,3.5,26.8-4.1,27.8-8
	s-13.9-4.2-10.8-6.7c3.1-2.5,12.1-3.5,12.1-3.5L812.4,229.6z"/>
<g>
	<defs>
		<path id="XMLID_8_" d="M503.8,232.1h-46.6c-1.3,0-2.4-1.1-2.4-2.4V105.5c0-1.4,1.1-2.4,2.4-2.5c6.8,0,28.3-0.1,37.1-0.2
			c3.8,0,5.3,0.9,5.4,4.9c0.1,5.5,0.7,10.9,1.4,16.4c0.2,1.7,0.6,5,2,5c1.4,0,2.1-2.8,2.7-4.4c3.4-9.3,10.8-16.8,19.9-21.4
			c21.3-10.6,41.5-0.4,47.3,22.6c0.3,1.2,0.5,3.2,2,3.2c1.5,0,2.1-2.1,2.5-3.4c4.1-12.5,13.8-21.3,26.6-24.9
			c19.3-5.4,36,4.4,42.2,23.6c2.1,6.6,3.6,13.8,3.7,20.7c0.4,27.9,0.2,48.3,0.2,76.2c0,0.7-0.1,5.3-0.1,8.3c0,1.3-1.1,2.3-2.4,2.3
			h-44.6c-1.3,0-2.4-1.1-2.4-2.4c0-8.2,0-35.6,0.1-50c0-8.6,0.5-15.2-1.6-22.4c-1.2-3.9-5.5-5.8-9.5-5.8c-4,0-8.6,2-10,6.2
			c-1.2,3.4-1.4,9.4-1.5,13.7c-0.2,19.3-0.1,33.4-0.1,52.7c0,0.9-0.1,3.5-0.1,5.6c0,1.3-1.1,2.3-2.4,2.3h-44.9
			c-1.3,0-2.4-1.1-2.4-2.4c0-2.2,0-5.1,0-6.2c0-19.4,0.1-33.2,0-52.6c0-3.8-0.4-9.3-1.9-13.5c-1.4-3.9-5-5.8-9-5.8
			c-4.2,0-7.9,1.8-9.3,6c-1.3,3.8-1.8,9.6-1.8,13.6c-0.2,19.9-0.1,38.4-0.1,58.7C506.1,231,505.1,232.1,503.8,232.1z"/>
	</defs>
	<use xlink:href="#XMLID_8_"  style="overflow:visible;fill:#FFB500;"/>
	<clipPath id="XMLID_2_">
		<use xlink:href="#XMLID_8_"  style="overflow:visible;"/>
	</clipPath>
	<rect x="453.6" y="104.9" class="st1" width="19" height="1.6"/>
	<rect x="453.6" y="110" class="st1" width="19" height="1.6"/>
	<rect x="453.6" y="115.1" class="st1" width="19" height="1.6"/>
	<rect x="453.6" y="120.1" class="st1" width="19" height="1.6"/>
	<rect x="453.6" y="125.2" class="st1" width="26.7" height="3.1"/>
	<rect x="453.6" y="132.1" class="st1" width="19" height="1.6"/>
	<rect x="453.6" y="137.2" class="st1" width="19" height="1.6"/>
	<rect x="453.6" y="142.3" class="st1" width="19" height="1.6"/>
	<rect x="453.6" y="147.3" class="st1" width="19" height="1.6"/>
	<rect x="453.6" y="152.4" class="st1" width="26.7" height="3.1"/>
	<rect x="453.6" y="159.3" class="st1" width="19" height="1.6"/>
	<rect x="453.6" y="164.4" class="st1" width="19" height="1.6"/>
	<rect x="453.6" y="169.4" class="st1" width="19" height="1.6"/>
	<rect x="453.6" y="174.5" class="st1" width="19" height="1.6"/>
	<rect x="453.6" y="179.6" class="st1" width="26.7" height="3.1"/>
	<rect x="453.6" y="186.5" class="st1" width="19" height="1.6"/>
	<rect x="453.6" y="191.5" class="st1" width="19" height="1.6"/>
	<rect x="453.6" y="196.6" class="st1" width="19" height="1.6"/>
	<rect x="453.6" y="201.7" class="st1" width="19" height="1.6"/>
	<rect x="453.6" y="206.8" class="st1" width="26.7" height="3.1"/>
	<rect x="453.6" y="213.6" class="st1" width="19" height="1.6"/>
	<rect x="453.6" y="218.7" class="st1" width="19" height="1.6"/>
	<rect x="453.6" y="223.8" class="st1" width="19" height="1.6"/>
	<rect x="453.6" y="228.9" class="st1" width="19" height="1.6"/>
	<g class="st2">
		<g>
			<path class="st3" d="M535.4,223.1v-4.2h14v4.2H535.4z"/>
		</g>
		<g>
			<path class="st3" d="M560,235.8v-23.5h-8.1v-3.6c4.6-0.1,7.8-2.7,8.6-6.3h4.4v33.4H560z"/>
		</g>
		<g>
			<path class="st3" d="M537.5,167.7v-14.9h6.2v14.9h14.3v6h-14.3v15h-6.2v-15h-14.2v-6H537.5z"/>
		</g>
		<g>
			<path class="st3" d="M525.5,95.8c4.4,0,8.3,3.6,8.3,8.1c0,4.6-3.9,8.1-8.3,8.1c-4.4,0-8.2-3.6-8.2-8.1
				C517.3,99.3,521.1,95.8,525.5,95.8z M521.4,129.5l24-33.4h4.6l-23.9,33.4H521.4z M525.5,107.9c2.3,0,4-1.7,4-4.1c0-2.3-1.7-4-4-4
				c-2.2,0-4,1.7-4,4C521.5,106.2,523.3,107.9,525.5,107.9z M545.9,113.7c4.4,0,8.3,3.6,8.3,8.1c0,4.6-3.9,8.1-8.3,8.1
				c-4.4,0-8.2-3.6-8.2-8.1C537.7,117.3,541.5,113.7,545.9,113.7z M545.9,125.9c2.3,0,4-1.7,4-4.1c0-2.3-1.7-4-4-4c-2.2,0-4,1.7-4,4
				C541.9,124.2,543.7,125.9,545.9,125.9z"/>
		</g>
		<g>
			<path class="st3" d="M600.4,145.9l-11.1-15.1h7.3l7.6,10.8l7.4-10.8h7.1l-11,15.1c1.9,2.5,9.5,13.2,11.3,15.7h-7.2l-7.9-11.3
				l-7.8,11.3H589L600.4,145.9z"/>
		</g>
		<g>
			<path class="st3" d="M631.2,137.2l12.2-11.3h-19.9v-5.8h28.2v5.6l-11.9,11c6.1,0,12.8,4.1,12.8,12.6c0,7-5.4,13.3-15.1,13.3
				c-9.6,0-15.1-6.3-15.4-13.1l6.2-1.4c0.3,5.5,4.2,9,9.2,9c5.7,0,8.8-3.5,8.8-7.7c0-5.4-4.4-7.8-8.5-7.8c-1.3,0-2.6,0.3-3.7,0.6
				L631.2,137.2z"/>
		</g>
		<g>
			<path class="st3" d="M590.4,204.1c2.7-4.1,7-6.8,12.9-6.8c6,0,10.2,2.7,12.9,6.8c2.8,4.2,3.8,9.5,3.8,15.3s-1,11.1-3.8,15.3
				c-2.7,4.1-7,6.8-12.9,6.8c-6,0-10.2-2.7-12.9-6.8c-2.8-4.2-3.8-9.5-3.8-15.3S587.6,208.3,590.4,204.1z M596.7,233
				c1.6,1.7,3.7,2.7,6.7,2.7c3,0,5.1-1,6.7-2.7c2.5-2.7,3.7-7.2,3.7-13.7s-1.2-11-3.7-13.7c-1.6-1.7-3.7-2.7-6.7-2.7
				c-3,0-5.1,1-6.7,2.7c-2.5,2.7-3.7,7.2-3.7,13.7S594.1,230.4,596.7,233z"/>
		</g>
		<g>
			<path class="st3" d="M637.5,189.1c-0.1-0.5-0.1-0.9-0.1-1.3c0-5.7,4.2-10.8,11.5-10.8c7.2,0,11.3,4.7,11.3,10.3
				c0,4.4-2.5,7.9-6.3,10.3l-6.6,4.2c-1.9,1.2-3.6,2.6-4.1,4.7h17.2v4.7h-23.4c0.1-5.5,2.3-9.6,7.9-13.3l5.6-3.6
				c3.1-2,4.6-4.4,4.6-7c0-3-2.1-5.9-6.3-5.9c-4.4,0-6.4,3-6.4,6.8c0,0.5,0.1,1,0.1,1.5L637.5,189.1z"/>
		</g>
		<g>
			<path class="st3" d="M493.7,202.4c0-4.1,2.8-7.1,6.3-8.2c-3-1.1-5.5-4.1-5.5-7.8c0-5.5,4.8-9.3,11.2-9.3c6.4,0,11.2,3.8,11.2,9.3
				c0,3.6-2.4,6.7-5.5,7.8c3.6,1.1,6.3,4.2,6.3,8.2c0,5.4-4.4,9.6-12.1,9.6C498.1,212,493.7,207.8,493.7,202.4z M512.8,202
				c0-3.2-2.6-5.7-7-5.7c-4.4,0-7,2.5-7,5.7c0,3.1,2.5,5.6,7,5.6C510.3,207.6,512.8,205.1,512.8,202z M512,186.6
				c0-3-2.4-5.4-6.2-5.4c-3.8,0-6.2,2.4-6.2,5.4c0,3.2,2.6,5.4,6.2,5.5C509.4,192,512,189.8,512,186.6z"/>
		</g>
	</g>
</g>
<path class="st4" d="M162.4,183.4c0.9-0.2,1.8,0.4,1.9,1.2c2.7,13.3,5.3,26.4,7.7,39.6c0.2,1.2,0.3,2.9-2.7,4
	c-11.5,4.2-23.6,6.1-35.9,5.6c-6.9-0.3-14-1-20.6-2.8c-18.3-5.2-29.6-19.4-31-39.3c-0.9-13.3-0.6-26.6-0.8-39.9c0-1.9,0-3.8,0-6.3
	H71c-1.7,0-3-1.4-3-3.1c0-11.6,0.1-21.3,0.1-32.6c0-3.2,1.2-4,2.7-4.5c22.2-8,34.9-24.5,41.6-46.7h19.5c1.3,0,2.4,1.1,2.4,2.4v35.6
	H165c1.2,0,2.2,1,2.2,2.2V109v33.6c0,1.4-1.2,2.6-2.6,2.6h-29c0,10.7-0.5,20.7,0.2,30.6c0.4,5.6,5.1,8.7,11.1,9.1
	c2.9,0.2,5.9,0.2,8.7-0.2C157.8,184.6,160,184,162.4,183.4z"/>
<g>
	<defs>
		<path id="XMLID_7_" d="M847.5,184.2c0.9-1.8,2-2.9,3.7-1.7l1.6,1c8.9,5.5,22.1,11.4,33.1,11.4c4.2,0,9.4-2.2,9.4-7.2
			c0-7.2-7.7-7.5-12.9-8.2c-21.4-3-41.3-11.7-41.3-36.5c0-33.1,33.3-46.2,61.6-46.2c15.1,0,33.5,2.7,47.6,9.3c2,1,3,3.4,2.1,5.5
			l-11.7,27.3c-0.9,2.1-3.4,3-5.4,2c-8.5-4.2-17.5-7.3-26.6-7.3c-4,0-9.2,1.2-9.2,6c0,6.5,7,7,15.9,8.5
			c22.9,3.7,41.5,11.7,41.5,38.3c0,34.3-34.1,48.5-63.9,48.5c-19.9,0-39.3-5.9-57.7-13.5c-1.4-0.6-2.1-2.3-1.5-3.7
			C837.4,208.8,847.5,184.2,847.5,184.2z"/>
	</defs>
	<use xlink:href="#XMLID_7_"  style="overflow:visible;fill:#81D8C5;"/>
	<clipPath id="XMLID_3_">
		<use xlink:href="#XMLID_7_"  style="overflow:visible;"/>
	</clipPath>
	<g class="st5">
		<path class="st6" d="M996.9,211.8l-0.2-0.3c-0.3-0.4-0.8-0.5-1.3-0.2c-5.7,3.4-12,5.2-15.3,6c-0.2-0.3-0.4-0.6-0.6-0.8
			c1.8-1.6,2.8-4.1,2.3-6.6c-0.7-3.9-4.4-6.5-8.3-5.8c-3.9,0.7-6.5,4.4-5.8,8.3c0.5,2.5,2.2,4.5,4.4,5.4c-0.1,0.3-0.2,0.7-0.2,1.1
			c-3.3,0.4-9.6,0.9-16-0.2c-0.2-0.1-0.5-0.1-0.7-0.1c-6.4,1.8-12.9,1.9-16.3,1.8c-0.1-0.3-0.2-0.6-0.3-1c2.2-1.1,3.7-3.2,4-5.8
			c0.3-4-2.6-7.4-6.5-7.8c-4-0.3-7.4,2.6-7.8,6.5c-0.2,2.5,0.9,4.9,2.8,6.3c-0.2,0.3-0.3,0.6-0.5,1c-3.4-0.5-9.7-1.6-15.6-4.5
			c-0.1-0.1-0.3-0.1-0.4-0.1c-0.2-0.1-0.4-0.1-0.6,0c-6.3,2-12.9,2.1-16.2,2.1c-0.1-0.3-0.2-0.6-0.3-1c2.1-1.1,3.7-3.3,3.9-5.9
			c0.3-4-2.7-7.4-6.7-7.6c-4-0.3-7.4,2.7-7.6,6.7c-0.2,2.5,1,4.8,2.9,6.3c-0.2,0.3-0.3,0.6-0.5,1c-3.3-0.4-9.6-1.4-15.4-4.1
			c-0.2-0.1-0.4-0.2-0.7-0.2c-6.6,0.2-13-1.3-16.2-2.2c0-0.3-0.1-0.7-0.1-1c2.4-0.5,4.4-2.2,5.3-4.7c1.3-3.7-0.7-7.8-4.5-9.1
			c-3.8-1.3-7.8,0.7-9.1,4.5c-0.8,2.4-0.3,4.9,1.2,6.8c-0.2,0.3-0.5,0.5-0.7,0.8c-3.2-1.3-9-4-14-8.2c-0.4-0.3-0.9-0.3-1.3,0
			l-0.2,0.2c-0.4,0.3-0.4,0.9-0.1,1.3c1.6,2.1,6.9,8.5,11.9,11.5c-6.5,9.6-11.4,22.4-12.9,26.7c-0.3,0.8,0.1,1.7,0.9,1.9l1.9,0.6
			c0.7,0.3,1.5-0.1,1.9-0.8c2.8-6,6.9-11.3,9-13.9c0.4-0.5,1.2-0.2,1.3,0.4c0.1,3.3,0,9.9-1.5,16.5c-0.2,0.8,0.2,1.5,1,1.8l1.9,0.6
			c0.8,0.3,1.7-0.2,1.9-1c1.4-4.3,5.5-17.4,6.3-28.9c5.5,0.8,12.9-0.8,16-1.5c2.5,1.9,8.7,6.2,14.1,7.6c-3.8,10.9-5.1,24.6-5.5,29.1
			c-0.1,0.8,0.6,1.6,1.4,1.6l2,0.1c0.8,0.1,1.5-0.5,1.6-1.3c1.1-6.5,3.7-12.7,5-15.7c0.3-0.6,1.1-0.5,1.3,0.1
			c0.9,3.2,2.6,9.6,2.9,16.3c0,0.8,0.6,1.4,1.4,1.5l2,0.1c0.8,0.1,1.6-0.6,1.6-1.4c0.3-4.5,0.8-18.2-1.5-29.6
			c5.5-0.7,12.2-4.1,15-5.6c2.5,1.9,8.6,6.3,13.9,7.8c-4,10.9-5.6,24.5-6,29c-0.1,0.8,0.5,1.6,1.4,1.7l2,0.2
			c0.8,0.1,1.5-0.5,1.6-1.3c1.2-6.5,3.9-12.6,5.3-15.6c0.3-0.6,1.2-0.5,1.3,0.1c0.9,3.2,2.4,9.6,2.6,16.3c0,0.8,0.6,1.4,1.4,1.5
			l2,0.2c0.8,0.1,1.6-0.6,1.6-1.4c0.3-4.5,1.1-18.2-1-29.6c5.5-0.6,12.3-3.9,15.1-5.4c2.9,1.2,10,3.8,15.5,4
			c-1,11.5,1,25.1,1.8,29.6c0.1,0.8,0.9,1.4,1.8,1.2l1.9-0.4c0.8-0.1,1.3-0.8,1.2-1.6c-0.5-6.6,0.5-13.2,1.1-16.5
			c0.1-0.7,1-0.8,1.3-0.2c1.7,2.9,4.8,8.6,6.7,15.1c0.2,0.7,1,1.2,1.7,1.1l2-0.4c0.8-0.2,1.4-0.9,1.2-1.8
			c-0.9-4.4-3.7-17.9-8.7-28.3c5.5-2.1,11.7-7.7,13.7-9.6C997.2,212.7,997.2,212.2,996.9,211.8z"/>
		<path class="st6" d="M835.2,168.1c-0.1,3.3-0.5,9.9-2.3,16.4c-0.2,0.8,0.2,1.5,0.9,1.8l1.9,0.7c0.8,0.3,1.7-0.1,2-0.9
			c1.6-4.2,6.3-17.1,7.6-28.6c5.4,1,12.9-0.2,16-0.8c2.4,2,8.4,6.6,13.7,8.3c-4.3,10.8-6.3,24.3-6.8,28.8c-0.1,0.8,0.5,1.6,1.3,1.7
			l2,0.2c0.8,0.1,1.5-0.4,1.7-1.2c1.4-6.5,4.3-12.5,5.8-15.5c0.3-0.6,1.2-0.5,1.3,0.2c0.8,3.2,2.1,9.7,2.1,16.4
			c0,0.8,0.6,1.4,1.3,1.5l2,0.2c0.8,0.1,1.6-0.5,1.7-1.3c0.5-4.5,1.6-18.2-0.1-29.6c5.5-0.4,12.4-3.5,15.3-4.9
			c2.4,2,8.3,6.7,13.5,8.5c-4.5,10.7-6.7,24.2-7.4,28.7c-0.1,0.8,0.5,1.6,1.3,1.7l2,0.3c0.8,0.1,1.5-0.4,1.7-1.2
			c1.5-6.5,4.5-12.4,6.1-15.4c0.3-0.6,1.2-0.5,1.3,0.2c0.7,3.2,1.9,9.7,1.8,16.4c0,0.8,0.5,1.4,1.3,1.6l2,0.3
			c0.8,0.1,1.6-0.5,1.7-1.3c0.5-4.5,2-18.1,0.4-29.6c5.5-0.3,12.5-3.3,15.4-4.6c2.8,1.3,9.8,4.3,15.3,4.7
			c-1.5,11.5-0.1,25.1,0.4,29.6c0.1,0.8,0.9,1.4,1.7,1.3l2-0.3c0.8-0.1,1.3-0.8,1.3-1.6c-0.2-6.6,1.1-13.2,1.8-16.4
			c0.1-0.6,1-0.8,1.3-0.2c1.5,2.9,4.4,8.9,6,15.4c0.2,0.8,0.9,1.3,1.7,1.2l2-0.3c0.8-0.1,1.4-0.9,1.3-1.7c-0.6-4.5-2.9-18-7.3-28.7
			c5.6-1.9,12.1-7.2,14.1-8.9c0.4-0.3,0.4-0.9,0.2-1.3l-0.2-0.3c-0.3-0.4-0.8-0.5-1.2-0.3c-5.8,3.2-12.2,4.6-15.5,5.2
			c-0.2-0.3-0.3-0.6-0.5-0.9c1.9-1.5,3-3.9,2.6-6.5c-0.5-3.9-4.1-6.7-8.1-6.2c-3.9,0.5-6.7,4.1-6.2,8.1c0.3,2.5,1.9,4.6,4.1,5.6
			c-0.1,0.3-0.2,0.7-0.3,1c-3.3,0.3-9.7,0.5-15.9-1c-0.2-0.1-0.4-0.2-0.7-0.1c-6.5,1.5-13,1.3-16.3,1c-0.1-0.3-0.2-0.7-0.3-1
			c2.2-1,3.9-3,4.2-5.6c0.5-3.9-2.2-7.5-6.2-8.1c-3.9-0.5-7.5,2.2-8.1,6.2c-0.3,2.5,0.7,4.9,2.5,6.4c-0.2,0.3-0.4,0.6-0.6,0.9
			c-3.3-0.6-9.6-2.1-15.4-5.2c-0.1-0.1-0.3-0.1-0.4-0.1c-0.2-0.1-0.4-0.1-0.6-0.1c-6.4,1.7-13,1.5-16.3,1.3c-0.1-0.3-0.2-0.7-0.3-1
			c2.2-1,3.8-3.1,4.1-5.7c0.5-3.9-2.4-7.5-6.3-8s-7.5,2.4-8,6.3c-0.3,2.5,0.8,4.9,2.6,6.4c-0.2,0.3-0.4,0.6-0.5,0.9
			c-3.3-0.5-9.5-1.9-15.2-4.8c-0.2-0.2-0.4-0.3-0.6-0.3c-6.6-0.1-12.9-1.9-16.1-3c0-0.3,0-0.7,0-1c2.4-0.4,4.5-2,5.5-4.4
			c1.5-3.7-0.3-7.9-4-9.3c-3.7-1.5-7.9,0.3-9.3,4c-0.9,2.4-0.5,4.9,0.9,6.8c-0.3,0.3-0.5,0.5-0.8,0.8c-3.1-1.4-8.8-4.4-13.6-8.8
			c-0.4-0.3-0.9-0.4-1.3,0l-0.2,0.2c-0.4,0.3-0.5,0.9-0.2,1.3c1.5,2.2,6.4,8.8,11.4,12c-6.9,9.3-12.4,21.9-14.1,26.1
			c-0.3,0.8,0.1,1.7,0.8,2l1.8,0.7c0.7,0.3,1.6,0,1.9-0.7c3-5.9,7.4-11,9.6-13.4C834.4,167.1,835.2,167.5,835.2,168.1z"/>
		<path class="st6" d="M828.7,106.9c-0.1,3.3-0.5,9.9-2.3,16.4c-0.2,0.8,0.2,1.5,0.9,1.8l1.9,0.7c0.8,0.3,1.7-0.1,2-0.9
			c1.6-4.2,6.3-17.1,7.6-28.6c5.4,1,12.9-0.2,16-0.8c2.4,2,8.4,6.6,13.7,8.3c-4.3,10.8-6.3,24.3-6.8,28.8c-0.1,0.8,0.5,1.6,1.3,1.7
			l2,0.2c0.8,0.1,1.5-0.4,1.7-1.2c1.4-6.5,4.3-12.5,5.8-15.5c0.3-0.6,1.2-0.5,1.3,0.2c0.8,3.2,2.1,9.7,2.1,16.4
			c0,0.8,0.6,1.4,1.3,1.5l2,0.2c0.8,0.1,1.6-0.5,1.7-1.3c0.5-4.5,1.6-18.2-0.1-29.6c5.5-0.4,12.4-3.5,15.3-4.9
			c2.4,2,8.3,6.7,13.5,8.5c-4.5,10.7-6.7,24.2-7.4,28.7c-0.1,0.8,0.5,1.6,1.3,1.7l2,0.3c0.8,0.1,1.5-0.4,1.7-1.2
			c1.5-6.5,4.5-12.4,6.1-15.4c0.3-0.6,1.2-0.5,1.3,0.2c0.7,3.2,1.9,9.7,1.8,16.4c0,0.8,0.5,1.4,1.3,1.6l2,0.3
			c0.8,0.1,1.6-0.5,1.7-1.3c0.5-4.5,2-18.1,0.4-29.6c5.5-0.3,12.5-3.3,15.4-4.6c2.8,1.3,9.8,4.3,15.3,4.7
			c-1.5,11.5-0.1,25.1,0.4,29.6c0.1,0.8,0.9,1.4,1.7,1.3l2-0.3c0.8-0.1,1.3-0.8,1.3-1.6c-0.2-6.6,1.1-13.2,1.8-16.4
			c0.1-0.6,1-0.8,1.3-0.2c1.5,2.9,4.4,8.9,6,15.4c0.2,0.8,0.9,1.3,1.7,1.2l2-0.3c0.8-0.1,1.4-0.9,1.3-1.7c-0.6-4.5-2.9-18-7.3-28.7
			c5.6-1.9,12.1-7.2,14.1-8.9c0.4-0.3,0.4-0.9,0.2-1.3l-0.2-0.3c-0.3-0.4-0.8-0.5-1.2-0.3c-5.8,3.2-12.2,4.6-15.5,5.2
			c-0.2-0.3-0.3-0.6-0.5-0.9c1.9-1.5,3-3.9,2.6-6.5c-0.5-3.9-4.1-6.7-8.1-6.2c-3.9,0.5-6.7,4.1-6.2,8.1c0.3,2.5,1.9,4.6,4.1,5.6
			c-0.1,0.3-0.2,0.7-0.3,1c-3.3,0.3-9.7,0.5-15.9-1c-0.2-0.1-0.4-0.2-0.7-0.1c-6.5,1.5-13,1.3-16.3,1c-0.1-0.3-0.2-0.7-0.3-1
			c2.2-1,3.9-3,4.2-5.6c0.5-3.9-2.2-7.5-6.2-8.1c-3.9-0.5-7.5,2.2-8.1,6.2c-0.3,2.5,0.7,4.9,2.5,6.4c-0.2,0.3-0.4,0.6-0.6,0.9
			c-3.3-0.6-9.6-2.1-15.4-5.2c-0.1-0.1-0.3-0.1-0.4-0.1c-0.2-0.1-0.4-0.1-0.6-0.1c-6.4,1.7-13,1.5-16.3,1.3c-0.1-0.3-0.2-0.7-0.3-1
			c2.2-1,3.8-3.1,4.1-5.7c0.5-3.9-2.4-7.5-6.3-8c-3.9-0.5-7.5,2.4-8,6.3c-0.3,2.5,0.8,4.9,2.6,6.4c-0.2,0.3-0.4,0.6-0.5,0.9
			c-3.3-0.5-9.5-1.9-15.2-4.8c-0.2-0.2-0.4-0.3-0.6-0.3c-6.6-0.1-12.9-1.9-16.1-3c0-0.3,0-0.7,0-1c2.4-0.4,4.5-2,5.5-4.4
			c1.5-3.7-0.3-7.9-4-9.3c-3.7-1.5-7.9,0.3-9.3,4c-0.9,2.4-0.5,4.9,0.9,6.8c-0.3,0.3-0.5,0.5-0.8,0.8c-3.1-1.4-8.8-4.4-13.6-8.8
			c-0.4-0.3-0.9-0.4-1.3,0l-0.2,0.2c-0.4,0.3-0.5,0.9-0.2,1.3c1.5,2.2,6.4,8.8,11.4,12c-6.9,9.3-12.4,21.9-14.1,26.1
			c-0.3,0.8,0.1,1.7,0.8,2l1.8,0.7c0.7,0.3,1.6,0,1.9-0.7c3-5.9,7.4-11,9.6-13.4C827.9,105.9,828.7,106.2,828.7,106.9z"/>
	</g>
</g>
<path class="st0" d="M701.8,211.5l-24.6-15.6l-10.3,16.3c-2.9,4.5-2,8.5,1,10.4l13.7,8.7c3,1.9,7,1,10-3.4L701.8,211.5z"/>
<polygon class="st7" points="700.8,213 676.1,197.4 742,92.3 766.6,107.9 "/>
<line class="st8" x1="684" y1="198.3" x2="745.9" y2="99.2"/>
<line class="st8" x1="695.9" y1="205.5" x2="758.7" y2="107"/>
<polygon class="st9" points="703.5,208.8 678.8,193.2 672.9,202.6 697.5,218.3 "/>
<path class="st10" d="M760.5,78.1L742,92.3l2.9,8.9l9.5-1l2.9,8.9l9.4-1.1l4.3-23.1c-1.9-0.6-3.7-1.4-5.4-2.5
	C763.6,81.2,761.9,79.7,760.5,78.1z"/>
<path class="st11" d="M760.5,78.1c1.4,1.6,3.1,3.1,5,4.3c1.7,1.1,3.5,1.9,5.4,2.5l2.1-11.4c0.4-2.1-2-3.5-3.6-2.2L760.5,78.1z"/>
<path class="st11" d="M786.9,200.9l13.1-6.7c8.7,3.6,13.9,13,13,23.1c-0.2,2.3,0.1,4.2,0.7,5.9c-1.1-1.9-2.2-4.7-3.3-8.7
	c0,0-3.1,4.4-0.4,9.3c0,0-5.2-2.1-7.6-7.7c0,0-1.1,5.3,0.8,8.8c0,0-2.8,0.4-5-1.7c0,0,1.9,5.1,8.6,9.5
	C785.9,229,786.9,200.9,786.9,200.9z"/>
<path class="st10" d="M798.3,223.3c2.2,2.1,5,1.7,5,1.7c-2-3.6-0.8-8.8-0.8-8.8c2.5,5.7,7.6,7.7,7.6,7.7c-2.7-5,0.4-9.3,0.4-9.3
	c1.1,4,2.2,6.8,3.3,8.7c2.1,6,7.6,8.7,7.6,8.7c-5.7,1.4-10.5,1.5-14.4,0.8C800.2,228.4,798.3,223.3,798.3,223.3z"/>
<polygon class="st9" points="797.3,177.5 805.2,191.7 778.7,205.6 771.6,190.7 "/>
<polygon class="st9" points="770.3,188.1 768.1,183.4 793.4,170.5 795.9,175 "/>
<path class="st7" d="M768.3,183.6L719,80.5c-2.4-5.1-0.3-11.3,4.7-13.9c5.1-2.6,11.2-0.7,14,4.2l55.7,99.9L768.3,183.6z"/>
<g>
	<path class="st12" d="M818.1,174c0,0-4,11.8-15.5,11.8c-11.5,0-30.6-25.8-42.9-25.8c-4.9,0-9.2,1.9-12.7,4.1
		c-2.4,1.6-5.5,1.6-7.9,0c-3.4-2.2-7.8-4.1-12.7-4.1c-12.3,0-31.3,25.8-42.9,25.8c-11.5,0-15.5-11.8-15.5-11.8s-4.3,13.5,7.8,24.6
		c12.6,11.6,52.7,9.3,67.2-7.5l0-0.2l0,0.2c14.5,16.8,54.6,19.1,67.2,7.5C822.4,187.6,818.1,174,818.1,174z"/>
</g>
<g class="st13">
	<polygon class="st12" points="741.9,147.3 747,139.2 732.2,107.9 727.1,116.1 	"/>
</g>
<g>
	<g>
		<path class="st12" d="M228.9,119.6c16.7,0,28.7-15.5,24.1-31.2c-2.6-9-9.2-13.4-17.7-15.3c-14.6-3.3-34.7,8.9-29.3,30.4
			C208.3,112.9,217.6,119.6,228.9,119.6z"/>
	</g>
	<g>
		<path class="st12" d="M265.1,191.8c-0.5,0-1,0.3-1.3,0.7c-4.6,8.1-8.9,12.3-13.3,13.5c-3.4,0.9-6.8-0.1-6.5-5.7l4.9-65
			c0-1.3-1-2.3-2.3-2.3h-42.3c-1.3,0-2.3,1-2.3,2.3l-6.3,63.4c-0.1,0.8-0.1,1.6-0.1,2.4c0,13.1,7.7,24.4,18.9,29.6
			c4.2,2,8.9,3.1,13.9,3.1c21.5,0,40-21.9,43.4-40.2c0.2-0.8-0.5-1.6-1.3-1.7C268.9,192,266.4,191.8,265.1,191.8z"/>
	</g>
</g>
<path class="st14" d="M413.1,127.8c0.4,1,0,2.2-1,2.7c-2.8,1.5-5.3,2.8-7.8,4.1c-10.2,5.2-20.5,10.3-30.7,15.6
	c-1.7,0.9-2.8,1.1-4.4-0.5c-5.5-5.3-12.2-6.9-19.4-4.3c-7.1,2.5-11.6,7.6-13.2,15c-2.1,9.3,1.3,16.7,7.9,22.9
	c5.9,5.5,15.7,6.1,24.3,1.9c6.9-3.4,10.1-9.8,9.5-18.7c-0.1-0.8,0.7-2.2,1.4-2.5c12.4-5.6,24.9-11.1,37.4-16.6c2.3-1,3.2,0.4,3.9,2
	c2.1,5.3,3.2,10.2,3.2,15.3c0.1,30.7-16.1,51.2-42.8,63.3c-31.3,14.2-67,1.7-82.3-27.9c-11.4-21.9-10.4-44.1,0.9-65.8
	c8.4-16.1,21.3-27.6,38.4-33.8c12.5-4.5,25.4-4.3,38.3-1.3c15,3.5,26.7,11.7,34.7,24.9C412,125.2,412.5,126.5,413.1,127.8z"/>
<circle class="st12" cx="299.5" cy="98.6" r="7.4"/>
<circle class="st12" cx="289.4" cy="210.1" r="7.4"/>
<circle class="st12" cx="433.1" cy="193.8" r="7.4"/>
<path class="st12" d="M387.7,143.4c2.3,4.6,4.5,9.3,6.6,14c0.7-0.3,1.5-0.7,2.2-1c-2-4.8-4.2-9.5-6.5-14.2c-0.1-0.1-0.1-0.2-0.2-0.3
	c-0.8,0.4-1.5,0.8-2.3,1.2C387.6,143.2,387.7,143.3,387.7,143.4z"/>
<path class="st12" d="M301.7,127.8c-1.6-8.8-2.5-17.8-1.6-26.6c0.5-4.4,1.4-8.8,3.3-12.7c1.8-4,4.7-7.5,8.5-9.5
	c3.9-1.9,8.4-2.2,12.7-1.3c4.3,0.8,8.4,2.6,12.2,4.8c6.8,3.9,12.9,9,18.4,14.6c0.9,0,1.9-0.1,2.8-0.1c-6.1-6.1-12.7-11.8-20.3-16.1
	c-4-2.2-8.2-4.1-12.8-4.9c-4.5-0.9-9.5-0.5-13.7,1.6c-4.2,2.2-7.4,6-9.3,10.2c-2,4.2-3,8.7-3.5,13.3c-1,9.1-0.2,18.2,1.4,27.1
	c0.3,1.5,0.6,3,0.9,4.5c0.5-0.9,1-1.7,1.5-2.5C302,129.3,301.9,128.6,301.7,127.8z"/>
<path class="st12" d="M407.5,209.8c0.1,3.5,0.1,7.1-0.3,10.6c-0.5,4.4-1.4,8.8-3.3,12.7c-1.8,4-4.7,7.4-8.4,9.4
	c-3.8,1.9-8.3,2.2-12.6,1.3c-4.3-0.8-8.4-2.6-12.2-4.8c-3-1.7-5.8-3.6-8.5-5.7c-0.9,0.1-1.9,0.2-2.8,0.3c3.3,2.6,6.7,5,10.4,7.1
	c4,2.2,8.2,4.1,12.8,4.9c4.5,0.9,9.5,0.6,13.7-1.6c4.2-2.2,7.4-6,9.3-10.2c2-4.2,3-8.8,3.5-13.3c0.5-4.3,0.5-8.7,0.3-13
	C408.9,208.3,408.2,209.1,407.5,209.8z"/>
<path class="st12" d="M350.1,222.2c-12.3-13-22.2-28.1-30.4-44c-7.8-15.2-14-31.4-17.5-48.1c-0.5,0.8-1,1.7-1.5,2.5
	c3.4,16.2,9.4,31.8,16.9,46.6c8.3,16,18.4,31.3,31,44.4c3.4,3.5,7,6.9,10.8,9.9c0.9-0.1,1.9-0.2,2.8-0.3
	C357.9,230,353.8,226.2,350.1,222.2z"/>
<path class="st12" d="M322.5,234.4c-4.2,1.3-8.6,2.2-13,2.1c-4.4,0-8.7-1.3-12.1-4c-3.3-2.8-5.5-6.8-6.4-11.1c-1-4.3-1-8.8-0.5-13.2
	c0.7-6.2,2.2-12.3,4.2-18.3c-0.3-0.9-0.6-1.8-0.9-2.7c-2.4,6.7-4.3,13.7-5,20.8c-0.4,4.5-0.4,9.2,0.6,13.7c1,4.5,3.3,8.9,7,11.9
	c3.7,3,8.5,4.3,13.1,4.3c4.6,0.1,9.2-0.9,13.5-2.2c4.2-1.4,8.3-3.1,12.2-5.1c-0.7-0.2-1.3-0.4-2-0.7
	C329.7,231.8,326.1,233.3,322.5,234.4z"/>
<path class="st12" d="M388.3,87.9c4.2-1.3,8.6-2.2,13-2.1c4.4,0,8.7,1.3,12,3.9c3.3,2.7,5.4,6.7,6.4,11c1,4.3,1,8.7,0.6,13.2
	c-0.9,8.9-3.6,17.5-6.9,25.8c-1.6,4-3.5,7.9-5.4,11.8c0.7-0.3,1.5-0.7,2.2-1c1.7-3.3,3.3-6.7,4.7-10.2c3.5-8.4,6.2-17.1,7.2-26.2
	c0.5-4.5,0.5-9.2-0.6-13.7c-1-4.5-3.3-8.9-6.9-12c-3.7-3-8.5-4.3-13.2-4.4c-4.7-0.1-9.2,0.9-13.6,2.2c-8.1,2.6-15.5,6.6-22.5,11.2
	c1,0.1,2,0.2,3,0.3C374.5,93.7,381.2,90.2,388.3,87.9z"/>
<path class="st12" d="M386.5,186.4c9-11.1,17.1-23.1,23.6-36c-0.7,0.3-1.5,0.7-2.2,1c-6.2,12.1-13.9,23.5-22.4,34.1
	c-11.4,13.9-24.3,26.6-39.2,36.8c-4.2,2.9-8.6,5.5-13.2,7.8c0.7,0.2,1.3,0.5,2,0.7c4.2-2.2,8.1-4.6,12-7.2
	C362.1,213.3,375.1,200.4,386.5,186.4z"/>
<path class="st12" d="M445.4,164.6c-2.1-4.1-5.2-7.7-8.5-10.9c-6.6-6.4-14.4-11.3-22.5-15.5c-2.9-1.5-5.9-2.9-8.9-4.2
	c-0.4,0.2-0.8,0.4-1.2,0.6c-0.4,0.2-0.8,0.4-1.3,0.6c3.5,1.5,7,3,10.5,4.8c8,4.1,15.7,8.8,22.2,15c3.2,3.1,6.2,6.5,8.2,10.4
	c2.1,3.8,3.1,8.3,2.4,12.6c-0.8,4.3-3.3,8.1-6.7,10.9c-3.3,2.9-7.3,5.1-11.4,6.8c-4.2,1.8-8.6,3.1-13.1,4.1
	c-0.4,0.6-0.7,1.2-1.1,1.8c5.1-1,10-2.5,14.9-4.5c4.2-1.8,8.3-4,11.8-7.1c3.5-3,6.3-7.1,7.2-11.8
	C448.7,173.5,447.6,168.7,445.4,164.6z"/>
<path class="st12" d="M274.9,167.3c-3.2-3.1-6.1-6.5-8.2-10.4c-2.1-3.9-3.1-8.3-2.3-12.6c0.8-4.2,3.4-8,6.7-10.9
	c3.3-2.9,7.3-5,11.4-6.7c8.3-3.4,17.2-5.1,26.1-6c0.1,0,0.2,0,0.3,0c0.7-0.8,1.3-1.5,2-2.3c-0.9,0.1-1.7,0.1-2.6,0.2
	c-9,1-18.1,2.8-26.6,6.4c-4.2,1.8-8.3,4-11.8,7.1c-3.5,3-6.3,7.2-7.2,11.9c-0.8,4.7,0.3,9.6,2.5,13.6c2.2,4.1,5.2,7.7,8.5,10.8
	c5.5,5.2,11.8,9.5,18.5,13.1c-0.1-0.7-0.3-1.4-0.4-2C285.8,176.1,280,172.1,274.9,167.3z"/>
<path class="st12" d="M402.1,201.8c-17.9,1.9-36.1,0.5-53.8-2.7c-17.7-3.3-35.2-8.6-51.2-16.8c-1.8-0.9-3.5-1.9-5.2-2.8
	c0.1,0.7,0.3,1.4,0.4,2c1.4,0.8,2.7,1.5,4.1,2.2c16.2,8.2,33.8,13.5,51.7,16.8c17.8,3.2,36.1,4.6,54.3,2.7c3.9-0.4,7.8-1,11.7-1.8
	c0.4-0.6,0.8-1.2,1.1-1.8C410.9,200.7,406.5,201.3,402.1,201.8z"/>
</svg>
